<?xml version="1.0" standalone="no"?>
<!DOCTYPE svg PUBLIC "-//W3C//DTD SVG 20010904//EN"
 "http://www.w3.org/TR/2001/REC-SVG-20010904/DTD/svg10.dtd">
<svg version="1.0" xmlns="http://www.w3.org/2000/svg"
 width="1200.000000pt" height="800.000000pt" viewBox="0 0 1200.000000 800.000000"
 preserveAspectRatio="xMidYMid meet">
<metadata>
Created by potrace 1.16, written by Peter Selinger 2001-2019
</metadata>
<g transform="translate(0.000000,800.000000) scale(0.100000,-0.100000)"
fill="#000000" stroke="none">
<path d="M0 4704 l0 -3297 83 7 c45 3 94 9 110 12 15 4 27 2 27 -4 0 -12 -44
-21 -143 -29 l-77 -6 0 -481 1 -481 38 -42 c21 -24 43 -43 47 -43 5 0 20 -6
34 -13 14 -7 51 -14 83 -15 46 -3 57 0 57 12 0 9 5 16 10 16 6 0 15 11 20 25
9 25 35 43 46 32 3 -2 -4 -20 -15 -38 -12 -19 -21 -37 -21 -40 0 -3 22 -20 49
-36 48 -30 49 -32 48 -79 0 -30 8 -68 21 -98 12 -27 22 -61 22 -77 l0 -29
3178 0 3177 1 -67 35 c-37 20 -70 45 -73 55 -4 12 13 57 45 123 60 122 70 129
220 146 52 6 135 18 184 26 49 8 107 14 128 14 27 0 38 4 38 15 0 9 20 58 44
110 52 110 59 115 194 134 45 6 119 16 165 23 45 7 118 12 162 12 86 0 71 5
335 -116 75 -35 100 -54 100 -79 0 -27 -60 -161 -87 -193 -19 -23 -22 -31 -11
-38 10 -7 8 -8 -5 -4 -28 9 -423 -47 -459 -65 -15 -8 -75 -123 -92 -177 l-7
-22 469 0 c367 0 471 3 475 13 4 9 6 9 6 0 1 -10 352 -13 1721 -13 l1720 0 0
1034 c0 818 -3 1035 -12 1039 -10 4 -10 6 0 6 9 1 12 70 12 311 0 262 -2 310
-14 310 -15 0 -56 50 -56 69 0 5 11 22 25 36 20 19 22 25 10 25 -9 0 -26 -5
-38 -12 -27 -14 -247 -20 -302 -8 -31 7 -42 6 -51 -5 -8 -11 -27 -13 -82 -8
-40 3 -72 10 -72 15 0 5 -5 6 -12 2 -15 -10 -92 -6 -123 6 -12 5 -94 12 -181
15 -88 4 -164 11 -170 16 -7 5 -70 6 -155 1 -79 -5 -164 -9 -188 -9 -24 -1
-48 -6 -53 -11 -6 -6 -21 -7 -39 -2 -17 5 -31 5 -34 -1 -4 -5 -15 -9 -25 -9
-10 0 -20 -5 -22 -11 -5 -14 -98 -20 -114 -8 -16 13 -119 -22 -136 -46 -4 -5
-22 -11 -40 -12 -18 -1 -46 -4 -61 -8 -24 -6 -29 -4 -34 15 -5 19 -10 21 -43
16 -27 -4 -41 -2 -50 9 -26 31 20 47 63 22 16 -11 46 -12 117 -8 l95 6 0 33
c0 26 5 34 23 39 12 3 35 0 50 -6 35 -13 99 0 93 20 -2 8 -4 23 -5 34 -1 19 2
21 57 24 15 1 17 6 12 32 -6 25 -3 34 14 45 45 32 12 69 -34 38 -21 -14 -31
-15 -51 -5 -17 8 -31 8 -44 1 -28 -15 -39 -12 -64 15 -22 24 -24 24 -40 6 -13
-15 -24 -17 -56 -11 -42 8 -49 3 -27 -19 10 -10 6 -18 -18 -38 -16 -15 -30
-29 -30 -32 0 -3 -5 -14 -11 -25 -9 -15 -15 -16 -33 -7 -11 7 -21 18 -21 26 0
8 -9 15 -20 15 -11 0 -20 -6 -20 -14 0 -23 -23 -35 -48 -25 -14 5 -22 15 -20
26 4 21 -30 19 -47 -3 -5 -7 -19 -12 -30 -9 -11 2 -24 4 -28 4 -5 1 -5 10 -2
21 3 11 2 20 -3 20 -5 0 -15 13 -22 30 -7 16 -16 27 -21 24 -5 -3 -4 -14 2
-25 21 -40 6 -49 -85 -49 -65 0 -85 -3 -90 -15 -9 -25 -42 -17 -55 13 -7 15
-15 50 -18 77 -4 42 -1 55 18 79 27 34 75 56 124 56 29 0 39 -6 57 -35 31 -47
50 -48 70 -3 20 44 32 47 54 13 9 -14 23 -25 30 -25 8 0 14 -5 14 -11 0 -7 9
0 20 14 11 14 20 30 20 35 0 29 114 19 140 -13 7 -8 22 -13 34 -10 78 16 357
39 451 37 50 -1 155 -12 174 -18 21 -7 -16 -44 -44 -44 -13 0 -25 -8 -27 -18
-3 -9 -27 -28 -54 -42 -69 -35 -104 -62 -104 -78 0 -7 -10 -22 -22 -31 -26
-22 -19 -58 10 -46 9 4 30 10 45 13 20 3 26 9 23 19 -6 15 15 43 33 43 6 0 11
12 11 26 0 24 3 26 40 22 28 -2 40 0 40 9 0 8 14 16 30 20 17 3 43 19 59 35
29 30 51 31 51 2 0 -8 -7 -14 -15 -14 -9 0 -20 -11 -25 -25 -10 -26 -45 -45
-84 -45 -24 0 -64 -35 -53 -47 11 -11 -14 -33 -38 -33 -12 0 -25 -3 -28 -7
-13 -13 16 -33 49 -33 31 0 34 3 34 30 0 25 4 30 24 30 14 0 37 11 51 24 15
14 44 27 73 31 26 4 66 15 90 25 41 18 72 18 72 -1 0 -5 -10 -13 -23 -18 -13
-5 -29 -17 -37 -27 -14 -16 -13 -17 15 -9 17 5 51 7 78 6 27 -1 47 2 47 8 0 6
9 11 20 11 23 0 27 -18 5 -26 -36 -14 -9 -24 64 -24 59 0 80 -4 84 -14 3 -8
14 -12 25 -9 10 2 46 -1 78 -8 69 -14 113 -14 128 1 15 15 46 12 46 -4 0 -16
24 -28 36 -17 5 4 28 14 51 21 38 12 45 11 61 -3 25 -22 39 -21 52 4 7 11 14
18 17 15 4 -3 13 0 21 6 12 10 20 6 44 -22 21 -25 32 -31 35 -21 10 26 43 51
71 52 43 2 67 -2 70 -12 6 -14 30 16 38 45 l6 26 -57 -6 -57 -7 7 34 c14 68
75 83 75 18 0 -21 5 -29 18 -29 13 0 14 2 3 9 -9 6 -10 11 -2 15 8 5 11 682
11 2477 l0 2469 -1355 0 -1354 0 -31 -30 c-38 -38 -51 -38 -79 0 l-22 30 -875
0 c-585 -1 -883 -5 -899 -12 -29 -13 -23 -41 19 -86 l31 -34 -30 13 c-16 7
-34 16 -39 21 -6 4 -24 8 -40 8 -33 1 -91 43 -81 60 16 26 -47 30 -424 30
-368 0 -391 -1 -391 -18 0 -26 -28 -62 -49 -62 -19 0 -54 34 -64 63 -6 16
-166 17 -3162 17 l-3155 0 0 -3296z m7594 3220 c22 -8 21 -77 -1 -110 -23 -36
-58 -47 -99 -32 -19 6 -36 19 -38 27 -17 63 -16 69 12 87 22 15 50 24 104 33
3 0 13 -2 22 -5z m-849 -214 c6 0 11 -19 11 -42 1 -36 0 -39 -11 -25 -11 15
-14 15 -25 3 -6 -9 -8 -21 -4 -28 6 -10 5 -11 -7 -1 -13 11 -15 9 -15 -10 1
-15 -4 -21 -16 -19 -9 1 -22 -6 -30 -15 -7 -10 -24 -23 -38 -29 -21 -9 -19
-11 24 -10 48 1 49 0 51 -29 1 -16 5 -39 10 -50 4 -11 -4 -4 -18 15 -43 58
-47 60 -71 54 -14 -3 -38 1 -55 11 -18 9 -40 14 -49 11 -9 -3 -23 -2 -31 3
-18 12 24 41 59 41 l25 -1 -23 -13 -24 -13 32 -13 c29 -12 34 -12 46 5 21 29
18 48 -7 40 -18 -6 -19 -5 -8 14 15 23 3 43 -12 21 -9 -12 -10 -12 -5 3 4 14
-1 17 -27 18 -28 1 -26 2 13 10 72 14 150 41 150 52 0 5 10 7 23 3 12 -3 27
-6 32 -6z m403 -11 c-28 -11 -58 -71 -38 -77 14 -5 12 -32 -2 -29 -7 1 -13 -5
-13 -13 0 -8 -15 -24 -34 -36 -38 -24 -37 -24 38 -53 l53 -20 -5 21 c-6 20 -6
20 14 -1 11 -11 24 -21 30 -21 20 0 98 46 99 58 0 14 9 15 28 3 10 -6 6 -13
-15 -26 -15 -11 -36 -20 -46 -20 -10 -1 -30 -11 -46 -23 -16 -11 -32 -17 -37
-13 -18 16 -141 44 -204 46 -73 3 -91 20 -29 28 51 7 60 19 54 77 l-4 45 11
-47 c5 -27 14 -48 19 -48 12 0 59 45 59 57 0 5 -22 21 -50 34 -27 13 -49 29
-50 35 0 11 97 30 160 32 34 0 34 0 8 -9z m572 -159 c-8 -28 -7 -30 18 -31
l27 -1 -27 -10 c-18 -6 -28 -17 -28 -30 0 -19 2 -20 18 -6 34 30 46 30 19 1
-25 -27 -26 -31 -12 -43 8 -7 13 -15 10 -18 -2 -3 -11 0 -19 7 -17 14 -99 24
-90 10 3 -5 14 -7 25 -4 23 8 24 -3 5 -31 -11 -16 -26 -21 -65 -22 -28 0 -51
3 -51 9 0 5 -7 9 -15 9 -18 0 -20 21 -2 39 10 11 9 13 -4 8 -9 -3 -22 -1 -30
4 -10 6 -5 9 17 9 36 0 43 12 45 73 1 28 3 34 6 17 8 -44 18 -49 76 -36 48 11
52 14 55 44 2 19 9 32 17 32 10 0 12 -7 5 -30z m-1844 -42 c-20 -16 -36 -34
-36 -39 0 -16 31 -23 40 -10 5 10 18 10 51 3 l44 -10 -37 -2 c-21 -1 -41 -3
-46 -4 -10 -1 -67 -46 -58 -46 3 0 -3 -9 -15 -21 -29 -29 -52 -87 -45 -115 3
-12 2 -26 -4 -29 -5 -3 -10 -2 -10 4 0 5 -35 11 -77 13 -70 3 -79 1 -105 -22
-15 -13 -28 -32 -28 -42 0 -10 -6 -18 -13 -18 -7 0 -23 -10 -37 -23 -14 -13
-38 -32 -53 -41 -15 -10 -27 -23 -27 -30 0 -6 5 -4 10 4 9 13 10 13 10 -1 0
-12 -10 -15 -42 -13 -58 2 -58 2 -52 19 4 8 11 12 17 8 6 -3 7 -1 3 5 -4 7 -2
12 5 12 7 0 9 3 6 6 -4 4 -13 2 -21 -5 -8 -6 -18 -10 -22 -9 -12 4 -47 -33
-81 -83 -43 -64 -45 -67 -90 -115 -24 -24 -43 -53 -43 -64 0 -11 -5 -20 -11
-20 -6 0 -8 9 -4 23 5 17 -2 12 -29 -18 -19 -22 -35 -46 -36 -53 0 -7 -8 -15
-17 -19 -10 -3 -28 -15 -40 -26 -13 -11 -23 -19 -24 -16 -8 43 -4 57 29 87 19
17 38 32 43 32 16 0 32 41 20 53 -8 8 -11 6 -11 -6 0 -9 -4 -17 -10 -17 -5 0
-10 6 -10 14 0 15 27 30 46 27 7 -1 14 6 18 14 3 9 2 13 -4 10 -6 -3 -10 -2
-10 4 0 11 19 24 39 28 7 1 19 7 25 13 8 8 6 9 -8 4 -14 -5 -17 -3 -14 7 3 8
12 13 21 13 9 -1 14 2 11 7 -3 5 2 9 10 9 9 0 15 3 15 8 -6 34 15 44 24 11 3
-12 0 -22 -8 -26 -8 -2 -17 -15 -21 -26 -3 -12 -16 -33 -28 -47 l-21 -25 28
24 c15 14 27 31 27 38 0 8 4 11 10 8 11 -7 60 41 60 59 0 6 9 17 20 24 11 7
20 17 20 22 0 6 13 23 29 38 66 62 90 82 98 82 4 0 22 14 40 30 18 17 40 30
51 30 10 0 41 11 67 25 27 13 51 22 54 20 2 -3 -1 -5 -7 -5 -26 0 -10 -28 19
-34 45 -9 109 -8 109 2 0 31 -85 81 -104 62 -15 -15 -29 -12 -22 5 7 19 -3 19
-28 0 -19 -14 -36 -12 -36 6 0 5 5 9 12 9 6 0 18 7 27 15 17 16 120 85 127 85
13 0 1 -31 -16 -40 -11 -6 -20 -16 -20 -22 0 -16 73 -2 86 17 8 11 13 12 16 4
3 -8 8 -8 18 3 8 8 23 19 34 25 12 7 15 13 7 17 -6 4 -11 2 -11 -4 0 -6 -4 -9
-9 -5 -5 3 -12 1 -16 -5 -3 -5 -12 -10 -18 -10 -7 0 -1 8 13 18 30 21 39 47
13 38 -20 -7 29 32 62 50 37 20 37 2 1 -28z m2184 -13 c0 -10 -6 -12 -17 -8
-16 6 -16 5 -4 -10 11 -14 17 -15 28 -5 8 7 13 7 11 1 -10 -34 149 -110 175
-84 15 15 27 14 27 -4 0 -8 7 -15 15 -15 18 0 20 -17 3 -22 -17 -6 2 -28 94
-110 17 -15 51 -34 77 -42 l46 -16 -27 25 c-17 15 -26 30 -22 39 8 22 10 21
60 -26 26 -25 42 -48 39 -56 -3 -8 0 -21 6 -29 19 -22 1 -28 -24 -7 -12 10
-44 30 -72 44 -27 14 -59 33 -70 43 -11 10 -30 16 -42 14 -13 -2 -19 0 -17 8
9 23 -59 76 -144 111 -37 16 -70 33 -74 39 -4 5 -8 7 -8 3 0 -16 -6 -23 -41
-55 -38 -34 -49 -40 -49 -24 0 5 15 19 34 30 19 12 37 29 40 37 8 21 -11 44
-35 44 -11 0 -19 6 -19 14 0 7 -6 19 -14 25 -11 10 -17 7 -30 -11 -17 -24 -22
-13 -6 12 7 12 2 18 -23 28 -24 9 -26 11 -7 8 14 -2 34 0 45 4 31 13 45 11 45
-5z m606 -396 c24 -24 44 -33 81 -36 68 -8 86 -26 81 -84 -4 -43 -2 -50 34
-90 36 -40 46 -59 31 -59 -3 0 -15 8 -25 17 -20 18 -32 12 -42 -24 -5 -16 -1
-27 14 -40 12 -10 31 -26 43 -36 11 -10 31 -20 44 -23 13 -4 28 -14 33 -24 17
-32 11 -35 -17 -7 -16 14 -45 33 -65 42 -21 8 -38 19 -38 24 0 6 -9 13 -20 16
-17 5 -20 15 -20 58 0 36 -6 60 -20 77 -11 14 -20 21 -20 17 0 -4 -12 4 -27
18 -35 34 -64 45 -114 45 -21 0 -39 5 -39 10 0 6 6 10 14 10 17 0 28 27 21 51
-3 9 -2 20 4 23 5 3 7 15 4 26 -8 28 6 25 43 -11z m-3728 -446 c-2 -9 -11 -26
-21 -36 -26 -26 -67 -117 -60 -133 3 -8 -1 -14 -11 -14 -16 0 -52 -61 -67
-113 -7 -24 -6 -28 8 -22 14 5 14 3 -1 -14 -16 -17 -17 -23 -6 -36 11 -13 10
-15 -1 -11 -8 3 -21 0 -30 -7 -24 -18 -109 -185 -109 -213 0 -13 -4 -24 -8
-24 -14 0 -33 -51 -27 -71 4 -11 2 -19 -3 -19 -8 0 -27 -74 -23 -92 0 -5 -6
-8 -14 -8 -8 0 -15 4 -15 9 0 5 -9 7 -20 4 -14 -4 -20 0 -20 12 0 13 6 16 25
12 14 -2 23 -2 20 1 -2 3 5 21 17 40 21 34 21 35 3 66 -10 17 -23 34 -29 38
-8 5 -7 11 1 19 10 10 14 7 22 -13 16 -42 28 -41 35 2 3 22 10 40 14 40 13 0
40 69 54 139 9 48 17 65 33 71 12 4 26 14 32 22 14 17 43 97 43 121 0 10 9 27
20 39 11 12 26 34 32 50 7 15 16 28 20 28 5 0 22 29 39 65 29 61 54 86 47 48z
m411 -226 c-6 -10 -13 -15 -18 -13 -11 7 -38 -28 -33 -43 3 -8 0 -11 -5 -8 -6
4 -19 -3 -29 -14 -18 -20 -18 -21 2 -38 l22 -17 -23 -51 c-26 -55 -58 -73 -96
-53 -36 20 -38 49 -8 107 16 30 35 61 44 69 8 9 15 24 15 33 0 14 10 20 41 24
55 7 66 20 45 51 -24 37 -20 38 18 3 27 -25 32 -36 25 -50z m1648 -202 c12 -8
23 -25 25 -37 2 -17 14 -26 50 -36 44 -12 50 -11 76 8 23 17 33 19 55 11 34
-13 52 -54 35 -81 -10 -16 -9 -22 7 -37 41 -37 48 -56 8 -21 -35 31 -46 35
-70 29 -15 -5 -27 -13 -25 -20 1 -6 -2 -11 -7 -11 -14 0 -26 23 -14 27 6 2 4
17 -6 39 -21 47 -78 64 -127 38 -50 -27 -88 -11 -92 38 -2 28 2 40 20 52 28
20 38 20 65 1z m1604 -138 c-8 -22 -7 -23 15 -19 19 3 24 0 24 -15 0 -10 11
-34 25 -53 26 -35 28 -40 20 -40 -2 0 -15 16 -29 36 l-24 36 -7 -32 c-4 -18
-2 -36 4 -44 13 -15 5 -27 -13 -20 -9 3 -10 20 -6 55 4 27 3 52 -2 55 -4 3 -8
-4 -8 -15 0 -25 -29 -42 -67 -40 -15 1 -41 -2 -58 -6 l-30 -8 23 23 c14 13 22
30 19 40 -8 30 28 60 68 58 19 -1 38 2 42 5 12 12 13 7 4 -16z m-1907 -58 c32
-15 30 -55 -4 -75 -19 -10 -21 -13 -7 -14 13 0 17 -9 17 -42 0 -39 -5 -47
-115 -158 l-116 -117 2 -199 c0 -109 -1 -203 -2 -209 -2 -5 3 -20 10 -33 26
-47 -35 -94 -73 -56 -30 30 -16 66 29 77 19 4 19 5 -2 6 -12 0 -23 6 -25 12
-3 9 -10 9 -27 0 -12 -7 -25 -10 -28 -7 -3 3 5 10 19 15 14 5 28 17 32 26 3 9
6 101 6 203 l0 187 95 97 c52 54 95 101 95 107 0 5 -12 12 -27 16 -24 6 -38
-5 -137 -104 l-111 -110 -70 -3 -70 -3 -3 -124 -3 -125 55 -55 c55 -56 75
-103 55 -127 -6 -8 -5 -13 6 -18 23 -9 19 -63 -6 -77 -52 -27 -94 42 -47 75
12 9 17 16 10 16 -6 0 -12 9 -12 20 0 11 -27 50 -61 86 l-60 65 3 145 c4 171
2 168 111 178 l72 7 97 96 c88 87 99 95 115 83 15 -12 16 -12 6 0 -17 19 -16
55 1 70 8 6 28 11 43 10 52 -4 63 0 63 19 0 17 24 51 35 51 2 0 15 -5 29 -11z
m2334 -35 c11 -8 12 -13 4 -18 -20 -12 -13 -46 10 -55 18 -6 19 -9 5 -14 -24
-9 -21 -37 8 -90 20 -36 34 -48 68 -59 27 -9 54 -11 72 -7 22 6 31 4 45 -14
10 -12 16 -27 13 -34 -3 -6 9 -41 26 -76 18 -38 28 -72 25 -82 -6 -15 -8 -15
-15 -2 -7 12 -26 14 -101 10 -93 -5 -156 -26 -128 -43 7 -4 10 -12 6 -18 -6
-10 54 -65 63 -56 2 2 -10 24 -28 49 -18 25 -28 45 -22 45 5 0 20 -17 32 -37
13 -21 28 -43 34 -48 21 -22 76 -37 115 -32 30 4 40 2 40 -9 0 -18 -96 -20
-104 -1 -4 8 -5 7 -4 -3 1 -8 -1 -22 -5 -30 -3 -8 -8 -22 -11 -30 -3 -11 -6
-9 -11 8 -8 24 -9 25 -55 15 l-33 -6 24 -19 c24 -19 24 -19 -10 -2 -34 16 -82
13 -141 -10 -11 -5 -15 1 -15 18 0 22 2 23 16 10 14 -12 22 -12 55 -1 35 11
39 16 36 42 -6 53 -17 61 -37 27 -10 -17 -22 -29 -27 -26 -4 3 3 22 17 42 28
41 32 62 11 62 -8 0 -18 5 -21 10 -4 6 3 9 17 6 28 -4 49 10 41 30 -4 11 11
14 85 14 108 0 152 8 152 27 0 8 -11 38 -25 68 -23 48 -31 55 -75 70 -26 9
-61 17 -77 18 -15 1 -28 7 -28 12 -1 17 -34 73 -45 77 -6 2 -11 17 -13 34 -1
24 -6 30 -19 26 -22 -5 -22 1 -2 39 10 20 14 45 10 72 -3 23 -2 33 1 22 3 -11
12 -25 21 -31z m-2106 19 c22 -20 23 -46 3 -63 -8 -7 -12 -17 -8 -23 3 -6 8
-83 9 -171 1 -89 5 -186 9 -216 l6 -55 -104 -102 c-57 -57 -102 -104 -100
-106 5 -5 -44 -57 -54 -57 -4 0 -19 9 -32 19 -31 23 -23 68 14 77 28 7 181
157 165 162 -13 5 -13 62 0 62 6 0 10 5 10 10 0 7 -6 7 -19 0 -11 -5 -27 -7
-35 -4 -11 4 -15 2 -11 -8 8 -19 -30 -52 -51 -44 -12 5 -15 2 -10 -10 3 -8 3
-26 0 -40 -11 -43 -94 -28 -94 17 0 23 47 59 67 52 10 -4 14 -2 10 4 -4 5 5
21 19 34 21 20 27 21 35 9 8 -11 9 -10 4 8 -3 12 -4 31 0 41 14 44 85 32 85
-14 0 -20 14 -34 22 -22 0 1 4 84 7 183 5 139 3 184 -6 193 -20 18 -15 48 9
65 28 20 27 20 50 -1z m197 -42 c-4 -19 -14 -41 -23 -49 -13 -13 -18 -13 -40
2 -14 9 -26 12 -26 7 0 -5 5 -13 10 -16 7 -4 3 -17 -8 -33 -16 -23 -20 -47
-21 -150 l-1 -122 55 -60 55 -60 2 -72 c1 -40 1 -86 1 -103 -1 -16 1 -60 4
-97 4 -61 7 -66 22 -56 23 14 71 2 71 -17 0 -8 4 -15 10 -15 5 0 7 -7 4 -15
-4 -9 0 -15 9 -15 8 0 25 -13 37 -28 21 -26 26 -28 81 -24 33 2 124 1 204 -3
125 -6 145 -9 145 -24 0 -10 5 -8 13 9 14 28 51 38 73 20 17 -15 18 -52 2 -68
-15 -15 -55 -16 -63 -1 -4 6 -14 8 -22 5 -8 -3 -109 -6 -225 -7 l-211 0 -33
32 c-19 18 -36 41 -39 50 -4 11 -12 16 -21 12 -8 -3 -24 3 -34 12 -20 18 -20
17 -20 -51 0 -38 4 -74 8 -81 6 -9 81 -12 287 -13 154 -1 288 2 298 5 24 10
64 -2 71 -21 15 -40 -50 -84 -80 -54 -7 7 -20 7 -34 2 -15 -6 -19 -11 -12 -16
16 -9 15 -59 0 -74 -9 -9 -7 -12 10 -12 27 0 53 -38 45 -68 -6 -26 -53 -31
-77 -7 -9 9 -17 11 -21 5 -3 -5 -21 -10 -40 -10 -24 0 -39 -7 -54 -26 -12 -15
-21 -23 -21 -19 0 4 -9 -4 -20 -18 -11 -14 -20 -29 -20 -33 0 -17 -35 -44 -56
-44 -43 0 -65 67 -35 104 11 13 9 16 -13 22 -53 13 -113 -25 -74 -47 9 -5 14
-21 13 -41 -3 -45 15 -61 38 -35 l17 20 23 -20 c12 -11 27 -19 33 -16 7 2 22
-13 35 -34 13 -21 29 -44 35 -50 18 -18 27 -86 16 -125 -10 -38 -7 -108 5
-117 10 -8 34 -68 40 -104 3 -16 14 -34 24 -40 25 -15 24 -27 -1 -27 -11 0
-20 -4 -20 -10 0 -12 1 -12 53 -1 23 6 55 12 70 16 15 3 25 10 22 15 -10 16 4
11 24 -9 13 -13 29 -17 50 -15 34 4 33 5 51 -64 9 -34 17 -46 41 -54 16 -5 29
-13 29 -18 0 -13 83 -40 123 -40 20 0 37 -4 37 -9 0 -4 -21 -7 -47 -6 -42 2
-52 -2 -80 -29 -19 -19 -34 -44 -36 -62 -2 -16 -9 -39 -15 -51 -7 -12 -12 -40
-12 -62 0 -23 -4 -41 -10 -41 -5 0 -10 -7 -10 -15 0 -8 6 -15 13 -15 8 0 19
-11 25 -24 8 -18 16 -22 34 -19 13 3 49 0 79 -5 52 -10 55 -10 84 19 17 16 36
29 43 29 7 0 12 4 12 9 0 10 -50 74 -62 79 -17 7 -7 28 19 40 42 19 107 15
128 -8 10 -11 26 -22 36 -25 11 -4 17 -11 14 -16 -4 -5 8 -9 24 -9 25 0 31 4
31 23 0 27 28 63 56 71 27 8 74 -28 74 -57 0 -28 -38 -67 -66 -67 -12 0 -24
-7 -28 -15 -9 -23 31 -38 86 -32 37 5 48 3 48 -8 0 -8 -6 -18 -14 -22 -8 -5
-19 -19 -25 -33 -5 -14 -10 -19 -10 -12 -1 7 4 22 9 33 10 17 7 19 -25 19 -19
0 -35 -2 -35 -5 0 -13 31 -65 39 -65 5 0 11 -11 13 -25 8 -41 -19 -29 -40 18
-10 23 -25 47 -33 53 -16 12 -57 29 -47 19 3 -3 -5 -18 -18 -32 -21 -23 -64
-100 -64 -116 0 -4 7 -7 15 -7 18 0 38 -46 32 -72 -3 -10 0 -18 5 -18 6 0 16
-6 22 -14 6 -8 22 -16 36 -18 21 -2 27 3 37 32 6 19 12 49 13 65 0 21 3 26 9
16 6 -10 10 -10 16 -1 4 6 13 9 20 6 8 -3 11 2 8 15 -7 26 5 24 27 -4 15 -18
26 -23 49 -19 26 4 31 1 31 -17 0 -19 2 -20 20 -9 11 7 18 18 16 24 -2 6 5 10
16 10 12 -1 23 5 25 11 4 10 -7 11 -41 7 -56 -8 -60 5 -16 48 17 15 30 33 30
39 0 7 9 9 21 6 13 -3 28 2 40 14 10 10 23 19 28 19 4 0 19 14 32 32 13 18 32
40 43 49 62 57 96 97 96 111 -1 31 -89 93 -107 74 -3 -3 -1 -6 7 -6 20 0 -8
-28 -49 -50 -20 -10 -53 -36 -73 -59 -38 -43 -62 -53 -56 -24 2 10 16 24 31
31 37 18 52 48 34 67 -10 10 -13 24 -8 47 9 42 -19 72 -62 65 -24 -3 -28 0
-37 34 -6 21 -16 39 -23 42 -6 2 0 8 16 12 15 4 27 12 27 19 0 6 5 4 10 -4 9
-13 10 -13 10 0 0 8 16 48 35 87 19 40 35 76 35 82 0 5 11 11 25 13 20 4 23 2
15 -12 -5 -9 -16 -22 -24 -30 -9 -7 -16 -17 -16 -23 0 -5 -11 -25 -25 -42 -13
-18 -22 -35 -19 -38 3 -3 0 -15 -6 -28 -16 -29 -24 -102 -10 -94 6 4 8 11 4
16 -4 7 7 8 29 4 21 -4 37 -3 41 4 9 14 86 15 86 1 0 -5 10 -10 21 -10 19 0
21 -4 16 -35 -7 -40 10 -55 63 -55 26 0 30 3 25 19 -3 11 -1 22 5 26 5 3 10
22 10 41 0 21 -4 33 -10 29 -5 -3 -10 -1 -10 4 0 14 17 14 25 1 3 -5 16 -10
29 -10 12 0 28 -6 35 -12 10 -11 11 -9 5 6 -5 13 -4 17 3 13 6 -4 16 0 23 8
17 20 -6 40 -44 40 -16 0 -31 6 -33 13 -5 14 11 15 54 3 19 -6 35 -5 40 0 14
14 61 21 68 10 3 -6 -1 -13 -9 -18 -22 -12 -71 -116 -57 -121 6 -2 8 -8 5 -13
-3 -6 0 -16 6 -24 10 -12 10 -18 0 -30 -7 -8 -15 -13 -19 -11 -3 2 -7 -6 -8
-17 -1 -12 -5 -35 -8 -50 -6 -22 -2 -34 16 -53 18 -20 21 -29 13 -42 -13 -20
-70 -27 -118 -13 -41 11 -76 4 -76 -14 0 -16 -35 -29 -51 -19 -8 4 -9 3 -5 -4
7 -12 -22 -52 -40 -52 -24 0 -46 -38 -39 -69 5 -23 3 -31 -7 -31 -18 0 -81
-64 -72 -73 4 -4 3 -7 -2 -7 -5 0 -18 -14 -27 -30 -10 -17 -37 -40 -60 -51
-22 -12 -47 -28 -55 -35 -7 -8 -18 -14 -23 -14 -5 0 -15 -11 -21 -25 -6 -14
-20 -25 -30 -25 -11 0 -42 -10 -69 -22 l-51 -21 49 -23 c26 -13 61 -23 77 -23
21 -1 27 -5 22 -16 -4 -10 3 -17 22 -21 15 -4 41 -20 59 -37 30 -28 31 -31 15
-43 -11 -9 -53 -14 -127 -14 -145 -1 -190 -10 -190 -35 0 -13 10 -21 33 -27
29 -8 32 -12 32 -47 0 -35 -3 -39 -30 -44 -26 -6 -29 -10 -26 -37 2 -17 12
-41 23 -53 11 -12 25 -30 30 -41 15 -28 -1 -90 -36 -134 -37 -47 -37 -50 -9
-54 12 -2 23 -9 26 -16 2 -7 0 -12 -5 -11 -12 3 -43 -12 -43 -21 0 -4 12 -7
26 -7 28 0 47 -20 39 -40 -2 -7 2 -13 10 -13 16 0 136 -56 144 -68 4 -4 15
-12 26 -18 32 -18 31 -42 -2 -47 -15 -2 -5 -3 23 -1 40 3 57 -1 77 -16 29 -23
47 -26 47 -7 1 18 48 72 57 64 4 -4 2 -28 -5 -52 -23 -87 -17 -97 98 -146 41
-17 95 -40 120 -52 25 -11 74 -23 110 -27 l65 -7 -50 -3 c-71 -3 -80 -2 -183
37 -51 19 -96 32 -100 28 -4 -3 -2 -9 4 -13 16 -10 44 -68 37 -76 -4 -3 -52
-6 -107 -7 -66 0 -94 -3 -81 -9 11 -5 59 -9 108 -9 84 -1 88 -2 97 -27 6 -14
10 -46 10 -71 l0 -46 -105 6 c-112 7 -147 -7 -47 -18 70 -8 129 -23 136 -33 6
-10 -41 -114 -54 -122 -9 -6 -80 0 -175 15 -22 3 -2 -6 45 -20 46 -14 86 -28
88 -30 8 -7 -23 -42 -74 -84 -46 -37 -59 -42 -86 -37 -60 11 -182 53 -185 63
-5 15 112 113 135 113 14 0 19 5 15 18 -2 10 12 46 31 80 32 57 35 68 33 137
-1 41 -5 75 -8 75 -4 0 -14 17 -23 38 -9 20 -22 45 -28 54 -17 24 -10 28 66
35 36 3 66 10 66 15 0 8 -136 1 -151 -8 -3 -2 -23 12 -44 31 -22 19 -41 32
-45 30 -3 -2 -5 -21 -3 -43 2 -42 -24 -82 -52 -82 -12 0 -15 -12 -13 -57 3
-54 2 -58 -18 -55 -18 2 -22 -4 -28 -36 -3 -22 -13 -52 -21 -68 -8 -16 -15
-34 -15 -40 0 -15 -69 -86 -135 -141 l-49 -40 33 -38 c26 -30 32 -44 29 -71
-5 -43 3 -43 102 2 l79 36 96 -37 c53 -21 94 -42 92 -49 -3 -11 -109 -69 -173
-95 -29 -11 -39 -9 -115 25 -46 21 -92 44 -102 52 -9 9 -20 12 -23 9 -11 -11
15 -35 77 -73 33 -19 59 -40 59 -45 0 -12 -32 -24 -163 -60 -119 -32 -127 -31
-192 25 -16 14 -34 26 -38 26 -5 0 -7 10 -5 22 2 18 16 26 79 44 42 12 86 27
99 34 22 12 22 12 2 26 -16 11 -19 21 -15 58 9 78 5 80 -89 45 -172 -64 -350
-102 -563 -120 -153 -13 -486 -7 -595 11 -36 6 -83 13 -105 15 -59 8 -202 42
-270 65 -33 11 -66 20 -73 20 -28 0 -210 88 -284 137 -72 48 -151 138 -174
199 -15 40 -16 56 -7 109 6 34 22 79 36 101 16 25 27 59 30 98 3 32 10 63 15
68 5 5 7 -15 4 -49 l-5 -58 24 20 c13 11 29 26 37 32 7 7 17 13 22 13 5 0 12
10 16 23 3 12 13 29 21 38 10 12 12 28 8 53 -5 23 -3 42 5 51 7 8 10 15 6 15
-12 0 -51 -25 -59 -37 -12 -19 -28 -16 -25 4 2 13 -14 23 -64 42 -38 14 -68
29 -68 33 0 4 13 14 30 23 16 8 29 21 27 27 -1 7 4 12 12 13 25 0 23 22 -7 57
-25 28 -30 44 -35 110 -3 44 -1 80 4 83 5 4 9 13 9 21 0 9 9 23 20 32 17 15
18 19 6 35 -8 10 -26 19 -41 20 -23 2 -29 -4 -42 -38 -20 -52 -60 -105 -78
-105 -9 0 -17 15 -20 38 -4 20 -15 53 -25 72 -19 34 -20 35 -77 32 -54 -3 -59
-1 -70 24 -14 31 -9 44 16 44 9 0 30 14 46 30 16 17 35 28 42 26 7 -3 20 5 28
18 14 21 14 26 -8 65 -29 51 -59 73 -95 71 -15 -1 -46 -2 -69 -1 -37 1 -43 4
-49 28 -4 14 -2 34 4 44 8 13 8 20 -2 28 -8 7 -20 26 -27 44 -11 28 -203 228
-269 282 -22 17 -23 20 -7 23 14 3 16 7 7 17 -17 21 -3 37 20 25 10 -5 31 -10
46 -10 21 0 25 -4 21 -19 -3 -14 2 -21 18 -25 26 -7 42 -36 20 -36 -8 0 -15 5
-15 10 0 11 -50 34 -57 26 -3 -2 3 -16 12 -30 16 -24 41 -38 75 -41 32 -3 61
-26 55 -44 -4 -14 6 -26 42 -49 26 -17 64 -37 83 -45 19 -7 46 -26 60 -41 59
-64 135 -74 203 -28 23 16 54 32 69 36 29 7 53 39 42 57 -3 6 -16 15 -28 20
-16 7 -8 8 30 6 48 -4 52 -2 73 31 l23 34 -32 39 c-33 41 -30 48 20 48 42 0
144 27 148 39 2 7 20 19 39 29 20 9 31 19 24 21 -21 7 -90 165 -84 195 3 15 8
27 11 27 11 0 55 -57 78 -103 14 -26 35 -52 48 -57 13 -4 26 -15 29 -23 7 -18
43 -12 51 9 3 7 -1 28 -8 46 -8 18 -17 53 -21 78 -9 57 -30 99 -62 126 -20 17
-25 31 -27 71 l-1 51 18 -32 c9 -17 22 -38 27 -46 6 -8 14 -24 19 -35 5 -11
26 -39 46 -62 26 -31 44 -43 64 -43 15 0 32 -5 37 -10 19 -19 33 13 40 91 4
41 10 76 13 79 13 11 31 51 31 68 0 10 5 23 10 28 15 15 17 107 3 111 -6 2
-21 12 -33 23 -20 18 -21 20 -5 44 l17 26 -33 -6 c-19 -4 -38 -11 -44 -15 -5
-5 -20 -9 -35 -9 -57 -1 -123 -27 -144 -56 -35 -49 -59 -64 -76 -50 -37 32
-46 26 -69 -45 -12 -38 -19 -74 -16 -79 8 -13 -16 -13 -71 1 -36 9 -45 15 -41
30 3 10 -2 20 -11 24 -21 8 -6 19 30 21 16 1 35 7 41 13 16 16 -21 27 -44 13
-10 -7 -26 -12 -34 -12 -8 0 -15 -7 -15 -15 0 -8 -9 -15 -21 -15 -11 0 -29 -5
-40 -11 -11 -6 -28 -12 -37 -14 -9 -2 -37 -8 -62 -14 -53 -12 -64 -7 -24 11
16 7 32 17 35 21 6 9 39 14 107 16 19 1 31 5 27 11 -3 6 -1 10 4 10 6 0 11 7
11 16 0 11 6 14 21 9 13 -4 25 -2 29 5 5 7 21 14 36 16 16 2 30 8 32 14 4 12
22 14 22 2 0 -5 -9 -13 -19 -18 -17 -8 -18 -12 -7 -26 11 -16 15 -16 34 -2 22
15 30 44 12 44 -5 0 -10 5 -10 12 0 6 3 8 7 5 10 -10 32 13 27 27 -3 8 9 27
26 45 17 17 29 34 27 38 -7 12 -20 339 -13 332 3 -3 10 -81 15 -174 10 -167
10 -168 38 -192 22 -18 35 -22 63 -17 19 3 39 10 45 15 5 5 16 9 25 9 26 0
167 48 194 66 18 11 26 25 26 45 0 19 5 29 15 29 20 0 10 17 -67 123 -32 42
-58 81 -58 86 0 5 -7 11 -15 15 -8 3 -15 12 -15 20 0 8 -4 16 -9 18 -10 3 -21
17 -97 125 -23 32 -51 67 -63 77 -22 20 -27 36 -11 36 6 0 10 -6 10 -14 0 -8
4 -16 8 -18 4 -1 39 -41 77 -88 38 -47 85 -103 104 -126 20 -23 53 -62 74 -87
37 -45 57 -58 57 -37 0 6 -7 10 -15 10 -8 0 -15 4 -15 9 0 4 23 6 50 3 42 -4
50 -2 50 12 0 9 8 20 18 23 9 4 26 17 37 30 11 13 26 23 33 23 16 0 15 8 -2
26 -8 8 -24 14 -35 14 -12 0 -30 9 -41 20 -11 11 -27 20 -36 20 -8 0 -13 4 -9
9 6 10 -37 62 -52 63 -35 2 -49 32 -34 72 8 18 18 26 35 26 25 0 56 -23 56
-42 0 -5 16 -27 36 -48 36 -38 74 -57 74 -38 0 7 21 9 60 5 58 -5 61 -4 85 26
l25 32 0 -27 c0 -33 20 -38 21 -5 0 12 3 16 6 9 2 -7 14 -17 26 -23 15 -8 9 2
-15 27 l-37 39 -88 -1 c-48 -1 -103 -5 -120 -9 -23 -5 -33 -4 -33 4 0 7 -4 10
-9 7 -4 -3 -5 13 0 37 4 23 7 43 6 44 -7 5 -155 4 -170 -2 -63 -27 -102 56
-40 84 14 7 23 14 20 17 -3 3 -14 1 -25 -5 -33 -18 -72 2 -72 37 0 47 43 70
70 37 7 -8 17 -12 22 -8 6 3 88 5 182 5 l171 -1 47 44 c25 25 48 52 50 62 2
10 15 24 30 32 25 15 29 14 52 -8 35 -33 33 -56 -6 -72 -41 -16 -61 -40 -45
-52 8 -6 6 -7 -5 -4 -9 4 -32 -8 -57 -30 l-41 -35 -174 2 c-125 0 -176 -3
-182 -11 -4 -8 -3 -9 4 -5 7 4 12 1 12 -8 0 -22 20 -20 21 2 0 10 3 12 6 5 3
-10 52 -13 196 -13 l191 0 58 57 58 57 0 128 0 128 30 0 30 0 0 -109 c0 -60 3
-122 6 -139 6 -28 -1 -38 -72 -111 -44 -46 -87 -81 -98 -81 -16 0 -14 -4 10
-22 16 -12 32 -27 36 -32 4 -6 10 -7 14 -3 4 4 12 -3 19 -16 7 -15 18 -21 33
-19 13 2 25 -3 28 -12 3 -9 16 -17 28 -17 15 -1 13 -3 -9 -8 l-29 -6 26 -17
c26 -17 27 -17 43 4 14 21 15 21 15 3 0 -18 1 -18 20 3 11 12 20 26 20 31 0
25 51 36 185 42 l140 5 -148 2 c-142 2 -181 9 -199 36 -4 6 -8 135 -8 286 l0
276 -41 39 c-65 64 -69 77 -69 236 l0 142 40 38 c22 21 40 44 40 52 0 23 22
36 60 34 36 -2 37 -2 29 -36z m578 -66 c12 -25 30 -42 59 -55 23 -10 47 -27
53 -39 10 -17 7 -23 -13 -36 -36 -24 -78 -16 -94 18 -8 17 -21 27 -35 27 -45
1 -78 50 -54 81 12 16 46 38 60 39 4 0 15 -16 24 -35z m-885 -50 c0 -33 -1
-68 -1 -77 -1 -9 -47 -64 -104 -120 l-103 -104 1 -79 c0 -44 4 -85 8 -92 4 -6
2 -25 -4 -43 -6 -17 -9 -49 -6 -69 2 -21 1 -44 -3 -52 -6 -8 -2 -18 11 -27 21
-15 25 -52 7 -70 -19 -19 -66 -15 -78 7 -14 27 -13 47 5 65 9 9 11 17 5 21 -5
3 -10 26 -10 51 0 28 -4 44 -12 45 -10 0 -10 2 0 6 8 3 12 32 12 92 0 169 -1
167 116 283 l104 102 0 67 0 67 26 -7 c24 -6 26 -10 26 -66z m643 -11 c13 -9
29 -13 34 -9 17 10 47 -12 58 -42 33 -91 35 -104 21 -126 -9 -16 -12 -49 -8
-124 5 -93 7 -104 33 -132 15 -17 27 -35 27 -41 0 -5 8 -10 18 -10 42 0 61
-73 22 -85 -41 -13 -84 24 -65 55 3 5 -2 10 -13 10 -10 0 -29 13 -41 29 -20
25 -28 29 -59 24 -21 -2 -49 -8 -64 -13 -22 -7 -26 -6 -21 7 5 13 2 13 -21 -2
-14 -10 -29 -29 -32 -42 -11 -42 -77 -51 -89 -12 -11 32 5 59 36 66 16 3 29
10 29 16 0 5 16 27 35 48 l35 39 0 123 c0 82 4 127 12 135 9 9 9 12 0 12 -6 0
-16 9 -22 21 -9 16 -8 26 5 45 18 28 36 30 70 8z m-133 -120 c2 -69 -1 -135
-5 -147 -4 -12 -27 -41 -50 -65 l-42 -43 -4 -90 -3 -91 64 -63 c63 -61 66 -63
109 -58 24 2 104 0 178 -4 104 -7 134 -6 138 4 6 16 55 17 71 1 7 -7 12 -21
12 -33 0 -47 -68 -64 -88 -22 -8 17 -11 18 -11 5 -1 -17 -17 -18 -188 -18
l-188 0 -77 76 -78 76 0 110 c0 120 5 135 61 191 l38 37 5 128 c3 70 5 127 5
127 1 0 12 2 25 3 l25 2 3 -126z m-1242 -299 l0 -216 26 -24 c23 -22 25 -27
13 -41 -12 -15 -11 -16 8 -10 12 4 31 2 43 -4 43 -23 10 -85 -42 -78 -23 4
-27 1 -23 -13 17 -53 -49 -87 -92 -46 -27 24 -29 44 -7 76 14 20 23 22 55 18
50 -7 52 12 4 54 l-35 31 0 234 0 234 25 0 25 0 0 -215z m1618 73 c2 -16 11
-30 22 -33 11 -3 31 -20 45 -36 22 -27 25 -39 25 -113 0 -117 5 -114 -208
-118 -96 -1 -176 -6 -178 -10 -9 -14 -61 -8 -74 8 -21 25 -1 68 33 72 16 2 34
0 40 -5 7 -4 83 -7 170 -5 l157 3 0 58 c0 48 -4 61 -25 81 -14 13 -25 29 -25
37 0 7 -11 13 -25 13 -32 0 -50 32 -35 61 9 15 19 19 43 17 26 -2 33 -8 35
-30z m-3191 -85 c-6 -9 -5 -19 4 -29 12 -14 14 -14 27 3 14 17 14 17 8 -1 -9
-25 30 -86 55 -86 14 0 19 -7 19 -28 0 -38 -8 -44 -34 -27 -12 9 -44 15 -77
15 -62 0 -112 27 -105 58 12 54 19 64 41 60 20 -4 24 1 34 44 6 27 11 59 12
71 0 12 6 2 13 -23 7 -28 9 -50 3 -57z m4680 -112 c12 -13 18 -33 17 -55 -2
-42 16 -47 56 -16 30 23 70 26 70 6 0 -13 5 -13 36 0 20 8 39 13 42 10 3 -3 0
-6 -7 -6 -9 0 -9 -5 -1 -20 13 -25 35 -26 50 -2 11 16 11 16 6 -1 -3 -10 -6
-31 -6 -45 -1 -23 -2 -25 -11 -9 -5 9 -19 17 -29 17 -11 0 -20 6 -20 14 0 8
-6 16 -12 19 -18 6 -48 -4 -48 -15 0 -6 7 -8 15 -4 8 3 15 3 15 0 0 -12 -45
-21 -52 -10 -5 8 -8 7 -8 -2 0 -8 -5 -10 -12 -6 -7 5 -9 2 -5 -8 4 -12 1 -14
-14 -11 -22 6 -99 -25 -99 -39 0 -5 -4 -6 -10 -3 -12 8 -13 52 -1 59 5 3 11
-1 15 -9 6 -16 36 -10 36 7 0 7 -4 7 -13 0 -9 -8 -12 3 -12 51 0 46 -3 61 -13
59 -8 -1 -11 2 -7 8 3 5 1 10 -4 10 -6 0 -11 5 -11 10 0 16 18 12 37 -9z
m-4254 -223 c15 -11 27 -29 27 -41 0 -30 -27 -67 -48 -67 -39 0 -49 -69 -14
-97 15 -12 24 -63 11 -63 -3 0 -21 7 -39 16 -27 14 -34 14 -41 3 -7 -11 -9
-11 -9 2 0 9 -7 19 -15 23 -23 8 -18 25 10 36 29 11 27 5 30 97 1 40 7 84 15
97 14 27 27 25 73 -6z m-222 -521 c-14 -14 -14 -67 0 -67 6 0 9 -19 7 -49 -2
-37 -6 -47 -17 -43 -9 3 -12 1 -7 -6 4 -7 2 -12 -3 -12 -6 0 -11 -4 -11 -10 0
-5 7 -10 15 -10 8 0 15 -7 15 -15 0 -8 -4 -15 -10 -15 -5 0 -11 -15 -11 -32
-1 -27 -2 -28 -6 -8 -2 14 -7 32 -10 40 -3 8 -5 18 -5 23 3 10 -1 9 -36 -9
-40 -19 -47 -15 -50 33 -2 21 -5 46 -8 56 -5 14 -1 18 13 15 12 -2 23 7 34 27
9 16 27 32 39 35 16 4 28 19 39 49 10 27 17 37 19 26 2 -9 -1 -22 -7 -28z
m-3983 -547 c1 -4 16 -22 32 -40 17 -19 30 -42 30 -52 0 -22 14 -23 79 -1 71
22 94 10 128 -67 30 -67 42 -72 106 -45 52 22 91 19 125 -10 40 -33 119 -49
212 -41 77 6 124 0 115 -14 -8 -13 24 -20 85 -19 30 1 76 -2 103 -6 44 -7 47
-9 45 -33 -3 -25 1 -27 47 -33 28 -4 66 -14 85 -22 40 -18 82 -57 59 -57 -10
0 -10 -4 3 -16 10 -10 34 -17 61 -18 25 0 43 -4 41 -8 -2 -3 9 -9 26 -13 16
-4 30 -10 30 -15 0 -16 33 -20 50 -5 19 17 46 20 55 5 3 -5 15 -10 26 -10 10
0 19 -4 19 -9 0 -15 38 -23 57 -12 10 6 14 11 10 11 -4 0 0 8 10 19 27 28 81
18 85 -17 3 -23 6 -20 32 29 34 62 59 87 129 125 145 79 329 -24 353 -197 9
-66 -10 -120 -70 -196 -29 -37 -58 -78 -65 -91 -18 -33 -5 -62 27 -62 19 0 23
-3 14 -9 -10 -6 -5 -10 17 -14 22 -5 29 -11 25 -22 -7 -16 13 -76 29 -86 4 -3
12 -22 17 -42 9 -42 -10 -67 -51 -67 -31 0 -49 17 -49 46 0 28 -11 35 -51 36
-24 1 -40 -8 -69 -39 -20 -22 -40 -47 -42 -54 -6 -19 -89 -19 -112 0 -15 13
-15 16 1 40 9 14 23 31 31 37 13 9 13 12 -2 17 -19 7 -22 43 -3 50 9 4 8 8 -3
16 -12 8 -13 14 -3 29 9 15 9 22 0 31 -9 9 -8 16 1 31 14 23 -2 75 -31 99 -10
7 -17 18 -17 23 0 5 -17 30 -38 57 -21 27 -45 71 -52 97 -18 68 -28 79 -49 53
-12 -15 -33 -21 -88 -26 -49 -4 -73 -10 -73 -19 0 -7 5 -14 12 -16 9 -3 9 -12
-1 -36 -13 -32 -49 -47 -97 -42 -38 4 -53 0 -59 -19 -8 -25 -34 -35 -52 -20
-11 10 -11 14 1 28 8 9 16 40 19 69 4 46 3 52 -15 52 -10 0 -33 7 -49 16 -28
14 -33 14 -54 0 -14 -9 -29 -25 -35 -36 -6 -11 -20 -20 -30 -20 -11 0 -20 -4
-20 -10 0 -5 5 -10 11 -10 6 0 9 -10 7 -22 -2 -19 -9 -23 -38 -23 -45 0 -55
30 -15 45 18 7 25 15 21 25 -3 8 6 37 19 64 30 59 31 71 6 71 -11 0 -22 9 -26
19 -9 30 -42 36 -82 15 -31 -17 -34 -22 -29 -52 3 -19 1 -30 -5 -27 -18 12 -9
-25 12 -46 15 -15 18 -24 10 -32 -7 -7 -11 -7 -11 -1 0 5 -12 10 -27 9 -21 0
-29 -6 -31 -22 -2 -15 -10 -23 -24 -23 -15 0 -19 -5 -16 -18 3 -11 -1 -30 -8
-43 -7 -13 -13 -32 -14 -42 0 -16 -39 -78 -43 -69 -1 2 -15 0 -31 -4 -36 -9
-94 11 -123 43 -27 28 -28 39 -8 60 8 8 12 19 9 25 -5 7 0 9 13 6 11 -3 20 0
21 6 1 6 3 21 4 34 5 40 55 56 84 27 21 -21 34 -19 34 5 0 13 10 22 33 29 17
5 26 10 20 10 -19 1 -15 38 5 46 9 5 28 7 42 7 25 -2 25 -2 3 8 -25 10 -28 21
-14 48 24 46 43 101 37 110 -10 17 -72 23 -102 10 -32 -13 -125 -104 -117
-112 3 -3 -2 -17 -11 -31 -13 -19 -14 -30 -7 -39 8 -9 6 -22 -6 -47 -26 -55
-51 -72 -107 -76 -42 -3 -56 1 -80 21 -22 18 -27 29 -23 47 8 31 61 65 113 74
37 6 41 9 36 31 -3 19 0 26 14 30 11 3 28 24 39 47 11 23 30 50 43 61 12 11
22 28 22 38 0 22 -24 23 -117 6 -56 -11 -73 -19 -110 -55 -24 -24 -48 -54 -53
-68 -17 -46 -97 -55 -123 -14 -16 26 8 66 45 74 35 8 88 50 88 72 0 7 -11 13
-25 13 -13 0 -40 14 -60 31 -38 33 -68 34 -99 3 -23 -22 -20 -31 14 -49 17 -9
30 -21 30 -28 0 -20 -53 -13 -77 11 -12 12 -31 22 -41 22 -28 0 -52 32 -56 76
-2 21 -11 56 -20 77 -14 34 -19 38 -43 33 -25 -5 -110 -9 -140 -7 -7 1 -13 12
-13 26 0 14 -4 25 -10 25 -5 0 -9 3 -8 8 6 22 -18 53 -53 68 -21 10 -39 21
-39 25 0 9 94 -2 98 -11z m4572 -25 c0 -17 23 -25 41 -14 19 12 59 11 59 -1 0
-5 6 -10 14 -10 8 0 16 -14 19 -32 4 -26 0 -37 -16 -52 -12 -10 -21 -23 -19
-29 2 -5 0 -17 -3 -25 -4 -11 -10 -9 -25 11 -11 14 -29 29 -39 32 -21 6 -45
57 -43 90 1 11 -1 15 -4 8 -3 -7 -12 -9 -20 -6 -16 6 -19 33 -3 33 5 0 8 4 5
9 -4 5 3 7 14 4 11 -3 20 -11 20 -18z m4578 -429 c38 -20 65 -52 56 -67 -4 -7
-3 -10 3 -6 14 9 33 -37 33 -81 -1 -38 -24 -81 -37 -68 -4 4 -1 11 7 16 20 13
16 81 -6 97 -38 28 -69 9 -57 -36 5 -19 1 -21 -35 -21 -23 0 -44 -4 -47 -10
-8 -14 -35 -13 -35 1 0 6 7 9 15 5 9 -3 15 0 15 8 0 7 9 21 20 31 14 13 17 22
10 29 -5 5 -10 25 -10 42 0 24 -5 34 -21 39 -16 5 -18 10 -8 21 15 18 62 18
97 0z m-8044 -386 c4 -5 4 -23 0 -42 -4 -18 -6 -41 -5 -52 1 -10 -7 -27 -19
-38 -33 -31 -15 -34 29 -5 23 16 43 23 46 17 3 -6 -1 -10 -9 -10 -9 0 -16 -7
-16 -15 0 -18 11 -19 47 -2 43 19 84 61 78 79 -6 16 18 48 36 48 20 0 49 -21
49 -35 0 -8 -9 -19 -21 -25 -19 -11 -19 -13 -5 -35 21 -32 20 -42 -5 -50 -14
-5 -18 -12 -14 -23 3 -9 0 -36 -7 -59 -11 -40 -15 -43 -39 -38 -15 4 -29 2
-32 -2 -3 -5 -23 -10 -43 -11 -47 -3 -52 -8 -36 -32 10 -17 9 -18 -5 -13 -39
15 -86 89 -64 102 17 11 1 51 -20 51 -11 0 -19 5 -19 10 0 6 -24 10 -54 10
-38 0 -60 6 -78 20 -25 19 -44 70 -27 70 5 0 8 5 7 12 -3 11 50 29 85 29 10 0
22 11 27 24 5 12 15 25 22 28 16 7 80 -3 92 -13z m3275 -32 c23 -22 41 -44 41
-48 0 -11 -62 -39 -101 -47 -27 -5 -31 -4 -26 10 4 11 -4 28 -21 46 -21 23
-33 28 -55 24 -21 -4 -28 -11 -26 -27 3 -44 0 -48 -37 -44 -25 2 -40 -3 -49
-15 -17 -23 -20 -22 -22 11 0 15 -4 39 -8 53 -5 19 -2 33 11 48 21 24 69 28
78 6 8 -21 45 -19 92 5 58 28 77 25 123 -22z m-1899 -25 c0 -9 12 -29 26 -44
14 -14 27 -34 28 -44 1 -9 9 -20 16 -25 12 -7 11 -12 -4 -29 -17 -19 -17 -21
-3 -21 12 0 17 -9 17 -29 0 -17 5 -33 10 -36 17 -10 46 4 59 29 16 29 6 86
-15 86 -8 0 -14 5 -14 11 0 26 23 49 55 55 42 8 88 -2 79 -17 -4 -7 0 -9 13
-5 12 4 41 -2 67 -14 48 -20 79 -16 88 11 2 6 16 12 31 12 15 0 27 3 27 8 0
21 26 6 38 -21 8 -16 20 -30 27 -30 8 0 19 -8 24 -17 9 -16 10 -15 11 8 0 22
7 28 55 43 78 24 93 14 92 -61 l-2 -58 33 3 c17 1 32 -2 32 -8 0 -5 -5 -10
-10 -10 -6 0 -15 -11 -20 -25 -7 -17 -17 -25 -34 -25 -38 0 -54 9 -77 47 -21
33 -22 34 -41 16 -20 -18 -20 -17 -17 12 3 26 0 30 -21 33 -19 2 -30 -4 -43
-27 -26 -45 -22 -54 21 -48 20 3 31 3 24 0 -6 -2 -10 -9 -7 -14 3 -4 -3 -14
-15 -21 -11 -7 -20 -18 -20 -24 0 -15 -38 -25 -46 -13 -8 13 -48 11 -62 -3 -9
-9 -12 -8 -12 4 0 8 6 21 14 27 8 7 14 21 13 32 -1 18 -6 20 -35 14 -18 -3
-41 -8 -50 -11 -15 -5 -15 -4 1 6 17 11 24 69 10 83 -9 9 -53 -33 -53 -50 0
-7 -4 -13 -9 -13 -5 0 -11 -9 -14 -20 -4 -16 2 -24 30 -35 l36 -15 -25 -19
c-24 -19 -44 -24 -86 -22 -20 1 -22 6 -20 37 4 53 -17 63 -74 35 -30 -14 -45
-28 -44 -39 1 -13 -7 -17 -34 -17 -30 0 -38 5 -54 36 -17 32 -24 36 -58 36
-24 0 -43 -6 -54 -18 -41 -45 -101 -6 -91 57 7 41 23 56 49 48 12 -3 17 2 20
18 2 17 10 24 33 26 l30 3 -24 -19 c-23 -18 -23 -19 -3 -24 26 -7 46 6 39 25
-3 9 -1 17 4 19 6 2 7 11 3 21 -4 10 -13 16 -21 13 -10 -4 -11 -1 -4 13 6 10
8 21 4 24 -10 10 18 37 38 37 11 0 19 -7 19 -17z m922 -50 c12 -11 18 -30 18
-58 0 -45 10 -55 56 -55 34 0 30 -15 -10 -34 -44 -21 -59 -20 -106 4 -22 11
-49 20 -60 20 -26 0 -36 25 -19 47 8 10 9 14 2 10 -6 -4 -14 -3 -17 2 -8 12
24 38 56 46 15 4 29 13 32 21 7 19 25 18 48 -3z m403 7 c3 -5 1 -17 -4 -27 -5
-10 -12 -25 -14 -34 -6 -19 -81 -57 -133 -69 -26 -6 -51 -2 -102 16 -37 13
-67 28 -66 34 1 5 2 17 3 25 0 8 9 15 19 15 10 0 22 4 28 9 14 15 63 1 69 -20
4 -10 21 -23 38 -28 26 -7 35 -5 49 10 9 11 30 24 47 30 20 7 31 18 31 30 0
20 24 26 35 9z m-2045 -80 c13 -9 12 -13 -6 -28 -16 -13 -20 -27 -18 -55 2
-21 6 -41 8 -46 3 -5 -3 -19 -13 -32 -10 -13 -16 -30 -13 -38 3 -10 0 -11 -9
-5 -8 4 -31 9 -52 9 -29 1 -43 8 -61 30 l-23 28 50 49 c27 26 53 48 58 48 5 0
14 11 19 25 10 26 34 32 60 15z m-241 -32 c4 -13 6 -40 4 -60 -4 -29 -13 -42
-42 -63 -37 -25 -96 -35 -119 -21 -8 5 -10 2 -6 -8 10 -27 -14 -18 -37 13 -21
28 -23 49 -6 43 5 -1 7 3 5 10 -5 14 28 48 46 48 6 0 31 14 56 30 56 36 88 38
99 8z m3304 -494 c21 -8 9 -51 -16 -58 -12 -3 -35 -6 -51 -6 -20 0 -27 -4 -23
-14 4 -10 -6 -15 -33 -20 -46 -7 -70 0 -70 22 0 12 -3 13 -11 5 -18 -18 -49
-3 -49 23 0 13 -5 24 -12 24 -6 0 -8 3 -4 7 15 15 238 29 269 17z m4201 -63
l29 -43 59 4 c55 4 61 3 69 -19 5 -13 12 -22 16 -21 5 0 16 -2 26 -7 9 -4 26
-5 36 -2 13 3 23 -3 31 -18 8 -16 18 -21 36 -17 24 4 27 1 38 -48 3 -14 18
-39 33 -55 16 -17 37 -50 47 -73 l19 -42 -23 -33 c-28 -41 -59 -58 -163 -92
-92 -30 -219 -34 -287 -10 -50 18 -60 18 -60 5 0 -5 6 -10 14 -10 7 0 19 -7
26 -15 11 -13 7 -13 -31 -1 -79 23 -119 40 -119 49 0 4 9 6 20 2 71 -22 88
-10 30 20 -41 21 -62 67 -69 155 -6 72 -7 75 -30 72 l-25 -2 25 23 c13 13 30
21 37 19 6 -2 12 3 12 13 0 9 -5 13 -10 10 -6 -4 -5 5 2 20 6 14 14 21 17 16
18 -29 71 13 71 56 0 13 7 26 15 29 8 4 15 16 15 28 0 55 54 47 94 -13z
m-3953 -48 c78 -24 89 -37 48 -57 -104 -48 -121 -50 -268 -20 -31 7 -22 15 64
58 79 41 84 42 156 19z m-5434 -417 c-3 -8 2 -16 14 -19 27 -7 25 -50 -5 -81
-20 -22 -32 -26 -80 -26 -31 0 -56 3 -56 8 0 4 11 16 25 26 34 26 32 34 -12
41 -21 4 -47 9 -58 12 -17 5 -16 7 10 15 17 4 56 8 88 9 39 1 60 6 64 15 3 8
7 14 10 14 3 0 3 -6 0 -14z m5156 -161 c16 -20 30 -47 31 -62 2 -17 26 -46 72
-88 38 -35 66 -67 62 -71 -8 -7 -86 -30 -161 -46 -44 -10 -50 -9 -87 17 -22
15 -51 42 -64 60 l-25 33 44 12 c25 7 45 16 45 21 0 14 -41 21 -85 15 -43 -7
-43 -7 -64 37 -31 64 -28 77 17 78 20 0 62 7 92 14 85 19 93 18 123 -20z
m-2832 -34 c45 -35 88 -51 136 -51 44 0 102 -15 129 -32 6 -4 17 2 24 13 21
28 30 23 24 -11 -6 -29 -5 -30 27 -30 43 0 50 -5 75 -60 15 -33 19 -59 16 -94
-4 -43 -10 -55 -52 -95 -26 -25 -65 -55 -86 -66 -21 -11 -42 -23 -45 -27 -14
-20 -127 -40 -196 -35 -127 9 -222 75 -266 183 l-25 62 31 63 c35 71 44 81 69
73 9 -3 22 2 30 11 7 9 19 22 26 30 7 8 19 30 27 50 17 40 23 42 56 16z m3142
-257 c48 -25 87 -49 87 -53 0 -5 -30 -23 -67 -40 -38 -18 -75 -36 -84 -41 -12
-6 -39 3 -90 29 -83 42 -129 70 -129 80 0 6 165 69 185 70 6 1 49 -20 98 -45z
m307 -118 c50 -15 76 -27 78 -38 4 -20 -97 -98 -126 -98 -38 0 -249 69 -263
86 -7 8 8 21 53 45 35 18 74 38 86 45 20 10 31 9 60 -3 21 -9 71 -25 112 -37z
m233 -55 c23 -5 81 -15 130 -21 48 -7 87 -15 87 -19 0 -16 -63 -113 -77 -118
-30 -12 -303 36 -326 57 -9 8 27 49 77 88 32 24 48 26 109 13z m1401 -61 c26
-28 45 -57 43 -64 -3 -7 -27 -16 -54 -19 -26 -3 -88 -12 -138 -21 -137 -24
-135 -24 -173 38 -52 88 -50 92 85 102 48 4 90 8 92 10 2 2 25 4 50 4 42 0 50
-4 95 -50z m-869 1 l60 -6 3 -44 c2 -25 1 -55 -3 -68 -5 -21 -10 -23 -78 -23
-99 1 -279 18 -289 28 -4 4 6 36 22 70 l29 62 98 -6 c54 -4 125 -9 158 -13z
m479 -57 c16 -35 26 -67 22 -71 -4 -4 -87 -9 -186 -11 l-179 -4 -6 24 c-4 14
-5 44 -3 69 l3 44 130 7 c72 4 139 9 150 11 33 5 39 -1 69 -69z m-1302 -278
c78 -23 314 -137 327 -158 10 -17 6 -31 -29 -101 -23 -45 -51 -94 -62 -109
-11 -16 -15 -28 -9 -28 5 0 42 -15 83 -34 40 -18 85 -36 101 -40 25 -6 27 -4
27 24 0 28 2 30 40 30 30 0 42 -5 46 -17 3 -10 10 -26 15 -36 8 -14 6 -23 -5
-36 -14 -16 -13 -18 14 -34 16 -10 32 -26 35 -37 9 -28 -82 -206 -117 -231
-21 -16 -72 -26 -214 -45 -103 -13 -221 -24 -263 -25 -73 -1 -80 1 -189 55
-62 31 -130 63 -150 72 -20 8 -47 24 -59 35 -14 14 -28 19 -42 14 -12 -4 -21
-2 -21 4 0 6 6 11 13 11 7 0 24 21 37 48 14 26 28 49 32 52 13 10 58 121 53
130 -3 5 -56 33 -118 63 -207 101 -202 100 -286 94 l-76 -5 78 11 c50 6 77 15
77 23 0 7 8 20 18 30 9 10 15 18 13 18 -3 1 12 33 33 72 52 99 71 108 306 138
227 29 236 29 292 12z"/>
<path d="M5911 2086 l-34 -33 24 -48 c22 -44 138 -165 159 -165 15 0 -9 62
-35 90 -14 14 -25 29 -25 33 0 3 -11 23 -26 44 -20 30 -24 44 -19 75 8 46 0
47 -44 4z"/>
<path d="M5840 1991 c-18 -46 -15 -131 7 -182 42 -92 204 -209 378 -271 137
-50 304 -87 490 -109 140 -17 565 -14 669 5 45 8 115 20 156 26 41 7 89 15
105 20 103 29 206 66 245 88 25 15 67 38 94 52 53 27 143 104 176 150 11 16
23 50 27 77 6 45 6 47 -11 30 -10 -9 -22 -17 -27 -17 -14 0 -11 -28 3 -32 8
-3 1 -12 -15 -22 -15 -10 -27 -25 -27 -33 0 -8 -8 -13 -18 -11 -11 2 -19 -1
-20 -5 -4 -23 -32 -36 -68 -32 -64 9 -71 3 -64 -60 6 -51 4 -55 -14 -56 -12
-1 -52 -3 -91 -5 -82 -4 -170 -11 -170 -14 0 -1 -7 -3 -16 -5 -35 -6 -59 -17
-59 -25 0 -4 -9 -6 -20 -3 -11 3 -20 1 -20 -5 0 -6 -8 -8 -18 -5 -10 2 -68 -5
-128 -17 -140 -28 -441 -38 -594 -20 -58 7 -117 14 -132 15 -14 2 -41 7 -60
13 -18 6 -50 13 -71 17 -89 15 -300 100 -338 137 -28 26 -94 76 -124 91 -73
38 -192 161 -210 216 -9 29 -20 26 -35 -8z"/>
<path d="M5765 866 c-93 -12 -175 -25 -182 -29 -31 -20 -150 -225 -129 -223 6
0 79 -33 161 -73 176 -86 168 -85 410 -52 241 33 231 28 287 136 26 50 47 97
48 106 0 14 -101 68 -262 138 -59 26 -110 26 -333 -3z"/>
<path d="M6055 469 c-77 -10 -157 -18 -177 -18 -27 -1 -47 -10 -73 -32 -19
-17 -35 -36 -35 -43 0 -6 -19 -38 -41 -71 -62 -94 -61 -97 116 -185 l150 -75
95 1 c52 1 136 8 185 17 50 9 116 18 149 22 32 3 67 10 77 16 24 12 122 206
115 225 -3 8 -25 23 -49 33 -24 10 -95 44 -159 75 -134 64 -133 64 -353 35z"/>
<path d="M7640 650 c-107 -15 -203 -30 -213 -35 -18 -7 -72 -106 -96 -175 -15
-44 -24 -38 221 -154 111 -53 135 -55 338 -31 69 9 147 18 175 21 50 5 103 30
104 49 2 20 23 81 43 127 30 68 31 67 -102 126 -160 70 -209 90 -240 94 -19 3
-123 -7 -230 -22z"/>
</g>
</svg>
