<?xml version="1.0" standalone="no"?>
<!DOCTYPE svg PUBLIC "-//W3C//DTD SVG 20010904//EN"
 "http://www.w3.org/TR/2001/REC-SVG-20010904/DTD/svg10.dtd">
<svg version="1.0" xmlns="http://www.w3.org/2000/svg"
 width="2048.000000pt" height="3072.000000pt" viewBox="0 0 2048.000000 3072.000000"
 preserveAspectRatio="xMidYMid meet">

<g transform="translate(0.000000,3072.000000) scale(0.100000,-0.100000)"
fill="#000000" stroke="none">
<path d="M1 28603 c0 -1165 4 -2109 9 -2098 18 45 29 105 34 187 4 47 10 108
16 135 5 26 15 75 21 107 8 41 14 55 20 45 7 -11 9 -10 10 6 1 11 3 38 5 60 3
50 30 115 47 115 19 0 36 35 30 60 -7 26 38 71 88 89 40 14 37 14 42 -6 2 -11
10 2 19 32 11 37 20 51 36 53 12 2 22 8 22 13 0 5 4 15 10 22 5 7 21 27 36 45
14 17 29 30 34 27 10 -6 80 90 80 110 0 11 12 15 43 15 40 1 41 2 22 16 -17
13 -18 16 -5 24 9 6 16 6 18 0 5 -15 35 -12 58 5 17 13 17 14 2 15 -23 0 -23
13 1 34 13 12 20 14 23 5 2 -7 18 0 41 21 27 23 37 28 37 16 0 -18 15 -22 25
-6 3 6 15 10 26 10 11 0 27 7 35 15 23 23 65 30 75 14 6 -11 9 -8 9 8 0 21 29
38 56 32 21 -4 32 2 30 18 -2 24 53 51 65 32 6 -11 11 -10 26 3 12 11 23 14
33 8 9 -6 17 -5 21 2 5 7 36 11 83 10 43 -1 76 3 76 8 0 6 -8 10 -17 10 -15 0
-16 2 -3 10 9 6 16 6 18 0 2 -5 16 -7 31 -4 17 4 33 0 42 -9 14 -14 81 -28
149 -31 19 0 41 -7 48 -13 7 -7 20 -13 28 -13 8 0 19 -11 23 -24 7 -16 23 -27
56 -37 25 -7 53 -24 63 -37 9 -13 27 -36 40 -50 12 -15 32 -46 44 -69 12 -24
29 -43 37 -43 19 0 77 -86 87 -127 4 -15 10 -30 14 -33 3 -3 14 -22 23 -42 10
-21 21 -38 25 -38 5 0 14 -17 21 -37 8 -21 17 -40 20 -43 3 -3 19 -31 34 -62
16 -32 33 -60 38 -63 5 -4 9 -17 9 -31 0 -13 4 -24 8 -24 11 0 52 -87 52 -111
0 -11 6 -27 13 -34 32 -36 37 -46 37 -69 0 -14 5 -28 10 -31 6 -3 10 -17 10
-31 0 -13 5 -24 10 -24 6 0 10 -6 10 -13 0 -7 9 -30 20 -52 11 -22 20 -44 20
-51 0 -6 6 -17 14 -23 8 -7 12 -20 9 -30 -3 -10 0 -22 6 -25 6 -4 11 -16 11
-27 0 -10 4 -19 9 -19 5 0 11 -18 15 -39 3 -22 13 -46 21 -55 8 -8 15 -26 15
-40 0 -14 5 -26 10 -26 6 0 10 -18 10 -40 0 -22 4 -40 8 -40 11 0 44 -68 49
-100 2 -14 8 -29 14 -35 5 -5 9 -15 9 -22 0 -7 8 -32 19 -56 10 -23 24 -57 31
-74 14 -37 26 -42 33 -15 3 9 5 4 6 -13 1 -20 4 -26 9 -17 6 8 9 2 9 -18 0
-34 22 -65 30 -42 8 21 22 13 48 -28 14 -22 29 -39 33 -37 16 5 82 -27 82 -40
0 -18 29 -16 36 2 9 23 44 19 44 -5 0 -17 7 -20 45 -20 31 0 51 6 64 19 17 17
29 19 75 14 39 -4 56 -2 56 6 0 6 17 11 40 11 29 0 40 4 40 15 0 11 11 15 39
15 22 0 41 5 43 12 3 7 18 2 43 -15 22 -15 42 -23 45 -18 3 5 12 11 20 13 11
2 16 -7 17 -32 2 -19 6 -59 9 -88 4 -34 2 -58 -5 -65 -6 -6 -11 -22 -11 -35 0
-13 -4 -32 -10 -42 -5 -10 -12 -38 -14 -61 -2 -24 -11 -62 -20 -84 -8 -22 -20
-65 -25 -95 -5 -30 -21 -95 -36 -145 -14 -49 -28 -103 -31 -120 -7 -43 -36
-138 -46 -151 -4 -6 -11 -33 -14 -60 -4 -27 -13 -57 -21 -66 -8 -9 -12 -22 -8
-28 6 -10 -7 -66 -26 -105 -5 -11 -11 -31 -13 -45 -1 -14 -8 -38 -15 -55 -7
-16 -18 -57 -26 -90 -20 -88 -56 -227 -66 -250 -4 -11 -10 -33 -13 -50 -2 -16
-14 -66 -25 -109 -11 -44 -23 -93 -26 -110 -2 -17 -12 -56 -21 -86 -9 -30 -24
-93 -34 -140 -11 -47 -31 -137 -45 -200 -14 -63 -30 -140 -35 -171 -5 -31 -14
-68 -20 -83 -5 -15 -19 -78 -31 -139 -26 -140 -43 -226 -68 -347 -11 -52 -20
-111 -21 -131 0 -20 -4 -49 -10 -65 -13 -38 -36 -169 -55 -314 -9 -63 -21
-137 -27 -164 -10 -47 -34 -206 -63 -430 -8 -59 -19 -131 -25 -160 -21 -106
-60 -357 -60 -390 0 -18 -6 -51 -14 -72 -7 -22 -16 -68 -20 -104 -4 -36 -14
-96 -22 -135 -8 -38 -20 -101 -25 -140 -36 -243 -49 -326 -58 -370 -5 -27 -15
-90 -22 -140 -6 -49 -18 -128 -26 -175 -7 -47 -14 -94 -15 -105 -1 -11 -8 -49
-15 -85 -8 -36 -18 -101 -23 -145 -4 -44 -16 -125 -25 -180 -9 -55 -20 -127
-25 -160 -10 -63 -30 -184 -54 -325 -8 -47 -15 -101 -16 -120 0 -23 -3 -31 -9
-22 -5 9 -10 -5 -14 -40 -10 -106 -28 -222 -42 -276 -8 -31 -15 -67 -15 -79 0
-13 -4 -31 -9 -41 -5 -9 -14 -46 -20 -82 -7 -36 -14 -80 -17 -98 -4 -18 -10
-35 -15 -38 -5 -3 -9 -18 -9 -34 0 -39 -22 -120 -32 -120 -5 0 -6 -11 -2 -25
6 -24 -13 -125 -26 -135 -8 -7 -40 -142 -40 -173 0 -14 -4 -28 -9 -32 -5 -3
-12 -20 -16 -38 -11 -56 -58 -182 -71 -190 -7 -4 -21 -34 -30 -67 -18 -65 -30
-76 -37 -32 l-4 27 -8 -33 c-8 -34 -57 -82 -63 -63 -2 6 -20 11 -40 11 -41 0
-76 18 -54 27 6 2 12 11 12 19 0 10 -13 14 -44 14 -33 0 -52 7 -74 25 -17 14
-37 25 -46 25 -9 0 -16 4 -16 9 0 6 -14 18 -30 28 -17 9 -30 23 -30 30 0 18
-27 16 -34 -2 -7 -19 -40 -19 -60 0 -8 8 -26 15 -40 15 -14 0 -26 5 -26 10 0
6 -18 10 -40 10 -57 0 -55 27 3 33 l42 4 -46 1 c-37 2 -51 8 -73 33 -19 21
-33 28 -46 24 -22 -7 -80 31 -80 52 0 7 -11 13 -25 13 -14 0 -25 5 -25 10 0 6
7 10 15 10 8 0 15 5 15 10 0 6 -8 10 -18 10 -18 0 -46 18 -84 54 -11 10 -27
19 -37 20 -9 2 -17 12 -19 24 -2 12 -17 29 -33 39 -16 10 -29 23 -29 31 0 7 5
10 12 6 7 -4 8 -3 4 5 -4 6 -11 9 -16 6 -9 -6 -50 46 -50 64 0 6 -7 11 -15 11
-9 0 -15 9 -15 24 0 14 -4 28 -10 31 -5 3 -10 19 -10 35 0 16 -6 33 -12 37
-18 11 -49 73 -38 73 20 0 9 21 -14 30 -13 5 -27 19 -31 30 -5 15 -13 20 -26
17 -16 -4 -19 1 -21 41 -1 26 -2 58 -3 70 0 13 -9 28 -18 33 -9 6 -17 19 -17
30 0 21 -15 54 -34 76 -32 36 -36 45 -36 78 0 31 -3 35 -25 35 -14 0 -25 6
-25 13 0 7 -14 21 -30 31 -22 12 -29 23 -25 36 7 22 -16 75 -25 60 -5 -8 -12
-7 -23 4 -8 9 -18 16 -22 16 -15 0 -35 31 -35 54 0 24 -4 26 -40 26 -36 0 -40
3 -40 25 0 13 -8 28 -17 34 -10 5 -14 13 -10 17 4 4 0 16 -10 26 -15 17 -15
18 8 18 21 1 22 2 7 11 -24 13 -23 29 2 29 11 0 20 3 20 8 0 7 -65 52 -75 52
-3 0 -5 -1780 -5 -3955 l0 -3955 24 0 c13 0 76 9 141 20 64 12 149 25 189 31
39 5 94 14 121 19 48 10 170 28 325 49 160 21 398 24 555 7 83 -9 164 -19 180
-22 64 -11 245 -34 350 -44 61 -5 135 -14 165 -19 30 -5 112 -10 182 -10 71
-1 140 -6 154 -12 15 -5 48 -10 73 -10 100 -2 231 -25 361 -63 25 -8 66 -20
93 -27 26 -7 47 -17 47 -21 0 -4 7 -8 16 -8 9 0 27 -9 41 -20 14 -11 29 -17
34 -14 5 3 9 0 9 -5 0 -6 4 -11 10 -11 9 0 131 -77 157 -100 7 -5 17 -10 23
-10 5 0 10 -4 10 -10 0 -5 17 -21 38 -34 37 -24 137 -119 243 -232 220 -234
484 -654 638 -1014 18 -41 41 -93 51 -115 33 -74 147 -398 188 -535 58 -193
85 -296 141 -547 100 -444 148 -754 201 -1298 39 -402 28 -474 -80 -527 -70
-34 -98 -42 -256 -73 -71 -13 -205 -40 -299 -59 -93 -19 -298 -58 -455 -86
-639 -115 -799 -144 -1100 -202 -173 -33 -380 -73 -460 -90 -341 -70 -417 -73
-471 -22 -34 31 -67 98 -93 185 -25 83 -123 504 -161 694 -86 429 -298 1170
-441 1545 -101 264 -120 308 -244 566 -178 369 -357 633 -613 901 l-87 92 0
-2125 0 -2124 77 -132 c188 -325 271 -547 322 -863 43 -271 39 -340 -26 -400
-43 -39 -147 -81 -226 -90 -32 -4 -77 -13 -100 -20 l-42 -12 -3 -2147 -2
-2146 3552 0 3553 1 -32 28 c-18 15 -33 32 -33 37 0 5 -18 18 -40 28 -22 11
-40 25 -40 33 0 7 -11 13 -24 13 -14 0 -28 4 -31 10 -3 5 -1 10 6 10 20 0 0
15 -61 49 -30 17 -49 31 -42 31 20 0 -9 27 -34 31 -10 2 -23 14 -29 27 -6 13
-19 22 -31 22 -12 0 -24 7 -28 15 -3 8 -19 23 -37 34 -17 11 -36 30 -43 43 -6
12 -24 29 -40 37 -16 7 -31 22 -33 32 -3 10 -20 27 -39 38 -19 11 -38 31 -43
43 -5 13 -25 37 -45 55 -20 17 -43 47 -51 65 -22 47 -37 71 -58 86 -9 7 -17
21 -17 30 0 9 -8 31 -18 47 -10 17 -19 48 -21 70 -2 22 -6 42 -11 45 -16 11
-29 79 -31 160 -1 82 3 106 22 142 5 9 12 35 15 58 4 22 10 40 14 40 5 0 11
18 15 40 4 22 11 40 16 40 8 0 26 92 22 120 -3 20 14 74 42 136 13 28 30 73
38 100 16 54 100 227 153 315 71 118 347 658 434 850 57 124 172 389 282 649
211 499 384 1045 477 1510 80 395 109 749 97 1147 -4 126 -3 213 2 213 5 0 15
-7 23 -16 10 -12 25 -14 68 -11 173 16 338 20 481 10 58 -3 300 -8 538 -10
549 -4 824 13 873 54 8 7 19 13 22 13 4 0 37 32 74 71 59 62 141 119 173 119
17 0 11 -25 -21 -86 -41 -76 -145 -320 -194 -454 -44 -118 -76 -160 -161 -211
-133 -80 -161 -124 -162 -259 -1 -94 -7 -152 -28 -250 -15 -73 -19 -292 -5
-336 5 -16 14 -56 21 -89 7 -33 23 -91 35 -130 37 -108 101 -290 107 -301 3
-5 15 -40 27 -79 13 -38 27 -79 32 -90 19 -43 32 -84 64 -205 61 -230 96 -344
142 -470 56 -154 140 -330 158 -330 8 0 11 -8 8 -22 -3 -17 -2 -19 5 -9 8 11
13 10 30 -7 12 -12 38 -32 59 -45 21 -14 47 -34 57 -46 11 -11 24 -21 29 -21
6 0 34 -18 63 -40 30 -22 65 -45 79 -50 14 -5 28 -17 31 -25 4 -8 10 -15 14
-15 5 0 42 -22 82 -49 41 -27 97 -60 125 -75 28 -14 54 -30 58 -36 3 -5 25
-19 48 -30 23 -11 60 -31 82 -45 22 -13 58 -34 80 -45 22 -11 58 -32 80 -46
22 -13 47 -27 55 -31 8 -4 38 -22 67 -40 28 -18 136 -76 240 -129 103 -53 213
-110 243 -126 30 -16 70 -33 90 -38 19 -5 76 -23 125 -40 50 -17 101 -29 115
-26 60 12 86 20 99 33 7 8 26 17 42 20 16 3 29 12 29 19 0 7 9 18 20 24 11 6
17 17 14 24 -4 11 7 16 43 21 26 3 94 15 151 26 119 23 125 22 265 -48 154
-77 240 -86 382 -42 194 60 414 299 449 489 5 28 0 22 -25 -30 -28 -58 -51
-93 -122 -184 -25 -34 -137 -129 -143 -123 -3 2 12 22 33 44 98 104 166 209
214 333 18 47 39 89 46 93 10 6 10 13 3 27 -8 16 -7 18 4 14 8 -3 19 3 25 15
14 25 14 41 0 21 -8 -12 -9 -11 -6 5 2 11 8 19 14 18 12 -2 15 54 3 62 -5 3
-14 -11 -20 -30 -17 -51 -33 -33 -25 29 4 28 10 56 13 61 4 6 5 18 4 28 -2 10
2 16 10 15 9 -2 14 11 15 42 2 40 1 42 -7 16 -5 -16 -7 -33 -4 -38 3 -4 0 -8
-6 -8 -6 0 -10 8 -9 18 3 31 -1 43 -11 37 -12 -7 -13 5 -10 100 1 39 8 89 16
113 8 23 14 58 14 77 0 49 20 135 31 135 13 0 9 -91 -5 -109 -8 -11 -8 -13 1
-8 8 5 11 -21 11 -100 1 -148 2 -154 16 -108 7 22 8 42 4 43 -4 2 -7 31 -6 65
l1 62 6 -50 6 -50 8 70 c12 118 9 172 -9 179 -15 6 -16 19 -10 104 4 57 3 92
-2 84 -6 -9 -11 5 -15 41 -3 31 -11 66 -18 79 -13 23 -13 23 -19 -9 -4 -24 -9
-30 -18 -24 -8 4 -13 17 -11 27 1 11 -1 30 -5 44 -4 14 -8 68 -10 120 -2 52
-7 120 -10 150 -4 38 -3 47 3 30 9 -24 9 -24 10 8 1 20 -3 31 -9 27 -12 -7
-12 12 0 40 8 19 9 18 9 -4 1 -13 4 -21 8 -18 3 4 1 24 -5 44 -7 21 -21 71
-33 111 -21 74 -44 102 -28 35 28 -111 31 -178 25 -443 -6 -291 -16 -371 -60
-499 -26 -77 -94 -189 -128 -210 -17 -11 -19 -9 -17 21 3 84 -50 299 -95 387
-26 50 -87 112 -125 128 -19 8 -85 17 -148 20 -93 5 -120 3 -159 -12 -65 -25
-154 -116 -177 -180 -33 -95 -17 -236 35 -306 30 -40 142 -128 192 -150 38
-16 53 -17 130 -9 48 6 113 19 144 29 32 10 83 21 114 25 48 5 56 4 52 -8 -13
-33 -282 -83 -379 -71 -45 6 -69 17 -137 67 -46 33 -100 79 -121 102 -106 118
-94 361 25 495 56 62 211 80 521 59 61 -5 107 -4 107 1 0 15 -23 19 -212 41
-204 23 -263 36 -423 87 -139 45 -221 82 -265 120 -19 16 -44 36 -56 44 -123
83 -265 241 -328 366 -35 71 -33 90 4 26 64 -112 139 -205 254 -316 116 -112
241 -176 431 -221 61 -15 128 -32 150 -38 57 -16 368 -21 363 -6 -3 7 -26 17
-54 24 -183 45 -338 111 -459 194 -134 93 -295 269 -355 390 -13 25 -31 57
-42 73 -40 56 -96 262 -101 370 -2 37 -4 44 -13 32 -12 -17 -34 -20 -34 -6 0
5 9 29 19 53 22 51 92 119 141 139 39 15 181 19 220 5 23 -7 24 -7 9 8 -21 22
-130 39 -204 31 -97 -10 -236 -53 -268 -83 -41 -39 -117 -140 -139 -187 -19
-40 -19 -40 -14 -7 12 71 91 213 172 307 31 37 64 61 123 90 45 21 81 41 81
45 -1 3 -19 18 -42 34 l-41 28 -64 -25 c-34 -14 -63 -21 -63 -15 0 18 66 77
94 84 29 7 104 -6 195 -34 59 -18 111 -62 111 -93 0 -10 11 -26 24 -34 33 -22
43 -49 16 -42 -11 3 -20 1 -20 -4 0 -5 7 -9 16 -9 8 0 77 -25 152 -56 75 -30
144 -58 152 -61 8 -3 -6 14 -32 37 -27 23 -48 45 -48 50 0 13 58 18 71 6 9 -8
9 -6 1 9 -6 12 -25 32 -44 45 -56 42 -104 93 -91 97 14 5 79 -24 141 -63 70
-44 50 -7 -61 107 -99 103 -206 186 -245 192 -36 5 -50 26 -50 70 1 26 -7 55
-20 77 -12 19 -22 38 -22 43 0 15 26 6 53 -17 16 -14 34 -27 40 -30 9 -5 9 -8
0 -12 -20 -9 -15 -31 11 -51 63 -48 212 -177 309 -268 125 -115 195 -217 305
-445 36 -74 92 -177 124 -227 48 -75 65 -93 84 -93 26 0 30 10 13 27 -9 9 -8
16 3 27 9 8 19 12 23 8 4 -4 -25 58 -66 138 -72 139 -147 259 -265 420 -30 41
-65 91 -78 110 -41 61 -254 288 -324 346 -100 83 -112 90 -123 73 -7 -12 -9
-12 -9 1 0 9 -15 21 -32 28 -37 14 -88 55 -88 72 0 5 -4 10 -9 10 -5 0 -7 8
-5 18 13 51 -303 289 -616 464 -25 14 -61 34 -80 45 -95 54 -316 138 -428 163
-98 23 -191 46 -240 62 -25 7 -37 7 -45 -1 -9 -9 -8 -14 3 -21 31 -19 -2 -22
-62 -5 -35 9 -79 15 -98 13 -36 -3 -39 -9 -24 -55 6 -23 6 -23 -32 -9 -22 7
-45 11 -52 9 -7 -3 -24 -2 -37 1 -18 5 -25 13 -25 31 0 20 7 26 43 36 23 6 50
15 60 21 10 5 91 13 180 18 89 5 234 20 322 34 88 13 187 27 220 31 191 21
463 74 800 155 132 32 295 48 295 29 0 -5 6 -9 14 -9 15 0 26 -21 26 -49 0 -9
-20 -38 -45 -63 -49 -51 -54 -64 -27 -72 9 -3 35 -23 57 -43 23 -21 54 -47 69
-58 16 -11 74 -60 130 -109 56 -48 111 -95 123 -103 26 -17 205 -185 242 -227
14 -16 69 -73 121 -126 52 -54 129 -135 170 -181 41 -45 101 -108 132 -138 31
-31 80 -84 108 -119 46 -56 311 -324 522 -527 174 -169 541 -484 673 -580 15
-11 32 -25 39 -30 13 -13 250 -192 426 -322 69 -51 130 -96 135 -100 6 -5 51
-40 100 -78 50 -39 107 -84 128 -100 22 -17 60 -46 87 -65 47 -34 191 -144
316 -241 33 -25 86 -64 117 -86 30 -21 89 -64 129 -95 40 -31 129 -98 198
-149 146 -108 475 -377 611 -498 254 -228 569 -568 746 -806 152 -205 327
-502 403 -685 17 -41 37 -88 45 -105 31 -72 105 -300 133 -415 95 -385 94
-686 -4 -1142 l-6 -28 1051 0 1051 0 0 15360 0 15360 -10240 0 -10240 0 1
-2117z m15229 537 c40 -22 79 -45 86 -51 12 -10 41 -26 119 -67 71 -37 408
-261 451 -300 10 -9 39 -30 64 -47 24 -16 51 -35 60 -42 227 -180 278 -223
459 -392 179 -168 387 -400 496 -557 22 -31 45 -62 50 -68 23 -24 205 -301
304 -461 255 -414 376 -681 602 -1335 39 -113 73 -205 89 -245 27 -63 70 -201
70 -222 0 -13 7 -31 15 -39 8 -9 15 -26 15 -39 0 -13 4 -26 9 -29 5 -3 11 -20
14 -38 2 -18 21 -87 41 -153 20 -66 38 -142 41 -170 l4 -50 -14 40 -14 40 2
-62 c1 -35 5 -63 10 -63 4 0 7 -9 7 -21 0 -11 6 -33 14 -47 15 -28 47 -178 52
-247 3 -43 17 -139 33 -245 83 -524 88 -552 96 -645 4 -38 13 -122 21 -185 8
-63 17 -142 19 -175 6 -69 25 -230 32 -260 15 -70 24 -168 20 -218 -3 -33 -1
-55 4 -51 5 3 7 9 5 13 -3 4 0 13 5 21 7 10 9 -5 8 -50 -1 -51 4 -138 13 -219
4 -37 -7 -33 -12 4 -5 28 -11 73 -16 100 -4 28 -7 58 -8 67 0 9 -4 14 -8 12
-4 -3 -9 3 -9 13 -5 67 -11 102 -33 218 -35 175 -58 265 -69 265 -6 0 -7 -18
-3 -42 3 -24 10 -90 16 -148 5 -58 14 -139 20 -180 6 -41 13 -96 16 -122 4
-27 12 -48 18 -48 7 0 6 -3 -2 -8 -9 -6 -10 -20 -4 -53 5 -25 6 -66 2 -90 -7
-41 -8 -40 -9 24 -1 69 -17 120 -30 99 -12 -20 -13 -166 -1 -309 13 -162 19
-683 8 -689 -5 -3 -8 -12 -8 -20 0 -8 5 -12 10 -9 6 3 10 -1 10 -10 0 -10 -5
-13 -11 -9 -9 5 -10 -1 -5 -22 13 -47 7 -1040 -5 -1067 -7 -16 -8 -35 -1 -59
6 -23 6 -41 -1 -54 -6 -10 -14 -111 -19 -224 -4 -113 -13 -235 -18 -273 -6
-37 -10 -92 -10 -123 0 -34 -4 -53 -10 -49 -6 4 -10 -12 -10 -39 0 -25 -4 -46
-10 -46 -6 0 -10 -27 -10 -60 0 -33 -6 -69 -12 -80 -10 -15 -10 -27 -1 -49 8
-22 8 -31 -1 -35 -7 -3 -6 -8 4 -15 10 -8 12 -13 4 -18 -10 -7 -30 -439 -26
-540 1 -18 -2 -35 -8 -38 -5 -3 -6 -13 -3 -22 4 -11 3 -14 -5 -9 -7 4 -12 13
-12 21 0 8 -5 17 -11 21 -9 5 -10 -1 -5 -22 6 -28 6 -28 -7 -6 -10 17 -13 55
-10 134 3 116 0 128 -16 62 -12 -49 -5 125 9 231 5 39 12 122 14 185 3 63 8
151 11 195 4 47 3 75 -2 68 -10 -14 -10 52 0 77 9 24 13 99 5 93 -5 -2 -6 49
-3 114 6 147 5 294 -1 304 -2 5 -7 97 -9 206 -9 425 -16 597 -26 614 -5 10 -9
35 -9 57 0 21 -2 41 -5 44 -11 10 -19 172 -16 318 1 81 -2 140 -6 133 -5 -7
-9 64 -10 161 0 95 -3 188 -7 207 -4 25 -4 29 3 14 8 -16 10 -12 10 23 1 23
-3 42 -9 42 -14 0 -13 27 2 32 7 3 8 9 3 18 -12 19 -18 113 -7 106 10 -6 -9
88 -21 100 -11 11 -8 82 3 89 7 4 9 42 6 103 -3 54 -5 97 -6 97 0 0 -2 32 -4
70 -2 39 -6 84 -10 100 -3 17 -10 82 -15 145 -6 63 -16 151 -24 195 -8 44 -20
124 -27 177 -8 57 -17 95 -23 91 -6 -4 -8 5 -5 21 3 17 0 33 -9 42 -8 8 -15
30 -15 50 0 19 -6 40 -13 47 -13 13 -18 37 -36 147 -6 36 -17 79 -24 95 -15
31 -63 238 -62 267 0 9 -9 51 -21 95 -35 130 -62 247 -62 269 0 11 -3 24 -7
28 -4 3 -8 12 -9 19 -1 7 -16 64 -33 127 -18 63 -37 133 -43 155 -5 22 -14 49
-18 60 -18 45 -53 161 -54 180 -2 13 -27 87 -34 100 -3 5 -7 16 -8 25 -1 8
-15 56 -32 106 -16 50 -33 111 -37 135 -4 24 -12 50 -17 57 -6 6 -8 12 -5 12
3 0 -3 30 -14 68 -11 37 -22 72 -23 77 -2 6 -6 17 -9 25 -16 40 -57 176 -57
190 0 16 -41 128 -83 227 -15 34 -27 68 -27 75 0 7 -17 49 -39 93 -21 44 -44
97 -50 118 -7 20 -16 37 -21 37 -4 0 -15 18 -24 40 -9 22 -36 74 -61 114 -25
41 -45 77 -45 80 0 4 -12 25 -27 49 -15 23 -53 89 -85 146 -33 57 -64 108 -69
115 -6 6 -18 23 -27 38 -9 14 -39 57 -66 95 -77 107 -107 165 -66 128 11 -10
20 -22 20 -27 0 -10 51 -57 63 -58 15 0 5 20 -53 108 -33 51 -60 95 -60 99 0
4 -9 16 -20 28 -12 13 -22 39 -24 65 -2 25 -9 46 -15 48 -6 2 -11 9 -11 15 0
7 -11 24 -25 39 -14 15 -25 30 -25 33 0 3 -9 16 -21 28 -23 24 -69 117 -69
140 0 21 -168 267 -228 335 -28 31 -87 95 -132 141 -44 46 -78 86 -75 89 9 9
99 -52 163 -112 37 -35 80 -74 96 -87 33 -27 48 -40 101 -89 50 -46 34 -17
-35 62 -78 90 -344 332 -465 423 -84 63 -159 141 -129 133 11 -3 84 -49 163
-102 79 -54 146 -94 149 -91 4 4 -22 32 -57 64 -36 31 -118 108 -184 171 -65
63 -126 119 -134 124 -8 4 -23 16 -33 25 -97 91 -216 193 -287 246 -55 41 -62
50 -40 58 15 6 -11 28 -65 57 -21 11 -38 25 -38 30 0 5 -12 15 -27 22 -17 8
-28 21 -28 33 0 16 -6 19 -27 17 -14 -2 -30 2 -34 9 -5 9 -2 10 10 6 10 -4 19
-1 22 8 8 21 12 20 94 -25z m-13750 -1210 c12 -8 9 -10 -12 -10 -16 0 -28 5
-28 10 0 13 20 13 40 0z m-444 -87 c-10 -10 -19 5 -10 18 6 11 8 11 12 0 2 -7
1 -15 -2 -18z m15073 -297 c5 -12 16 -28 25 -35 9 -7 16 -19 16 -25 0 -7 12
-23 26 -37 27 -25 134 -175 134 -188 0 -15 46 -49 70 -53 14 -2 37 -20 56 -45
18 -23 35 -39 38 -36 3 4 6 0 6 -7 0 -16 109 -150 121 -150 5 0 7 11 3 25 -3
14 -2 25 2 25 11 0 86 -115 82 -126 -1 -5 12 -34 29 -64 17 -30 46 -93 62
-138 31 -83 101 -192 101 -157 0 9 -8 34 -19 54 -34 67 -51 112 -51 135 0 13
-12 49 -26 80 -14 32 -24 59 -22 61 2 2 22 -24 45 -58 30 -45 38 -65 31 -74
-7 -8 -7 -13 -1 -13 6 0 30 -41 54 -92 24 -51 65 -133 90 -182 25 -50 52 -113
59 -141 7 -27 17 -53 22 -56 5 -3 10 -29 12 -57 2 -29 11 -58 20 -67 9 -9 16
-23 16 -31 0 -8 7 -29 16 -47 l17 -31 -31 29 c-17 16 -29 32 -26 37 3 4 1 8
-4 8 -10 0 -36 88 -37 120 0 26 -59 130 -82 145 -20 13 -22 13 -17 0 4 -8 10
-15 14 -15 8 0 22 -50 24 -82 1 -9 4 -20 9 -24 4 -4 7 -18 7 -30 0 -13 4 -25
9 -28 5 -3 11 -20 14 -38 3 -18 16 -76 30 -128 13 -52 23 -97 21 -99 -6 -6
-44 36 -44 49 0 5 -4 10 -10 10 -5 0 -10 8 -10 18 0 14 2 15 10 2 18 -27 10
-1 -11 40 -12 22 -36 82 -54 133 -86 243 -113 297 -100 202 4 -27 11 -66 17
-85 5 -19 18 -69 28 -110 26 -107 56 -216 78 -281 11 -33 15 -64 11 -75 -6
-15 -8 -12 -8 13 -1 17 -5 34 -10 38 -20 11 -94 224 -107 305 -4 19 -21 64
-39 100 -18 36 -36 80 -40 97 -3 18 -11 35 -16 39 -5 3 -17 23 -25 44 -9 21
-21 41 -29 43 -7 3 -15 21 -19 40 -4 19 -13 40 -21 47 -8 7 -15 19 -15 26 0 8
-4 14 -10 14 -5 0 -10 -5 -10 -11 0 -19 49 -124 107 -229 30 -54 76 -186 71
-202 -4 -12 -33 44 -58 112 -13 35 -113 236 -127 256 -5 5 -16 26 -27 45 -47
87 -70 124 -76 129 -4 3 -11 16 -15 30 -4 14 -18 41 -30 60 -28 44 -78 141
-81 156 -2 13 -34 64 -40 64 -7 0 18 -55 95 -211 43 -87 82 -155 86 -151 5 4
5 1 1 -5 -4 -7 9 -46 29 -86 19 -41 35 -77 35 -80 0 -4 16 -39 35 -80 19 -41
35 -79 35 -85 0 -5 3 -12 8 -14 4 -1 22 -37 41 -78 59 -131 76 -165 93 -184
35 -39 117 -296 178 -556 18 -74 43 -180 57 -235 30 -118 52 -229 48 -234 -16
-16 -52 76 -101 256 -15 56 -31 100 -36 97 -5 -3 -6 6 -2 21 5 19 3 25 -7 23
-9 -2 -15 15 -20 57 -4 33 -14 74 -23 90 -9 17 -19 46 -22 65 -10 47 -28 65
-46 43 -11 -14 -11 -16 4 -11 21 9 31 -2 16 -19 -8 -10 -8 -23 0 -51 6 -20 14
-68 18 -105 4 -38 12 -74 19 -80 7 -7 15 -29 19 -50 4 -20 11 -37 15 -37 5 0
11 -15 14 -32 4 -18 9 -49 12 -68 4 -19 10 -44 15 -55 11 -28 27 -97 40 -180
6 -38 18 -100 26 -136 16 -77 18 -119 5 -119 -5 0 -7 8 -4 19 2 10 -2 25 -10
33 -8 8 -17 23 -21 34 -9 30 2 -45 15 -101 7 -27 12 -60 13 -72 0 -13 4 -23 9
-23 4 0 7 -13 7 -28 0 -16 3 -32 7 -35 3 -4 7 -19 8 -34 1 -16 11 -80 23 -143
12 -63 24 -133 27 -155 4 -22 10 -56 15 -75 5 -19 11 -57 14 -85 2 -27 5 -54
6 -60 4 -17 0 -49 -4 -44 -3 2 -12 38 -21 79 -9 41 -21 95 -27 120 -5 25 -11
52 -13 60 -1 8 -7 26 -12 40 -6 14 -14 50 -18 80 -4 30 -11 60 -16 65 -4 6
-13 42 -19 80 -6 37 -13 72 -16 76 -11 18 -119 441 -155 604 -22 102 -47 195
-49 180 -2 -16 -45 95 -59 150 -6 28 -22 79 -35 115 -13 36 -32 94 -42 130 -9
36 -21 70 -24 75 -4 6 -12 24 -18 40 -60 170 -126 337 -147 377 -8 14 -15 33
-15 41 0 9 -6 22 -14 29 -7 8 -21 27 -30 43 l-17 30 6 -35 c7 -46 -117 209
-140 285 -9 31 -22 58 -30 61 -7 3 -11 12 -8 20 3 8 0 14 -6 14 -6 0 -11 5
-11 12 0 15 -83 182 -92 186 -5 2 -8 11 -8 20 0 10 -10 33 -22 52 -19 31 -53
93 -121 223 -26 50 -15 59 24 19 30 -31 49 -40 49 -24 0 4 -23 47 -50 96 -28
49 -50 94 -50 100 0 6 31 -22 69 -62 59 -61 101 -89 101 -66 0 3 -30 56 -66
118 -37 61 -76 126 -86 144 -11 17 -17 32 -14 32 7 0 75 -70 129 -132 22 -27
44 -48 49 -48 11 0 10 34 -1 46 -14 14 -71 123 -71 135 0 17 40 -11 49 -35z
m-15614 -16 c3 -5 1 -10 -4 -10 -6 0 -11 5 -11 10 0 6 2 10 4 10 3 0 8 -4 11
-10z m15460 -240 c3 -5 1 -10 -4 -10 -6 0 -11 5 -11 10 0 6 2 10 4 10 3 0 8
-4 11 -10z m645 -252 c1 -24 -40 17 -66 67 -13 24 -8 22 25 -15 22 -25 41 -48
41 -52z m-2431 -14 c2 -11 0 -16 -3 -13 -4 4 -27 1 -51 -7 -31 -9 -46 -10 -51
-2 -4 6 1 15 10 20 9 5 15 12 12 16 -2 4 15 6 37 6 33 -1 43 -5 46 -20z m1
-54 c0 -5 10 -10 23 -11 20 -1 19 -2 -8 -14 -16 -8 -37 -14 -45 -14 -13 0 -13
1 1 12 9 7 14 18 12 25 -3 6 0 12 6 12 6 0 11 -4 11 -10z m88 -44 c14 -1 27
-7 30 -15 3 -9 0 -12 -10 -8 -9 3 -20 1 -25 -4 -14 -14 -123 -38 -141 -32 -17
7 53 53 81 53 9 0 17 5 17 11 0 5 5 7 11 3 7 -4 23 -7 37 -8z m32 -56 c-16
-10 -8 -13 29 -10 27 2 25 -22 -3 -26 -23 -3 -32 -12 -21 -21 4 -5 10 -3 12 4
3 9 16 6 46 -9 23 -12 45 -26 48 -31 4 -5 9 -4 13 2 12 19 26 12 26 -14 0 -14
8 -29 20 -35 11 -6 20 -8 20 -4 0 4 8 0 18 -8 9 -8 25 -18 35 -21 9 -4 17 -12
17 -19 0 -16 49 -40 63 -31 6 3 7 2 4 -4 -6 -10 26 -43 43 -43 6 0 10 -4 10
-8 0 -4 23 -26 52 -47 29 -22 64 -51 78 -65 15 -14 46 -41 70 -60 24 -19 53
-44 64 -55 12 -11 23 -20 26 -20 3 0 20 -16 39 -35 18 -19 38 -34 43 -32 5 1
7 -1 4 -6 -3 -5 14 -24 36 -43 23 -19 60 -52 83 -74 22 -22 54 -52 70 -66 51
-46 139 -142 159 -173 10 -16 37 -53 60 -82 22 -29 52 -69 66 -89 14 -19 33
-46 44 -58 19 -24 40 -67 38 -79 -1 -5 2 -8 8 -8 5 0 10 -6 10 -14 0 -7 11
-25 25 -40 14 -15 25 -37 25 -48 0 -12 3 -18 6 -15 7 7 83 -139 84 -160 0 -6
5 -13 10 -15 6 -2 12 -12 15 -23 5 -22 26 -82 46 -130 7 -16 13 -34 14 -40 3
-26 19 -74 34 -110 16 -36 21 -54 37 -135 3 -13 9 -29 14 -35 4 -5 11 -32 15
-60 4 -27 11 -55 16 -60 4 -6 10 -28 12 -50 14 -115 21 -151 29 -156 5 -3 15
-44 23 -90 8 -46 24 -138 36 -204 24 -137 37 -243 45 -365 3 -47 11 -88 17
-92 16 -10 15 -481 -1 -500 -6 -8 -9 -23 -6 -35 3 -11 -1 -34 -10 -51 -8 -16
-13 -31 -11 -34 12 -12 -34 -102 -78 -149 -10 -11 -15 -24 -12 -29 4 -6 0 -10
-8 -10 -7 0 -23 -13 -35 -30 -13 -16 -30 -30 -39 -30 -9 0 -14 -2 -11 -5 3 -3
-32 -43 -76 -89 -133 -139 -176 -190 -176 -208 0 -10 -7 -18 -15 -18 -8 0 -14
-3 -13 -7 3 -14 -21 -63 -31 -63 -5 0 -16 -17 -24 -38 -8 -21 -22 -44 -31 -51
-9 -8 -16 -20 -16 -27 0 -8 -4 -14 -10 -14 -5 0 -10 -8 -10 -19 0 -10 -7 -24
-15 -31 -18 -15 -66 -115 -70 -144 -1 -12 -16 -44 -33 -73 -17 -28 -28 -53
-26 -56 3 -3 1 -13 -4 -24 -11 -21 -41 -105 -52 -148 -5 -16 -19 -66 -31 -110
-30 -103 -33 -265 -6 -292 16 -16 17 -16 17 0 0 10 8 17 20 17 12 0 34 14 50
30 16 17 32 30 35 30 11 0 4 -29 -7 -33 -7 -3 -2 -4 12 -3 14 0 38 13 53 29
46 45 49 31 7 -29 -49 -70 -93 -176 -115 -277 -19 -87 -16 -108 15 -100 24 6
201 -14 248 -28 34 -11 43 -27 15 -29 -10 0 -65 -1 -122 -3 -100 -2 -104 -3
-114 -27 l-10 -25 -7 25 c-5 14 -8 19 -9 13 -1 -7 -5 -13 -11 -13 -5 0 -7 6
-4 14 3 8 1 17 -5 21 -18 11 -13 -95 8 -176 34 -132 51 -194 56 -204 8 -15 -3
128 -10 148 -4 9 -3 17 3 17 6 0 13 -18 17 -40 4 -22 11 -38 15 -35 5 3 12 -5
16 -17 3 -13 11 -29 17 -36 6 -7 12 -25 13 -38 4 -38 46 -134 56 -128 4 3 8 1
8 -5 0 -5 -6 -11 -12 -14 -10 -3 -10 -8 1 -21 8 -9 11 -20 7 -23 -4 -4 4 -13
16 -20 13 -7 17 -12 11 -13 -22 0 -14 -18 10 -22 15 -2 21 -9 19 -21 -2 -10 1
-24 6 -30 12 -16 22 -53 28 -102 3 -22 10 -45 16 -52 7 -9 7 -13 -1 -13 -20 0
-12 -28 14 -48 24 -19 24 -21 10 -48 -20 -39 -20 -78 0 -70 21 8 19 -24 -2
-40 -16 -11 -16 -16 -5 -35 12 -19 12 -21 -2 -16 -8 3 -18 2 -21 -3 -3 -4 0
-10 6 -12 6 -2 13 -23 15 -47 3 -26 0 -40 -6 -36 -5 3 -10 13 -10 21 0 8 -4
14 -10 14 -5 0 -10 -3 -10 -7 1 -30 107 -324 168 -463 65 -148 82 -209 82
-287 0 -90 -51 -202 -125 -275 -17 -17 -25 -34 -21 -43 3 -9 -3 -33 -13 -53
-10 -20 -22 -52 -26 -69 -3 -18 -11 -33 -16 -33 -5 0 -9 -14 -9 -31 0 -17 -6
-45 -14 -62 -7 -18 -31 -72 -53 -122 -36 -80 -55 -133 -82 -230 -4 -16 -16
-55 -24 -85 -31 -104 -90 -333 -118 -450 -9 -41 -30 -124 -47 -185 -16 -60
-33 -132 -37 -160 -7 -50 -18 -88 -53 -180 -47 -121 -92 -225 -124 -285 -19
-36 -59 -110 -88 -165 -29 -55 -70 -131 -90 -170 -21 -38 -61 -115 -90 -170
-29 -55 -93 -169 -142 -254 -181 -310 -240 -450 -312 -737 -82 -330 -142 -466
-271 -617 -75 -88 -156 -152 -265 -207 -69 -35 -99 -45 -185 -65 l-30 -7 30
26 c17 14 38 26 48 26 9 0 17 4 17 8 0 5 11 15 25 22 19 10 22 16 14 27 -8 9
-8 13 0 13 6 0 11 5 11 10 0 6 -11 8 -25 4 -15 -4 -25 -2 -25 5 0 6 -15 11
-34 11 -19 0 -38 5 -41 10 -3 6 -15 10 -26 10 -11 0 -39 9 -62 19 -23 10 -75
25 -114 32 -40 7 -73 17 -73 21 0 4 -10 8 -22 8 -13 0 -52 14 -86 30 -35 17
-71 30 -81 30 -9 0 -27 8 -41 17 -17 12 -25 13 -28 5 -3 -9 -10 -9 -30 2 -15
7 -40 20 -57 27 -16 7 -41 21 -54 31 -13 10 -30 18 -37 18 -8 0 -42 14 -76 30
-34 17 -67 30 -74 30 -6 0 -17 7 -24 15 -14 17 -56 37 -112 55 -21 6 -44 20
-50 29 -7 10 -29 26 -48 37 -34 18 -41 20 -59 23 -5 0 -12 9 -15 19 -3 9 -31
28 -61 42 -31 13 -63 32 -72 42 -9 10 -21 18 -27 18 -13 0 -73 49 -124 100
-19 19 -41 34 -48 32 -8 -2 -14 3 -14 11 0 16 -54 70 -62 62 -3 -3 -34 27 -69
66 -35 39 -70 77 -76 85 -7 7 -13 17 -13 23 0 5 -10 18 -23 28 -31 25 -77 87
-77 104 0 8 -14 28 -30 46 -17 18 -30 37 -30 43 0 6 -6 13 -14 16 -9 4 -13 23
-12 67 0 34 -3 97 -8 140 -8 74 -8 77 13 77 14 0 21 6 21 20 0 11 5 20 11 20
7 0 9 10 7 25 -4 17 2 33 18 51 26 28 30 40 13 46 -14 5 16 68 31 68 6 0 10 5
10 11 0 5 -4 7 -10 4 -5 -3 -10 1 -10 9 0 9 4 16 10 16 13 0 8 44 -6 50 -18 8
17 80 38 80 14 0 18 8 18 40 0 22 -4 40 -9 40 -15 0 -19 39 -5 51 18 15 18 29
1 29 -11 0 -13 17 -9 78 3 42 9 80 14 83 6 4 6 15 -2 28 -6 12 -10 29 -9 39 2
29 -1 42 -10 42 -5 0 -11 -8 -13 -17 -2 -10 -4 17 -4 60 0 44 -5 82 -11 85
-20 14 -30 68 -23 122 9 65 7 70 -26 70 -18 0 -24 5 -24 21 0 15 5 19 19 14
17 -5 18 -1 14 42 -6 66 -9 73 -33 73 -11 0 -20 5 -20 10 0 6 5 10 10 10 19 0
10 18 -12 25 l-23 7 25 8 c14 4 19 8 13 9 -19 2 -16 22 9 48 12 13 16 23 10
23 -7 0 -12 -5 -12 -11 0 -8 -5 -8 -15 1 -8 7 -15 20 -15 30 0 10 7 23 15 30
21 17 19 30 -5 30 -22 0 -23 3 -14 38 4 12 13 22 20 22 19 0 18 3 -16 57 -30
47 -39 83 -20 83 6 0 10 9 10 20 0 11 -6 20 -12 20 -9 0 -8 4 2 10 13 9 11 13
-10 29 -27 21 -26 25 10 40 22 9 23 10 5 10 -17 1 -21 8 -21 36 0 27 4 35 18
35 14 0 18 8 18 40 0 22 -5 40 -11 40 -6 0 -8 9 -4 20 5 15 2 20 -11 20 -16 0
-16 1 1 20 19 21 18 22 -14 24 -32 2 -36 16 -5 17 17 1 22 3 12 6 -18 4 -21
19 -22 118 -1 22 5 49 12 61 14 24 5 65 -9 42 -7 -10 -9 -9 -9 5 0 9 5 17 10
17 14 0 13 47 -2 52 -16 6 -17 78 -1 78 31 0 3 55 -32 63 -15 4 -13 5 7 6 29
1 56 35 38 46 -6 3 -10 -4 -10 -16 0 -40 -14 -10 -15 32 -1 31 -7 46 -26 60
l-24 19 23 6 c14 4 22 14 22 28 0 37 -12 66 -27 66 -10 0 -12 6 -8 19 6 19
-12 45 -37 54 -7 2 -9 8 -5 13 4 5 12 2 16 -5 6 -9 11 -10 15 -2 4 6 3 11 -2
11 -6 0 -13 7 -16 16 -3 8 -2 13 3 10 5 -3 15 2 22 11 13 15 11 16 -12 10 -18
-5 -31 -2 -39 8 -11 13 -7 19 12 17 17 -3 16 29 -2 36 -10 4 -18 12 -17 17 1
6 -10 11 -26 13 -15 2 -25 7 -22 12 3 4 14 6 24 3 16 -4 19 1 19 31 0 19 -6
40 -14 47 -8 6 -15 30 -15 53 -1 32 -3 36 -8 16 -4 -15 -14 -26 -26 -27 -16
-2 -20 4 -19 30 0 17 6 33 12 35 20 6 13 22 -8 22 -11 0 -20 4 -20 8 0 4 9 14
20 22 11 8 20 18 20 23 0 5 -6 4 -14 -2 -14 -12 -46 -5 -46 10 0 5 -9 9 -20 9
-22 0 -23 1 -14 24 3 9 12 16 20 16 10 0 11 6 4 25 -5 14 -7 32 -4 40 4 10 0
15 -12 15 -12 0 -15 3 -8 8 14 8 0 52 -16 52 -6 0 -10 8 -8 18 2 11 -3 17 -14
16 -14 -1 -16 7 -14 47 1 35 -2 49 -11 49 -7 0 -13 6 -13 14 0 18 -17 29 -30
21 -8 -5 -8 -11 -1 -19 12 -14 5 -26 -14 -26 -7 0 -11 15 -11 34 1 19 3 34 6
34 3 0 12 0 20 1 13 1 13 2 0 11 -12 8 -13 11 -1 19 10 6 10 10 1 16 -7 4 -13
-1 -17 -14 -6 -25 -23 -18 -23 11 0 12 -8 22 -20 25 -19 5 -20 6 -3 19 24 18
33 17 33 -3 0 -14 2 -15 9 -4 6 9 3 20 -7 32 -15 17 -17 17 -34 3 -24 -22 -48
-11 -48 23 0 22 2 25 10 13 8 -12 10 -9 10 13 0 20 -5 27 -20 27 -14 0 -20 7
-20 21 0 17 -3 19 -14 10 -10 -9 -16 -9 -21 -1 -4 7 2 14 14 17 35 9 25 33
-14 33 -19 0 -35 4 -35 9 0 22 13 39 26 34 8 -3 14 0 14 6 0 7 -6 14 -14 17
-8 3 -12 12 -9 20 4 10 -2 14 -20 14 -28 0 -46 18 -30 29 6 3 14 17 18 29 6
22 5 23 -17 17 -22 -6 -22 -5 -5 9 18 14 18 15 0 25 -10 6 -14 11 -10 11 5 0
5 5 1 11 -4 8 -9 7 -16 -2 -8 -11 -9 -11 -5 1 2 8 11 14 21 12 9 -2 16 2 16 8
0 5 -11 10 -25 10 -14 0 -25 -3 -25 -7 0 -17 -52 -32 -72 -22 -22 12 -14 32
10 25 44 -14 52 37 11 63 -13 8 -21 11 -17 6 8 -9 -9 -35 -22 -35 -4 0 -10 15
-13 33 -9 58 -14 71 -25 75 -7 2 -10 7 -8 11 8 13 16 63 27 161 5 52 12 102
15 110 3 8 7 64 10 124 2 60 6 112 9 116 3 4 30 106 60 226 55 218 84 322 111
399 8 23 14 51 14 63 0 12 6 22 14 22 15 0 26 21 26 51 0 11 5 17 10 14 6 -3
10 4 11 17 0 13 3 18 6 11 3 -8 10 -9 21 -3 19 10 51 22 69 26 6 1 19 -7 29
-17 9 -10 23 -19 30 -19 7 0 14 -5 16 -11 2 -6 17 -11 32 -11 19 0 30 -7 33
-19 3 -9 11 -15 17 -13 7 3 27 -8 44 -24 17 -16 45 -35 62 -42 17 -7 34 -18
38 -24 4 -6 24 -19 45 -28 20 -10 37 -22 37 -27 0 -5 9 -7 20 -4 11 3 20 1 20
-5 0 -8 44 -27 46 -19 0 1 15 -11 33 -26 44 -37 244 -132 298 -142 15 -2 29
-8 32 -13 7 -10 78 -35 146 -52 28 -7 86 -23 130 -35 121 -34 222 -46 360 -45
171 2 168 2 183 22 11 15 17 16 27 8 10 -8 19 -8 35 0 l22 12 -21 15 c-12 8
-28 12 -36 9 -8 -3 -15 -1 -15 5 0 6 -9 8 -22 4 -23 -7 -23 -7 -3 9 13 10 16
18 9 23 -6 5 -14 17 -18 28 -7 20 -8 20 -22 1 -14 -20 -14 -20 -14 0 0 16 -2
17 -10 4 -9 -13 -12 -13 -25 4 -8 11 -21 16 -30 12 -9 -3 -13 -2 -10 4 3 6 -3
10 -14 10 -11 0 -23 5 -26 11 -4 6 -28 9 -54 7 l-46 -3 -5 42 c-4 35 -8 41
-20 33 -24 -16 -60 -11 -67 8 -4 9 -12 22 -19 27 -7 6 -12 21 -11 34 2 29 40
47 57 26 6 -8 18 -11 26 -8 8 3 14 -1 14 -11 0 -23 36 -20 60 4 11 11 26 20
34 20 21 0 45 -39 52 -81 5 -29 10 -36 27 -35 15 1 24 11 31 36 12 45 9 42 57
46 37 3 46 0 75 -31 32 -34 33 -35 44 -15 6 12 10 35 8 53 -3 31 -4 32 -56 35
-47 3 -54 1 -59 -17 -6 -25 -12 -26 -39 -7 -11 8 -42 17 -69 21 -64 9 -119 35
-230 108 -95 63 -106 73 -99 92 3 7 -6 19 -19 28 -37 24 -41 54 -8 60 39 8 98
-24 171 -93 94 -87 185 -124 362 -145 64 -8 78 -19 108 -88 15 -34 27 -47 41
-47 19 0 20 4 14 40 -8 50 11 54 48 10 31 -36 37 -37 37 -5 0 30 18 32 53 5
31 -24 57 -26 57 -4 0 14 8 16 56 11 41 -4 86 -21 165 -61 60 -31 118 -56 129
-56 10 0 23 -8 29 -17 8 -14 12 -15 22 -6 9 9 6 45 -14 164 -14 83 -23 157
-20 165 6 16 33 19 33 4 0 -5 9 -1 20 10 11 11 24 20 30 20 14 0 50 33 50 46
0 6 11 16 25 22 14 6 25 16 25 22 0 5 5 10 11 10 6 0 18 7 27 16 15 15 15 17
0 28 -15 11 -13 18 12 69 15 32 46 75 69 97 51 50 53 70 7 70 -19 0 -36 6 -39
13 -3 9 -11 9 -33 1 -24 -8 -32 -7 -47 6 -22 22 -22 36 3 43 11 3 20 13 20 24
0 15 -2 16 -10 3 -7 -11 -10 -8 -10 15 0 17 5 36 11 42 7 7 3 12 -15 15 -19 4
-26 1 -26 -10 0 -9 -7 -13 -20 -9 -16 4 -20 0 -20 -19 0 -34 -17 -30 -25 6 -8
38 -15 38 -40 0 -41 -61 -55 -25 -25 64 12 36 20 78 18 93 -3 27 -5 25 -45
-34 -24 -34 -47 -65 -53 -68 -13 -8 0 58 14 67 21 14 -1 17 -26 3 -23 -11 -29
-11 -39 1 -7 8 -18 13 -26 10 -9 -4 -13 3 -13 19 0 30 -25 55 -56 55 -14 0
-52 14 -85 31 -115 58 -296 90 -604 109 -192 12 -213 18 -238 67 -7 16 -18 27
-25 26 -6 -2 -9 4 -6 12 4 10 0 15 -15 15 -12 0 -24 7 -27 15 -4 8 -15 15 -26
15 -11 0 -33 9 -49 21 -16 11 -33 18 -38 14 -5 -3 -12 -1 -16 5 -4 6 -11 8
-16 5 -15 -10 -49 5 -49 22 0 9 -6 13 -14 10 -15 -6 -66 13 -66 24 0 4 -21 12
-47 19 -54 13 -98 35 -123 60 -9 9 -38 27 -63 39 -26 13 -47 29 -47 37 0 8 -4
14 -8 14 -5 0 -6 17 -3 37 5 29 13 41 35 52 23 11 30 11 36 0 7 -10 12 -10 23
-1 23 19 174 31 199 16 4 -3 8 -1 8 5 0 6 39 9 108 6 59 -2 176 -4 261 -5 223
-1 395 -25 596 -82 137 -38 191 -57 300 -103 61 -26 120 -50 131 -55 12 -5 24
-16 28 -25 3 -9 10 -14 16 -10 5 3 20 -3 32 -14 12 -12 28 -21 35 -21 7 0 13
-4 13 -8 0 -5 11 -14 25 -20 14 -7 30 -22 35 -34 8 -21 9 -21 10 -3 1 16 4 15
17 -10 9 -16 15 -32 14 -33 -4 -6 33 -30 40 -26 3 2 12 -7 18 -20 11 -19 19
-23 52 -20 37 3 62 -12 41 -25 -6 -4 -7 -12 -3 -20 7 -11 11 -10 20 5 11 18
12 18 7 -1 -3 -11 -1 -27 4 -35 8 -13 11 -12 24 5 15 19 15 19 16 -10 l1 -30
26 30 c25 28 25 28 18 5 -4 -14 -12 -26 -16 -28 -19 -7 -8 -23 11 -17 17 5 20
2 20 -20 0 -24 1 -25 16 -11 20 21 31 20 44 -3 15 -28 12 -51 -5 -51 -8 0 -15
-9 -15 -20 0 -11 7 -20 16 -20 11 0 14 -6 9 -21 -10 -30 23 -53 47 -33 12 11
18 12 23 4 4 -7 3 -15 -2 -19 -11 -7 -53 -75 -53 -85 0 -4 13 7 30 24 16 16
34 30 39 30 5 0 12 6 15 13 3 6 3 2 0 -10 -4 -17 -1 -23 10 -23 28 0 17 -43
-21 -82 l-37 -38 22 -16 c13 -9 22 -26 22 -42 l1 -27 24 28 c13 15 30 27 37
28 10 0 10 2 0 6 -6 2 -10 9 -7 13 3 5 12 7 20 3 8 -3 15 -1 15 5 0 13 -53 23
-64 12 -5 -6 -4 -15 3 -24 9 -10 9 -16 1 -21 -14 -9 -17 -6 -25 28 -8 29 -1
32 58 28 22 -2 27 2 27 19 0 12 14 41 30 65 17 24 30 48 30 54 0 17 28 13 39
-6 10 -17 10 -17 11 -1 0 9 -4 20 -10 23 -5 3 -10 15 -10 25 0 10 -6 21 -12
23 -9 4 -10 6 -1 6 6 1 18 -6 27 -14 20 -20 29 -3 11 21 -19 25 -19 44 0 44 8
0 15 4 15 9 0 5 19 28 41 51 30 30 38 44 29 50 -13 8 -5 50 11 50 14 0 11 37
-3 44 -7 3 -3 3 10 0 15 -4 22 -1 22 9 0 9 -5 17 -10 19 -7 2 -5 15 5 35 8 17
16 47 17 67 1 20 5 36 10 36 4 0 8 5 8 10 0 19 -24 10 -47 -17 -19 -23 -22
-25 -23 -10 0 11 15 34 34 53 25 25 32 40 29 59 -3 14 -10 25 -15 25 -7 0 -8
16 -4 42 6 36 5 39 -8 29 -21 -18 -34 -6 -28 25 4 23 2 26 -12 21 -14 -6 -16
-3 -11 16 6 18 5 20 -6 10 -20 -19 -31 -16 -24 7 4 11 2 20 -4 20 -6 0 -11 6
-11 14 0 8 -6 16 -14 19 -7 3 -12 16 -11 30 4 30 -20 44 -33 20 -13 -23 -41
-9 -53 26 -7 21 -19 32 -40 36 -16 4 -27 10 -25 14 3 4 -7 7 -22 6 -15 0 -39
9 -55 22 -15 12 -34 20 -42 17 -9 -4 -15 0 -15 7 0 8 -11 15 -24 15 -14 1 -39
12 -56 24 -17 12 -38 19 -46 16 -9 -3 -21 -3 -27 1 -27 17 -77 30 -77 20 0 -5
-9 0 -19 12 -13 15 -29 21 -53 20 -18 -1 -51 8 -73 20 -21 11 -49 21 -61 21
-12 0 -25 6 -27 13 -4 7 -6 6 -6 -5 -1 -15 -5 -14 -42 4 -23 11 -61 20 -86 20
-30 0 -46 4 -50 14 -4 11 -14 13 -33 9 -17 -4 -31 -1 -35 5 -4 7 -21 9 -45 5
-24 -4 -47 -2 -62 6 -12 7 -34 13 -48 15 -76 7 -115 16 -121 26 -5 8 -36 12
-84 11 -52 0 -72 3 -61 9 9 5 13 14 10 20 -4 6 0 14 7 19 9 6 -13 7 -56 3 -38
-4 -74 -10 -80 -15 -15 -15 -45 -10 -52 7 -7 19 -64 14 -151 -12 -61 -19 -74
-13 -44 19 30 31 16 52 -24 36 -16 -7 -45 -13 -64 -15 -19 -1 -66 -7 -105 -13
-142 -23 -278 -31 -312 -19 -18 7 -33 16 -33 21 0 5 -11 6 -24 3 -18 -4 -24
-2 -22 9 1 8 5 17 8 21 4 3 1 15 -5 25 -10 16 -9 22 3 30 11 7 7 8 -15 3 -28
-7 -29 -7 -12 10 9 10 17 29 17 44 0 19 3 23 9 13 6 -10 10 -10 16 -1 4 6 4
14 1 17 -3 4 4 17 16 30 18 20 20 26 8 33 -10 6 -11 12 -3 22 6 7 13 30 17 51
4 21 14 41 22 44 7 3 14 9 14 15 0 5 11 26 25 46 14 20 25 47 25 59 0 14 6 23
15 23 19 0 31 48 16 63 -8 8 -4 17 15 34 15 13 31 23 36 23 4 0 8 7 8 15 0 8
5 15 12 15 6 0 9 3 6 6 -4 3 -16 0 -28 -6 -27 -14 -37 -6 -20 15 7 9 13 36 13
61 0 24 3 44 6 44 4 0 12 10 20 21 11 18 11 23 -1 30 -8 6 -9 9 -1 9 21 0 57
73 55 113 -1 20 2 37 8 37 6 0 8 10 5 23 -4 15 0 28 10 37 16 13 16 15 -2 21
-17 7 -17 8 1 8 14 1 17 7 14 26 -4 18 -1 25 11 25 11 1 8 5 -9 16 -14 8 -18
13 -9 11 12 -4 15 0 11 18 -2 12 1 26 7 29 6 4 11 16 11 26 0 10 8 23 17 29
14 7 15 12 4 24 -10 13 -9 21 4 46 8 17 19 31 24 31 5 0 11 8 14 19 3 15 0 18
-17 14 -19 -4 -19 -3 -3 7 9 6 17 20 17 30 0 11 5 20 10 20 6 0 10 5 10 12 0
6 7 20 17 30 14 16 14 22 3 43 -11 21 -11 27 2 42 8 10 13 24 11 31 -3 6 2 12
11 12 9 0 16 4 16 10 0 5 -7 7 -16 3 -14 -5 -15 -3 -4 17 9 18 14 20 21 9 6
-10 12 -4 24 23 8 21 15 42 15 47 0 5 9 13 20 16 15 5 19 12 15 26 -5 14 3 28
27 50 18 18 33 37 33 44 0 6 14 24 31 38 18 15 35 38 38 51 3 13 22 38 41 55
19 17 35 34 35 39 0 5 23 33 52 63 29 30 52 59 53 66 0 15 64 63 82 63 7 0 13
5 13 10 0 6 7 10 15 10 8 0 15 4 15 8 0 4 13 15 29 25 16 10 31 27 33 40 2 17
9 21 28 19 17 -1 21 1 12 7 -10 6 9 22 65 57 43 27 95 58 115 68 21 10 35 23
31 29 -4 7 0 8 11 4 13 -5 17 -3 13 7 -8 20 33 52 76 60 21 4 37 11 37 15 0 5
10 12 23 16 21 7 21 7 2 12 -32 8 -39 20 -16 28 12 3 21 11 21 17 0 6 11 8 28
4 20 -5 23 -4 12 4 -13 9 -13 11 0 20 8 6 31 14 50 20 19 5 48 21 65 35 16 15
67 47 112 73 45 26 83 50 83 54 0 4 -9 10 -20 13 -25 8 -26 25 -2 25 23 0 133
70 126 81 -2 5 -19 6 -37 3 -29 -5 -27 -3 23 30 60 39 209 116 225 116 6 0 3
-5 -5 -10z m-7230 -570 c0 -5 -4 -10 -10 -10 -5 0 -10 5 -10 10 0 6 5 10 10
10 6 0 10 -4 10 -10z m974 -455 c-1 -16 -33 -18 -65 -5 -43 18 -35 27 19 20
26 -3 47 -9 46 -15z m-564 -470 c177 -201 350 -488 337 -559 -3 -17 -7 -14
-21 19 -85 190 -187 360 -290 483 -100 121 -112 135 -99 131 6 -2 39 -35 73
-74z m475 -151 c10 3 37 -1 61 -10 25 -9 59 -14 81 -12 29 3 54 -3 105 -29 37
-18 72 -33 77 -33 18 0 131 -64 182 -102 28 -21 66 -47 84 -57 19 -10 32 -21
28 -25 -3 -3 -1 -6 6 -6 7 0 26 -10 41 -22 15 -13 36 -29 46 -35 56 -37 134
-95 134 -100 0 -4 -716 2 -737 7 -6 1 -31 70 -38 101 -19 91 -111 285 -190
399 -54 78 -49 77 28 -4 56 -59 79 -77 92 -72z m-739 -186 c250 -273 414 -602
508 -1020 52 -233 81 -598 71 -908 -7 -217 -28 -454 -46 -507 -6 -18 -8 -37
-4 -43 8 -13 -19 -156 -47 -245 -11 -38 -32 -80 -45 -95 -13 -14 -26 -32 -28
-41 -8 -23 -45 -32 -52 -12 -5 12 -7 12 -14 2 -6 -10 -9 -9 -15 4 -6 16 0 91
27 342 17 156 14 698 -5 895 -33 338 -85 619 -172 928 -57 203 -80 263 -213
560 -39 85 -41 96 -31 127 6 19 9 39 5 45 -3 5 0 10 8 10 8 0 32 -19 53 -42z
m1902 -308 c131 -204 246 -518 308 -840 7 -41 23 -115 34 -165 22 -104 23
-115 11 -115 -5 0 -11 12 -13 28 -2 16 -8 26 -16 24 -13 -2 -228 -67 -462
-139 -167 -51 -539 -210 -548 -234 -2 -5 -17 -9 -33 -9 -16 0 -29 -4 -29 -10
0 -5 13 -7 31 -3 l32 6 -7 -49 c-4 -27 -7 -56 -7 -64 0 -8 3 -75 6 -147 3 -73
1 -133 -3 -133 -4 0 -13 9 -20 20 -16 26 -31 17 -32 -18 -1 -93 -17 -322 -22
-328 -15 -15 -37 7 -44 43 -4 21 -2 180 5 353 l12 315 -25 51 c-32 67 -43 133
-56 346 -15 247 -34 343 -130 658 -40 133 -70 264 -70 310 0 30 5 42 21 50 11
7 23 9 26 6 3 -3 13 5 23 16 15 19 35 24 151 35 134 12 186 11 399 -8 152 -15
243 -41 315 -91 37 -26 45 -28 103 -22 58 6 62 9 56 28 -7 24 -82 156 -131
231 -18 27 -33 54 -33 59 0 13 70 -84 148 -204z m8069 118 c-3 -8 -6 -5 -6 6
-1 11 2 17 5 13 3 -3 4 -12 1 -19z m-120 -150 c-3 -8 -6 -5 -6 6 -1 11 2 17 5
13 3 -3 4 -12 1 -19z m-9247 -353 c91 -264 151 -635 149 -920 l-2 -140 -8 85
c-5 47 -16 158 -24 247 -23 232 -55 407 -126 682 -44 171 -40 191 11 46z
m-1650 -262 c47 -13 113 -40 147 -59 104 -58 211 -178 279 -314 91 -182 119
-316 119 -570 -1 -342 -80 -633 -239 -880 -55 -85 -168 -199 -251 -254 -122
-82 -293 -126 -405 -106 -199 36 -393 167 -532 360 -26 36 -51 70 -56 75 -19
24 -62 137 -83 215 -20 76 -23 109 -23 315 -1 245 8 336 50 515 33 139 65 218
129 316 90 139 242 283 360 341 65 33 170 64 243 73 87 10 157 3 262 -27z
m11040 -234 c0 -6 -4 -7 -10 -4 -5 3 -10 11 -10 16 0 6 5 7 10 4 6 -3 10 -11
10 -16z m-12653 -25 c3 -18 2 -18 -6 1 -8 16 -10 11 -11 -25 -1 -40 -2 -42
-11 -20 -12 30 -3 73 14 67 7 -2 13 -12 14 -23z m12660 -26 c-3 -8 -6 -5 -6 6
-1 11 2 17 5 13 3 -3 4 -12 1 -19z m-12706 -98 c-7 -22 -16 -38 -21 -35 -6 4
-10 11 -10 16 0 6 5 7 10 4 6 -4 10 14 11 47 0 46 2 50 11 30 8 -16 8 -33 -1
-62z m13459 -231 c0 -6 -4 -7 -10 -4 -5 3 -10 11 -10 16 0 6 5 7 10 4 6 -3 10
-11 10 -16z m20 -59 c13 -31 7 -52 -9 -34 -13 14 -23 64 -12 64 5 0 14 -14 21
-30z m24 -85 c4 -20 4 -39 1 -44 -3 -5 -1 -31 5 -58 5 -26 12 -73 14 -103 6
-66 31 -228 45 -289 5 -25 8 -48 5 -53 -8 -12 17 -138 27 -138 5 0 9 -8 9 -17
0 -15 -2 -16 -10 -3 -8 12 -10 9 -10 -12 0 -16 4 -28 8 -28 5 0 9 -19 10 -42
1 -24 4 -77 8 -119 3 -44 2 -79 -3 -82 -6 -4 -7 -29 -3 -59 4 -29 4 -80 0
-113 -4 -33 -8 -49 -9 -35 -1 14 -4 61 -8 105 -3 44 -5 97 -4 118 1 24 -2 36
-9 32 -6 -4 -10 13 -10 47 0 29 -7 100 -15 158 -19 129 -22 155 -30 250 -5 67
-24 218 -41 325 -4 30 -3 36 5 25 9 -13 11 -13 11 0 0 9 -7 25 -15 38 -12 16
-14 32 -9 59 4 21 7 46 6 56 -2 32 16 18 22 -18z m-8827 -162 c-3 -10 -5 -4
-5 12 0 17 2 24 5 18 2 -7 2 -21 0 -30z m5463 -183 c-8 -5 -17 -7 -19 -4 -3 3
1 9 9 14 8 5 17 7 19 4 3 -3 -1 -9 -9 -14z m-5871 -153 c14 -17 4 -27 -25 -27
-21 0 -39 22 -27 34 11 11 40 6 52 -7z m4022 -202 c33 -13 50 -125 19 -125
-14 0 -80 102 -80 123 0 17 21 18 61 2z m151 3 c13 -11 15 -22 9 -61 -5 -27
-16 -56 -25 -65 -16 -16 -18 -16 -32 3 -24 32 -36 92 -24 115 12 23 48 26 72
8z m1622 -3 c-4 -8 -8 -15 -10 -15 -2 0 -4 7 -4 15 0 8 4 15 10 15 5 0 7 -7 4
-15z m-1449 -20 c44 -9 84 -20 88 -24 9 -9 -30 -78 -57 -100 -8 -7 -23 -11
-31 -7 -12 4 -14 16 -8 63 6 54 5 57 -11 44 -10 -8 -26 -32 -37 -53 -29 -56
-52 -48 -62 22 -9 64 -4 83 20 76 10 -3 54 -12 98 -21z m-437 -37 c11 -26 9
-29 -17 -42 -21 -11 -31 -12 -40 -3 -16 16 -14 63 5 82 19 19 32 10 52 -37z
m-4389 -10 c36 -24 85 -57 109 -75 70 -53 166 -103 236 -123 94 -27 302 -42
519 -38 192 3 228 -4 145 -30 -95 -30 -421 -41 -594 -21 -111 13 -135 9 -155
-27 l-14 -27 -5 29 c-5 28 -21 42 -101 89 -45 26 -55 25 -51 -6 2 -15 -5 -32
-18 -44 -11 -10 -20 -26 -20 -36 0 -10 -4 -21 -10 -24 -5 -3 -10 -16 -10 -28
0 -31 -36 -128 -55 -146 -31 -31 -32 -7 -12 199 8 80 13 154 11 165 -2 10 -5
34 -6 52 -1 18 -6 33 -12 33 -5 0 -6 3 -3 6 3 4 -5 15 -18 26 -26 20 -35 68
-13 68 6 0 41 -19 77 -42z m4241 -4 c14 -35 1 -53 -16 -23 -7 13 -13 30 -14
37 0 22 20 13 30 -14z m1980 16 c0 -5 -5 -10 -11 -10 -5 0 -7 5 -4 10 3 6 8
10 11 10 2 0 4 -4 4 -10z m-1202 -33 c5 -25 -46 -77 -74 -77 -34 0 -38 16 -13
61 20 35 27 40 54 37 20 -2 31 -9 33 -21z m105 -37 c14 -11 30 -33 35 -49 10
-29 10 -29 -31 -29 -23 0 -36 2 -29 5 12 5 18 43 6 43 -3 0 -12 -7 -21 -16
-17 -16 -54 -16 -60 2 -5 16 36 64 56 64 10 0 30 -9 44 -20z m834 -12 c-3 -8
-6 -5 -6 6 -1 11 2 17 5 13 3 -3 4 -12 1 -19z m4221 -163 l-1 -80 -8 60 c-12
84 -12 86 -10 120 3 30 3 30 11 5 4 -14 8 -61 8 -105z m-4103 66 c-3 -6 -11
-8 -17 -5 -6 4 -5 9 3 15 16 10 23 4 14 -10z m4193 -76 c0 -29 0 -29 -8 -5 -4
14 -8 36 -8 50 -1 23 0 23 8 5 5 -11 8 -33 8 -50z m-4168 20 c0 -8 -4 -15 -9
-15 -5 0 -17 -3 -26 -7 -16 -5 -15 -4 1 15 22 26 34 28 34 7z m4177 -87 c-3
-7 -5 -2 -5 12 0 14 2 19 5 13 2 -7 2 -19 0 -25z m-84 -73 c7 -47 -7 -27 -18
25 -5 23 -4 32 3 25 5 -5 12 -28 15 -50z m-5603 -13 c-7 -3 -16 2 -21 9 -16
25 -9 32 12 13 13 -12 16 -20 9 -22z m153 28 c27 0 20 -16 -13 -30 -23 -10
-33 -10 -44 0 -21 17 -8 43 18 36 11 -3 29 -6 39 -6z m5094 -37 c-3 -10 -5 -2
-5 17 0 19 2 27 5 18 2 -10 2 -26 0 -35z m450 -5 c-3 -7 -5 -2 -5 12 0 14 2
19 5 13 2 -7 2 -19 0 -25z m-6101 -46 c15 -10 45 -92 38 -103 -3 -6 -20 1 -39
15 -18 14 -35 23 -38 20 -3 -3 -8 4 -12 15 -3 12 -11 21 -16 21 -6 0 -6 8 1
20 11 20 45 26 66 12z m6111 -34 c-3 -7 -5 -2 -5 12 0 14 2 19 5 13 2 -7 2
-19 0 -25z m-5621 -67 c11 -10 30 -22 41 -25 23 -7 37 -61 19 -75 -19 -15 -95
-21 -121 -9 -44 20 -44 59 1 50 23 -4 26 -2 24 24 -4 61 2 67 36 35z m934 -37
c0 -8 -5 -12 -10 -9 -6 4 -8 11 -5 16 9 14 15 11 15 -7z m2070 -188 c0 -35
-18 -42 -44 -17 -18 19 -19 23 -6 31 28 18 50 12 50 -14z m-100 -6 c0 -5 -3
-10 -7 -10 -5 0 -19 -3 -33 -6 -24 -5 -24 -5 -6 10 22 18 46 21 46 6z m2627
-32 c-3 -8 -6 -5 -6 6 -1 11 2 17 5 13 3 -3 4 -12 1 -19z m-5987 -52 c0 -16
-28 -42 -36 -33 -8 7 14 47 26 47 6 0 10 -6 10 -14z m6008 -126 c0 -14 -5 0
-12 30 -7 30 -10 60 -7 65 6 11 20 -57 19 -95z m-41 68 c-3 -8 -6 -5 -6 6 -1
11 2 17 5 13 3 -3 4 -12 1 -19z m13 -38 c0 -5 -5 -10 -11 -10 -5 0 -7 5 -4 10
3 6 8 10 11 10 2 0 4 -4 4 -10z m-3 -127 c-3 -10 -5 -2 -5 17 0 19 2 27 5 18
2 -10 2 -26 0 -35z m30 15 c-3 -8 -6 -5 -6 6 -1 11 2 17 5 13 3 -3 4 -12 1
-19z m-9 -143 c0 -39 -2 -45 -8 -25 -4 14 -8 50 -8 80 0 45 2 50 8 25 4 -16 8
-52 8 -80z m-309 -387 l-1 -43 -8 35 c-8 32 -6 50 6 50 2 0 4 -19 3 -42z m-43
-54 c3 -44 5 -119 5 -168 -1 -49 4 -116 10 -148 9 -44 9 -62 0 -71 -6 -6 -11
-25 -11 -41 0 -24 3 -27 10 -16 7 11 10 5 10 -23 0 -21 -4 -36 -9 -32 -5 3
-12 -3 -15 -12 -2 -10 -5 34 -4 97 0 63 -3 202 -6 309 -5 194 0 252 10 105z
m-2739 14 c-3 -8 -6 -5 -6 6 -1 11 2 17 5 13 3 -3 4 -12 1 -19z m-22 -18 c3
-5 -1 -10 -10 -10 -9 0 -13 5 -10 10 3 6 8 10 10 10 2 0 7 -4 10 -10z m2794
-267 l-1 -48 -8 40 c-7 37 -5 55 6 55 2 0 3 -21 3 -47z m218 -215 c-3 -8 -6
-5 -6 6 -1 11 2 17 5 13 3 -3 4 -12 1 -19z m-223 -105 c-9 -78 -14 -79 -14 -5
0 35 4 62 10 62 6 0 8 -21 4 -57z m-7174 7 c0 -5 -2 -10 -4 -10 -3 0 -8 5 -11
10 -3 6 -1 10 4 10 6 0 11 -4 11 -10z m140 -294 c0 -3 -4 -8 -10 -11 -5 -3
-10 -1 -10 4 0 6 5 11 10 11 6 0 10 -2 10 -4z m4540 -6 c0 -5 -5 -10 -11 -10
-5 0 -7 5 -4 10 3 6 8 10 11 10 2 0 4 -4 4 -10z m2737 -42 c-3 -7 -5 -2 -5 12
0 14 2 19 5 13 2 -7 2 -19 0 -25z m-2770 -120 c-3 -8 -6 -5 -6 6 -1 11 2 17 5
13 3 -3 4 -12 1 -19z m2520 -30 c-3 -8 -6 -5 -6 6 -1 11 2 17 5 13 3 -3 4 -12
1 -19z m220 -10 c-3 -8 -6 -5 -6 6 -1 11 2 17 5 13 3 -3 4 -12 1 -19z m-17
-215 c-11 -17 -11 -17 -6 0 3 10 7 40 8 65 l2 47 3 -47 c2 -26 -1 -56 -7 -65z
m-7010 3 c0 -27 -15 -43 -24 -27 -4 5 -2 12 3 16 6 3 8 12 4 20 -3 8 0 15 6
15 6 0 11 -11 11 -24z m6981 -123 c-9 -15 -10 -12 -10 17 0 29 1 32 10 18 7
-12 7 -24 0 -35z m-31 -64 c0 -11 -4 -18 -10 -14 -5 3 -7 12 -3 20 7 21 13 19
13 -6z m-183 -341 c-3 -7 -5 -2 -5 12 0 14 2 19 5 13 2 -7 2 -19 0 -25z m15
-213 c-5 -28 -22 -44 -22 -21 0 21 11 46 20 46 4 0 5 -11 2 -25z m-5 -117 c-2
-13 -4 -3 -4 22 0 25 2 35 4 23 2 -13 2 -33 0 -45z m36 -35 c-2 -43 -11 -110
-18 -150 -8 -40 -17 -126 -21 -193 -4 -66 -11 -120 -15 -120 -4 0 -10 -17 -12
-37 -5 -44 0 114 8 232 3 44 10 114 15 156 5 41 7 86 4 100 -4 17 -3 20 4 11
7 -10 12 -1 21 32 6 25 13 46 15 46 1 0 1 -35 -1 -77z m64 -45 c-3 -8 -6 -5
-6 6 -1 11 2 17 5 13 3 -3 4 -12 1 -19z m-6567 2 c0 -5 -2 -10 -4 -10 -3 0 -8
5 -11 10 -3 6 -1 10 4 10 6 0 11 -4 11 -10z m6590 -24 c-6 -8 -7 -27 -3 -46 4
-24 3 -31 -5 -26 -13 8 -16 54 -6 80 3 9 10 13 16 10 5 -4 5 -11 -2 -18z m-3
-108 c-3 -8 -6 -5 -6 6 -1 11 2 17 5 13 3 -3 4 -12 1 -19z m-89 -94 l-3 -39
-5 47 c-3 26 -1 43 3 39 5 -5 7 -26 5 -47z m8 -71 c-10 -10 -19 5 -10 18 6 11
8 11 12 0 2 -7 1 -15 -2 -18z m6 -168 c-6 -34 -12 -32 -12 6 0 16 4 28 9 25 4
-3 6 -17 3 -31z m-5 -67 c-3 -7 -5 -2 -5 12 0 14 2 19 5 13 2 -7 2 -19 0 -25z
m-127 -135 c-11 -17 -11 -17 -6 0 3 10 7 28 7 40 2 22 2 22 6 0 2 -12 -1 -30
-7 -40z m-17233 -229 c-3 -3 -12 -4 -19 -1 -8 3 -5 6 6 6 11 1 17 -2 13 -5z
m16279 -1071 c-7 -7 -26 7 -26 19 0 6 6 6 15 -2 9 -7 13 -15 11 -17z m-8196
-52 c0 -17 -29 -32 -56 -29 -43 5 -41 26 3 31 21 2 41 4 46 5 4 1 7 -2 7 -7z
m8190 -52 c0 -11 -4 -17 -10 -14 -5 3 -10 15 -10 26 0 11 5 17 10 14 6 -3 10
-15 10 -26z m-8458 -266 c43 -46 51 -69 38 -109 -15 -46 -41 -59 -78 -40 -33
17 -92 81 -92 98 0 19 63 75 86 77 11 0 32 -11 46 -26z m8428 -145 c0 -6 -7
-5 -15 2 -8 7 -15 17 -15 22 0 6 7 5 15 -2 8 -7 15 -17 15 -22z m-8576 -68
c51 -34 60 -51 44 -85 -15 -34 -45 -41 -77 -18 -14 10 -38 25 -53 32 -41 21
-44 46 -11 76 36 31 46 31 97 -5z m-148 -211 c46 -28 61 -56 41 -76 -19 -19
-42 -11 -91 30 -65 56 -25 93 50 46z m-152 -210 c33 -26 33 -44 0 -66 -25 -16
-27 -16 -45 8 -25 32 -25 79 0 79 10 0 30 -9 45 -21z m-144 -210 c0 -13 -44
-18 -57 -7 -17 13 -17 55 0 61 11 5 57 -39 57 -54z m2324 -1669 c41 -29 48
-43 48 -107 0 -64 -40 -119 -112 -156 -48 -25 -62 -28 -110 -22 -114 12 -254
137 -229 203 27 70 134 112 275 108 79 -2 97 -6 128 -26z m107 -732 c130 -57
95 -244 -60 -321 -40 -19 -62 -22 -166 -22 -115 0 -123 1 -188 33 -80 40 -112
67 -132 115 -22 53 -19 95 10 133 32 42 51 52 128 70 87 19 358 14 408 -8z
m-57 -779 c78 -14 121 -41 140 -89 14 -35 14 -43 0 -84 -41 -118 -175 -186
-368 -186 -177 0 -322 47 -405 131 -85 85 -80 144 15 184 28 12 181 40 264 48
81 9 301 6 354 -4z m6247 -593 c53 -2 105 -8 115 -14 11 -5 46 -12 79 -16 107
-12 137 -16 179 -27 23 -6 66 -16 96 -23 93 -22 286 -80 325 -97 11 -5 56 -21
100 -35 44 -14 94 -32 110 -39 17 -7 73 -28 125 -46 52 -17 127 -47 165 -64
39 -18 115 -51 170 -74 55 -23 136 -61 180 -83 44 -23 116 -59 160 -80 124
-62 259 -145 465 -285 39 -27 143 -106 161 -123 9 -8 58 -53 110 -100 247
-223 518 -512 575 -611 6 -11 20 -30 31 -42 72 -80 238 -379 372 -668 117
-255 235 -669 261 -919 29 -284 21 -645 -17 -744 -32 -84 -74 -168 -96 -190
-95 -97 -185 -95 -231 6 -41 92 -49 119 -131 453 -99 403 -157 599 -247 843
-41 113 -102 252 -111 252 -1 0 -3 -192 -3 -428 -1 -235 -7 -488 -13 -562 -6
-74 -13 -164 -16 -200 -3 -36 -10 -96 -15 -135 -5 -38 -14 -119 -20 -180 -36
-372 -60 -471 -137 -580 -41 -57 -126 -111 -213 -137 -81 -23 -73 -23 -675
-20 -148 0 -353 1 -455 0 -428 -1 -871 4 -952 12 -66 7 -98 15 -136 37 -89 51
-141 108 -167 185 -9 24 -19 52 -24 63 -13 29 -20 65 -36 195 -8 63 -19 133
-24 155 -6 22 -17 101 -26 175 -8 74 -20 167 -25 205 -5 39 -17 124 -26 190
-21 159 -68 468 -89 580 -9 50 -19 104 -21 120 -8 48 -53 267 -65 310 -5 22
-16 67 -24 100 -43 191 -112 424 -155 520 -14 30 -120 214 -152 263 -10 15
-21 34 -24 42 -6 14 -13 32 -47 110 -19 44 -57 170 -57 191 0 8 -4 19 -8 24
-5 6 -14 37 -21 70 -7 33 -16 67 -20 75 -5 8 -14 53 -21 100 -7 47 -16 90 -20
95 -4 6 -8 32 -9 59 -1 27 -6 55 -12 62 -13 16 -18 231 -8 374 7 109 38 234
79 325 45 99 129 203 190 236 19 11 42 23 50 28 55 34 291 86 340 75 8 -2 58
-6 111 -8z m-6229 -210 c25 -12 65 -77 72 -119 13 -72 -58 -178 -145 -216 -74
-33 -208 -45 -353 -32 -185 16 -294 63 -334 144 -34 68 -29 99 21 151 49 51
80 62 223 75 114 11 491 9 516 -3z m35 -714 c64 -34 83 -66 73 -129 -14 -87
-94 -181 -193 -225 -145 -66 -504 -40 -666 48 -89 48 -141 139 -111 194 39 74
389 141 710 136 127 -2 150 -5 187 -24z m128 -608 c44 -20 65 -62 65 -127 0
-70 -10 -96 -56 -147 -95 -105 -268 -147 -568 -137 -183 6 -352 31 -453 68
-43 16 -72 36 -110 76 -47 50 -51 58 -46 91 8 45 53 87 118 108 105 33 816 96
965 86 30 -2 69 -11 85 -18z m95 -534 c61 -31 94 -81 108 -160 20 -119 -65
-218 -228 -264 -231 -65 -867 -66 -1010 -1 -88 40 -124 82 -135 160 -9 63 -9
74 3 105 18 47 78 78 172 89 172 21 535 58 840 85 82 7 225 -1 250 -14z m111
-535 c31 -4 54 -14 69 -30 21 -22 22 -27 10 -50 -28 -52 -213 -112 -415 -136
-210 -25 -736 -10 -853 24 -37 11 -57 33 -27 31 7 -1 12 4 9 10 -5 14 55 41
121 55 76 15 311 43 655 77 268 26 334 31 360 28 14 -1 46 -5 71 -9z m199
-264 c34 -18 40 -37 26 -77 -12 -32 -152 -84 -321 -120 -103 -22 -153 -27
-361 -31 -310 -7 -761 27 -801 59 -12 9 -11 53 0 65 3 2 108 13 233 24 126 10
267 23 314 29 74 8 198 19 690 59 164 13 183 12 220 -8z m193 -267 c60 -20 71
-34 56 -68 -23 -50 -207 -118 -424 -156 -295 -52 -665 -53 -1065 -5 -197 24
-238 44 -167 82 43 23 39 22 227 33 251 14 435 32 995 99 287 34 318 36 378
15z m231 -387 c16 -11 24 -23 20 -30 -13 -23 -47 -57 -57 -57 -6 0 -18 -6 -26
-14 -26 -21 -158 -64 -266 -86 -353 -69 -594 -80 -1090 -49 -265 16 -357 33
-391 70 -36 40 -12 44 361 59 143 6 287 13 320 16 177 15 294 29 525 60 461
64 547 68 604 31z m115 -341 c45 -16 60 -39 41 -62 -77 -92 -439 -176 -886
-205 -273 -17 -933 4 -985 32 -15 7 -18 16 -13 32 3 12 9 25 13 28 25 23 190
43 456 54 153 7 501 42 930 95 354 43 390 46 444 26z m224 -358 c31 -23 34
-39 9 -61 -48 -44 -168 -77 -441 -122 -275 -45 -538 -68 -951 -80 -213 -7
-620 15 -678 35 l-33 12 26 14 c44 23 128 34 545 69 437 38 430 37 845 96 154
21 332 45 395 53 139 18 244 12 283 -16z m-1508 -483 c48 -7 87 -25 53 -25 -8
0 -21 -6 -27 -14 -7 -8 -32 -24 -56 -35 -41 -19 -63 -21 -252 -21 -251 0 -424
13 -547 41 -33 8 -44 14 -35 20 10 6 11 9 2 9 -7 0 -13 4 -13 9 0 20 144 28
475 26 193 -2 373 -6 400 -10z m1014 -151 c29 -8 51 -18 48 -21 -3 -3 -41 -7
-84 -9 -103 -5 -339 -43 -382 -60 -42 -17 -52 -18 -45 -1 8 23 142 78 239 100
48 11 175 6 224 -9z m-596 -129 c43 -29 47 -42 12 -51 -18 -4 -25 -13 -25 -30
0 -41 -15 -26 -48 47 -34 77 -33 100 1 74 12 -8 39 -26 60 -40z m872 -69 c158
-55 351 -164 444 -250 54 -51 167 -225 159 -246 -2 -5 -32 4 -68 19 -36 16
-108 36 -160 45 -52 10 -144 29 -205 43 -133 31 -295 40 -402 24 -43 -7 -136
-26 -206 -43 -77 -18 -132 -27 -138 -21 -5 5 -12 63 -15 130 -7 119 -6 122 20
166 28 48 88 103 145 132 70 36 115 44 216 41 86 -2 116 -8 210 -40z m-1325
-218 c-41 -73 -45 -62 -8 22 24 54 41 76 46 62 2 -6 -15 -44 -38 -84z m496
-244 c31 -63 63 -114 70 -114 8 0 14 -4 14 -10 0 -5 -3 -9 -7 -9 -26 4 -35 -3
-30 -24 4 -12 2 -29 -3 -37 -5 -8 -10 -13 -10 -10 0 3 -25 76 -55 164 -30 87
-55 161 -55 163 0 20 30 -27 76 -123z m1264 -38 c19 -2 42 -6 50 -9 8 -4 37
-14 64 -24 60 -22 72 -43 24 -43 -64 0 -153 20 -180 40 -15 11 -34 20 -42 20
-7 0 -16 6 -19 14 -5 11 2 13 31 9 20 -2 53 -6 72 -7z m-1070 -20 c0 -13 -7
-40 -15 -59 -14 -35 -14 -37 11 -54 14 -10 55 -44 91 -75 65 -58 81 -66 99
-49 16 15 82 23 89 11 11 -18 -33 -57 -71 -65 -44 -8 -86 12 -148 71 l-48 47
-24 -29 c-28 -35 -54 -113 -54 -166 0 -57 49 -274 100 -438 27 -87 25 -106 -9
-141 -39 -38 -52 -38 -38 2 10 26 7 48 -21 152 -18 67 -41 154 -51 192 -10 39
-31 115 -46 170 -41 151 -34 259 18 303 22 18 39 43 65 97 29 59 52 73 52 31z
m908 -10 c89 -45 187 -79 252 -86 36 -4 74 -11 85 -15 42 -15 85 -40 85 -50 0
-5 3 -19 6 -31 5 -18 -2 -24 -47 -38 -35 -12 -67 -16 -94 -11 -23 3 -60 2 -83
-3 -31 -7 -42 -6 -46 4 -13 33 -180 -52 -266 -136 -31 -30 -67 -77 -81 -105
-23 -48 -24 -58 -22 -230 0 -110 7 -218 17 -277 20 -120 20 -133 0 -88 -27 60
-34 92 -42 195 -13 176 -7 385 12 429 16 37 15 39 -5 57 -12 11 -30 19 -39 19
-9 0 -52 27 -96 60 -43 33 -85 60 -91 60 -7 0 -13 -12 -13 -26 0 -23 -2 -24
-15 -10 -22 21 -18 57 8 94 26 35 37 33 37 -8 0 -47 83 -110 146 -110 34 0 58
10 125 55 84 56 143 82 250 112 71 20 80 43 17 43 -103 1 -188 45 -188 97 0
30 26 30 88 -1z m-427 -39 c9 -7 21 -22 27 -33 11 -20 8 -22 -41 -29 -134 -20
-159 -4 -67 44 65 34 61 33 81 18z m-1303 -464 c6 -182 44 -441 93 -638 97
-380 334 -889 527 -1128 49 -60 316 -323 517 -508 74 -68 236 -200 322 -262
126 -92 337 -195 543 -266 175 -61 204 -72 215 -82 23 -23 -157 29 -310 88
-135 53 -359 165 -454 228 -154 101 -252 188 -571 505 -317 315 -346 348 -416
470 -21 36 -42 67 -46 68 -4 2 -8 8 -8 14 0 5 -13 29 -29 52 -25 36 -79 133
-118 212 -5 10 -21 42 -35 69 -91 179 -204 561 -242 820 -11 70 -19 360 -12
398 11 60 22 42 24 -40z m1110 -63 c78 -22 132 -51 171 -94 32 -34 9 -34 -35
-1 -44 34 -161 77 -186 69 -12 -3 -27 1 -39 12 -43 39 -17 43 89 14z m159
-166 c-3 -3 -12 -4 -19 -1 -8 3 -5 6 6 6 11 1 17 -2 13 -5z m98 -73 c35 -16
41 -24 52 -68 22 -95 150 -438 203 -543 99 -197 300 -369 513 -439 20 -7 37
-17 37 -21 0 -13 -140 -163 -175 -188 -19 -14 -38 -19 -53 -16 -27 8 -29 24
-2 24 21 0 53 41 55 71 1 14 -4 17 -29 13 -17 -2 -26 -2 -20 1 7 3 10 14 7 23
-3 13 -15 17 -49 16 -24 0 -44 1 -44 2 0 2 27 19 59 39 53 33 84 65 62 65 -4
0 -46 -25 -92 -55 -46 -30 -87 -55 -91 -55 -15 0 -8 31 13 59 22 30 19 51 -8
51 -11 0 -14 -6 -10 -21 5 -18 3 -18 -11 -7 -9 7 -28 25 -41 40 -21 24 -28 27
-67 21 -41 -5 -47 -3 -100 41 -31 25 -61 46 -68 46 -6 0 -24 13 -41 29 -16 16
-64 62 -106 103 -59 57 -87 93 -119 158 -23 46 -52 100 -64 119 -36 57 -75
169 -91 256 -30 170 -36 218 -27 227 9 9 131 25 212 26 34 1 70 -5 95 -17z
m364 -305 c17 -50 29 -91 27 -93 -4 -5 -53 115 -65 162 -6 22 -10 69 -10 105
l2 65 8 -75 c4 -41 21 -115 38 -164z m1381 145 c0 -11 -5 -10 -20 4 -11 10
-20 28 -20 39 0 20 1 20 20 -4 11 -14 20 -31 20 -39z m-3334 -384 c17 -44 18
-57 4 -57 -5 0 -10 11 -10 24 0 14 -4 27 -8 30 -4 2 -8 22 -9 43 -1 21 1 29 4
18 2 -11 11 -37 19 -58z m1103 -142 c0 -5 -13 17 -29 50 -16 33 -29 65 -29 70
1 13 58 -106 58 -120z m-1080 48 c0 -25 -1 -25 -8 -8 -5 11 -7 23 -4 28 8 14
13 7 12 -20z m18 -55 c-3 -7 -5 -2 -5 12 0 14 2 19 5 13 2 -7 2 -19 0 -25z
m1133 -133 c0 -5 -5 -3 -10 5 -5 8 -10 20 -10 25 0 6 5 3 10 -5 5 -8 10 -19
10 -25z m88 -135 c26 -47 29 -69 6 -49 -17 14 -44 62 -44 79 0 21 16 9 38 -30z
m162 -230 c6 -10 10 -30 10 -43 0 -14 7 -41 15 -60 17 -40 20 -77 6 -62 -5 6
-14 28 -21 50 -22 76 -54 150 -72 171 -10 11 -18 24 -18 29 0 10 67 -61 80
-85z m120 66 c0 -2 -7 -7 -16 -10 -8 -3 -12 -2 -9 4 6 10 25 14 25 6z m954
-30 c15 -13 26 -31 26 -40 0 -25 26 -19 48 11 16 23 28 27 72 29 29 2 49 -1
44 -5 -5 -5 -35 -30 -68 -56 -53 -43 -60 -46 -82 -34 -13 7 -24 16 -24 21 0 4
-7 8 -16 8 -8 0 -13 4 -10 9 3 5 -1 12 -10 15 -9 4 -14 13 -10 21 3 8 1 15 -4
15 -6 0 -10 7 -10 15 0 21 15 19 44 -9z m51 14 c3 -6 -1 -13 -10 -16 -19 -8
-30 0 -20 15 8 14 22 14 30 1z m-1195 -88 c0 -15 -2 -15 -10 -2 -13 20 -13 33
0 25 6 -3 10 -14 10 -23z m685 -2 c3 -5 -1 -10 -9 -10 -8 0 -18 5 -21 10 -3 6
1 10 9 10 8 0 18 -4 21 -10z m-538 -22 c-3 -8 -6 -5 -6 6 -1 11 2 17 5 13 3
-3 4 -12 1 -19z m2090 0 c-3 -8 -6 -5 -6 6 -1 11 2 17 5 13 3 -3 4 -12 1 -19z
m-2377 2 c11 -6 24 -19 30 -30 9 -17 8 -19 -12 -11 -12 4 -28 18 -36 29 -16
24 -11 27 18 12z m325 -70 c5 -17 4 -22 -3 -15 -5 6 -13 21 -17 35 -5 17 -4
22 3 15 5 -5 13 -21 17 -35z m1480 -11 c42 -20 83 -93 90 -159 l5 -55 -16 49
c-8 27 -27 65 -42 83 -27 37 -107 83 -142 83 -13 0 -19 4 -14 11 8 14 80 7
119 -12z m133 -378 c4 -27 -33 -71 -60 -71 -10 0 -18 2 -18 5 0 4 29 58 47 88
9 15 28 1 31 -22z m404 -78 c-2 -16 -8 -32 -12 -38 -4 -5 -11 -57 -14 -115
-21 -302 -140 -440 -426 -491 -58 -10 -108 -19 -112 -19 -13 0 -9 30 8 55 13
20 14 28 4 40 -11 13 -15 12 -35 -4 -21 -15 -40 -17 -151 -15 -70 2 -129 6
-132 9 -3 3 9 5 27 5 18 0 41 5 53 11 11 6 50 15 87 20 36 5 68 14 69 19 2 6
10 10 18 10 21 0 17 21 -6 27 -30 8 -24 16 33 43 l52 25 -65 3 c-90 4 -125 35
-52 47 20 3 48 9 62 12 23 5 24 6 5 13 -11 4 -54 10 -96 13 -73 6 -136 27
-122 41 10 9 -24 34 -87 62 -112 52 -158 77 -267 147 -99 63 -139 97 -115 97
8 0 60 -31 167 -98 49 -31 286 -134 355 -154 48 -14 190 -3 279 22 71 20 82
27 176 109 41 37 105 56 105 31 0 -16 -156 -169 -184 -180 -14 -5 -26 -14 -26
-20 0 -13 51 12 69 34 8 9 18 16 23 16 6 0 24 10 41 23 68 48 141 87 163 87
19 0 29 13 58 76 35 74 58 92 48 37z m-1196 -118 c10 -8 14 -15 8 -15 -5 0
-19 7 -30 15 -10 8 -14 15 -8 15 5 0 19 -7 30 -15z m804 -35 c-8 -5 -22 -10
-30 -10 -13 0 -13 1 0 10 8 5 22 10 30 10 13 0 13 -1 0 -10z m-600 -78 c36
-20 83 -46 105 -57 22 -11 67 -36 100 -55 46 -27 55 -36 39 -38 -20 -3 -134
57 -162 85 -8 7 -35 23 -60 34 -26 12 -50 26 -53 31 -3 5 -8 9 -10 7 -2 -1
-20 8 -39 20 -56 36 3 15 80 -27z m-564 -20 c-4 -3 -14 2 -24 12 -16 18 -16
18 6 6 13 -6 21 -14 18 -18z m154 -103 c0 -14 -13 -10 -40 11 l-25 20 33 -11
c17 -6 32 -15 32 -20z m-50 -34 c7 -8 8 -15 2 -15 -5 0 -15 7 -22 15 -7 8 -8
15 -2 15 5 0 15 -7 22 -15z m565 -325 c-27 -5 -63 -8 -80 -8 -29 1 -29 1 5 8
19 4 55 7 80 7 l45 0 -50 -7z m530 -42 c17 -8 47 -18 68 -22 66 -12 40 -50
-76 -110 -60 -32 -77 -36 -141 -36 -40 0 -88 5 -105 11 -38 13 -37 25 7 117
22 47 32 58 56 62 48 8 159 -4 191 -22z m-542 -47 l32 -8 -47 -8 c-52 -8 -118
0 -118 15 0 5 -9 12 -20 15 -11 3 -20 10 -20 14 0 8 108 -10 173 -28z m132
-11 c0 -15 -7 -24 -18 -26 -13 -2 -16 2 -12 17 4 12 2 19 -7 19 -10 0 -9 3 2
10 22 14 35 7 35 -20z m-85 -70 c-27 -24 -28 -24 -45 -6 -19 18 -9 26 33 26
l35 0 -23 -20z"/>
<path d="M18065 25205 c4 -11 11 -42 15 -70 5 -27 14 -68 19 -90 6 -22 19 -82
29 -134 10 -52 23 -96 29 -98 6 -2 13 14 17 35 5 37 -2 64 -34 124 -6 10 -7
23 -4 31 2 7 -7 38 -21 68 -13 30 -25 65 -25 79 -1 14 -8 36 -16 50 -11 17
-13 19 -9 5z"/>
<path d="M18150 24775 c0 -16 6 -52 14 -80 7 -27 11 -57 8 -65 -4 -11 -1 -10
12 3 17 16 17 19 2 42 -9 14 -12 26 -6 30 5 3 7 12 4 20 -4 8 -11 12 -16 8 -7
-4 -9 3 -6 20 3 14 1 32 -3 39 -6 9 -9 3 -9 -17z"/>
<path d="M18198 24604 c-5 -4 -8 -28 -8 -54 0 -26 3 -50 8 -54 9 -9 9 -11 12
-88 2 -54 3 -58 9 -28 8 41 -11 235 -21 224z"/>
<path d="M18365 23211 c-3 -5 -1 -12 5 -16 5 -3 10 1 10 9 0 18 -6 21 -15 7z"/>
<path d="M18172 21330 c0 -19 2 -27 5 -17 2 9 2 25 0 35 -3 9 -5 1 -5 -18z"/>
<path d="M18276 20005 c-3 -9 -6 -22 -5 -28 0 -7 5 -1 10 12 5 13 8 26 5 28
-2 2 -6 -3 -10 -12z"/>
<path d="M18241 19934 c0 -11 3 -14 6 -6 3 7 2 16 -1 19 -3 4 -6 -2 -5 -13z"/>
<path d="M18277 19847 c-8 -72 -5 -99 8 -85 3 3 5 41 3 84 l-3 79 -8 -78z"/>
<path d="M18311 19854 c0 -11 3 -14 6 -6 3 7 2 16 -1 19 -3 4 -6 -2 -5 -13z"/>
<path d="M18233 19000 c0 -25 2 -35 4 -22 2 12 2 32 0 45 -2 12 -4 2 -4 -23z"/>
<path d="M16370 27189 c0 -5 5 -7 10 -4 6 3 10 8 10 11 0 2 -4 4 -10 4 -5 0
-10 -5 -10 -11z"/>
<path d="M16310 27121 c0 -5 5 -13 10 -16 6 -3 10 -2 10 4 0 5 -4 13 -10 16
-5 3 -10 2 -10 -4z"/>
<path d="M16636 26877 c3 -10 9 -15 12 -12 3 3 0 11 -7 18 -10 9 -11 8 -5 -6z"/>
<path d="M16918 26484 c-3 -5 3 -22 13 -39 22 -36 24 -30 5 15 -7 18 -16 29
-18 24z"/>
<path d="M16810 26031 c0 -5 5 -13 10 -16 6 -3 10 -2 10 4 0 5 -4 13 -10 16
-5 3 -10 2 -10 -4z"/>
<path d="M16841 25954 c0 -11 3 -14 6 -6 3 7 2 16 -1 19 -3 4 -6 -2 -5 -13z"/>
<path d="M16942 25122 c-9 -2 -10 -8 -3 -16 5 -6 12 -36 15 -67 8 -96 28 -159
50 -159 6 0 5 5 -2 12 -7 7 -12 25 -12 40 0 15 -4 28 -10 28 -5 0 -10 28 -11
63 -1 75 -10 105 -27 99z"/>
<path d="M14084 26675 c-35 -33 -9 -32 31 0 22 18 25 25 13 25 -9 0 -29 -11
-44 -25z"/>
<path d="M14570 22565 c0 -8 4 -15 10 -15 5 0 7 7 4 15 -4 8 -8 15 -10 15 -2
0 -4 -7 -4 -15z"/>
<path d="M14440 22340 c-9 -16 -8 -18 5 -14 8 4 15 12 15 20 0 20 -7 17 -20
-6z"/>
<path d="M14075 22250 c-3 -5 1 -10 10 -10 9 0 13 5 10 10 -3 6 -8 10 -10 10
-2 0 -7 -4 -10 -10z"/>
<path d="M14237 22213 c-4 -3 1 -15 10 -25 15 -16 15 -21 3 -28 -8 -5 -11 -12
-7 -17 5 -4 12 -1 17 7 8 12 13 13 30 3 23 -15 30 -16 30 -4 0 5 -9 11 -20 14
-11 3 -24 17 -30 31 -9 26 -21 32 -33 19z"/>
<path d="M14385 22190 c-3 -5 -1 -10 4 -10 6 0 11 5 11 10 0 6 -2 10 -4 10 -3
0 -8 -4 -11 -10z"/>
<path d="M14186 22162 c-4 -6 1 -23 10 -37 13 -20 19 -23 25 -13 5 8 3 17 -5
23 -7 6 -15 17 -18 25 -3 10 -6 11 -12 2z"/>
<path d="M14338 22163 c6 -2 18 -2 25 0 6 3 1 5 -13 5 -14 0 -19 -2 -12 -5z"/>
<path d="M14173 22079 c-4 -15 -8 -17 -13 -8 -6 9 -22 3 -62 -23 -29 -20 -62
-38 -73 -41 -11 -4 -2 -4 20 -1 22 3 55 14 74 25 18 11 34 19 35 17 0 -2 7
-14 14 -27 12 -21 12 -23 -2 -18 -12 5 -16 1 -15 -16 0 -12 3 -17 5 -10 3 7
12 9 20 6 34 -13 80 34 74 76 -1 10 6 12 29 8 17 -4 33 -2 36 3 3 6 -4 10 -17
10 -13 0 -29 5 -35 11 -13 13 -36 2 -27 -12 10 -17 -5 -59 -22 -59 -19 0 -30
28 -16 42 12 12 5 38 -10 38 -5 0 -12 -9 -15 -21z"/>
<path d="M14035 22050 c-3 -5 -1 -10 4 -10 6 0 11 5 11 10 0 6 -2 10 -4 10 -3
0 -8 -4 -11 -10z"/>
<path d="M13962 22003 c-16 -6 -6 -23 14 -23 8 0 13 4 10 9 -4 5 0 12 6 14 9
4 8 5 -2 5 -8 0 -21 -2 -28 -5z"/>
<path d="M13015 21350 c-3 -5 3 -10 14 -10 12 0 21 5 21 10 0 6 -6 10 -14 10
-8 0 -18 -4 -21 -10z"/>
<path d="M15601 20334 c0 -11 3 -14 6 -6 3 7 2 16 -1 19 -3 4 -6 -2 -5 -13z"/>
<path d="M15600 19971 c0 -12 5 -21 10 -21 6 0 10 6 10 14 0 8 -4 18 -10 21
-5 3 -10 -3 -10 -14z"/>
<path d="M11320 19859 c0 -5 5 -7 10 -4 6 3 10 8 10 11 0 2 -4 4 -10 4 -5 0
-10 -5 -10 -11z"/>
<path d="M14560 19695 c0 -12 -4 -13 -25 -3 -19 8 -28 8 -40 -2 -10 -9 -15 -9
-15 -1 0 8 -6 8 -17 2 -39 -21 -86 -31 -98 -21 -9 7 -21 6 -41 -5 -16 -8 -41
-15 -56 -15 -18 0 -28 -5 -28 -15 0 -8 -6 -15 -13 -15 -8 0 -22 -9 -32 -20
-10 -12 -24 -19 -31 -16 -7 3 -16 -4 -19 -15 -4 -10 -12 -19 -19 -19 -8 0 -19
-7 -26 -15 -9 -11 -15 -12 -20 -5 -4 6 -17 -5 -33 -27 -15 -21 -39 -50 -55
-64 -28 -27 -102 -160 -102 -184 0 -7 -7 -26 -15 -41 -8 -16 -15 -37 -15 -47
0 -10 -4 -26 -9 -36 -5 -9 -12 -35 -15 -57 -3 -21 -8 -48 -11 -59 -3 -11 -2
-70 3 -131 8 -94 15 -120 42 -172 38 -73 140 -174 226 -222 32 -19 65 -40 72
-47 7 -7 29 -15 50 -19 20 -4 47 -14 60 -22 46 -30 210 -55 282 -42 71 13 153
0 183 -29 33 -30 51 -27 126 27 75 54 112 72 145 72 15 0 46 22 85 60 34 33
66 60 71 60 5 0 7 7 4 15 -4 8 -13 15 -22 15 -13 0 -12 3 3 20 10 11 27 22 39
26 21 7 97 53 106 65 10 13 83 50 88 45 8 -9 32 15 32 31 0 8 11 28 25 45 35
42 34 51 -13 103 -7 8 -11 15 -7 15 3 0 -3 13 -14 28 -11 16 -23 41 -27 56 -3
15 -15 33 -25 39 -11 7 -19 17 -19 24 0 7 -7 13 -15 13 -9 0 -18 8 -22 18 -9
24 -65 72 -85 72 -10 0 -18 4 -18 8 0 5 -18 15 -40 22 -22 7 -40 16 -40 20 0
10 -73 34 -95 31 -11 -2 -25 -7 -30 -12 -6 -4 -20 -8 -30 -9 -67 -3 -97 -9
-119 -23 -14 -10 -28 -17 -32 -17 -4 0 -17 -11 -30 -25 -13 -14 -26 -21 -29
-15 -9 15 -36 12 -74 -8 -26 -14 -45 -17 -80 -11 -30 4 -49 3 -53 -5 -6 -8
-10 -7 -17 3 -7 11 -11 10 -19 -4 -9 -17 -10 -17 -21 3 -10 18 -20 21 -69 20
-67 -2 -102 8 -102 28 0 10 -9 14 -27 12 -37 -4 -54 31 -49 102 7 94 18 140
32 140 8 0 14 4 14 8 0 21 47 62 71 62 14 0 31 6 38 13 10 10 11 9 6 -5 -10
-24 10 -23 46 3 16 11 29 16 29 10 0 -6 9 -11 20 -11 11 0 20 7 20 15 0 8 10
17 23 19 56 11 97 14 97 6 0 -5 14 -2 30 6 36 18 38 31 8 37 -21 3 -21 4 -4
12 12 5 21 3 26 -6 12 -19 20 -8 24 32 2 19 1 26 -1 17 -6 -24 -40 -23 -53 2
-6 11 -20 20 -30 20 -11 0 -20 7 -20 15 0 10 -10 15 -30 15 -20 0 -30 -5 -30
-15z"/>
<path d="M14720 19571 c0 -12 6 -21 15 -21 8 0 15 4 15 9 0 5 -7 14 -15 21
-13 10 -15 9 -15 -9z"/>
<path d="M11680 18350 c0 -5 5 -10 10 -10 6 0 10 5 10 10 0 6 -4 10 -10 10 -5
0 -10 -4 -10 -10z"/>
<path d="M14357 17623 c-13 -12 -127 -22 -127 -10 0 5 -19 5 -42 1 -24 -4 -54
-8 -68 -9 -14 -1 -50 -12 -80 -23 -47 -18 -145 -46 -200 -57 -8 -2 -16 -4 -17
-5 -2 -2 -6 -3 -10 -5 -5 -1 -15 -4 -23 -7 -123 -44 -329 -81 -369 -66 -14 5
-34 8 -45 6 -12 -1 -26 1 -33 5 -26 16 -224 22 -328 10 -33 -4 -63 -6 -67 -5
-4 1 -32 -9 -62 -23 -30 -14 -58 -25 -62 -25 -16 0 -135 -93 -162 -127 -38
-49 -47 -78 -32 -112 13 -32 42 -48 103 -57 23 -4 67 -21 98 -39 30 -18 87
-47 125 -65 38 -18 100 -52 137 -76 37 -24 71 -44 75 -44 5 0 37 -31 73 -70
35 -38 70 -70 77 -70 6 0 12 -6 12 -12 0 -22 -17 -41 -29 -34 -6 4 -9 12 -6
17 4 5 1 9 -4 9 -6 0 -11 -8 -11 -18 0 -9 -9 -23 -20 -30 -25 -15 -27 -68 -4
-100 8 -12 13 -22 10 -22 -3 0 6 -16 19 -36 30 -44 30 -50 8 -63 -17 -9 -17
-11 -1 -38 16 -27 16 -31 -3 -72 -24 -54 -24 -53 5 -84 13 -14 29 -42 36 -62
6 -19 16 -35 21 -35 5 0 28 -18 51 -40 71 -67 200 -120 333 -136 157 -20 305
-33 330 -29 17 3 57 7 90 10 162 13 240 53 354 181 43 48 95 124 89 128 -2 2
-32 7 -68 13 -36 6 -103 24 -150 42 -47 18 -92 34 -102 36 -9 2 -29 10 -45 19
-16 8 -44 14 -62 14 -18 -1 -36 3 -39 8 -12 15 -51 34 -72 34 -11 0 -23 7 -27
16 -3 8 -12 13 -19 10 -8 -3 -11 0 -8 8 3 8 1 17 -5 21 -6 3 -11 -2 -11 -12 0
-14 -2 -15 -9 -4 -5 8 -16 11 -25 8 -10 -4 -21 1 -28 13 -7 11 -18 20 -25 20
-7 0 -24 16 -39 35 -14 19 -31 35 -38 35 -6 0 -17 13 -24 29 -7 16 -23 32 -37
35 -13 3 -29 15 -35 26 -6 11 -15 18 -20 15 -12 -8 -60 35 -60 54 0 8 -7 23
-16 33 -14 15 -15 20 -3 35 13 15 12 16 -9 11 -18 -5 -26 -1 -34 18 -6 13 -17
24 -23 24 -7 0 -15 13 -17 30 -4 27 -3 29 12 15 23 -21 31 -19 25 8 -7 25 8
36 79 58 51 15 280 2 350 -20 17 -6 51 -13 76 -16 25 -4 77 -13 115 -21 110
-24 210 -34 342 -36 108 -1 125 -4 144 -21 39 -36 61 -105 73 -225 l11 -114
35 72 c36 75 64 112 91 122 18 7 85 104 113 163 29 63 49 164 47 236 -2 42 4
80 13 104 9 21 16 53 16 71 0 27 -4 34 -20 34 -11 0 -20 7 -20 16 0 8 -4 13
-9 9 -5 -3 -12 3 -15 13 -5 16 -13 17 -59 11 -80 -11 -85 -11 -93 14 -4 12
-14 29 -24 37 -9 8 -19 23 -23 32 -5 14 -11 16 -31 9 -19 -8 -28 -5 -47 15
-12 13 -28 24 -35 24 -7 0 -25 11 -40 25 -27 25 -36 29 -66 26 -9 -1 -19 3
-23 9 -3 6 -10 8 -15 5 -5 -3 -29 4 -52 16 -44 22 -55 24 -50 8 1 -5 -5 -9
-13 -9 -8 0 -15 6 -15 14 0 9 -12 13 -41 12 -22 0 -41 -2 -42 -3z m-1057
-1307 c0 -3 -4 -8 -10 -11 -5 -3 -10 -1 -10 4 0 6 5 11 10 11 6 0 10 -2 10 -4z"/>
<path d="M9103 24568 c-24 -4 -62 -12 -85 -17 l-43 -9 58 -1 c58 -1 87 -15 79
-39 -2 -6 8 -26 22 -42 14 -17 23 -37 20 -44 -3 -7 2 -16 10 -19 11 -5 14 -14
10 -37 -4 -19 -1 -38 10 -55 9 -13 16 -38 16 -54 0 -16 4 -31 10 -33 5 -1 15
-27 23 -56 7 -30 18 -57 23 -60 6 -4 11 -24 12 -44 3 -41 20 -93 22 -68 2 20
30 -79 30 -108 0 -22 43 -52 56 -40 13 14 -92 417 -132 505 -8 17 -14 37 -15
45 0 7 -19 52 -42 99 l-42 85 -42 -8z"/>
<path d="M8908 24533 c7 -3 16 -2 19 1 4 3 -2 6 -13 5 -11 0 -14 -3 -6 -6z"/>
<path d="M9305 23804 c-129 -30 -246 -54 -382 -80 -159 -30 -163 -29 -184 34
-17 53 -29 62 -29 22 0 -36 39 -132 58 -144 23 -14 359 50 629 120 9 2 10 11
2 34 -12 34 -11 33 -94 14z"/>
<path d="M8372 23650 c31 -42 30 -151 -2 -185 -32 -34 -9 -39 30 -6 33 27 33
28 28 93 -6 73 -32 128 -60 128 -17 0 -17 -3 4 -30z"/>
<path d="M8293 23663 c-16 -6 -17 -87 -3 -169 14 -78 17 -85 33 -78 10 4 12
17 6 57 -4 29 -8 85 -8 125 -1 71 -3 76 -28 65z"/>
<path d="M5831 24055 c-136 -30 -311 -144 -417 -271 -49 -58 -119 -171 -146
-233 -90 -212 -134 -730 -83 -987 63 -316 394 -614 683 -614 96 0 175 19 267
65 95 47 158 97 228 180 146 173 231 396 271 705 54 419 -26 773 -220 979 -90
95 -159 137 -275 167 -104 27 -208 30 -308 9z m-218 -860 c13 -8 44 -15 70
-16 45 -2 58 -11 37 -24 -5 -3 -9 -30 -9 -59 2 -75 -6 -93 -44 -99 -38 -6 -69
15 -49 35 14 14 16 128 2 128 -5 0 -9 -12 -9 -27 0 -16 -4 -48 -8 -73 -7 -40
-11 -45 -37 -48 l-28 -4 7 84 c10 126 17 137 68 103z m287 -121 c0 -95 0 -96
-22 -90 -13 3 -31 6 -40 6 -16 0 -18 11 -19 83 l-2 82 -8 -60 c-4 -33 -5 -70
-2 -82 5 -21 1 -23 -30 -23 -33 0 -37 3 -43 35 -3 19 -4 59 0 88 3 28 6 53 6
55 0 1 36 2 80 2 l80 0 0 -96z m298 -22 l3 -102 -26 0 c-25 0 -25 0 -25 89 0
101 5 123 29 119 13 -3 16 -21 19 -106z m-209 61 c6 -21 11 -59 11 -85 0 -42
-3 -48 -25 -54 -44 -11 -52 0 -60 80 -3 41 -4 80 0 86 3 5 19 10 35 10 25 0
31 -5 39 -37z m120 -47 c-4 -91 -4 -90 -35 -100 -36 -11 -51 13 -58 96 -6 85
-7 83 68 87 l28 1 -3 -84z"/>
<path d="M215 27190 c3 -5 10 -10 16 -10 5 0 9 5 9 10 0 6 -7 10 -16 10 -8 0
-12 -4 -9 -10z"/>
<path d="M3440 25829 c0 -5 5 -7 10 -4 6 3 10 8 10 11 0 2 -4 4 -10 4 -5 0
-10 -5 -10 -11z"/>
<path d="M2930 25750 c19 -13 30 -13 30 0 0 6 -10 10 -22 10 -19 0 -20 -2 -8
-10z"/>
<path d="M0 19140 c0 -13 7 -20 20 -20 26 0 26 16 0 30 -17 9 -20 8 -20 -10z"/>
<path d="M80 19010 c0 -5 7 -10 16 -10 8 0 12 5 9 10 -3 6 -10 10 -16 10 -5 0
-9 -4 -9 -10z"/>
<path d="M80 18970 c0 -5 5 -10 10 -10 6 0 10 5 10 10 0 6 -4 10 -10 10 -5 0
-10 -4 -10 -10z"/>
<path d="M152 18915 c0 -16 2 -22 5 -12 2 9 2 23 0 30 -3 6 -5 -1 -5 -18z"/>
<path d="M306 18735 c-3 -8 -1 -15 4 -15 6 0 10 7 10 15 0 8 -2 15 -4 15 -2 0
-6 -7 -10 -15z"/>
<path d="M12220 5781 c10 -19 76 -48 86 -38 7 7 -67 57 -84 57 -9 0 -10 -5 -2
-19z"/>
<path d="M12876 5507 c3 -10 9 -15 12 -12 3 3 0 11 -7 18 -10 9 -11 8 -5 -6z"/>
<path d="M12923 5215 c104 -144 153 -340 161 -640 3 -109 7 -152 18 -164 8 -9
17 -25 21 -34 3 -9 11 -17 17 -17 13 0 13 13 -1 27 -8 8 -8 17 0 31 6 11 11
30 11 42 0 11 7 23 15 26 8 4 15 16 16 28 1 13 4 8 9 -14 10 -41 1 -152 -11
-144 -11 6 -10 -14 1 -41 7 -19 8 -19 17 5 19 49 20 55 11 74 -7 13 -7 16 1
12 15 -10 25 38 25 129 0 84 -25 194 -51 229 -13 19 -14 17 -9 -34 12 -115 14
-187 5 -154 -5 17 -18 39 -29 49 -24 21 -25 46 -6 84 9 16 13 43 10 67 -3 21
-5 51 -5 67 0 15 -3 27 -7 27 -4 0 -14 21 -22 47 -14 50 -171 294 -210 328
-15 13 -11 3 13 -30z"/>
<path d="M13380 4906 c0 -5 16 -43 35 -83 19 -41 45 -102 56 -136 11 -34 32
-89 46 -122 58 -135 131 -384 148 -499 7 -46 57 -189 74 -211 5 -5 11 -22 15
-36 3 -15 21 -45 38 -66 18 -22 42 -52 53 -67 11 -15 45 -46 76 -69 86 -64
191 -160 318 -289 64 -65 121 -118 128 -118 7 0 12 -3 11 -7 -2 -8 128 -138
257 -258 41 -38 87 -89 101 -112 14 -24 28 -43 33 -43 4 0 14 -12 22 -27 8
-16 24 -43 36 -61 12 -18 30 -54 39 -80 10 -26 21 -49 24 -52 3 -3 12 -25 20
-50 7 -25 17 -49 20 -55 11 -15 29 -95 35 -156 3 -29 11 -91 18 -137 13 -88 3
-472 -12 -482 -4 -3 -9 -32 -10 -65 -2 -33 -7 -67 -11 -76 -5 -9 -6 -19 -3
-23 3 -3 1 -6 -5 -6 -7 0 -12 -9 -12 -21 0 -11 -4 -17 -10 -14 -6 4 -10 -5
-10 -19 0 -14 -4 -26 -9 -26 -5 0 -8 -11 -5 -25 3 -18 0 -25 -11 -25 -10 0
-15 -10 -15 -29 0 -17 -4 -32 -9 -36 -12 -7 -41 -64 -41 -81 0 -7 -4 -14 -8
-16 -4 -1 -25 -38 -46 -82 -36 -73 -99 -175 -115 -186 -4 -3 -17 -25 -29 -50
-12 -25 -42 -72 -67 -105 -25 -33 -45 -65 -45 -72 0 -13 -12 -17 -37 -14 -6 1
-15 -8 -18 -20 -4 -11 -22 -35 -39 -52 -18 -18 -36 -40 -39 -49 -9 -25 -27
-23 -27 3 0 11 -4 17 -11 14 -5 -4 -8 -12 -6 -18 5 -15 -17 -37 -36 -37 -8 0
-20 -7 -27 -15 -7 -8 -20 -15 -30 -15 -37 0 -80 -22 -80 -41 0 -12 -7 -19 -19
-19 -10 0 -24 -7 -31 -15 -16 -19 -28 -19 -32 0 -2 13 -9 11 -37 -10 -19 -14
-40 -25 -46 -25 -6 0 -17 -9 -25 -20 -15 -21 -50 -28 -50 -10 0 6 -10 4 -22
-4 -13 -7 -36 -17 -53 -20 -54 -12 -85 -28 -85 -45 0 -24 -69 -49 -81 -30 -13
21 -44 -2 -45 -32 0 -28 -11 -49 -25 -49 -5 0 -9 7 -9 15 0 21 -22 19 -43 -5
-9 -11 -29 -20 -46 -20 -31 0 -66 -30 -43 -37 21 -8 13 -27 -38 -83 -27 -30
-50 -61 -50 -68 0 -10 86 -12 411 -10 354 3 413 5 420 18 5 8 71 116 147 240
169 273 218 361 336 600 115 234 144 301 185 425 18 55 37 109 42 120 9 19 16
45 52 175 52 193 71 365 64 576 -7 198 -27 307 -91 487 -77 216 -203 453 -353
662 -52 72 -286 364 -438 546 -255 307 -344 415 -409 501 -92 122 -235 337
-242 365 -4 13 -10 23 -15 23 -5 0 -9 7 -9 16 0 13 -53 99 -71 114 -3 3 -11
14 -17 25 -6 11 -12 16 -12 11z"/>
<path d="M13270 4871 c0 -5 9 -11 21 -14 16 -4 18 -3 8 9 -13 16 -29 19 -29 5z"/>
<path d="M13351 4800 c14 -31 19 -36 19 -24 0 6 -7 19 -16 30 -14 18 -14 18
-3 -6z"/>
<path d="M13480 4380 c0 -5 5 -10 11 -10 5 0 7 5 4 10 -3 6 -8 10 -11 10 -2 0
-4 -4 -4 -10z"/>
<path d="M13321 4313 c0 -6 -24 -48 -51 -93 l-50 -82 32 20 c41 26 81 99 75
138 -2 16 -5 24 -6 17z"/>
<path d="M13462 3525 c0 -16 2 -22 5 -12 2 9 2 23 0 30 -3 6 -5 -1 -5 -18z"/>
<path d="M13509 3428 c4 -41 4 -42 12 -15 8 29 3 57 -10 57 -4 0 -5 -19 -2
-42z"/>
</g>
</svg>
