<?xml version="1.0" standalone="no"?>
<!DOCTYPE svg PUBLIC "-//W3C//DTD SVG 20010904//EN"
 "http://www.w3.org/TR/2001/REC-SVG-20010904/DTD/svg10.dtd">
<svg version="1.0" xmlns="http://www.w3.org/2000/svg"
 width="256.000000pt" height="256.000000pt" viewBox="0 0 256.000000 256.000000"
 preserveAspectRatio="xMidYMid meet">

<g transform="translate(0.000000,256.000000) scale(0.100000,-0.100000)"
fill="#000000" stroke="none">
<path d="M0 2435 c0 -118 1 -125 20 -125 11 0 36 9 56 21 20 11 43 18 51 15 7
-3 16 1 19 9 4 8 13 15 21 15 9 0 13 -6 9 -15 -4 -10 1 -15 15 -15 11 0 18 4
15 9 -3 4 6 18 19 31 19 18 27 21 39 11 11 -9 15 -9 18 1 3 8 6 6 11 -5 5 -13
-3 -19 -36 -28 -28 -9 -36 -14 -23 -17 15 -3 13 -7 -14 -24 -20 -12 -35 -16
-39 -10 -8 14 -57 25 -71 17 -8 -5 -8 -11 1 -21 9 -11 8 -14 -4 -14 -8 0 -17
7 -21 15 -5 13 -10 13 -40 -3 -20 -9 -36 -19 -36 -22 0 -3 19 -4 43 -2 28 2
38 0 28 -6 -7 -6 -10 -15 -7 -21 5 -7 -6 -11 -31 -11 -25 0 -33 -3 -25 -9 11
-7 11 -9 -2 -14 -11 -4 -16 -19 -16 -46 0 -32 3 -39 15 -35 8 4 15 1 15 -5 0
-6 9 -11 19 -11 23 0 59 32 42 38 -23 8 -10 31 22 38 26 5 77 44 77 59 0 2
-18 1 -40 -2 -26 -4 -40 -2 -40 6 0 9 46 17 74 12 4 -1 14 3 21 9 10 9 18 7
32 -7 22 -21 49 -28 58 -13 3 5 19 10 34 10 31 0 68 30 81 66 10 24 40 34 40
13 0 -8 5 -8 15 1 12 10 15 9 15 -7 0 -25 -10 -35 -24 -23 -7 5 -18 5 -25 1
-11 -7 -9 -11 8 -20 12 -7 19 -16 16 -22 -4 -5 -1 -9 4 -9 6 0 11 5 11 11 0 5
5 7 11 3 6 -3 15 0 20 7 6 11 13 9 33 -10 21 -19 31 -22 65 -16 44 7 85 -1 75
-16 -11 -18 64 -2 91 20 30 23 110 30 117 10 2 -7 9 -5 17 5 12 14 10 16 -15
17 -16 1 -33 1 -37 0 -5 -1 -6 3 -2 9 3 5 18 10 33 11 l27 1 -30 13 -30 14 37
-1 c26 -1 35 -5 31 -14 -6 -17 30 -32 82 -32 76 0 120 -4 103 -9 -29 -7 -21
-23 11 -23 17 0 32 -4 35 -9 3 -5 -13 -9 -35 -9 -49 -1 -56 -6 -38 -28 9 -11
22 -14 43 -10 26 6 28 5 13 -6 -11 -9 -14 -18 -8 -27 8 -12 12 -13 25 -1 9 7
14 15 12 18 -3 2 1 11 9 18 19 19 63 8 61 -14 -1 -12 8 -18 29 -20 46 -5 50
-19 5 -16 -42 2 -55 8 -55 27 0 5 -6 12 -13 15 -22 7 -13 -17 19 -47 33 -32
31 -51 -5 -51 -23 0 -61 -32 -50 -42 3 -4 1 -16 -6 -27 -7 -14 -7 -21 0 -21 5
0 10 5 10 11 0 6 14 9 32 7 23 -2 33 1 33 11 0 8 6 16 14 19 8 3 11 0 7 -7 -4
-7 0 -11 11 -11 34 0 63 12 63 26 0 16 -10 17 -43 5 -22 -9 -58 2 -46 13 3 3
35 10 72 15 36 5 71 12 77 16 21 13 8 21 -35 20 -43 -1 -44 0 -31 19 14 22 37
26 74 14 19 -7 25 -4 29 11 4 16 9 17 38 8 19 -5 32 -14 29 -19 -3 -4 6 -8 20
-8 16 0 26 6 26 15 0 16 26 21 32 6 2 -5 15 -7 30 -4 17 3 25 10 21 19 -3 9 2
14 15 14 11 0 22 -4 24 -10 5 -14 48 0 48 16 0 8 5 14 11 14 6 0 9 -7 5 -15
-8 -21 86 -21 104 0 7 8 16 12 21 9 5 -3 18 0 29 6 17 9 20 8 20 -10 0 -11 7
-23 15 -26 20 -8 67 4 61 15 -3 5 2 8 12 7 9 0 16 5 14 12 -1 7 9 12 28 12 17
0 30 -5 30 -12 0 -10 3 -9 9 1 7 11 11 10 20 -7 8 -15 20 -20 54 -19 40 2 43
3 41 29 -2 32 22 39 33 11 4 -10 13 -24 20 -31 7 -7 13 -20 13 -29 0 -11 8
-14 35 -11 22 2 36 -1 39 -9 7 -18 43 -16 43 2 0 8 -6 15 -13 15 -13 0 -26 25
-17 34 11 11 23 6 23 -8 0 -7 9 -16 20 -19 11 -3 20 -1 20 4 0 14 17 11 34 -7
21 -21 20 -35 -1 -27 -17 5 -17 5 -2 -12 13 -13 21 -15 37 -6 12 7 23 7 26 2
4 -5 0 -12 -6 -14 -8 -3 -6 -6 5 -6 10 -1 15 -6 12 -11 -7 -11 34 -30 50 -23
6 2 2 -2 -8 -10 -17 -14 -16 -15 3 -20 20 -5 20 -1 20 244 l0 249 -496 0 -497
0 26 -24 c31 -28 42 -65 32 -103 -6 -26 -8 -24 -25 27 -10 30 -16 58 -14 62 2
3 -5 9 -16 13 -11 4 -18 11 -15 16 4 5 -10 9 -29 9 -24 0 -35 -5 -38 -17 -3
-16 -4 -16 -20 0 -15 16 -76 17 -742 17 l-726 0 0 -125z m1452 63 c-13 -26
-17 -29 -20 -15 -2 10 2 24 8 32 22 26 29 16 12 -17z m-145 -4 c-3 -3 -12 -4
-19 -1 -8 3 -5 6 6 6 11 1 17 -2 13 -5z m97 -22 c7 -11 -54 -102 -68 -101 -7
0 -6 2 2 6 6 2 10 9 6 14 -3 5 1 12 10 15 8 3 12 12 9 20 -3 7 2 16 10 20 9 3
13 12 10 20 -5 15 12 20 21 6z m609 -6 c9 -22 -45 -25 -68 -4 -18 17 -17 18
22 18 26 0 43 -5 46 -14z m-562 -30 c-7 -9 -8 -17 -2 -20 5 -3 12 0 15 6 4 7
4 3 2 -9 -2 -13 0 -26 5 -29 18 -10 9 -34 -13 -35 -17 -1 -19 -2 -5 -6 18 -5
24 -35 6 -30 -6 1 -13 -6 -14 -15 -2 -12 4 -18 18 -19 18 -1 19 -2 4 -6 -11
-3 -16 -11 -13 -19 6 -16 -9 -19 -19 -4 -11 18 -37 -2 -32 -26 2 -13 3 -24 1
-24 -1 0 -9 -3 -18 -6 -20 -8 -40 37 -22 48 8 6 7 8 -1 8 -21 0 -14 25 10 35
12 6 23 20 25 33 2 13 10 26 18 29 10 4 14 17 13 37 -3 28 19 81 30 71 2 -3
-2 -11 -8 -19z m136 -18 c-3 -7 -5 -2 -5 12 0 14 2 19 5 13 2 -7 2 -19 0 -25z
m-84 -8 c4 -15 0 -20 -14 -20 -17 0 -18 3 -9 20 6 11 12 20 14 20 2 0 6 -9 9
-20z m-592 1 c-9 -6 -10 -11 -2 -15 6 -4 14 -5 19 -3 4 2 15 -4 25 -15 9 -10
14 -18 11 -18 -4 0 -1 -7 7 -16 10 -13 10 -17 -1 -24 -9 -6 -17 -5 -21 2 -4 6
-13 7 -20 2 -12 -6 -12 -5 0 9 9 11 10 17 2 17 -6 0 -11 7 -11 15 0 8 -6 15
-13 15 -7 0 -13 9 -14 20 -1 13 4 20 15 20 13 0 14 -2 3 -9z m79 5 c0 -9 -30
-14 -35 -6 -4 6 3 10 14 10 12 0 21 -2 21 -4z m560 -6 c0 -5 -2 -10 -4 -10 -3
0 -8 5 -11 10 -3 6 -1 10 4 10 6 0 11 -4 11 -10z m-890 -50 c0 -5 -8 -10 -17
-10 -15 0 -16 2 -3 10 19 12 20 12 20 0z m240 0 c0 -5 -2 -10 -4 -10 -3 0 -8
5 -11 10 -3 6 -1 10 4 10 6 0 11 -4 11 -10z m407 4 c-3 -3 -12 -4 -19 -1 -8 3
-5 6 6 6 11 1 17 -2 13 -5z m-1257 -14 c8 -5 11 -10 5 -10 -5 0 -17 5 -25 10
-8 5 -10 10 -5 10 6 0 17 -5 25 -10z m1189 -7 c-13 -15 -11 -16 16 -9 23 6 27
5 19 -4 -6 -6 -31 -13 -55 -15 -24 -3 -36 -2 -26 1 20 6 23 24 5 25 -16 1 21
17 41 18 11 1 11 -2 0 -16z m-399 -3 c0 -5 -4 -10 -9 -10 -6 0 -13 5 -16 10
-3 6 1 10 9 10 9 0 16 -4 16 -10z m340 -1 c0 -5 -14 -9 -31 -9 -18 0 -28 -4
-24 -10 4 -7 -3 -9 -22 -5 -76 17 -72 30 12 32 36 0 65 -3 65 -8z m-520 -9 c0
-5 -4 -10 -10 -10 -5 0 -10 5 -10 10 0 6 5 10 10 10 6 0 10 -4 10 -10z m37 4
c-3 -3 -12 -4 -19 -1 -8 3 -5 6 6 6 11 1 17 -2 13 -5z m630 0 c-3 -3 -12 -4
-19 -1 -8 3 -5 6 6 6 11 1 17 -2 13 -5z m-1049 -20 c-3 -3 -21 -7 -39 -9 -25
-3 -30 -2 -19 5 16 10 67 14 58 4z m522 -6 c0 -6 -3 -8 -7 -5 -3 4 -12 2 -20
-4 -10 -9 -13 -8 -13 5 0 9 8 16 20 16 11 0 20 -5 20 -12z m-173 -4 c-3 -3
-12 -4 -19 -1 -8 3 -5 6 6 6 11 1 17 -2 13 -5z m120 0 c-3 -3 -12 -4 -19 -1
-8 3 -5 6 6 6 11 1 17 -2 13 -5z m420 0 c-3 -3 -12 -4 -19 -1 -8 3 -5 6 6 6
11 1 17 -2 13 -5z m93 -19 c-7 -8 -20 -15 -29 -15 -13 1 -13 3 3 15 26 19 42
19 26 0z m1008 -7 c-2 -7 16 -15 41 -19 65 -12 63 -21 -4 -17 -41 2 -59 7 -57
16 1 6 -5 12 -14 12 -8 0 -12 5 -9 10 9 14 46 13 43 -2z m-680 -4 c-12 -11
-68 -15 -68 -5 0 6 17 11 37 11 20 0 34 -3 31 -6z m122 -14 c-11 -21 -22 -25
-33 -13 -7 6 21 32 36 33 4 0 3 -9 -3 -20z m-973 4 c-3 -3 -12 -4 -19 -1 -8 3
-5 6 6 6 11 1 17 -2 13 -5z m893 -4 c0 -5 -5 -10 -11 -10 -5 0 -7 -4 -4 -10 3
-5 1 -10 -4 -10 -13 0 -13 3 -5 24 7 18 24 22 24 6z m-1520 -40 c0 -5 -5 -10
-11 -10 -5 0 -7 5 -4 10 3 6 8 10 11 10 2 0 4 -4 4 -10z m1355 0 c3 -5 1 -10
-4 -10 -6 0 -11 5 -11 10 0 6 2 10 4 10 3 0 8 -4 11 -10z m1070 -70 c18 -8 17
-9 -7 -9 -16 -1 -28 4 -28 9 0 12 8 12 35 0z m-1345 -70 c-20 -13 -33 -13 -25
0 3 6 14 10 23 10 15 0 15 -2 2 -10z"/>
<path d="M950 2280 c0 -5 5 -10 11 -10 5 0 7 5 4 10 -3 6 -8 10 -11 10 -2 0
-4 -4 -4 -10z"/>
<path d="M1017 2279 c7 -7 15 -10 18 -7 3 3 -2 9 -12 12 -14 6 -15 5 -6 -5z"/>
<path d="M840 2268 c0 -14 8 -18 38 -17 34 2 34 2 7 6 -16 3 -33 10 -37 16 -5
8 -8 6 -8 -5z"/>
<path d="M975 2260 c-3 -5 -1 -10 4 -10 6 0 11 5 11 10 0 6 -2 10 -4 10 -3 0
-8 -4 -11 -10z"/>
<path d="M225 2241 c-3 -5 -2 -12 3 -15 5 -3 9 1 9 9 0 17 -3 19 -12 6z"/>
<path d="M510 2240 c0 -5 7 -10 16 -10 8 0 12 5 9 10 -3 6 -10 10 -16 10 -5 0
-9 -4 -9 -10z"/>
<path d="M585 2230 c3 -5 8 -10 11 -10 2 0 4 5 4 10 0 6 -5 10 -11 10 -5 0 -7
-4 -4 -10z"/>
<path d="M2052 2202 c-13 -2 -20 -8 -16 -14 5 -8 1 -9 -12 -4 -52 22 -55 21
-50 -19 3 -20 2 -34 -2 -30 -4 4 -7 12 -7 18 0 7 -8 13 -17 15 -14 3 -16 -3
-11 -34 4 -25 3 -35 -5 -30 -6 3 -14 2 -17 -4 -4 -6 -3 -10 2 -9 34 6 45 -14
49 -92 3 -78 31 -165 79 -249 11 -19 11 -26 2 -32 -9 -6 -8 -11 3 -18 13 -9
13 -11 0 -20 -21 -14 -31 -13 -113 11 -131 38 -148 42 -153 36 -11 -11 6 -26
44 -37 20 -7 42 -18 47 -25 6 -7 30 -15 55 -18 25 -3 53 -9 63 -12 11 -5 17
-2 17 8 0 16 32 29 47 18 5 -3 19 -23 32 -44 12 -20 43 -49 68 -64 45 -26 45
-27 22 -36 -24 -10 -24 -11 -2 -14 20 -4 42 -33 25 -33 -16 0 -10 -44 10 -84
11 -22 22 -56 23 -76 2 -45 46 -138 91 -191 39 -46 62 -85 46 -75 -6 3 -12 -1
-14 -11 -2 -13 -11 -7 -37 26 -46 57 -121 191 -122 216 0 20 0 20 -8 0 -5 -13
-3 -28 7 -43 12 -19 13 -22 0 -17 -9 4 -19 -4 -27 -21 -10 -23 -10 -26 5 -20
17 7 46 -24 51 -54 1 -8 6 -16 12 -18 5 -2 7 -10 4 -18 -3 -8 1 -14 11 -14 22
0 20 -27 -1 -33 -14 -4 -13 -5 3 -6 19 -1 23 -8 26 -48 5 -55 3 -63 -15 -41
-12 16 -57 34 -57 24 0 -3 9 -14 21 -25 l21 -19 -21 -21 c-12 -12 -30 -21 -42
-21 -12 0 -17 -4 -13 -11 4 -7 0 -9 -13 -5 -11 4 -31 2 -44 -3 -22 -9 -20 -11
11 -15 6 0 10 -5 11 -11 1 -15 -61 -47 -80 -41 -12 5 -11 2 3 -8 20 -16 16
-46 -6 -46 -9 0 -9 3 2 10 10 6 6 9 -18 8 -17 -1 -29 -5 -26 -10 3 -4 -2 -8
-10 -8 -9 0 -16 4 -16 10 0 5 -7 7 -16 3 -9 -3 -23 3 -35 16 -11 11 -27 21
-37 21 -12 0 -10 -4 8 -17 14 -9 26 -17 27 -17 1 -1 -2 -18 -6 -38 -7 -31 -6
-36 7 -30 11 4 14 1 9 -10 -3 -10 1 -18 12 -21 11 -2 17 2 18 13 1 10 -7 20
-18 23 -10 3 -19 12 -19 20 0 19 121 19 128 -1 2 -6 8 -12 14 -12 6 0 8 6 5
14 -4 10 10 21 41 35 26 12 57 29 70 37 17 13 22 14 22 3 0 -8 6 -4 13 8 6 11
29 45 49 75 21 29 33 55 28 56 -6 2 -10 8 -10 14 0 6 7 8 15 4 11 -4 15 1 15
19 0 24 23 55 41 55 12 0 11 -6 -2 -33 -9 -20 -9 -20 4 -4 8 9 19 17 25 17 22
0 52 58 52 99 0 25 10 62 26 92 19 38 22 54 14 64 -6 7 -12 24 -14 37 -1 13
-6 32 -10 43 -4 11 -14 36 -21 55 -31 81 -76 170 -87 170 -15 0 -78 49 -78 61
0 5 6 9 14 9 9 0 12 7 9 20 -4 16 -9 18 -19 10 -9 -9 -15 -6 -23 9 -14 26 -14
34 1 25 13 -8 6 5 -26 49 -15 21 -28 27 -55 27 -27 0 -32 3 -21 10 24 16 48
12 70 -12 11 -12 20 -17 20 -11 0 17 -39 61 -60 68 -11 4 -18 11 -15 16 4 5 0
9 -7 9 -10 0 -9 3 2 9 8 6 18 7 22 5 10 -7 10 0 -1 28 -20 50 -24 63 -22 75 4
26 -55 194 -73 208 -7 6 -15 15 -17 20 -2 6 -14 9 -27 7z m-12 -180 c0 -23
-18 -3 -25 28 -4 16 -11 32 -16 35 -5 4 -9 12 -9 18 1 16 50 -64 50 -81z m17
-154 c-3 -8 -6 -5 -6 6 -1 11 2 17 5 13 3 -3 4 -12 1 -19z m-27 -19 c0 -6 -4
-7 -10 -4 -5 3 -10 11 -10 16 0 6 5 7 10 4 6 -3 10 -11 10 -16z m95 -59 c3 -5
1 -10 -4 -10 -6 0 -11 5 -11 10 0 6 2 10 4 10 3 0 8 -4 11 -10z m-55 -26 c0
-8 -5 -12 -10 -9 -6 4 -8 11 -5 16 9 14 15 11 15 -7z m192 -317 c12 -13 27
-45 33 -70 11 -43 11 -45 -7 -36 -10 5 -27 27 -38 49 -11 21 -24 41 -30 45
-16 10 -12 35 6 35 8 0 25 -11 36 -23z"/>
<path d="M2120 2200 c0 -5 7 -10 16 -10 8 0 12 5 9 10 -3 6 -10 10 -16 10 -5
0 -9 -4 -9 -10z"/>
<path d="M1024 2172 c-13 -7 -24 -15 -24 -18 0 -3 4 -3 9 1 5 3 12 1 16 -5 3
-5 -4 -11 -17 -11 -13 -1 -5 -5 17 -8 46 -8 68 -3 58 12 -4 7 2 8 18 3 13 -4
33 -9 44 -11 11 -2 26 -5 34 -6 7 -2 16 2 18 9 3 7 -5 13 -19 14 -12 0 -32 2
-43 2 -24 2 -47 15 -41 24 7 12 -44 8 -70 -6z"/>
<path d="M1600 2170 c-13 -8 -12 -10 3 -10 9 0 17 5 17 10 0 12 -1 12 -20 0z"/>
<path d="M1867 2168 c6 -11 31 -10 37 1 3 5 -5 8 -18 7 -13 0 -22 -4 -19 -8z"/>
<path d="M1426 2161 c-3 -4 6 -6 19 -3 14 2 25 6 25 8 0 8 -39 4 -44 -5z"/>
<path d="M2380 2160 c-9 -6 -10 -10 -3 -10 6 0 15 5 18 10 8 12 4 12 -15 0z"/>
<path d="M800 2140 c0 -5 4 -10 9 -10 6 0 13 5 16 10 3 6 -1 10 -9 10 -9 0
-16 -4 -16 -10z"/>
<path d="M1440 2136 c-13 -13 -13 -36 0 -36 6 0 10 5 10 11 0 6 5 7 13 2 28
-17 80 -2 71 21 -6 16 -79 17 -94 2z"/>
<path d="M1915 2130 c3 -5 8 -10 11 -10 2 0 4 5 4 10 0 6 -5 10 -11 10 -5 0
-7 -4 -4 -10z"/>
<path d="M0 2104 c0 -8 5 -12 10 -9 6 3 10 10 10 16 0 5 -4 9 -10 9 -5 0 -10
-7 -10 -16z"/>
<path d="M1830 2112 c0 -5 7 -9 15 -9 8 0 15 4 15 9 0 4 -7 8 -15 8 -8 0 -15
-4 -15 -8z"/>
<path d="M1125 2100 c-3 -5 -2 -10 4 -10 5 0 13 5 16 10 3 6 2 10 -4 10 -5 0
-13 -4 -16 -10z"/>
<path d="M1064 2078 c-10 -16 4 -20 33 -11 l28 10 -28 5 c-15 3 -30 1 -33 -4z"/>
<path d="M1402 2073 c-10 -4 -8 -8 5 -18 15 -12 16 -16 4 -27 -8 -7 -11 -8 -8
-2 14 25 -63 32 -120 12 -34 -12 -44 -28 -18 -28 8 0 15 4 15 8 0 4 22 9 50
10 40 2 51 -2 60 -18 6 -11 18 -20 28 -20 9 0 36 -11 60 -25 45 -25 48 -25 31
6 -5 11 -15 16 -21 13 -7 -4 -8 -3 -4 4 4 6 -7 21 -24 33 -16 13 -30 31 -30
41 0 18 -5 20 -28 11z"/>
<path d="M960 2051 c0 -5 7 -11 15 -15 9 -3 15 0 15 9 0 8 -7 15 -15 15 -8 0
-15 -4 -15 -9z"/>
<path d="M1083 2053 c-18 -6 -16 -33 1 -33 19 0 31 19 20 30 -5 4 -15 5 -21 3z"/>
<path d="M1020 2029 c0 -5 5 -7 10 -4 6 3 10 8 10 11 0 2 -4 4 -10 4 -5 0 -10
-5 -10 -11z"/>
<path d="M2540 2020 c-13 -8 -12 -10 3 -10 9 0 17 5 17 10 0 12 -1 12 -20 0z"/>
<path d="M2496 1994 c-3 -8 -10 -13 -15 -10 -5 4 -12 0 -15 -6 -5 -10 -7 -10
-12 -1 -6 13 -34 7 -34 -7 0 -5 10 -12 23 -16 12 -4 33 -14 46 -22 22 -15 22
-16 5 -23 -14 -6 -11 -8 14 -8 27 -1 32 -5 32 -26 0 -14 5 -25 10 -25 6 0 10
30 10 70 0 57 -3 70 -16 70 -9 0 -12 -5 -8 -12 4 -7 3 -8 -4 -4 -7 4 -12 14
-12 22 0 19 -16 18 -24 -2z"/>
<path d="M1027 1994 c-8 -8 1 -24 14 -24 5 0 9 7 9 15 0 15 -12 20 -23 9z"/>
<path d="M2364 1963 c2 -16 10 -29 20 -31 17 -4 19 1 10 36 -9 32 -33 28 -30
-5z"/>
<path d="M50 1951 c0 -12 5 -21 10 -21 6 0 10 6 10 14 0 8 -4 18 -10 21 -5 3
-10 -3 -10 -14z"/>
<path d="M2517 1783 c-10 -10 -8 -23 4 -23 5 0 8 4 5 9 -4 5 0 12 6 14 7 3 8
6 2 6 -6 1 -14 -2 -17 -6z"/>
<path d="M1730 1750 c0 -5 5 -10 11 -10 5 0 7 5 4 10 -3 6 -8 10 -11 10 -2 0
-4 -4 -4 -10z"/>
<path d="M920 1696 c-66 -14 -165 -65 -165 -86 0 -8 9 -18 20 -21 20 -6 20 -6
0 -13 -11 -4 -37 -16 -59 -26 -36 -19 -74 -18 -45 1 10 6 10 9 2 9 -17 0 -29
-23 -14 -28 9 -3 9 -7 0 -18 -9 -11 -8 -14 5 -14 30 0 86 29 86 44 0 9 8 16
17 16 12 0 4 -13 -27 -45 -43 -44 -57 -55 -45 -35 3 6 2 10 -4 10 -19 0 -21
-19 -2 -25 18 -5 117 27 136 46 5 5 17 9 27 9 10 0 18 5 18 10 0 6 9 10 21 10
11 0 17 5 14 10 -3 6 2 10 12 10 11 0 23 4 28 9 16 13 70 21 85 11 12 -8 12
-10 0 -14 -40 -12 -42 -16 -8 -12 25 3 38 0 42 -10 3 -8 1 -14 -5 -14 -6 0 -8
-9 -4 -19 4 -14 0 -21 -12 -24 -10 -3 -5 -5 13 -6 16 0 39 -8 50 -16 16 -13
17 -16 4 -25 -13 -8 -11 -11 8 -16 18 -5 22 -12 18 -28 -3 -11 -6 -25 -6 -29
0 -5 -10 -5 -22 -2 -19 6 -21 5 -10 -6 20 -21 15 -27 -40 -39 -38 -8 -54 -8
-56 0 -3 8 -8 7 -18 -1 -24 -20 -6 -27 46 -16 55 11 69 6 49 -16 -9 -10 -26
-13 -50 -10 -30 4 -39 1 -54 -18 l-17 -24 4 27 c4 23 0 29 -25 38 -24 8 -28
13 -19 22 7 7 27 14 45 16 18 2 39 4 47 5 9 1 25 14 38 28 l22 28 -32 -4 c-24
-3 -29 -2 -18 5 8 5 26 10 40 10 24 1 24 1 -5 14 l-30 14 25 11 c24 10 23 11
-7 5 -26 -4 -33 -2 -33 10 0 9 -7 16 -16 16 -8 0 -13 4 -9 9 9 15 -29 31 -56
24 -21 -6 -22 -5 -9 9 9 8 22 17 30 21 12 4 12 6 -2 6 -9 1 -28 -10 -42 -24
-17 -17 -20 -25 -11 -25 8 0 15 -4 15 -10 0 -5 -8 -10 -19 -10 -10 0 -24 -7
-31 -15 -7 -8 -18 -15 -24 -15 -6 0 -20 -8 -31 -16 -19 -14 -19 -16 -2 -25 25
-15 21 -30 -8 -23 -31 8 -67 -18 -135 -96 -43 -50 -50 -63 -40 -75 10 -12 16
-13 27 -4 11 9 12 9 8 -4 -6 -13 -1 -14 30 -7 25 6 34 5 27 -2 -5 -5 -26 -11
-46 -13 -19 -2 -41 -7 -47 -11 -7 -4 -9 -3 -5 4 15 24 -16 21 -63 -8 -28 -16
-51 -27 -51 -24 0 2 -10 -4 -22 -16 -12 -11 -30 -20 -40 -20 -11 0 -15 -5 -12
-15 5 -11 -1 -15 -19 -15 -16 0 -35 -11 -50 -29 -14 -17 -28 -28 -31 -25 -3 2
-4 1 -1 -3 3 -3 -3 -16 -12 -27 -13 -15 -9 -14 12 4 55 47 94 70 116 70 21 0
22 -1 4 -20 -10 -11 -26 -22 -36 -25 -11 -4 -24 -15 -29 -26 -10 -18 -10 -19
25 -2 19 9 37 24 40 34 6 19 35 34 35 19 0 -5 8 -6 18 -3 15 6 15 5 3 -10 -7
-9 -21 -17 -30 -17 -9 0 -22 -9 -29 -20 -12 -19 -11 -20 13 -14 19 5 25 2 25
-10 0 -9 -7 -16 -15 -16 -8 0 -38 -16 -65 -35 -55 -39 -60 -37 -30 15 l21 35
-27 -30 c-15 -16 -32 -30 -38 -31 -6 0 -19 -2 -29 -2 -10 -1 -16 -6 -13 -10 6
-9 -42 -58 -84 -85 -13 -10 -20 -17 -14 -17 5 0 14 3 20 8 5 4 6 3 3 -1 -3 -5
-28 -20 -55 -35 -164 -90 -155 -82 -152 -131 3 -41 5 -44 35 -46 18 -2 30 1
28 5 -3 5 19 14 50 20 30 6 57 15 60 20 3 5 20 6 38 3 18 -3 50 0 70 5 37 11
42 7 38 -25 -1 -7 2 -13 8 -13 21 0 41 13 41 26 0 10 13 14 43 14 l42 -1 -22
-18 c-27 -23 -29 -31 -7 -31 14 0 14 -3 4 -15 -15 -18 -50 -20 -50 -2 0 8 -4
7 -10 -3 -8 -13 -10 -12 -10 3 0 13 -9 17 -42 17 -24 0 -50 -5 -58 -10 -13 -8
-12 -10 3 -10 10 0 15 -4 12 -10 -4 -6 22 -10 69 -10 42 0 76 -4 76 -9 0 -5
-34 -7 -76 -5 -73 4 -75 3 -69 -17 7 -20 4 -21 -42 -18 -26 1 -90 2 -141 1
l-92 -2 1 -172 c1 -116 5 -175 13 -180 8 -6 7 -8 -1 -8 -7 0 -13 -7 -13 -15 0
-20 30 -19 92 5 33 12 76 20 113 20 l60 -1 -30 -16 c-16 -9 -57 -17 -89 -19
-33 -1 -79 -8 -103 -14 l-43 -13 2 -48 2 -48 1208 0 c791 -1 1208 3 1208 9 0
6 -6 10 -14 10 -23 0 -29 31 -6 37 11 3 17 10 13 15 -3 6 7 2 23 -9 16 -10 38
-24 49 -30 11 -6 19 -16 17 -22 -2 -12 30 -15 41 -4 4 3 1 13 -6 21 -10 13 -9
15 6 9 12 -5 17 -1 17 13 0 27 -26 38 -76 32 -30 -3 -44 -1 -44 7 0 7 -4 10
-9 6 -5 -3 -12 -1 -16 5 -3 5 0 10 7 10 10 0 9 3 -2 11 -11 7 -1 8 35 4 37 -4
55 -2 70 9 19 14 17 15 -32 16 -28 0 -55 4 -58 10 -4 6 17 8 59 4 37 -3 66 -2
66 3 0 14 -133 10 -137 -4 -9 -26 -21 -12 -14 14 5 17 17 30 32 34 22 7 18 9
-21 13 -8 1 -23 -5 -33 -13 -11 -9 -21 -11 -25 -6 -8 11 -52 20 -52 10 0 -3
10 -10 23 -15 18 -7 18 -9 4 -9 -10 -1 -15 -5 -12 -11 6 -10 -9 -15 -30 -10
-5 1 -1 -9 10 -21 l20 -22 -21 11 c-12 6 -24 8 -28 4 -4 -3 -4 2 0 12 5 12 4
17 -3 13 -12 -7 -53 20 -53 35 0 5 10 8 23 5 12 -3 31 -2 41 2 18 7 16 9 -11
21 -18 8 -29 18 -26 23 3 5 0 7 -8 5 -8 -3 -23 -1 -34 5 -19 10 -18 10 4 19
34 12 14 25 -41 27 -10 1 -18 8 -18 16 0 9 -9 15 -23 15 -12 0 -33 7 -46 17
-23 15 -25 15 -37 -2 -18 -24 -18 -28 6 -55 12 -13 19 -29 16 -36 -3 -7 6 -15
20 -18 14 -4 22 -11 19 -16 -4 -6 -10 -8 -14 -6 -4 3 -8 -1 -8 -9 0 -10 11
-14 31 -13 17 1 45 -6 63 -15 18 -10 39 -17 47 -17 8 0 17 -4 20 -8 7 -11 -64
-13 -89 -3 -63 27 -80 31 -115 31 -29 0 -40 -4 -40 -15 0 -8 -6 -15 -12 -15
-15 0 -68 39 -54 40 5 0 18 -8 28 -17 18 -16 19 -15 34 5 8 12 24 22 34 22 27
0 14 29 -16 36 -20 5 -23 10 -17 33 3 14 10 28 15 29 4 2 8 10 8 18 0 15 -32
18 -65 5 -11 -5 -28 -4 -37 0 -13 7 -16 6 -12 -5 9 -24 -5 -38 -22 -21 -9 8
-12 19 -9 25 5 8 -31 15 -58 11 -4 -1 -5 10 -1 24 6 23 4 25 -25 19 -23 -5
-31 -3 -31 8 0 10 8 13 29 10 31 -4 52 14 27 24 -8 3 -12 12 -9 20 3 8 9 12
14 9 9 -6 49 16 49 27 0 12 -54 58 -67 58 -18 0 -16 -7 8 -41 11 -16 16 -30
10 -30 -11 -2 -26 -5 -38 -9 -5 -1 -12 -2 -18 0 -5 1 -1 -8 9 -19 19 -21 19
-21 -3 -21 -12 0 -19 4 -16 10 7 11 -6 13 -29 4 -13 -5 -12 -9 7 -24 l22 -18
-28 -22 c-15 -12 -25 -26 -21 -31 3 -5 2 -9 -3 -8 -4 1 -16 -1 -26 -6 -9 -4
-26 -5 -37 -2 -11 3 -20 0 -20 -6 0 -8 -4 -7 -12 1 -7 7 -27 12 -46 12 -24 0
-33 4 -29 13 3 7 -3 19 -14 25 -15 10 -17 9 -13 -3 4 -8 1 -15 -5 -15 -6 0
-11 6 -11 14 0 19 -21 25 -42 12 -19 -12 -108 7 -119 25 -3 6 -9 10 -13 10 -3
-1 -18 -1 -33 -1 -22 0 -25 2 -13 10 8 5 30 7 48 4 20 -4 32 -2 32 5 0 6 -11
11 -25 11 -14 0 -28 7 -31 15 -9 22 -34 19 -29 -4 3 -14 -1 -18 -11 -14 -8 3
-13 12 -10 19 3 8 1 14 -5 14 -6 0 -7 5 -3 12 4 7 3 8 -5 4 -15 -10 -40 11
-53 43 -7 20 -5 28 8 38 16 11 16 13 2 13 -9 0 -18 -6 -21 -12 -2 -7 -8 -10
-12 -6 -7 7 10 45 19 41 13 -6 26 -2 26 7 0 6 -9 10 -20 10 -11 0 -25 8 -31
19 -8 12 -19 16 -32 13 -14 -4 -18 -1 -13 7 5 7 20 9 42 5 22 -4 34 -2 34 5 0
6 -7 8 -15 5 -8 -4 -15 -1 -15 5 0 7 6 14 14 17 22 8 15 44 -7 44 -17 0 -17 2
-6 16 7 8 21 13 31 11 10 -3 15 -1 12 4 -3 6 5 7 20 3 16 -4 26 -2 26 5 0 6
-11 11 -25 11 -28 0 -34 15 -9 24 8 3 12 10 9 16 -4 6 -11 8 -16 5 -5 -4 -10
0 -10 7 -1 7 -3 20 -3 28 -1 8 -8 27 -15 42 -16 32 -8 60 16 56 27 -4 43 10
43 38 0 14 -4 23 -9 19 -14 -8 -21 9 -10 25 6 10 9 11 9 3 0 -21 51 -10 66 13
14 21 10 54 -7 54 -13 0 -11 48 3 56 6 4 17 -1 25 -11 12 -18 13 -18 13 3 0
12 5 22 10 22 17 0 11 41 -11 71 -11 16 -27 29 -36 29 -9 0 -13 6 -10 14 3 8
-1 17 -9 20 -9 3 -12 10 -9 16 7 11 -21 95 -38 118 -16 21 -1 24 33 7 18 -9
34 -14 38 -11 5 6 37 -33 37 -47 0 -4 18 -23 40 -43 l40 -36 -33 17 c-19 9
-35 15 -37 13 -7 -7 86 -84 95 -78 6 4 2 21 -10 43 -12 21 -18 42 -15 47 4 6
0 10 -8 10 -8 0 -25 12 -38 28 -32 36 -84 81 -74 63 5 -10 4 -12 -4 -7 -6 4
-9 11 -6 15 5 10 -30 87 -44 95 -5 4 -16 -1 -24 -9 -19 -19 -23 -19 -31 1 -3
8 -2 12 4 9 22 -14 8 28 -17 52 -75 70 -143 89 -243 69z m155 -44 c-3 -3 -11
0 -18 7 -9 10 -8 11 6 5 10 -3 15 -9 12 -12z m-260 -22 c-3 -5 -16 -10 -28
-10 -18 0 -19 2 -7 10 20 13 43 13 35 0z m245 -40 c0 -5 -7 -7 -15 -4 -8 4
-12 10 -9 15 6 11 24 2 24 -11z m-217 -40 c-24 -11 -43 -24 -43 -30 0 -6 -5
-8 -12 -4 -17 11 42 54 72 53 21 0 18 -3 -17 -19z m122 -50 c3 -5 -1 -10 -10
-10 -9 0 -13 5 -10 10 3 6 8 10 10 10 2 0 7 -4 10 -10z m-20 -30 c-3 -5 -10
-10 -16 -10 -5 0 -9 5 -9 10 0 6 7 10 16 10 8 0 12 -4 9 -10z m49 -9 c3 -5 -1
-11 -9 -15 -9 -3 -15 0 -15 9 0 16 16 20 24 6z m-38 -73 c-11 -19 -50 -33 -39
-15 3 7 12 19 20 28 8 9 13 20 12 25 -5 26 4 34 10 9 4 -16 2 -38 -3 -47z m51
26 c-3 -3 -12 -4 -19 -1 -8 3 -5 6 6 6 11 1 17 -2 13 -5z m-93 -73 c3 -5 0
-13 -7 -19 -15 -12 -61 3 -52 18 8 12 52 13 59 1z m399 -101 c7 -27 -12 -25
-23 3 -5 12 -9 16 -9 9 -1 -7 -5 -10 -11 -7 -6 4 -5 11 3 20 14 15 32 4 40
-25z m-503 16 c0 -3 -4 -8 -10 -11 -5 -3 -10 -1 -10 4 0 6 5 11 10 11 6 0 10
-2 10 -4z m294 -21 c5 -11 18 -32 28 -47 20 -31 23 -55 7 -60 -5 -2 -11 -21
-12 -43 -4 -56 -34 -116 -55 -108 -10 4 -12 8 -4 11 9 3 9 9 1 24 -6 11 -8 22
-6 25 3 2 -3 13 -14 24 -11 11 -17 24 -14 30 8 11 -45 69 -62 69 -12 0 -17
-12 -14 -32 0 -4 -13 -6 -29 -6 -17 1 -33 -2 -37 -6 -11 -11 17 -24 38 -19 22
6 49 -13 49 -33 0 -18 -29 -13 -64 9 -17 11 -25 13 -24 5 2 -6 -4 -13 -13 -15
-11 -3 -23 7 -33 28 -20 39 -21 69 -2 69 7 0 26 10 41 22 17 13 30 18 32 11 4
-12 64 -3 63 10 -1 11 81 55 99 53 8 0 19 -10 25 -21z m-324 1 c0 -2 -7 -6
-15 -10 -8 -3 -15 -1 -15 4 0 6 7 10 15 10 8 0 15 -2 15 -4z m56 -43 c-10 -10
-19 5 -10 18 6 11 8 11 12 0 2 -7 1 -15 -2 -18z m-181 -53 c-3 -5 -11 -10 -16
-10 -6 0 -7 5 -4 10 3 6 11 10 16 10 6 0 7 -4 4 -10z m165 -9 c0 -6 -4 -13
-10 -16 -5 -3 -10 1 -10 9 0 9 5 16 10 16 6 0 10 -4 10 -9z m-145 -83 c-1 -15
3 -25 6 -22 4 2 10 1 13 -4 8 -13 88 -5 97 9 6 11 9 10 14 -3 4 -9 5 -25 3
-34 -3 -17 -4 -17 -20 0 -10 10 -18 12 -18 6 0 -6 -4 -9 -10 -5 -5 3 -19 -4
-30 -15 -20 -20 -47 -19 -35 1 4 5 -1 9 -9 9 -9 0 -16 4 -16 9 0 5 -14 11 -30
15 -17 3 -30 9 -29 13 3 19 -3 21 -30 12 -20 -7 -28 -15 -24 -25 6 -15 -33
-35 -54 -27 -21 8 -15 23 12 33 14 5 24 15 23 21 -5 20 44 40 92 36 41 -2 45
-5 45 -29z m232 -35 c10 -16 24 -32 32 -37 19 -12 61 -57 61 -66 0 -4 -9 -17
-20 -30 -18 -21 -24 -34 -22 -51 1 -4 -7 -5 -18 -2 -11 3 -17 9 -14 14 3 5 -4
9 -16 9 -12 0 -18 4 -15 10 4 6 15 8 26 5 11 -4 19 -2 19 5 0 6 -4 8 -10 5 -5
-3 -10 -2 -10 4 0 6 9 15 21 22 39 20 6 33 -50 18 -32 -8 -57 -9 -70 -3 -18 8
-18 11 -4 46 8 21 18 36 23 33 4 -2 13 7 20 20 17 32 25 31 47 -2z m-403 -70
c-4 -22 -3 -25 5 -13 6 8 11 11 11 5 -1 -5 -7 -18 -14 -28 -12 -16 -14 -15
-20 14 -6 33 -1 49 15 49 5 0 7 -12 3 -27z m-52 -52 c-4 -32 -28 -50 -29 -23
0 13 24 52 32 52 1 0 0 -13 -3 -29z m628 12 c9 -10 15 -24 15 -31 0 -16 -26
-33 -39 -25 -5 3 -6 1 -3 -4 4 -6 -2 -13 -13 -16 -11 -3 -18 -1 -14 4 3 5 0 9
-5 9 -18 0 -12 21 12 41 19 16 20 20 7 29 -12 8 -12 10 5 10 11 0 27 -8 35
-17z m74 1 c29 -11 17 -29 -19 -30 -34 -1 -34 0 -19 18 19 21 17 20 38 12z
m-374 -39 c18 -9 31 -11 35 -5 3 6 11 10 16 10 6 0 7 -4 4 -10 -3 -6 4 -10 16
-10 46 0 5 -15 -46 -17 -29 -1 -63 -6 -74 -12 -17 -10 -19 -8 -16 10 4 20 23
49 32 49 2 0 17 -7 33 -15z m-454 -16 c0 -10 -6 -15 -14 -11 -8 3 -17 1 -21
-4 -3 -5 -17 -18 -31 -29 l-25 -20 24 28 c14 15 21 27 17 27 -5 0 -4 6 2 13
16 18 48 16 48 -4z m790 2 c-4 -5 -3 -11 1 -14 5 -2 3 -2 -4 -1 -7 2 -19 -4
-28 -12 -10 -10 -15 -11 -15 -3 0 6 8 18 18 25 20 15 36 18 28 5z m27 -47 c10
-11 -33 -43 -49 -37 -8 3 -21 0 -29 -7 -13 -11 -14 -10 -9 5 6 16 3 17 -32 11
-28 -5 -35 -4 -24 3 8 6 29 11 45 12 17 0 39 4 50 9 25 11 40 12 48 4z m-823
-46 c0 -16 -3 -19 -11 -11 -6 6 -8 16 -5 22 11 17 16 13 16 -11z m650 -13 c-7
-8 -17 -12 -22 -9 -6 4 -5 10 3 15 22 14 33 10 19 -6z m89 -19 c-11 -9 -69
-15 -64 -6 3 6 20 10 37 10 17 0 29 -2 27 -4z m-163 -62 c27 -15 27 -15 4 -10
-14 3 -31 6 -38 6 -7 0 -10 5 -7 10 8 13 8 13 41 -6z m144 6 c-8 -5 -22 -10
-30 -10 -13 0 -13 1 0 10 8 5 22 10 30 10 13 0 13 -1 0 -10z m45 -29 c7 -12
-12 -24 -25 -16 -11 7 -4 25 10 25 5 0 11 -4 15 -9z m-590 -11 c-27 -12 -35
-12 -35 0 0 6 12 10 28 9 24 0 25 -1 7 -9z m535 0 c0 -5 -4 -10 -10 -10 -5 0
-10 5 -10 10 0 6 5 10 10 10 6 0 10 -4 10 -10z m-367 -20 c-4 -15 -13 -20 -37
-19 -27 2 -28 2 -6 6 14 3 29 11 33 19 11 20 16 17 10 -6z m-128 -20 c-3 -5
-14 -10 -23 -9 -14 0 -13 2 3 9 27 11 27 11 20 0z m589 -52 c-3 -4 -12 -8 -20
-8 -8 0 -14 -4 -14 -10 0 -5 5 -10 10 -10 6 0 22 -11 36 -25 14 -14 30 -22 36
-19 6 4 8 3 5 -3 -4 -6 1 -14 11 -18 15 -6 15 -8 -5 -15 -12 -5 -27 -18 -33
-30 -9 -17 -7 -22 14 -29 33 -13 44 -32 14 -27 -13 3 -29 5 -36 5 -7 1 -10 6
-7 11 4 6 -12 10 -40 10 -31 0 -44 4 -39 11 3 6 18 8 33 5 14 -3 20 -3 14 0
-17 8 -16 33 1 40 18 7 13 37 -11 67 -15 19 -24 22 -50 16 -18 -3 -33 -4 -33
-2 0 3 -8 -1 -17 -8 -12 -10 -15 -10 -9 -1 4 7 23 19 42 27 19 8 34 19 34 24
0 6 8 11 19 11 11 0 22 10 26 23 6 21 7 21 15 -7 5 -16 7 -33 4 -38z m-781 45
c-7 -2 -19 -2 -25 0 -7 3 -2 5 12 5 14 0 19 -2 13 -5z m500 -10 c-7 -2 -21 -2
-30 0 -10 3 -4 5 12 5 17 0 24 -2 18 -5z m-153 -13 c11 -7 5 -8 -20 -4 -43 8
-51 14 -19 14 13 0 31 -5 39 -10z m-197 -7 c-7 -2 -21 -2 -30 0 -10 3 -4 5 12
5 17 0 24 -2 18 -5z m673 -48 c14 -14 21 -25 16 -25 -5 0 -19 11 -32 25 -13
14 -20 25 -16 25 4 0 18 -11 32 -25z m-849 -1 c-3 -3 -12 -4 -19 -1 -8 3 -5 6
6 6 11 1 17 -2 13 -5z m121 -1 c-10 -2 -26 -2 -35 0 -10 3 -2 5 17 5 19 0 27
-2 18 -5z m69 1 c-3 -3 -12 -4 -19 -1 -8 3 -5 6 6 6 11 1 17 -2 13 -5z m208
-11 c-11 -3 -25 -9 -30 -13 -6 -5 -19 -2 -29 6 -18 13 -15 14 30 13 27 -1 40
-4 29 -6z m-175 -20 c-14 -3 -29 -9 -34 -14 -6 -5 -22 -9 -37 -9 -15 0 -31 -4
-34 -10 -3 -5 -11 -10 -16 -10 -6 0 -7 5 -4 10 4 6 -5 10 -21 10 -15 0 -24 3
-21 7 4 3 24 6 44 5 21 -1 52 2 68 7 17 5 41 9 55 9 l25 -1 -25 -4z m-357 -10
c-7 -2 -21 -2 -30 0 -10 3 -4 5 12 5 17 0 24 -2 18 -5z m152 -13 c-11 -5 -33
-9 -50 -9 -26 0 -27 2 -10 9 11 5 34 9 50 9 26 0 27 -2 10 -9z m630 0 c-3 -5
-19 -10 -36 -10 -16 0 -29 5 -29 10 0 6 16 10 36 10 21 0 33 -4 29 -10z m-69
-38 c-3 -5 4 -8 16 -8 14 1 22 -6 24 -21 4 -24 -4 -27 -44 -16 -17 4 -22 11
-19 24 3 10 0 20 -7 23 -6 2 -1 5 12 5 13 1 21 -3 18 -7z m464 -42 c0 -13 64
-32 68 -20 5 14 42 13 42 -1 0 -6 -9 -13 -20 -16 -11 -3 -17 -9 -14 -14 3 -5
-9 -9 -25 -9 -17 0 -31 -4 -31 -10 0 -5 -12 -10 -26 -10 -17 0 -23 -4 -18 -12
4 -7 -3 -3 -15 10 -12 12 -28 22 -35 22 -8 0 -16 9 -19 21 -5 18 -2 20 19 16
28 -5 29 -3 10 16 -13 12 -10 14 25 14 21 0 39 -3 39 -7z m-127 -7 c-7 -2 -19
-2 -25 0 -7 3 -2 5 12 5 14 0 19 -2 13 -5z m-473 -17 c0 -9 -30 -14 -35 -6 -4
6 3 10 14 10 12 0 21 -2 21 -4z m329 -10 c9 -7 27 -17 41 -20 24 -7 24 -6 6 8
-11 9 -15 16 -9 16 6 0 16 -7 24 -16 8 -10 21 -13 36 -9 13 3 23 1 23 -5 0 -5
-22 -10 -48 -10 -37 0 -54 5 -68 21 -10 11 -26 18 -36 16 -10 -3 -16 -1 -12 4
8 13 25 11 43 -5z m982 -3 c13 -16 12 -17 -3 -4 -10 7 -18 15 -18 17 0 8 8 3
21 -13z m-1428 0 c-7 -2 -19 -2 -25 0 -7 3 -2 5 12 5 14 0 19 -2 13 -5z m857
-24 c0 -7 11 -9 28 -6 15 2 36 1 47 -3 11 -5 16 -9 10 -9 -5 -1 -3 -6 5 -12
13 -9 13 -10 -2 -6 -9 3 -22 -1 -28 -9 -8 -9 -9 -14 -2 -14 6 0 18 -3 28 -7
12 -4 15 -3 10 5 -4 7 -1 12 8 12 9 0 16 -4 16 -10 0 -5 5 -10 11 -10 5 0 7 5
4 10 -3 6 4 10 16 10 12 0 30 7 40 16 13 12 22 13 36 5 11 -6 13 -11 5 -11
-19 0 -4 -20 15 -20 9 0 13 6 9 15 -3 8 -2 14 2 13 4 -1 28 2 53 6 34 6 54 4
75 -7 l29 -16 -42 -7 c-24 -3 -43 -10 -43 -15 0 -5 -9 -9 -20 -9 -26 0 -25 -7
3 -31 18 -15 19 -20 8 -28 -11 -7 -11 -9 0 -14 10 -4 8 -6 -4 -6 -29 -1 -62
20 -47 29 9 6 7 11 -9 19 -12 7 -26 9 -31 6 -5 -3 -19 -1 -29 5 -21 11 -50 16
-135 25 -27 3 -55 10 -62 16 -7 6 -28 10 -46 9 -69 -4 -75 0 -30 22 23 11 42
24 42 29 0 5 7 9 15 9 8 0 15 -5 15 -11z m347 5 c-3 -3 -12 -4 -19 -1 -8 3 -5
6 6 6 11 1 17 -2 13 -5z m-67 -8 c0 -2 -7 -7 -16 -10 -8 -3 -12 -2 -9 4 6 10
25 14 25 6z m-962 -33 c-10 -2 -28 -2 -40 0 -13 2 -5 4 17 4 22 1 32 -1 23 -4z
m377 -3 c3 -5 1 -10 -4 -10 -6 0 -11 5 -11 10 0 6 2 10 4 10 3 0 8 -4 11 -10z
m182 4 c-3 -3 -12 -4 -19 -1 -8 3 -5 6 6 6 11 1 17 -2 13 -5z m276 -1 c-7 -2
-21 -2 -30 0 -10 3 -4 5 12 5 17 0 24 -2 18 -5z m-1460 -10 c-7 -2 -21 -2 -30
0 -10 3 -4 5 12 5 17 0 24 -2 18 -5z m802 -11 c-3 -3 -11 0 -18 7 -9 10 -8 11
6 5 10 -3 15 -9 12 -12z m1181 -10 c-10 -2 -22 0 -28 6 -6 6 0 7 19 4 21 -5
23 -7 9 -10z m-949 2 c-3 -3 -12 -4 -19 -1 -8 3 -5 6 6 6 11 1 17 -2 13 -5z
m58 -24 c3 -6 -1 -7 -9 -4 -18 7 -21 14 -7 14 6 0 13 -4 16 -10z m922 4 c-3
-3 -12 -4 -19 -1 -8 3 -5 6 6 6 11 1 17 -2 13 -5z m-2050 -10 c-3 -3 -12 -4
-19 -1 -8 3 -5 6 6 6 11 1 17 -2 13 -5z m71 -1 c-10 -2 -28 -2 -40 0 -13 2 -5
4 17 4 22 1 32 -1 23 -4z m974 -15 c26 -12 48 -26 48 -32 0 -6 -5 -5 -12 2
-17 17 -33 15 -19 -2 24 -29 -13 -23 -46 7 -55 50 -45 59 29 25z m235 10 c18
-7 33 -16 33 -20 0 -4 11 -8 24 -8 14 0 28 -5 32 -11 8 -13 -55 -2 -70 12 -6
5 -21 9 -35 9 -36 0 -71 11 -71 21 0 13 48 11 87 -3z m108 -8 c-11 -5 -31 -8
-45 -8 -23 0 -22 1 5 8 42 11 65 11 40 0z m-948 -13 c-5 -16 -79 -16 -84 0 -3
7 11 11 42 11 31 0 45 -4 42 -11z m274 -49 c38 -28 66 -55 63 -60 -3 -4 -11
-5 -17 -1 -7 4 -21 9 -32 10 -11 2 -32 12 -47 23 -15 11 -34 20 -42 20 -8 0
-21 6 -28 14 -8 7 -24 17 -36 20 -12 4 -22 14 -22 23 0 13 8 15 47 9 35 -4 63
-19 114 -58z m769 42 c0 -12 -57 -12 -85 0 -15 6 -6 9 33 9 28 1 52 -3 52 -9z
m45 -8 c-3 -3 -11 0 -18 7 -9 10 -8 11 6 5 10 -3 15 -9 12 -12z m244 -19 c2
-2 -3 -3 -11 -3 -9 0 -19 7 -22 16 -6 15 -4 15 11 3 10 -7 20 -15 22 -16z
m-1288 -21 c-5 -2 -6 -12 -3 -24 3 -14 1 -19 -6 -14 -7 4 -12 13 -12 21 0 7
-8 16 -17 20 -17 6 -17 7 2 21 18 13 21 13 33 -3 7 -10 9 -19 3 -21z m1122 11
c-7 -2 -19 -2 -25 0 -7 3 -2 5 12 5 14 0 19 -2 13 -5z m524 -43 c49 -26 28
-26 -28 0 -24 11 -36 20 -26 20 9 0 34 -9 54 -20z m-1682 -10 c-3 -5 -10 -10
-16 -10 -5 0 -9 5 -9 10 0 6 7 10 16 10 8 0 12 -4 9 -10z m-549 -15 c-11 -8
-25 -15 -30 -15 -6 0 -2 7 8 15 11 8 25 15 30 15 6 0 2 -7 -8 -15z m518 -4 c4
-5 -3 -7 -14 -4 -23 6 -26 13 -6 13 8 0 17 -4 20 -9z m1036 -1 c11 -7 6 -10
-20 -10 -26 0 -31 3 -20 10 8 5 17 10 20 10 3 0 12 -5 20 -10z m-345 -10 c7
-12 -2 -12 -30 0 -19 8 -19 9 2 9 12 1 25 -3 28 -9z m1026 -8 c-7 -2 -18 1
-23 6 -8 8 -4 9 13 5 13 -4 18 -8 10 -11z m-2021 -2 c0 -5 -7 -10 -16 -10 -8
0 -12 5 -9 10 3 6 10 10 16 10 5 0 9 -4 9 -10z m-124 -27 c-3 -4 -17 -8 -29
-10 -17 -2 -19 -1 -7 7 17 11 47 14 36 3z"/>
<path d="M625 1060 c-3 -5 -2 -10 4 -10 5 0 13 5 16 10 3 6 2 10 -4 10 -5 0
-13 -4 -16 -10z"/>
<path d="M1460 286 c0 -10 28 -13 41 -5 10 6 7 9 -13 9 -16 0 -28 -2 -28 -4z"/>
<path d="M1675 252 c-9 -9 29 -31 54 -32 19 0 21 3 12 14 -12 14 -57 27 -66
18z"/>
<path d="M780 174 c0 -8 32 -33 43 -34 5 0 5 4 2 10 -8 13 -45 33 -45 24z"/>
<path d="M1372 1693 c-18 -7 -4 -23 19 -23 12 0 19 5 17 12 -5 14 -18 18 -36
11z"/>
<path d="M1860 1630 c0 -5 4 -10 9 -10 6 0 13 5 16 10 3 6 -1 10 -9 10 -9 0
-16 -4 -16 -10z"/>
<path d="M1818 1613 c6 -2 18 -2 25 0 6 3 1 5 -13 5 -14 0 -19 -2 -12 -5z"/>
<path d="M1370 1606 c0 -10 28 -13 41 -5 10 6 7 9 -13 9 -16 0 -28 -2 -28 -4z"/>
<path d="M1330 1575 c-51 -8 -69 -14 -57 -20 9 -4 30 -4 45 0 62 16 113 16
157 1 33 -11 53 -12 71 -5 14 5 30 7 35 3 5 -3 9 -1 9 3 0 8 -152 35 -176 32
-5 -1 -43 -7 -84 -14z"/>
<path d="M1595 1551 c-39 -16 -92 -31 -108 -31 -9 0 -19 -5 -23 -12 -9 -14 76
-2 91 13 5 5 19 9 31 9 12 0 24 7 28 15 3 8 4 15 3 14 -1 0 -11 -4 -22 -8z"/>
<path d="M555 1519 c-90 -43 -109 -55 -111 -73 -2 -16 1 -15 23 8 19 21 31 26
50 21 20 -5 24 -3 20 9 -3 8 1 17 11 21 9 3 18 2 20 -3 1 -5 18 -2 37 6 34 16
38 33 7 31 -9 -1 -35 -10 -57 -20z"/>
<path d="M1415 1520 l-30 -8 27 -1 c15 0 30 4 33 9 3 6 5 9 3 9 -2 -1 -16 -5
-33 -9z"/>
<path d="M838 1503 c7 -3 16 -2 19 1 4 3 -2 6 -13 5 -11 0 -14 -3 -6 -6z"/>
<path d="M1338 1503 c7 -3 16 -2 19 1 4 3 -2 6 -13 5 -11 0 -14 -3 -6 -6z"/>
<path d="M485 1460 c-3 -5 -2 -10 4 -10 5 0 13 5 16 10 3 6 2 10 -4 10 -5 0
-13 -4 -16 -10z"/>
<path d="M725 1451 c-61 -20 -87 -38 -116 -77 -12 -16 -16 -23 -9 -16 8 6 23
12 34 12 18 0 18 -1 1 -20 -10 -11 -21 -17 -25 -15 -4 3 -19 -4 -33 -15 -14
-11 -30 -20 -35 -20 -5 0 -24 -16 -41 -35 -17 -19 -32 -34 -34 -33 -2 2 -21
-12 -43 -30 l-39 -33 30 6 c35 7 81 39 78 54 -2 6 5 8 15 5 14 -5 15 -4 2 5
-13 9 -13 12 0 24 8 7 27 19 43 25 l27 12 -16 -25 c-16 -24 -32 -36 -18 -13 4
7 3 8 -5 4 -6 -4 -9 -11 -6 -16 3 -4 -18 -27 -47 -50 -52 -41 -98 -93 -66 -74
58 34 140 105 167 143 17 26 51 66 76 90 25 24 42 48 38 54 -3 5 -2 8 3 5 5
-3 25 7 44 23 19 16 32 29 30 28 -3 0 -28 -8 -55 -18z"/>
<path d="M520 1439 c-22 -18 -22 -19 -3 -10 12 6 25 16 28 21 9 15 3 12 -25
-11z"/>
<path d="M405 1440 c-3 -6 1 -7 9 -4 18 7 21 14 7 14 -6 0 -13 -4 -16 -10z"/>
<path d="M349 1400 l-24 -20 28 11 c15 7 27 16 27 21 0 12 -5 10 -31 -12z"/>
<path d="M405 1410 c-3 -6 1 -7 9 -4 18 7 21 14 7 14 -6 0 -13 -4 -16 -10z"/>
<path d="M1942 1411 c-11 -7 -10 -10 3 -15 26 -10 35 -7 29 9 -7 17 -13 18
-32 6z"/>
<path d="M447 1349 c7 -7 15 -10 18 -7 3 3 -2 9 -12 12 -14 6 -15 5 -6 -5z"/>
<path d="M1420 1353 c0 -5 14 -22 31 -39 23 -21 29 -23 21 -9 -13 25 -52 62
-52 48z"/>
<path d="M1984 1351 c4 -5 -4 -7 -16 -3 -14 3 -19 2 -14 -6 11 -18 56 -15 56
3 0 8 -7 15 -16 15 -8 0 -13 -4 -10 -9z"/>
<path d="M2166 1335 c4 -8 8 -15 10 -15 2 0 4 7 4 15 0 8 -4 15 -10 15 -5 0
-7 -7 -4 -15z"/>
<path d="M396 1324 c-23 -23 -20 -30 4 -9 11 10 20 20 20 22 0 7 -9 2 -24 -13z"/>
<path d="M320 1317 c-14 -6 -27 -14 -30 -18 -9 -10 -70 -38 -65 -28 8 13 4 12
-43 -11 -22 -11 -46 -20 -52 -20 -6 0 -25 -7 -43 -15 -30 -15 -31 -15 -12 1
11 9 34 22 50 30 50 22 12 16 -56 -10 -40 -15 -65 -30 -67 -41 -3 -13 1 -15
18 -10 14 5 20 3 16 -3 -3 -6 15 0 41 14 27 13 55 24 64 24 8 0 20 5 27 12 6
6 15 9 18 5 4 -3 -5 -12 -20 -18 -14 -7 -26 -16 -26 -21 0 -4 -7 -8 -15 -8 -8
0 -23 -4 -33 -9 -9 -5 -34 -16 -54 -25 -37 -15 -38 -17 -38 -66 0 -36 4 -50
14 -50 8 0 16 3 18 8 5 10 66 52 77 52 5 0 11 -4 13 -10 2 -5 32 18 68 50 36
33 56 57 45 53 -19 -6 31 41 106 99 35 28 24 36 -21 15z"/>
<path d="M240 1300 c-9 -6 -10 -10 -3 -10 6 0 15 5 18 10 8 12 4 12 -15 0z"/>
<path d="M1838 1303 c7 -3 16 -2 19 1 4 3 -2 6 -13 5 -11 0 -14 -3 -6 -6z"/>
<path d="M1375 1290 c3 -5 2 -10 -3 -10 -13 0 -2 -58 14 -71 9 -8 14 -8 14 -1
0 6 -5 14 -11 18 -8 4 -3 12 12 20 13 7 19 13 12 14 -6 0 -15 9 -18 20 -3 11
-11 20 -16 20 -6 0 -7 -4 -4 -10z"/>
<path d="M1727 1253 c-4 -3 -7 -11 -7 -17 0 -6 5 -5 12 2 6 6 9 14 7 17 -3 3
-9 2 -12 -2z"/>
<path d="M2140 1244 c0 -14 3 -14 15 -4 8 7 15 14 15 16 0 2 -7 4 -15 4 -8 0
-15 -7 -15 -16z"/>
<path d="M1410 1231 c0 -5 5 -13 10 -16 6 -3 10 -2 10 4 0 5 -4 13 -10 16 -5
3 -10 2 -10 -4z"/>
<path d="M1788 1223 c7 -3 16 -2 19 1 4 3 -2 6 -13 5 -11 0 -14 -3 -6 -6z"/>
<path d="M2074 1222 c3 -5 0 -13 -6 -15 -9 -4 -10 -6 -1 -6 17 -1 25 16 12 25
-7 4 -9 3 -5 -4z"/>
<path d="M375 1210 c-3 -6 1 -7 9 -4 18 7 21 14 7 14 -6 0 -13 -4 -16 -10z"/>
<path d="M2090 1160 c0 -5 7 -10 16 -10 8 0 12 5 9 10 -3 6 -10 10 -16 10 -5
0 -9 -4 -9 -10z"/>
<path d="M360 1143 c-24 -10 -115 -105 -112 -117 2 -6 0 -8 -3 -4 -4 4 -17 1
-29 -7 -22 -16 -37 -19 -35 -7 3 18 -2 24 -13 15 -16 -12 -48 -24 -48 -18 0 2
14 11 30 20 17 9 30 13 30 10 0 -3 20 8 45 25 41 28 57 50 38 50 -5 0 -35 -16
-68 -35 -33 -19 -77 -42 -97 -51 -21 -9 -38 -20 -38 -24 0 -4 -13 -13 -30 -20
-28 -12 -30 -15 -29 -67 1 -30 4 -51 8 -46 3 5 24 17 46 27 133 60 168 81 193
115 15 20 51 60 80 89 30 28 52 52 50 51 -1 0 -10 -3 -18 -6z"/>
<path d="M2004 1118 c-12 -14 -14 -19 -4 -13 12 6 13 5 3 -6 -18 -18 -16 -28
5 -23 10 3 18 16 19 35 3 35 1 35 -23 7z"/>
<path d="M70 1072 c-14 -9 -26 -20 -28 -24 -2 -5 -10 -8 -18 -8 -9 0 -13 -4
-10 -9 4 -5 0 -11 -6 -14 -7 -2 -10 -8 -6 -12 8 -8 23 0 72 39 51 42 48 64 -4
28z"/>
<path d="M2055 1070 c3 -5 10 -10 16 -10 5 0 9 5 9 10 0 6 -7 10 -16 10 -8 0
-12 -4 -9 -10z"/>
<path d="M2120 1069 c0 -5 6 -9 13 -9 9 0 8 -3 -2 -9 -7 -5 -23 -7 -35 -4 -19
4 -19 3 -3 -7 27 -17 81 -9 85 14 3 11 0 16 -7 12 -6 -4 -11 -3 -11 1 0 5 -9
9 -20 10 -11 1 -20 -2 -20 -8z"/>
<path d="M2129 981 c9 -15 11 -22 3 -17 -16 10 -74 -3 -67 -14 5 -8 48 -5 84
6 11 3 11 7 1 19 -10 12 -9 15 9 15 11 0 21 4 21 8 0 4 -15 8 -34 8 -34 0 -34
0 -17 -25z"/>
<path d="M252 954 c-12 -8 -46 -23 -75 -33 -30 -11 -62 -23 -73 -29 -10 -5
-38 -18 -61 -27 -46 -19 -57 -45 -20 -46 l22 0 -23 -9 c-17 -7 -22 -17 -22
-46 0 -44 1 -44 117 35 97 65 161 126 160 154 0 9 -1 17 -1 17 -1 0 -12 -7
-24 -16z"/>
<path d="M394 948 l-19 -23 23 19 c21 18 27 26 19 26 -2 0 -12 -10 -23 -22z"/>
<path d="M305 941 c-2 -5 4 -11 15 -14 11 -3 20 -2 20 3 0 12 -28 21 -35 11z"/>
<path d="M2516 941 c-3 -5 3 -11 15 -14 16 -4 18 -3 8 9 -13 16 -16 17 -23 5z"/>
<path d="M1857 918 c2 -5 13 -8 24 -8 10 0 19 3 19 8 0 4 -11 7 -24 7 -13 0
-22 -3 -19 -7z"/>
<path d="M2007 917 c-3 -8 3 -14 15 -14 16 -2 17 1 8 13 -15 17 -17 17 -23 1z"/>
<path d="M1208 913 c6 -2 18 -2 25 0 6 3 1 5 -13 5 -14 0 -19 -2 -12 -5z"/>
<path d="M1882 864 c8 -9 23 -14 33 -12 12 2 7 7 -16 15 -30 12 -32 11 -17 -3z"/>
<path d="M1990 871 c0 -5 -10 -12 -22 -14 -17 -3 -15 -5 9 -6 38 -1 65 8 57
20 -7 12 -44 12 -44 0z"/>
<path d="M2293 837 c-9 -19 -8 -23 8 -24 20 -2 24 13 11 35 -6 9 -11 6 -19
-11z"/>
<path d="M2060 820 c0 -5 5 -10 10 -10 6 0 10 5 10 10 0 6 -4 10 -10 10 -5 0
-10 -4 -10 -10z"/>
<path d="M1355 770 c-13 -5 -14 -9 -5 -9 8 0 24 4 35 9 13 5 14 9 5 9 -8 0
-24 -4 -35 -9z"/>
<path d="M2175 760 c-10 -11 -14 -20 -8 -20 5 0 18 9 28 20 10 11 14 20 8 20
-5 0 -18 -9 -28 -20z"/>
<path d="M1295 760 c27 -12 43 -12 25 0 -8 5 -22 9 -30 9 -10 0 -8 -3 5 -9z"/>
<path d="M1798 743 c6 -2 18 -2 25 0 6 3 1 5 -13 5 -14 0 -19 -2 -12 -5z"/>
<path d="M2125 730 c-3 -6 1 -7 9 -4 18 7 21 14 7 14 -6 0 -13 -4 -16 -10z"/>
<path d="M1243 713 c-15 -5 -17 -23 -4 -23 5 0 11 7 15 15 3 8 4 15 3 14 -1 0
-8 -3 -14 -6z"/>
<path d="M1190 689 c0 -5 5 -7 10 -4 6 3 10 8 10 11 0 2 -4 4 -10 4 -5 0 -10
-5 -10 -11z"/>
<path d="M2088 693 c-10 -2 -18 -11 -18 -18 0 -7 -8 -16 -17 -18 -10 -3 -1 -5
19 -6 20 0 40 -6 44 -12 4 -7 17 0 35 17 16 15 29 30 29 33 0 7 -69 10 -92 4z
m72 -13 c0 -5 -5 -10 -11 -10 -5 0 -7 5 -4 10 3 6 8 10 11 10 2 0 4 -4 4 -10z"/>
<path d="M1895 680 c3 -5 8 -10 11 -10 2 0 4 5 4 10 0 6 -5 10 -11 10 -5 0 -7
-4 -4 -10z"/>
<path d="M2430 682 c0 -24 27 -32 61 -17 31 13 32 14 9 15 -14 0 -35 3 -47 6
-13 4 -23 2 -23 -4z"/>
<path d="M1900 630 c0 -5 5 -10 11 -10 5 0 7 5 4 10 -3 6 -8 10 -11 10 -2 0
-4 -4 -4 -10z"/>
<path d="M2105 609 c4 -18 -8 -34 -47 -64 -32 -26 -120 -54 -148 -48 -23 4
-30 2 -30 -10 0 -8 9 -17 19 -20 14 -3 18 -1 14 9 -4 10 10 6 42 -11 53 -28
59 -30 50 -16 -5 9 39 61 50 61 12 0 3 -29 -12 -41 -14 -12 -11 -15 28 -21 24
-3 62 -7 84 -7 l40 0 -50 24 -50 24 35 2 35 2 -40 6 c-23 3 -43 2 -47 -4 -20
-27 -4 11 27 64 19 32 35 61 35 63 0 2 -9 4 -19 5 -14 1 -19 -4 -16 -18z"/>
<path d="M1665 610 c-3 -5 -1 -10 4 -10 6 0 11 5 11 10 0 6 -2 10 -4 10 -3 0
-8 -4 -11 -10z"/>
<path d="M2158 593 c7 -3 16 -2 19 1 4 3 -2 6 -13 5 -11 0 -14 -3 -6 -6z"/>
<path d="M145 583 c11 -3 25 -10 32 -15 7 -5 22 -6 35 -2 l23 8 -25 7 c-14 4
-38 7 -55 7 -20 0 -23 -2 -10 -5z"/>
<path d="M1215 580 c3 -5 16 -10 28 -10 18 0 19 2 7 10 -20 13 -43 13 -35 0z"/>
<path d="M1482 553 c-25 -20 -25 -22 -7 -24 36 -3 50 2 73 25 l24 23 -32 -1
c-17 -1 -43 -11 -58 -23z"/>
<path d="M1975 571 c-18 -7 -17 -8 7 -14 29 -8 58 0 58 14 0 11 -37 11 -65 0z"/>
<path d="M2210 570 c0 -13 30 -13 50 0 11 7 7 10 -17 10 -18 0 -33 -4 -33 -10z"/>
<path d="M1680 545 c-10 -12 -10 -15 3 -15 23 0 47 11 47 21 0 15 -37 10 -50
-6z"/>
<path d="M1885 550 c-3 -5 -1 -10 4 -10 6 0 11 5 11 10 0 6 -2 10 -4 10 -3 0
-8 -4 -11 -10z"/>
<path d="M1943 543 c9 -2 23 -2 30 0 6 3 -1 5 -18 5 -16 0 -22 -2 -12 -5z"/>
<path d="M1896 531 c-12 -5 -15 -10 -9 -14 6 -4 16 0 23 8 14 17 13 17 -14 6z"/>
<path d="M1930 520 c0 -5 7 -7 15 -4 8 4 15 8 15 10 0 2 -7 4 -15 4 -8 0 -15
-4 -15 -10z"/>
<path d="M1393 490 c-10 -11 -23 -20 -30 -20 -7 0 -13 -4 -13 -10 0 -5 11 -10
25 -10 14 0 25 5 25 11 0 8 5 7 15 -1 13 -11 14 -10 9 4 -3 9 -11 16 -18 16
-6 0 -2 7 8 15 11 8 14 15 8 15 -7 0 -20 -9 -29 -20z"/>
<path d="M1495 499 c-4 -6 -5 -12 -2 -15 2 -3 7 2 10 11 7 17 1 20 -8 4z"/>
<path d="M2363 503 c9 -2 23 -2 30 0 6 3 -1 5 -18 5 -16 0 -22 -2 -12 -5z"/>
<path d="M1435 490 c-3 -5 1 -10 9 -10 8 0 18 5 21 10 3 6 -1 10 -9 10 -8 0
-18 -4 -21 -10z"/>
<path d="M1758 473 c7 -3 16 -2 19 1 4 3 -2 6 -13 5 -11 0 -14 -3 -6 -6z"/>
<path d="M1575 450 c3 -5 14 -10 23 -10 15 0 15 2 2 10 -20 13 -33 13 -25 0z"/>
<path d="M1366 431 c-4 -7 -5 -15 -2 -18 9 -9 19 4 14 18 -4 11 -6 11 -12 0z"/>
<path d="M1500 430 c0 -5 5 -10 10 -10 6 0 10 5 10 10 0 6 -4 10 -10 10 -5 0
-10 -4 -10 -10z"/>
<path d="M1530 410 c0 -6 4 -9 9 -6 5 4 12 1 14 -4 3 -6 4 -5 3 2 -3 15 -26
23 -26 8z"/>
<path d="M2116 407 c3 -8 11 -14 19 -14 20 0 19 13 -1 21 -22 8 -24 8 -18 -7z"/>
<path d="M1966 374 c-5 -13 -1 -15 19 -12 13 3 26 0 28 -5 2 -6 6 -3 10 7 4
10 3 15 -3 11 -6 -3 -10 -1 -10 4 0 17 -37 13 -44 -5z"/>
<path d="M2068 383 c12 -2 22 -9 22 -14 0 -5 12 -9 28 -9 l27 1 -25 14 c-14 8
-36 14 -50 13 -23 -1 -24 -1 -2 -5z"/>
<path d="M1900 356 c0 -2 7 -7 16 -10 8 -3 12 -2 9 4 -6 10 -25 14 -25 6z"/>
<path d="M1598 338 c4 -4 21 -3 37 2 30 9 30 9 -7 7 -21 0 -34 -5 -30 -9z"/>
<path d="M2190 346 c0 -2 7 -9 15 -16 13 -11 14 -10 9 4 -5 14 -24 23 -24 12z"/>
<path d="M2546 235 c4 -8 8 -15 10 -15 2 0 4 7 4 15 0 8 -4 15 -10 15 -5 0 -7
-7 -4 -15z"/>
<path d="M2530 210 c0 -5 5 -10 11 -10 5 0 7 5 4 10 -3 6 -8 10 -11 10 -2 0
-4 -4 -4 -10z"/>
<path d="M2526 111 c-3 -5 0 -11 8 -14 15 -6 26 1 26 15 0 11 -27 10 -34 -1z"/>
<path d="M2437 39 c11 -12 27 -19 35 -17 9 2 1 10 -20 20 l-36 17 21 -20z"/>
</g>
</svg>
