<?xml version="1.0" standalone="no"?>
<!DOCTYPE svg PUBLIC "-//W3C//DTD SVG 20010904//EN"
 "http://www.w3.org/TR/2001/REC-SVG-20010904/DTD/svg10.dtd">
<svg version="1.0" xmlns="http://www.w3.org/2000/svg"
 width="768.000000pt" height="768.000000pt" viewBox="0 0 768.000000 768.000000"
 preserveAspectRatio="xMidYMid meet">

<g transform="translate(0.000000,768.000000) scale(0.100000,-0.100000)"
fill="#000000" stroke="none">
<path d="M0 7344 l0 -337 73 6 c39 3 209 15 377 26 168 11 395 28 505 36 443
34 485 39 485 52 0 7 7 13 16 13 9 0 12 -5 8 -12 -5 -8 4 -9 32 -4 21 4 65 10
97 13 32 3 60 10 63 14 3 5 24 9 47 9 23 1 67 7 98 14 31 8 69 11 83 9 14 -3
32 -1 39 5 6 6 50 11 97 13 57 1 96 8 120 20 19 10 49 20 65 22 33 5 143 32
190 47 17 5 56 11 88 14 86 8 219 45 237 67 3 3 30 19 60 35 30 16 58 32 61
37 3 4 46 12 95 17 103 12 180 24 282 47 98 21 220 14 286 -15 53 -24 151 -86
161 -102 3 -6 20 -10 37 -10 17 0 29 3 25 6 -3 4 0 13 8 20 9 10 38 14 89 14
l76 0 0 30 c0 23 4 30 20 30 11 0 20 5 20 10 0 6 23 10 50 10 28 0 50 5 50 10
0 6 15 10 33 10 17 0 47 4 64 9 18 5 80 11 138 12 58 2 105 7 105 11 0 5 23 8
50 8 28 0 50 5 50 10 0 6 30 10 70 10 40 0 70 4 70 10 0 6 9 10 20 10 11 0 20
5 20 10 0 6 25 10 55 10 30 0 55 -4 55 -10 0 -5 7 -10 15 -10 8 0 15 -4 15
-10 0 -6 27 -10 60 -10 33 0 60 -4 60 -10 0 -5 -8 -10 -17 -11 -32 -2 30 -17
73 -18 30 -1 44 -6 49 -18 6 -17 7 -17 19 0 7 9 23 17 35 17 18 0 21 6 21 40
0 33 3 40 20 40 11 0 20 5 20 10 0 6 30 10 70 10 40 0 70 4 70 10 0 6 18 10
40 10 22 0 40 5 40 10 0 7 -470 10 -1389 10 l-1389 0 -4 -30 c-4 -24 -1 -30
14 -30 11 0 17 -4 14 -9 -3 -5 -16 -7 -28 -3 -18 4 -20 2 -14 -14 17 -41 12
-48 -41 -60 l-53 -12 -9 32 -9 31 -1 -27 c-2 -46 -17 -32 -28 25 l-10 52 -2
-57 c0 -32 -5 -58 -9 -58 -5 0 -7 15 -6 33 2 17 1 24 -2 13 -5 -16 -13 -18
-57 -12 -29 3 -67 6 -85 6 -29 0 -32 3 -29 24 1 14 11 34 21 45 18 20 16 51
-3 51 -35 0 -45 -64 -22 -146 5 -17 5 -37 1 -45 -6 -8 -10 -1 -12 21 -3 34 -3
35 -70 46 -38 6 -68 9 -68 6 0 -2 -6 1 -13 7 -8 6 -12 23 -9 43 5 31 4 31 -12
15 -10 -9 -22 -17 -27 -17 -6 0 -7 -4 -4 -10 3 -6 -1 -7 -9 -4 -9 3 -16 16
-17 28 0 21 0 21 -9 -1 -10 -25 -18 -28 -40 -13 -13 9 -13 11 0 20 8 5 10 10
4 10 -16 0 -45 -35 -37 -45 11 -11 -71 2 -108 18 -28 12 -28 13 -15 40 l15 27
-895 0 -894 0 0 -336z m547 280 c-3 -3 -12 -4 -19 -1 -8 3 -5 6 6 6 11 1 17
-2 13 -5z m1906 -151 c-7 -2 -19 -2 -25 0 -7 3 -2 5 12 5 14 0 19 -2 13 -5z
m-265 -10 c-10 -2 -26 -2 -35 0 -10 3 -2 5 17 5 19 0 27 -2 18 -5z m-1785 -50
c-7 -2 -21 -2 -30 0 -10 3 -4 5 12 5 17 0 24 -2 18 -5z m267 -23 c0 -5 -2 -10
-4 -10 -3 0 -8 5 -11 10 -3 6 -1 10 4 10 6 0 11 -4 11 -10z m3027 4 c-3 -3
-12 -4 -19 -1 -8 3 -5 6 6 6 11 1 17 -2 13 -5z"/>
<path d="M2025 7670 c7 -12 105 -11 105 1 0 5 -25 9 -56 9 -33 0 -53 -4 -49
-10z"/>
<path d="M2382 7660 c0 -14 2 -19 5 -12 2 6 2 18 0 25 -3 6 -5 1 -5 -13z"/>
<path d="M5440 7670 c0 -6 33 -10 80 -10 47 0 80 4 80 10 0 6 -33 10 -80 10
-47 0 -80 -4 -80 -10z"/>
<path d="M5870 7672 c0 -5 46 -12 103 -15 56 -4 153 -14 216 -23 87 -12 120
-13 141 -4 15 6 58 11 96 10 38 -1 77 -1 88 0 10 0 84 -6 165 -16 149 -17 189
-19 511 -33 102 -5 199 -12 217 -16 24 -5 39 -2 60 12 28 20 148 53 191 53 15
0 22 6 22 20 0 20 -7 20 -905 20 -498 0 -905 -4 -905 -8z"/>
<path d="M2442 7610 c0 -14 2 -19 5 -12 2 6 2 18 0 25 -3 6 -5 1 -5 -13z"/>
<path d="M6408 7593 c6 -2 18 -2 25 0 6 3 1 5 -13 5 -14 0 -19 -2 -12 -5z"/>
<path d="M2875 7409 c-29 -9 -214 -136 -263 -181 -32 -30 -57 -87 -72 -165
l-12 -62 -118 6 -118 6 -25 -39 c-40 -63 -42 -110 -7 -216 17 -51 42 -144 55
-205 27 -130 58 -193 127 -262 80 -80 217 -134 343 -135 65 0 112 13 165 45 8
5 32 18 53 29 20 11 37 28 37 37 0 9 3 13 6 10 4 -3 16 5 27 19 11 14 42 43
68 64 71 56 83 49 109 -64 25 -113 65 -184 131 -236 28 -22 55 -40 59 -40 5 0
35 -24 66 -52 71 -66 79 -72 129 -85 63 -18 129 -6 160 29 14 16 23 32 21 37
-3 5 23 21 59 36 85 36 151 102 221 223 69 119 96 158 131 196 l27 30 7 -35
c28 -132 28 -275 0 -353 -12 -33 -21 -70 -21 -83 0 -12 -5 -23 -11 -23 -5 0
-8 -4 -5 -9 9 -13 -43 -123 -54 -116 -6 3 -10 -3 -10 -13 0 -11 -7 -25 -15
-32 -18 -15 -20 -47 -4 -52 9 -3 7 -20 -6 -58 -38 -116 -91 -194 -142 -206
-15 -4 -25 -16 -29 -33 -11 -52 -35 -110 -66 -155 -28 -43 -247 -258 -344
-338 -68 -56 -109 -107 -96 -120 19 -19 -106 -118 -147 -118 -10 0 -26 -9 -36
-20 -30 -33 -87 -45 -198 -41 -38 1 -27 16 14 19 19 2 53 15 77 30 62 38 76
45 177 89 67 29 90 44 91 58 1 11 5 27 8 36 5 10 -1 20 -16 28 -13 6 -34 18
-48 26 l-25 15 23 0 c45 0 13 16 -38 18 -28 1 -64 9 -81 17 -16 9 -34 13 -39
10 -5 -3 -19 -1 -31 6 -12 6 -17 14 -12 18 7 4 1 26 -14 60 -20 43 -23 58 -14
80 19 51 41 139 41 168 0 16 5 34 10 39 13 13 17 120 6 151 -4 13 -25 40 -46
62 -28 28 -35 42 -28 49 8 8 4 14 -13 20 -51 19 -53 21 -14 16 31 -4 36 -3 23
6 -9 6 -15 16 -12 24 3 8 -12 19 -40 31 -29 12 -42 23 -39 32 4 11 -10 13 -78
9 -46 -3 -99 -8 -118 -12 -23 -5 -32 -4 -28 3 7 11 -33 43 -53 43 -6 0 -15
-11 -20 -25 -11 -29 -25 -32 -34 -8 -5 11 -10 13 -14 7 -4 -6 -32 -22 -62 -36
-80 -37 -135 -89 -170 -163 -38 -79 -38 -125 -4 -241 17 -57 27 -115 28 -161
1 -51 5 -73 14 -73 10 0 10 -4 0 -19 -7 -11 -15 -18 -19 -15 -5 2 -13 -5 -20
-17 -8 -15 -13 -18 -18 -10 -6 9 -11 8 -20 -3 -7 -8 -19 -12 -27 -9 -17 6 -19
-8 -3 -24 9 -9 7 -10 -10 -6 -12 3 -21 1 -21 -6 0 -30 -19 -4 -35 48 -15 49
-21 59 -39 59 -11 -1 -26 -5 -31 -9 -6 -4 -48 -10 -95 -14 -47 -3 -97 -11
-112 -17 -16 -5 -37 -8 -48 -5 -23 6 -78 -12 -100 -32 -10 -9 -15 -10 -18 -2
-7 20 -29 12 -83 -29 -54 -40 -57 -41 -168 -45 -21 0 -40 -8 -51 -23 -11 -13
-29 -22 -47 -22 -16 0 -34 -5 -40 -11 -16 -16 -135 -41 -167 -34 -16 3 -37 12
-47 21 -13 12 -30 14 -78 8 -34 -3 -61 -10 -61 -14 0 -10 -68 -37 -110 -44
-19 -4 -65 -22 -102 -41 -37 -19 -72 -35 -77 -35 -6 0 -36 -12 -67 -26 -61
-28 -108 -29 -169 -4 -16 7 -61 13 -99 15 -71 3 -77 2 -211 -61 -28 -13 -56
-24 -62 -24 -7 0 -16 -7 -21 -16 -13 -23 -160 -59 -176 -43 -6 5 -18 9 -28 9
-17 0 -18 -91 -18 -2290 l0 -2290 3360 0 c2233 0 3360 3 3360 10 0 6 7 10 15
10 8 0 15 -5 15 -10 0 -7 48 -10 134 -9 111 1 134 3 129 15 -3 9 1 14 12 14
11 0 15 -5 11 -15 -4 -12 3 -15 29 -15 21 0 35 5 35 12 0 9 3 9 12 0 17 -17
265 -17 270 0 4 10 11 10 33 0 19 -9 67 -12 147 -11 l118 2 0 43 c0 33 -4 44
-19 49 -11 3 -22 12 -25 20 -7 20 3 19 26 -1 17 -16 18 -9 18 219 l-1 237 -24
6 c-33 8 -32 23 0 19 24 -2 25 0 25 51 0 29 -4 56 -10 59 -6 4 -5 13 3 26 10
17 9 22 -7 34 -10 8 -23 12 -27 9 -4 -2 -13 5 -19 16 -12 23 -4 25 34 10 22
-8 26 -7 26 9 0 10 -7 21 -15 25 -8 3 -15 15 -15 27 0 18 2 19 15 9 13 -11 15
-7 15 28 0 23 -5 43 -12 45 -10 4 -10 6 0 6 19 1 16 107 -3 115 -19 7 -20 26
-2 26 21 0 16 32 -7 53 l-21 18 23 -6 c23 -7 31 9 10 19 -10 5 -10 7 0 12 31
15 2 61 -31 48 -14 -5 -44 22 -34 32 3 3 14 1 25 -5 49 -26 51 -22 51 146 1
110 -3 161 -12 172 -9 12 -9 13 1 7 9 -5 12 8 12 53 0 44 -4 61 -13 61 -14 0
-47 31 -47 44 0 4 14 12 31 18 l31 11 -41 19 c-45 20 -46 33 -6 40 19 4 25 1
25 -13 0 -10 5 -21 10 -24 6 -4 10 7 10 24 0 24 -4 31 -19 31 -11 0 -23 4 -26
10 -3 6 4 10 18 10 l24 0 2 146 2 146 -25 -6 c-31 -8 -46 13 -20 28 10 6 23
11 29 11 16 0 18 35 2 35 -8 0 -17 7 -21 15 -4 10 1 15 15 15 19 0 20 6 18
115 -2 107 -3 114 -23 118 -20 4 -20 4 2 6 13 0 22 7 22 17 0 8 -5 12 -11 8
-6 -3 -15 0 -20 7 -14 23 -10 32 11 26 15 -4 20 0 20 14 0 17 -3 18 -21 9 -11
-7 -23 -9 -26 -6 -7 7 22 36 36 36 16 0 13 36 -4 50 -8 7 -15 17 -15 22 0 6 7
8 15 4 18 -6 19 7 4 36 -8 16 -17 19 -39 14 -23 -4 -28 -2 -23 10 3 8 12 13
20 10 27 -11 50 11 51 48 1 32 -1 36 -24 36 -30 0 -67 18 -60 28 3 5 0 14 -5
22 -8 12 -12 12 -16 3 -2 -7 -11 -13 -19 -13 -8 0 -14 -4 -14 -10 0 -5 9 -10
19 -10 11 0 26 -8 33 -19 7 -10 22 -21 33 -24 16 -4 15 -5 -6 -6 -15 0 -32 6
-39 14 -12 15 -50 21 -50 8 0 -3 7 -14 15 -23 13 -14 12 -16 -5 -16 -11 0 -20
3 -20 7 0 4 -7 6 -16 5 -21 -1 -27 14 -14 34 9 13 11 13 19 1 7 -10 9 -7 8 12
-2 32 -1 31 -22 11 -15 -16 -19 -16 -48 0 l-32 16 37 -5 c20 -3 39 -1 43 5 4
6 -7 10 -29 10 -54 0 -67 8 -53 31 6 10 18 19 26 19 12 0 13 2 2 12 -11 10
-14 10 -18 1 -3 -7 -13 -13 -23 -13 -21 0 -43 23 -32 36 4 4 -1 2 -10 -5 -10
-7 -18 -10 -18 -6 0 4 -7 2 -15 -5 -8 -7 -22 -10 -30 -6 -21 8 -19 2 14 -33
31 -33 43 -39 40 -18 -1 6 -1 20 0 30 1 15 3 15 21 -3 25 -25 26 -40 3 -40
-12 0 -7 -8 16 -22 40 -26 25 -37 -19 -14 -29 14 -32 14 -50 -4 -11 -11 -15
-22 -9 -25 5 -4 7 -11 4 -16 -7 -11 -26 -12 -24 -1 3 19 -2 25 -11 12 -8 -13
-13 -11 -32 9 l-23 23 28 -6 c52 -12 77 39 33 67 -26 18 -66 12 -66 -9 0 -16
-9 -17 -30 -4 -12 8 -12 10 3 16 11 4 16 13 12 24 -7 23 11 36 29 21 10 -8 17
-7 26 5 9 10 22 13 39 9 14 -4 23 -3 19 1 -4 4 -3 13 3 21 9 9 8 13 0 13 -6 0
-11 6 -11 14 0 8 -8 14 -19 13 -10 0 -17 -6 -15 -12 2 -5 0 -17 -6 -25 -7 -12
-14 -12 -43 -2 -43 16 -50 15 -43 -3 4 -12 -2 -15 -27 -14 -31 1 -31 1 -7 9
25 8 25 8 3 15 -15 5 -21 14 -19 31 2 13 5 25 7 25 11 1 45 -16 51 -26 4 -7
20 -12 35 -11 20 1 29 7 31 22 4 25 57 45 87 33 18 -7 18 -8 -3 -8 -33 -1 -18
-19 23 -27 20 -3 35 -12 35 -20 0 -17 -17 -19 -22 -2 -3 7 -11 9 -24 3 -18 -7
-17 -8 6 -14 14 -4 25 -13 25 -21 0 -18 43 -26 58 -11 8 8 3 11 -16 11 -19 0
-25 4 -21 15 5 12 9 12 27 1 12 -8 39 -17 60 -20 24 -5 37 -12 37 -23 0 -10 6
-13 16 -9 9 3 18 6 20 6 2 0 4 4 4 9 0 5 -16 12 -36 15 -25 5 -34 11 -30 21 7
20 -25 36 -47 23 -22 -12 -47 -4 -47 16 0 7 -9 16 -20 19 -11 3 -20 11 -20 17
0 8 8 7 26 -5 14 -9 32 -14 40 -11 8 3 13 2 10 -3 -4 -5 3 -7 13 -4 11 3 17
11 15 18 -4 8 4 15 18 18 l23 4 -22 8 c-13 4 -21 11 -18 15 3 4 -5 10 -16 13
-18 5 -20 2 -15 -17 5 -20 3 -23 -19 -18 -16 3 -25 11 -25 23 0 11 -8 23 -17
27 -14 5 -12 8 12 13 27 6 26 7 -12 8 -31 1 -43 -3 -43 -13 0 -8 5 -18 10 -21
6 -3 10 -10 10 -15 0 -11 -38 -1 -70 18 -19 12 -22 12 -12 2 6 -8 12 -21 11
-29 0 -11 -2 -12 -6 -3 -2 6 -11 12 -19 12 -8 0 -14 4 -14 9 0 5 -20 14 -44
20 -25 6 -51 18 -60 26 -8 8 -21 15 -29 15 -9 0 -17 3 -20 8 -2 4 -2 2 -1 -5
4 -16 -9 -24 -47 -28 -17 -3 -37 -9 -44 -15 -16 -13 -65 -2 -65 14 0 8 13 11
35 10 38 -3 47 13 20 36 -8 7 -15 17 -15 23 0 6 13 -4 29 -23 16 -19 32 -32
37 -28 4 5 1 16 -8 25 -8 10 -13 24 -12 31 1 6 2 23 3 37 1 18 7 25 22 25 37
0 59 19 59 51 0 22 4 30 13 26 8 -3 29 -2 48 3 l34 8 -32 1 c-18 1 -33 6 -33
11 0 6 -7 10 -15 10 -20 0 -49 -46 -41 -66 5 -13 1 -15 -18 -10 -15 4 -28 0
-35 -8 -10 -11 -19 -12 -43 -4 -22 8 -26 13 -16 19 9 6 4 9 -16 9 -16 0 -34
-7 -40 -15 -6 -8 -21 -17 -34 -20 -12 -2 -27 -7 -34 -11 -6 -4 -8 -3 -4 4 8
13 -12 27 -40 27 -21 1 -21 0 -5 -22 9 -12 23 -23 32 -23 9 0 19 -9 22 -21 3
-12 10 -18 15 -15 6 3 13 0 16 -6 3 -7 3 -3 0 10 -4 18 -1 25 15 29 11 3 22
10 24 17 2 6 3 3 2 -6 -2 -9 0 -18 4 -20 4 -2 5 -26 3 -55 -3 -40 -7 -50 -18
-46 -9 3 -12 0 -9 -8 3 -8 1 -20 -4 -28 -8 -12 -13 -12 -35 3 -31 20 -34 41
-6 33 12 -3 29 3 43 15 l22 19 -35 -5 c-24 -4 -30 -3 -20 3 21 14 11 20 -50
28 -52 8 -83 33 -41 33 12 0 21 3 21 6 0 11 -29 34 -42 34 -11 0 -11 -2 0 -9
10 -6 10 -10 -3 -21 -8 -7 -15 -9 -16 -4 0 5 -5 -2 -10 -16 -8 -20 -12 -22
-19 -10 -5 9 -5 17 1 21 12 7 -33 39 -53 38 -7 0 -3 -4 10 -9 12 -5 22 -14 22
-20 0 -7 -9 -9 -22 -4 -23 7 -23 6 -4 -14 10 -12 34 -24 52 -28 35 -6 57 -24
30 -24 -11 0 -13 -6 -6 -29 6 -23 4 -33 -9 -46 -22 -19 -58 -10 -40 11 6 8 18
14 25 14 8 0 14 5 14 10 0 13 -13 13 -26 0 -12 -12 -81 -17 -91 -6 -4 4 0 13
10 20 18 14 24 32 7 21 -5 -3 -10 3 -10 15 0 12 -5 18 -10 15 -6 -4 -8 -10 -5
-15 6 -10 -15 -60 -26 -60 -4 0 -9 6 -12 13 -3 9 -7 9 -17 1 -9 -9 -6 -15 16
-25 35 -18 43 -39 14 -39 l-21 0 21 -30 c12 -16 28 -30 36 -30 8 0 13 -3 12
-7 -1 -5 11 -36 28 -70 23 -50 33 -63 51 -63 13 0 23 -4 23 -9 0 -5 -9 -7 -20
-4 -21 5 -28 -11 -10 -22 6 -3 10 -17 10 -31 0 -19 5 -24 25 -24 14 0 25 -5
25 -11 0 -6 -8 -8 -19 -4 -15 5 -20 -1 -25 -31 -4 -20 -16 -46 -27 -57 -10
-11 -19 -31 -19 -43 0 -13 -4 -34 -10 -49 -5 -14 -12 -51 -14 -81 -5 -56 -35
-130 -80 -197 -13 -19 -43 -77 -66 -129 -41 -92 -42 -95 -49 -248 -9 -163 -15
-193 -50 -224 -19 -17 -24 -18 -46 -6 -24 13 -28 11 -56 -19 -24 -27 -35 -32
-57 -26 -15 3 -32 13 -38 21 -8 10 -18 12 -35 6 -19 -7 -26 -5 -34 11 -15 31
-33 32 -46 3 -7 -14 -15 -26 -19 -26 -15 0 -49 37 -64 70 -31 66 -49 95 -63
103 -7 5 -11 12 -8 17 3 5 -4 11 -15 15 -17 5 -20 15 -20 68 1 71 25 110 76
120 16 3 49 10 73 17 37 9 48 8 69 -6 34 -22 118 -19 175 6 l42 20 -45 1
c-132 3 -148 8 -211 54 -34 25 -56 45 -50 45 6 0 11 5 11 11 0 5 -4 7 -10 4
-5 -3 -10 -2 -10 4 0 5 9 13 21 16 14 5 18 12 13 23 -12 31 -26 96 -31 151 -4
45 0 64 23 115 16 34 32 63 35 66 3 3 13 19 22 35 8 17 25 40 36 52 12 12 21
24 21 27 0 2 27 44 61 92 64 94 94 154 133 262 14 37 34 92 45 122 21 54 57
208 62 265 2 17 0 36 -4 43 -5 7 -3 12 5 12 9 0 10 3 2 8 -6 4 -15 23 -19 42
-13 58 -101 319 -161 475 -14 39 -35 102 -46 140 -11 39 -29 104 -41 145 -46
163 -150 362 -239 456 l-49 52 63 11 c35 6 92 11 128 10 36 -1 78 1 93 6 21 6
48 -1 117 -30 50 -21 90 -41 90 -45 0 -4 11 -12 24 -18 36 -16 155 -131 177
-171 28 -51 68 -105 85 -114 24 -13 28 21 8 61 -58 112 -118 184 -181 216 -18
9 -59 44 -90 77 -35 36 -80 72 -113 88 -81 39 -90 45 -90 57 0 26 -64 154 -80
159 -9 3 -59 -3 -111 -14 -52 -11 -96 -18 -98 -16 -2 2 13 41 32 87 46 109 61
177 55 252 -13 161 -99 205 -254 131 -82 -39 -159 -109 -189 -170 -16 -31 -20
-60 -19 -127 1 -100 4 -99 -92 -24 -44 34 -54 46 -54 72 0 84 -46 166 -112
200 -42 22 -148 15 -204 -14 l-41 -21 -2 47 c-1 47 -16 108 -31 127 -18 23
-60 181 -89 335 -60 311 -78 376 -138 490 -30 58 -60 111 -65 118 -6 6 -40 69
-75 139 -35 70 -73 139 -84 154 -10 15 -19 31 -19 36 0 14 -45 35 -66 31 -30
-5 -22 -31 12 -40 40 -10 55 -43 61 -140 7 -94 -15 -255 -29 -218 -17 44 -18
64 -4 79 16 19 21 107 7 115 -6 4 -8 13 -4 22 3 8 -2 23 -11 33 -9 10 -13 22
-9 26 5 5 0 3 -9 -4 -23 -18 -50 -7 -41 16 6 16 4 16 -16 -2 -15 -12 -25 -16
-29 -8 -4 5 -17 13 -29 17 -13 4 -23 14 -23 21 0 43 -84 -38 -102 -98 -10 -34
-8 -47 16 -115 15 -42 29 -91 30 -107 l4 -30 -36 33 c-97 92 -370 159 -607
149 -106 -4 -132 -9 -225 -42 -102 -36 -107 -37 -164 -26 -32 7 -69 19 -82 28
-13 8 -33 12 -46 9 -13 -3 -17 -3 -10 0 9 4 -14 22 -60 46 -40 22 -87 50 -104
63 -32 24 -125 69 -234 112 -36 14 -69 29 -75 34 -5 5 -22 9 -38 9 l-30 0 24
18 c29 22 63 36 54 22 -3 -6 -1 -10 6 -10 8 0 8 -4 -1 -15 -20 -24 6 -18 36 8
15 12 34 33 43 47 9 14 61 68 116 120 152 145 235 178 508 206 37 3 67 10 67
15 0 18 -71 25 -195 18 -71 -4 -166 -3 -210 2 -96 11 -130 10 -170 -2z m1652
-871 c-3 -8 -6 -5 -6 6 -1 11 2 17 5 13 3 -3 4 -12 1 -19z m-110 -520 c-2 -13
-4 -5 -4 17 -1 22 1 32 4 23 2 -10 2 -28 0 -40z m-60 -285 c-3 -10 -5 -2 -5
17 0 19 2 27 5 18 2 -10 2 -26 0 -35z m-10 -45 c-3 -8 -6 -5 -6 6 -1 11 2 17
5 13 3 -3 4 -12 1 -19z m39 -185 c15 -35 32 -63 39 -63 6 0 22 -11 35 -25 13
-13 50 -39 83 -56 55 -28 68 -31 152 -30 99 0 162 16 227 57 20 13 42 24 47
24 5 0 14 6 21 14 16 20 194 78 241 80 31 0 45 -6 68 -29 17 -17 33 -43 37
-59 6 -26 5 -28 -12 -21 -23 10 -123 19 -150 13 -15 -3 5 -29 101 -129 147
-153 186 -222 210 -369 8 -52 18 -106 21 -120 3 -14 7 -68 10 -121 7 -159 -19
-283 -107 -524 -22 -60 -84 -167 -100 -173 -5 -2 -9 -9 -9 -15 0 -7 -14 -28
-30 -47 -17 -19 -44 -56 -61 -82 -17 -27 -35 -48 -40 -48 -5 0 -9 -5 -9 -10 0
-11 -100 -143 -112 -148 -5 -2 -8 -12 -8 -22 0 -11 -6 -23 -13 -27 -6 -4 -25
-26 -42 -48 -16 -22 -32 -42 -35 -45 -30 -24 -344 -527 -367 -587 -4 -10 -21
-44 -39 -75 l-32 -57 42 -21 c53 -25 103 -25 248 0 162 28 460 134 579 206 31
19 61 34 67 34 6 0 21 -15 33 -32 13 -18 33 -43 45 -54 12 -12 34 -45 48 -73
24 -46 30 -51 60 -51 29 0 34 -4 46 -39 13 -41 10 -125 -8 -221 -6 -30 -16
-91 -22 -135 -6 -44 -14 -101 -18 -126 l-8 -46 37 7 c21 4 63 3 94 -2 49 -9
55 -13 55 -34 0 -18 -6 -24 -22 -25 -88 -2 -185 -12 -194 -20 -6 -5 -19 -35
-29 -67 -43 -139 -65 -201 -94 -262 -50 -106 -61 -298 -26 -440 16 -62 41
-230 50 -333 3 -37 12 -82 20 -100 49 -114 58 -149 52 -204 -4 -35 -15 -69
-31 -94 -14 -21 -26 -42 -26 -47 0 -19 -50 -54 -80 -57 -17 -1 -43 -14 -58
-28 -26 -24 -69 -36 -139 -37 -23 0 -33 -5 -33 -15 0 -41 -84 19 -106 76 -19
47 -48 52 -83 15 -28 -30 -47 -25 -102 28 -37 37 -40 38 -58 22 -28 -26 -49
-10 -57 42 -5 26 -7 55 -5 65 1 10 -4 17 -13 17 -9 0 -16 5 -16 10 0 6 -8 10
-18 10 -28 0 -64 45 -71 87 -9 50 10 141 39 189 13 22 46 63 72 93 93 103 142
199 141 276 -1 66 -11 191 -16 205 -3 8 -15 44 -26 80 -11 36 -33 93 -50 128
-17 34 -45 118 -62 185 -16 67 -45 163 -62 212 -28 78 -32 105 -34 200 -1 61
-2 118 -2 128 -1 30 -90 115 -127 121 -75 15 -164 51 -273 114 -136 77 -291
180 -291 192 0 5 -19 22 -43 38 -54 38 -127 110 -127 127 0 7 -6 16 -12 19 -7
3 -2 3 11 0 13 -4 48 -26 78 -50 38 -31 63 -44 85 -44 27 0 29 2 17 17 -8 9
-14 37 -14 62 0 42 -2 46 -25 47 -52 1 -61 5 -108 47 -27 23 -78 67 -113 97
-35 30 -86 76 -114 101 -27 26 -69 57 -93 69 -23 12 -48 30 -55 40 -6 9 -22
22 -35 29 -12 7 -20 16 -17 22 4 5 0 9 -8 9 -17 0 -40 24 -31 33 3 3 17 2 29
-3 23 -9 23 -8 14 20 -7 20 -19 31 -40 35 -29 7 -50 25 -29 25 7 0 9 9 5 23
-4 16 -4 18 3 8 8 -11 11 -9 17 8 3 11 11 21 17 21 5 0 -6 15 -24 33 -19 18
-33 37 -32 43 3 8 -102 64 -120 64 -11 0 -7 -30 8 -59 9 -17 11 -33 6 -41 -5
-8 -10 -12 -12 -10 -2 3 -24 30 -49 60 -24 30 -53 69 -64 85 -10 17 -31 42
-46 57 l-27 28 -7 -40 c-4 -22 -11 -40 -15 -40 -5 0 -12 -10 -15 -21 -14 -42
-60 -109 -72 -104 -7 2 -13 -2 -13 -10 0 -22 -60 -85 -81 -85 -10 0 -24 -10
-30 -22 l-12 -22 -19 24 c-16 19 -22 21 -42 12 -19 -8 -26 -24 -37 -77 -11
-58 -19 -72 -61 -113 -26 -26 -48 -51 -48 -56 0 -10 -37 -56 -93 -116 -23 -25
-53 -66 -66 -92 -26 -52 -60 -70 -128 -67 -25 1 -53 -7 -84 -25 -52 -29 -195
-54 -213 -36 -5 5 -20 10 -33 10 -13 0 -23 5 -23 10 0 6 -10 10 -23 10 -20 0
-83 24 -127 49 -8 5 -14 16 -14 25 1 9 -2 16 -8 16 -5 0 -7 4 -4 9 3 5 -9 18
-28 29 -27 16 -34 28 -40 63 -12 72 -6 129 16 173 46 90 69 118 116 138 42 19
60 20 189 15 140 -5 143 -5 200 23 69 33 144 101 167 150 10 21 33 46 61 62
51 31 70 60 151 223 54 110 66 128 152 212 l94 91 -27 79 c-15 43 -40 104 -56
136 -40 78 -69 154 -62 160 5 6 94 -52 180 -117 147 -113 290 -219 305 -227
13 -7 28 0 64 34 26 24 80 62 121 83 75 39 90 53 213 198 36 42 134 147 218
234 87 90 176 192 208 240 30 45 59 82 64 82 5 0 16 18 26 40 10 22 21 40 26
40 4 0 23 22 41 50 19 27 37 47 40 43 4 -3 7 -1 7 6 0 7 5 9 10 6 8 -5 7 -11
-1 -21 -10 -12 -8 -13 7 -8 10 4 27 14 36 21 9 8 21 12 26 9 5 -3 15 6 22 19
11 21 16 23 28 12 13 -10 15 -9 8 8 -4 11 -9 34 -12 50 l-5 30 15 -30 c8 -16
27 -58 42 -92z m-1076 -1833 c0 -5 -2 -10 -4 -10 -3 0 -8 5 -11 10 -3 6 -1 10
4 10 6 0 11 -4 11 -10z m46 -45 c9 -8 11 -15 6 -15 -5 0 -15 7 -22 15 -7 8 -9
15 -6 15 4 0 14 -7 22 -15z m3636 -317 c17 -15 31 -58 17 -58 -4 0 -13 9 -19
20 -6 11 -17 20 -25 20 -8 0 -15 7 -15 15 0 18 21 19 42 3z m-29 -84 c-5 -15
-7 -15 -15 0 -5 9 -6 26 -2 39 l7 22 8 -23 c5 -12 6 -29 2 -38z m-123 -24 c0
-5 -2 -10 -4 -10 -3 0 -8 5 -11 10 -3 6 -1 10 4 10 6 0 11 -4 11 -10z m-26
-57 c1 -25 -4 -33 -22 -38 -12 -3 -30 -2 -39 3 -13 8 -11 10 11 16 27 7 34 20
16 31 -15 9 -1 27 17 23 10 -2 16 -15 17 -35z m326 -26 c-23 -7 -29 -12 -17
-14 20 -5 22 -16 4 -32 -11 -8 -19 -4 -37 16 -20 23 -21 28 -7 38 9 6 33 9 54
6 l38 -4 -35 -10z m-160 -54 c10 -13 23 -22 27 -20 5 3 16 -1 26 -8 11 -7 14
-16 8 -19 -13 -9 -81 25 -81 40 0 6 -7 15 -16 18 -26 10 -54 7 -54 -6 0 -6 -3
-9 -6 -6 -3 4 -1 15 5 27 10 17 15 19 41 9 17 -5 39 -21 50 -35z m85 16 c-8
-11 -16 -11 -34 0 -22 14 -4 33 20 21 11 -6 17 -15 14 -21z m133 13 c28 -28
16 -45 -19 -27 -24 13 -27 18 -17 30 16 18 15 18 36 -3z m50 0 c2 -7 -2 -10
-12 -6 -9 3 -16 11 -16 16 0 13 23 5 28 -10z m-494 -17 c8 -8 22 -15 30 -15 9
0 16 -5 16 -11 0 -13 -41 -2 -55 15 -5 7 -17 15 -25 19 -12 4 -12 6 2 6 9 1
23 -6 32 -14z m533 9 c-3 -3 -12 -4 -19 -1 -8 3 -5 6 6 6 11 1 17 -2 13 -5z
m-369 -74 c10 -17 10 -20 -4 -20 -8 0 -12 5 -9 10 3 6 1 10 -4 10 -6 0 -11 5
-11 10 0 17 14 11 28 -10z m173 0 c12 0 19 -7 19 -20 0 -11 -3 -20 -7 -20 -14
0 -43 34 -42 49 0 10 2 12 6 4 2 -7 13 -13 24 -13z m-71 -10 c0 -5 -2 -10 -4
-10 -3 0 -8 5 -11 10 -3 6 -1 10 4 10 6 0 11 -4 11 -10z m-250 -30 c8 -5 11
-12 8 -16 -4 -3 -14 1 -23 10 -18 17 -9 21 15 6z m180 -25 c0 -1 -11 0 -25 3
-14 2 -25 11 -25 18 0 12 5 11 25 -2 14 -9 25 -17 25 -19z m232 13 c-7 -7 -12
-20 -12 -29 0 -13 -6 -16 -21 -12 -21 6 -21 7 -4 20 11 7 15 13 11 13 -4 0 -4
5 -1 10 3 6 14 10 23 10 12 0 13 -3 4 -12z m-297 -28 c3 -5 -1 -10 -9 -10 -9
0 -16 5 -16 10 0 6 4 10 9 10 6 0 13 -4 16 -10z m230 -10 c17 -19 17 -20 1
-20 -23 0 -56 18 -56 30 0 17 36 11 55 -10z m-180 -40 c3 -5 2 -10 -4 -10 -5
0 -13 5 -16 10 -3 6 -2 10 4 10 5 0 13 -4 16 -10z m119 -17 c10 4 16 1 16 -8
0 -17 -26 -20 -35 -5 -4 6 -10 8 -15 5 -5 -3 -12 0 -16 6 -4 8 -3 9 4 5 7 -4
12 -1 12 6 0 10 2 10 9 -1 5 -8 16 -11 25 -8z m203 11 c-3 -3 -12 -4 -19 -1
-8 3 -5 6 6 6 11 1 17 -2 13 -5z m-155 -29 c4 -20 1 -25 -14 -25 -14 0 -18 5
-14 16 3 9 6 20 6 25 0 20 18 7 22 -16z m-282 5 c0 -5 -7 -10 -15 -10 -8 0
-15 5 -15 10 0 6 7 10 15 10 8 0 15 -4 15 -10z m170 -25 c0 -14 -4 -25 -10
-25 -11 0 -14 33 -3 43 11 11 13 8 13 -18z m137 -31 c1 -5 -9 -17 -22 -27 -24
-17 -26 -17 -32 -1 -4 11 1 22 12 31 20 14 37 13 42 -3z m243 -4 c0 -5 -7 -10
-15 -10 -8 0 -15 5 -15 10 0 6 7 10 15 10 8 0 15 -4 15 -10z m-512 -11 c-2 -6
-8 -10 -13 -10 -5 0 -11 4 -13 10 -2 6 4 11 13 11 9 0 15 -5 13 -11z m392 -1
c9 1 37 -9 64 -23 52 -27 60 -30 51 -15 -3 6 -1 10 4 10 6 0 11 -6 11 -13 0
-8 11 -20 25 -27 14 -7 25 -19 25 -26 0 -21 42 -29 52 -10 5 9 18 16 29 16 31
0 22 -54 -10 -58 -13 -2 -28 1 -34 7 -6 6 -19 11 -28 11 -10 0 -20 9 -24 19
-3 12 -17 21 -33 23 -15 2 -26 9 -24 16 1 6 -5 12 -13 12 -8 0 -33 10 -55 21
-22 12 -51 19 -64 17 -22 -5 -24 -1 -17 30 1 2 7 0 14 -5 6 -4 19 -6 27 -5z
m236 -18 c21 0 23 -2 13 -27 -17 -47 -49 -58 -49 -18 0 18 -7 28 -25 35 -35
13 -31 24 6 16 17 -3 42 -6 55 -6z m-506 -21 c0 -11 -4 -17 -10 -14 -5 3 -10
13 -10 21 0 8 5 14 10 14 6 0 10 -9 10 -21z m45 9 c25 -11 32 -23 18 -31 -5
-2 -18 6 -31 19 -26 27 -24 29 13 12z m-250 -9 c11 -17 -1 -21 -15 -4 -8 9 -8
15 -2 15 6 0 14 -5 17 -11z m793 -1 c5 -7 6 -22 2 -32 -4 -14 -9 -16 -14 -8
-4 7 -4 17 -1 22 3 6 1 10 -4 10 -6 0 -11 5 -11 10 0 14 16 13 28 -2z m-332
-23 c13 -18 54 -29 54 -14 0 5 9 9 20 9 14 0 20 -7 20 -21 0 -12 -4 -18 -11
-13 -6 3 -16 0 -21 -7 -7 -11 -11 -11 -15 -1 -2 6 -14 12 -26 12 -12 0 -31 7
-41 15 -11 8 -32 15 -48 15 -31 0 -38 16 -10 23 28 7 66 -2 78 -18z m47 8 c-7
-2 -19 -2 -25 0 -7 3 -2 5 12 5 14 0 19 -2 13 -5z m-173 -14 c0 -5 4 -8 9 -5
5 3 14 -1 21 -9 15 -18 -1 -21 -31 -5 -20 11 -26 30 -9 30 6 0 10 -5 10 -11z
m-400 -19 c0 -5 -4 -10 -9 -10 -6 0 -13 5 -16 10 -3 6 1 10 9 10 9 0 16 -4 16
-10z m270 0 c0 -5 -5 -10 -11 -10 -5 0 -7 5 -4 10 3 6 8 10 11 10 2 0 4 -4 4
-10z m657 -16 c0 -16 -25 -18 -47 -4 -12 8 -13 11 -1 19 18 12 48 3 48 -15z
m-565 -6 c-9 -9 -15 -9 -24 0 -9 9 -7 12 12 12 19 0 21 -3 12 -12z m295 -4
c-3 -3 -12 -4 -19 -1 -8 3 -5 6 6 6 11 1 17 -2 13 -5z m-121 -19 c9 -8 12 -15
7 -15 -5 0 -13 4 -18 9 -6 5 -26 11 -45 14 l-35 4 38 1 c23 1 45 -4 53 -13z
m-346 -15 c0 -5 -2 -10 -4 -10 -3 0 -8 5 -11 10 -3 6 -1 10 4 10 6 0 11 -4 11
-10z m468 -7 c2 -8 -5 -13 -17 -13 -12 0 -21 6 -21 16 0 18 31 15 38 -3z m277
7 c4 -6 -8 -10 -29 -10 -38 0 -44 -8 -23 -29 10 -11 9 -14 -1 -18 -10 -4 -9
-10 7 -27 17 -18 18 -23 6 -40 -13 -17 -18 -17 -45 -6 -17 7 -32 16 -35 20 -5
9 47 6 62 -3 7 -4 14 -3 17 2 9 14 -13 24 -51 23 -18 -1 -33 3 -33 9 0 6 5 7
10 4 21 -13 40 15 29 41 -12 33 -12 32 9 37 32 9 71 7 77 -3z m-485 -30 c0
-13 -11 -13 -30 0 -12 8 -11 10 8 10 12 0 22 -4 22 -10z m125 1 c7 -12 -12
-24 -25 -16 -11 7 -4 25 10 25 5 0 11 -4 15 -9z m193 -8 c2 -8 -6 -13 -22 -13
-17 0 -26 5 -26 16 0 19 41 16 48 -3z m-48 -33 c0 -5 -11 -10 -25 -10 -14 0
-25 5 -25 10 0 6 11 10 25 10 14 0 25 -4 25 -10z m60 -10 c0 -5 -12 -10 -27
-10 -22 0 -25 2 -13 10 20 13 40 13 40 0z m-495 -10 c3 -5 -1 -10 -10 -10 -9
0 -13 5 -10 10 3 6 8 10 10 10 2 0 7 -4 10 -10z m132 -6 c-3 -3 -12 -4 -19 -1
-8 3 -5 6 6 6 11 1 17 -2 13 -5z m63 -4 c0 -5 -6 -10 -14 -10 -8 0 -18 5 -21
10 -3 6 3 10 14 10 12 0 21 -4 21 -10z m-100 -16 c0 -8 -4 -12 -10 -9 -5 3
-10 10 -10 16 0 5 5 9 10 9 6 0 10 -7 10 -16z m40 -15 c0 -6 -4 -7 -10 -4 -5
3 -10 11 -10 16 0 6 5 7 10 4 6 -3 10 -11 10 -16z m344 -1 c9 -12 14 -24 12
-26 -9 -8 -46 19 -46 33 0 22 17 18 34 -7z m-144 2 c0 -5 -4 -10 -10 -10 -5 0
-10 5 -10 10 0 6 5 10 10 10 6 0 10 -4 10 -10z m-560 -20 c0 -5 -2 -10 -4 -10
-3 0 -8 5 -11 10 -3 6 -1 10 4 10 6 0 11 -4 11 -10z m180 -1 c12 -8 10 -9 -7
-4 -14 4 -23 2 -23 -5 0 -6 -5 -8 -11 -4 -8 4 -7 9 2 15 18 11 21 11 39 -2z
m350 -15 c0 -8 -4 -12 -10 -9 -5 3 -10 10 -10 16 0 5 5 9 10 9 6 0 10 -7 10
-16z m-115 -4 c3 -5 1 -10 -4 -10 -6 0 -11 5 -11 10 0 6 2 10 4 10 3 0 8 -4
11 -10z m319 -16 c9 -3 16 -12 16 -20 0 -8 4 -14 8 -14 5 0 15 -6 23 -12 8 -7
12 -12 10 -11 -2 1 -12 -2 -21 -7 -20 -11 -28 -3 -48 43 -12 29 -12 30 12 21z
m104 -18 c-7 -8 -17 -12 -22 -9 -4 3 -2 9 5 14 22 13 31 11 17 -5z m37 -46
c-3 -5 -15 -10 -26 -10 -10 0 -19 5 -19 10 0 6 12 10 26 10 14 0 23 -4 19 -10z
m-225 -32 c0 -13 -23 -5 -28 10 -2 7 2 10 12 6 9 -3 16 -11 16 -16z m230 -42
c0 -2 -9 -6 -20 -9 -11 -3 -20 -1 -20 4 0 5 9 9 20 9 11 0 20 -2 20 -4z m-102
-37 c12 -11 20 -25 16 -30 -5 -9 -54 34 -54 47 0 10 18 3 38 -17z m52 1 c0 -5
-2 -10 -4 -10 -3 0 -8 5 -11 10 -3 6 -1 10 4 10 6 0 11 -4 11 -10z m-90 -25
c0 -2 -12 -16 -26 -30 -17 -17 -30 -23 -36 -17 -7 7 -3 12 11 17 12 3 21 13
21 21 0 8 7 14 15 14 8 0 15 -2 15 -5z m-210 -25 c0 -5 -4 -10 -10 -10 -5 0
-10 5 -10 10 0 6 5 10 10 10 6 0 10 -4 10 -10z m-100 -26 c0 -2 -7 -4 -15 -4
-8 0 -15 4 -15 10 0 5 7 7 15 4 8 -4 15 -8 15 -10z m-110 -24 c0 -5 -4 -12
-10 -15 -5 -3 -10 -4 -10 -1 0 2 -3 12 -6 20 -5 12 -2 15 10 10 9 -3 16 -10
16 -14z m460 10 c0 -13 -11 -13 -30 0 -12 8 -11 10 8 10 12 0 22 -4 22 -10z
m-480 -80 c0 -5 -4 -10 -10 -10 -5 0 -10 5 -10 10 0 6 5 10 10 10 6 0 10 -4
10 -10z m534 -32 c-10 -15 -27 -3 -31 22 -3 23 -3 23 17 5 11 -10 17 -22 14
-27z m-6979 22 c3 -5 1 -10 -4 -10 -6 0 -11 5 -11 10 0 6 2 10 4 10 3 0 8 -4
11 -10z m6685 -20 c0 -5 -5 -10 -11 -10 -5 0 -7 5 -4 10 3 6 8 10 11 10 2 0 4
-4 4 -10z m-235 -50 c3 -5 2 -10 -4 -10 -5 0 -13 5 -16 10 -3 6 -2 10 4 10 5
0 13 -4 16 -10z m205 -11 c0 -5 -4 -9 -10 -9 -5 0 -10 7 -10 16 0 8 5 12 10 9
6 -3 10 -10 10 -16z m150 -1 c0 -13 -23 -5 -28 10 -2 7 2 10 12 6 9 -3 16 -11
16 -16z m40 6 c0 -14 -3 -14 -15 -4 -8 7 -15 14 -15 16 0 2 7 4 15 4 8 0 15
-7 15 -16z m190 -20 c0 -2 -9 -4 -20 -4 -11 0 -20 4 -20 9 0 5 9 7 20 4 11 -3
20 -7 20 -9z m-713 0 c-3 -3 -12 -4 -19 -1 -8 3 -5 6 6 6 11 1 17 -2 13 -5z
m461 -44 c7 -12 23 -25 35 -30 14 -5 16 -9 6 -9 -8 -1 -28 13 -44 29 -16 17
-24 30 -19 30 5 0 15 -9 22 -20z m-7188 -25 c-7 -8 -17 -15 -22 -15 -6 0 -5 7
2 15 7 8 17 15 22 15 6 0 5 -7 -2 -15z m7418 3 c-3 -7 -11 -13 -18 -13 -7 0
-15 6 -17 13 -3 7 4 12 17 12 13 0 20 -5 18 -12z m-568 -28 c0 -5 -4 -10 -10
-10 -5 0 -10 5 -10 10 0 6 5 10 10 10 6 0 10 -4 10 -10z m220 0 c0 -5 -2 -10
-4 -10 -3 0 -8 5 -11 10 -3 6 -1 10 4 10 6 0 11 -4 11 -10z m234 -6 c3 -8 2
-12 -4 -9 -6 3 -10 10 -10 16 0 14 7 11 14 -7z m-60 -9 c3 -8 1 -15 -4 -15 -6
0 -10 7 -10 15 0 8 2 15 4 15 2 0 6 -7 10 -15z m176 4 c0 -10 -27 -19 -34 -12
-11 12 -6 19 14 19 11 0 20 -3 20 -7z m-271 -13 c-12 -10 -49 -16 -49 -7 0 5
10 11 23 13 22 4 34 1 26 -6z m-7169 -16 c0 -5 -9 -10 -21 -10 -11 0 -17 5
-14 10 3 6 13 10 21 10 8 0 14 -4 14 -10z m7315 -10 c10 -11 14 -20 9 -20 -5
0 -15 9 -22 20 -7 11 -11 20 -9 20 2 0 12 -9 22 -20z m-30 -10 c3 -5 1 -10 -4
-10 -6 0 -11 5 -11 10 0 6 2 10 4 10 3 0 8 -4 11 -10z m-7290 -30 c-3 -5 -12
-10 -18 -10 -7 0 -6 4 3 10 19 12 23 12 15 0z m7173 -15 c-3 -3 -13 -2 -22 1
-14 5 -15 9 -4 15 13 8 36 -6 26 -16z m57 -5 c3 -5 2 -10 -4 -10 -5 0 -13 5
-16 10 -3 6 -2 10 4 10 5 0 13 -4 16 -10z m-7120 -10 c3 -5 1 -10 -4 -10 -6 0
-11 5 -11 10 0 6 2 10 4 10 3 0 8 -4 11 -10z m7165 0 c0 -5 -2 -10 -4 -10 -3
0 -8 5 -11 10 -3 6 -1 10 4 10 6 0 11 -4 11 -10z m-6700 -4 c0 -2 -7 -6 -15
-10 -8 -3 -15 -1 -15 4 0 6 7 10 15 10 8 0 15 -2 15 -4z m6510 -75 c0 -12 -20
-25 -27 -18 -7 7 6 27 18 27 5 0 9 -4 9 -9z m50 -21 c0 -5 -4 -10 -10 -10 -5
0 -10 5 -10 10 0 6 5 10 10 10 6 0 10 -4 10 -10z m-7275 -10 c-3 -5 -10 -10
-16 -10 -5 0 -9 5 -9 10 0 6 7 10 16 10 8 0 12 -4 9 -10z m7322 -16 c-7 -7
-37 7 -37 17 0 6 9 5 21 -1 11 -7 19 -14 16 -16z m173 6 c0 -5 -4 -10 -10 -10
-5 0 -10 5 -10 10 0 6 5 10 10 10 6 0 10 -4 10 -10z m-7215 -10 c3 -5 1 -10
-4 -10 -6 0 -11 5 -11 10 0 6 2 10 4 10 3 0 8 -4 11 -10z m-28 -6 c-3 -3 -12
-4 -19 -1 -8 3 -5 6 6 6 11 1 17 -2 13 -5z m-257 -14 c0 -5 -4 -10 -10 -10 -5
0 -10 5 -10 10 0 6 5 10 10 10 6 0 10 -4 10 -10z m375 -6 c-9 -9 -19 -13 -23
-10 -3 4 0 11 8 16 24 15 33 11 15 -6z m6905 6 c13 -8 13 -10 -2 -10 -9 0 -20
5 -23 10 -8 13 5 13 25 0z m120 -10 c12 -8 9 -10 -12 -10 -16 0 -28 5 -28 10
0 13 20 13 40 0z m-230 -20 c0 -5 -5 -10 -11 -10 -5 0 -7 5 -4 10 3 6 8 10 11
10 2 0 4 -4 4 -10z m324 4 c23 -9 20 -23 -4 -17 -11 3 -20 9 -20 14 0 11 3 11
24 3z m91 -14 c3 -5 1 -10 -4 -10 -6 0 -11 5 -11 10 0 6 2 10 4 10 3 0 8 -4
11 -10z m-470 -18 c-3 -3 -11 0 -18 7 -9 10 -8 11 6 5 10 -3 15 -9 12 -12z
m435 -15 c10 -4 8 -6 -7 -6 -12 -1 -24 -9 -26 -18 -3 -12 -5 -9 -6 8 -1 28 9
45 18 31 3 -5 13 -12 21 -15z m-525 3 c-3 -5 -10 -10 -16 -10 -5 0 -9 5 -9 10
0 6 7 10 16 10 8 0 12 -4 9 -10z m305 -10 c0 -5 -2 -10 -4 -10 -3 0 -8 5 -11
10 -3 6 -1 10 4 10 6 0 11 -4 11 -10z m90 -22 c0 -14 -16 -9 -36 13 -19 21
-19 21 9 8 15 -7 27 -16 27 -21z m-153 6 c-3 -3 -12 -4 -19 -1 -8 3 -5 6 6 6
11 1 17 -2 13 -5z m37 -10 c4 -10 1 -14 -6 -12 -15 5 -23 28 -10 28 5 0 13 -7
16 -16z m-124 -4 c0 -5 -4 -10 -10 -10 -5 0 -10 5 -10 10 0 6 5 10 10 10 6 0
10 -4 10 -10z m223 -22 c5 -19 5 -19 -14 -2 -22 20 -25 36 -5 28 8 -3 16 -14
19 -26z m182 22 c3 -5 -1 -10 -9 -10 -8 0 -18 5 -21 10 -3 6 1 10 9 10 8 0 18
-4 21 -10z m-1115 -10 c0 -5 -2 -10 -4 -10 -3 0 -8 5 -11 10 -3 6 -1 10 4 10
6 0 11 -4 11 -10z m1150 0 c0 -5 -4 -10 -10 -10 -5 0 -10 5 -10 10 0 6 5 10
10 10 6 0 10 -4 10 -10z m-7200 -40 c0 -5 -5 -10 -11 -10 -5 0 -7 5 -4 10 3 6
8 10 11 10 2 0 4 -4 4 -10z m6836 -2 c5 -7 3 -8 -6 -3 -10 6 -12 3 -8 -13 5
-18 4 -19 -13 -9 -10 6 -19 17 -19 24 0 16 36 17 46 1z m-61 -8 c3 -5 2 -10
-4 -10 -5 0 -13 5 -16 10 -3 6 -2 10 4 10 5 0 13 -4 16 -10z m215 0 c-8 -5
-24 -9 -35 -9 -16 1 -16 2 5 9 35 11 48 11 30 0z m107 -6 c2 -7 -6 -10 -22 -7
-14 3 -25 10 -25 15 0 13 43 6 47 -8z m-537 -22 c3 -2 0 -7 -6 -9 -6 -2 -9
-15 -6 -28 2 -15 0 -25 -7 -25 -6 0 -11 15 -11 33 -1 29 -2 30 -14 15 -7 -10
-18 -18 -25 -18 -15 0 -14 7 7 29 15 17 47 19 62 3z m486 -9 c-7 -7 -26 7 -26
19 0 6 6 6 15 -2 9 -7 13 -15 11 -17z m154 -2 l0 -24 -23 21 c-13 12 -26 20
-29 16 -3 -3 -9 -1 -12 4 -3 6 9 10 29 9 30 -1 35 -4 35 -26z m-7397 12 c-7
-2 -19 -2 -25 0 -7 3 -2 5 12 5 14 0 19 -2 13 -5z m6874 -9 c-3 -3 -12 -4 -19
-1 -8 3 -5 6 6 6 11 1 17 -2 13 -5z m253 -10 c0 -17 -22 -14 -28 4 -2 7 3 12
12 12 9 0 16 -7 16 -16z m34 7 c3 -4 17 -6 31 -3 19 3 25 0 25 -12 0 -14 -3
-15 -22 -5 -13 7 -24 12 -25 11 -9 -6 -33 0 -33 8 0 12 17 13 24 1z m-924 -11
c0 -5 -4 -10 -9 -10 -6 0 -13 5 -16 10 -3 6 1 10 9 10 9 0 16 -4 16 -10z m841
-12 c37 -13 87 -54 77 -63 -3 -3 -18 5 -33 19 -31 29 -37 30 -50 17 -6 -6 -14
-1 -22 15 -6 13 -10 24 -9 24 2 0 18 -5 37 -12z m-201 -8 c0 -5 -4 -10 -10
-10 -5 0 -10 5 -10 10 0 6 5 10 10 10 6 0 10 -4 10 -10z m120 -5 c0 -8 -7 -15
-15 -15 -8 0 -15 7 -15 15 0 8 7 15 15 15 8 0 15 -7 15 -15z m338 -12 c2 -13
-1 -23 -7 -23 -6 0 -8 7 -5 15 4 10 0 15 -15 15 -12 0 -21 5 -21 11 0 21 45 4
48 -18z m-513 -13 c3 -5 1 -10 -4 -10 -6 0 -11 5 -11 10 0 6 2 10 4 10 3 0 8
-4 11 -10z m441 -8 c-3 -3 -19 -6 -35 -7 -23 -2 -27 0 -18 9 6 7 21 10 34 8
13 -2 21 -7 19 -10z m-561 -2 c-3 -5 -10 -10 -16 -10 -5 0 -9 5 -9 10 0 6 7
10 16 10 8 0 12 -4 9 -10z m160 -10 c3 -5 1 -10 -4 -10 -6 0 -11 5 -11 10 0 6
2 10 4 10 3 0 8 -4 11 -10z m-6789 -47 c-10 -10 -19 5 -10 18 6 11 8 11 12 0
2 -7 1 -15 -2 -18z m7309 7 c14 -15 15 -20 4 -20 -8 0 -20 9 -27 20 -7 11 -8
20 -4 20 5 0 17 -9 27 -20z m-434 -55 c-1 -15 -24 -12 -29 3 -3 9 2 13 12 10
10 -1 17 -7 17 -13z m254 -6 c11 -17 -1 -21 -15 -4 -8 9 -8 15 -2 15 6 0 14
-5 17 -11z m65 -43 c0 -11 7 -28 17 -38 9 -10 12 -18 6 -18 -16 0 -46 38 -39
49 4 5 2 12 -4 16 -5 3 -10 16 -10 28 1 22 1 22 15 3 8 -11 15 -29 15 -40z
m-233 18 c-9 -9 -28 6 -21 18 4 6 10 6 17 -1 6 -6 8 -13 4 -17z m-342 -14 c3
-5 2 -10 -4 -10 -5 0 -13 5 -16 10 -3 6 -2 10 4 10 5 0 13 -4 16 -10z m660 -8
c-3 -3 -11 0 -18 7 -9 10 -8 11 6 5 10 -3 15 -9 12 -12z m-6705 -2 c0 -5 -4
-10 -10 -10 -5 0 -10 5 -10 10 0 6 5 10 10 10 6 0 10 -4 10 -10z m5580 0 c0
-5 -4 -10 -9 -10 -6 0 -13 5 -16 10 -3 6 1 10 9 10 9 0 16 -4 16 -10z m-6410
-14 c0 -11 -19 -15 -25 -6 -3 5 1 10 9 10 9 0 16 -2 16 -4z m7000 -6 c0 -5 -4
-10 -10 -10 -5 0 -10 5 -10 10 0 6 5 10 10 10 6 0 10 -4 10 -10z m530 -15 c-7
-8 -16 -12 -21 -9 -13 8 -1 24 18 24 13 0 13 -3 3 -15z m-6790 1 c0 -3 -4 -8
-10 -11 -5 -3 -10 -1 -10 4 0 6 5 11 10 11 6 0 10 -2 10 -4z m6290 -16 c0 -5
-5 -10 -11 -10 -5 0 -7 5 -4 10 3 6 8 10 11 10 2 0 4 -4 4 -10z m-5848 -32
c-7 -7 -12 -8 -12 -2 0 14 12 26 19 19 2 -3 -1 -11 -7 -17z m-392 -4 c0 -8 -4
-12 -10 -9 -5 3 -10 10 -10 16 0 5 5 9 10 9 6 0 10 -7 10 -16z m6025 -4 c3 -5
1 -10 -4 -10 -6 0 -11 5 -11 10 0 6 2 10 4 10 3 0 8 -4 11 -10z m500 0 c3 -5
2 -10 -4 -10 -5 0 -13 5 -16 10 -3 6 -2 10 4 10 5 0 13 -4 16 -10z m113 -49
c-6 -2 -17 4 -25 15 -21 29 -15 34 12 11 13 -12 19 -24 13 -26z m-518 29 c0
-5 -4 -10 -9 -10 -6 0 -13 5 -16 10 -3 6 1 10 9 10 9 0 16 -4 16 -10z m125 0
c3 -5 1 -10 -4 -10 -6 0 -11 5 -11 10 0 6 2 10 4 10 3 0 8 -4 11 -10z m445 6
c0 -11 -19 -15 -25 -6 -3 5 1 10 9 10 9 0 16 -2 16 -4z m-6665 -16 c-3 -5 -10
-10 -16 -10 -5 0 -9 5 -9 10 0 6 7 10 16 10 8 0 12 -4 9 -10z m6446 -7 c20
-20 -6 -22 -31 -2 -25 19 -25 19 -2 16 12 -2 27 -8 33 -14z m-7031 -23 c0 -5
-5 -10 -11 -10 -5 0 -7 5 -4 10 3 6 8 10 11 10 2 0 4 -4 4 -10z m6790 0 c0 -5
-7 -10 -16 -10 -8 0 -12 5 -9 10 3 6 10 10 16 10 5 0 9 -4 9 -10z m471 -12
c11 -21 11 -22 -4 -9 -10 7 -17 17 -17 22 0 15 9 10 21 -13z m-5869 -10 c-7
-7 -12 -8 -12 -2 0 14 12 26 19 19 2 -3 -1 -11 -7 -17z m5573 9 c11 -8 14 -16
8 -20 -6 -4 -18 2 -28 13 -21 23 -8 27 20 7z m-6820 -27 c3 -5 -1 -10 -9 -10
-9 0 -16 5 -16 10 0 6 4 10 9 10 6 0 13 -4 16 -10z m6632 -26 c-9 -9 -28 6
-21 18 4 6 10 6 17 -1 6 -6 8 -13 4 -17z m253 -12 c0 -10 -41 -35 -47 -28 -7
7 20 35 35 36 6 0 12 -3 12 -8z m-830 -12 c0 -5 -7 -7 -15 -4 -8 4 -15 8 -15
10 0 2 7 4 15 4 8 0 15 -4 15 -10z m895 0 c3 -5 1 -10 -4 -10 -6 0 -11 5 -11
10 0 6 2 10 4 10 3 0 8 -4 11 -10z m172 -7 c-4 -3 -2 -12 4 -20 14 -16 5 -17
-22 -2 -22 11 -17 29 8 29 9 0 13 -3 10 -7z m-92 -21 c-3 -3 -11 0 -18 7 -9
10 -8 11 6 5 10 -3 15 -9 12 -12z m-105 -8 c0 -8 -4 -12 -10 -9 -5 3 -10 10
-10 16 0 5 5 9 10 9 6 0 10 -7 10 -16z m-6920 -4 c0 -5 -4 -10 -10 -10 -5 0
-10 5 -10 10 0 6 5 10 10 10 6 0 10 -4 10 -10z m6851 -40 c5 0 9 -4 9 -10 0
-5 -18 0 -40 11 -22 12 -40 28 -40 36 0 11 8 8 31 -11 17 -14 35 -26 40 -26z
m-284 18 c-3 -8 -6 -5 -6 6 -1 11 2 17 5 13 3 -3 4 -12 1 -19z m518 2 c3 -5 1
-10 -4 -10 -6 0 -11 5 -11 10 0 6 2 10 4 10 3 0 8 -4 11 -10z m53 -9 c3 -8 -1
-12 -9 -9 -7 2 -15 10 -17 17 -3 8 1 12 9 9 7 -2 15 -10 17 -17z m-408 -12 c0
-5 -4 -9 -8 -9 -5 0 -9 7 -9 15 0 8 4 12 9 9 4 -3 8 -9 8 -15z m-543 5 c-3 -3
-12 -4 -19 -1 -8 3 -5 6 6 6 11 1 17 -2 13 -5z m-6547 -13 c0 -5 -7 -12 -16
-15 -14 -5 -15 -4 -4 9 14 17 20 19 20 6z m7121 -4 c-1 -12 -15 -9 -19 4 -3 6
1 10 8 8 6 -3 11 -8 11 -12z m-561 -38 c0 -18 -18 -9 -23 12 -4 16 -3 18 9 8
8 -6 14 -15 14 -20z m700 21 c0 -5 -4 -10 -9 -10 -6 0 -13 5 -16 10 -3 6 1 10
9 10 9 0 16 -4 16 -10z m-745 -10 c3 -5 -1 -10 -9 -10 -8 0 -18 5 -21 10 -3 6
1 10 9 10 8 0 18 -4 21 -10z m245 -10 c0 -5 -2 -10 -4 -10 -3 0 -8 5 -11 10
-3 6 -1 10 4 10 6 0 11 -4 11 -10z m287 -27 c-3 -10 -5 -4 -5 12 0 17 2 24 5
18 2 -7 2 -21 0 -30z m-6967 11 c0 -2 -7 -4 -15 -4 -8 0 -15 4 -15 10 0 5 7 7
15 4 8 -4 15 -8 15 -10z m6065 -12 c-8 -8 -25 10 -19 20 4 6 9 5 15 -3 4 -7 6
-15 4 -17z m292 6 c-3 -8 -6 -5 -6 6 -1 11 2 17 5 13 3 -3 4 -12 1 -19z m903
13 c0 -12 -20 -25 -27 -18 -7 7 6 27 18 27 5 0 9 -4 9 -9z m-1060 -11 c0 -5
-4 -10 -9 -10 -6 0 -13 5 -16 10 -3 6 1 10 9 10 9 0 16 -4 16 -10z m610 0
c-13 -8 -13 -13 3 -39 9 -16 17 -32 17 -36 0 -13 -37 39 -44 63 -6 18 -4 22
16 22 18 0 20 -2 8 -10z m210 -25 c13 -14 21 -25 17 -25 -3 0 -18 11 -33 25
-15 14 -23 25 -17 25 5 0 20 -11 33 -25z m270 15 c0 -5 -4 -10 -10 -10 -5 0
-10 5 -10 10 0 6 5 10 10 10 6 0 10 -4 10 -10z m-120 -28 c0 -15 -2 -15 -10
-2 -13 20 -13 33 0 25 6 -3 10 -14 10 -23z m-6923 -19 c-8 -7 -37 9 -31 19 3
5 12 4 20 -3 8 -6 13 -14 11 -16z m7083 17 c0 -5 -2 -10 -4 -10 -3 0 -8 5 -11
10 -3 6 -1 10 4 10 6 0 11 -4 11 -10z m-933 -36 c-9 -9 -28 6 -21 18 4 6 10 6
17 -1 6 -6 8 -13 4 -17z m200 4 c-3 -8 -6 -5 -6 6 -1 11 2 17 5 13 3 -3 4 -12
1 -19z m400 -4 c-7 -7 -37 7 -37 17 0 6 9 5 21 -1 11 -7 19 -14 16 -16z m447
11 c16 -12 17 -15 4 -15 -8 0 -21 7 -28 15 -16 19 -1 19 24 0z m-404 -5 c0 -5
11 -12 25 -16 30 -7 34 -34 5 -34 -11 0 -20 5 -20 12 0 6 -7 20 -17 30 -9 11
-11 18 -5 18 7 0 12 -4 12 -10z m100 0 c0 -12 -8 -12 -35 0 -18 8 -17 9 8 9
15 1 27 -3 27 -9z m-5770 -10 c0 -5 -5 -10 -11 -10 -5 0 -7 5 -4 10 3 6 8 10
11 10 2 0 4 -4 4 -10z m5870 0 c0 -5 -4 -10 -9 -10 -6 0 -13 5 -16 10 -3 6 1
10 9 10 9 0 16 -4 16 -10z m-515 -30 c3 -5 -1 -10 -9 -10 -8 0 -18 5 -21 10
-3 6 1 10 9 10 8 0 18 -4 21 -10z m585 0 c0 -5 -4 -10 -10 -10 -5 0 -10 5 -10
10 0 6 5 10 10 10 6 0 10 -4 10 -10z m-833 -20 c1 -11 -2 -22 -8 -25 -10 -7
-13 28 -2 38 9 9 9 10 10 -13z m677 -5 c-4 -8 -10 -15 -15 -15 -5 0 -9 7 -9
15 0 8 7 15 15 15 9 0 12 -6 9 -15z m282 -8 l-39 -10 29 -13 c28 -12 28 -13 4
-11 -22 2 -49 22 -50 37 0 3 21 6 48 6 l47 1 -39 -10z m-7229 -3 c-3 -3 -12
-4 -19 -1 -8 3 -5 6 6 6 11 1 17 -2 13 -5z m433 -4 c0 -5 -7 -7 -15 -4 -8 4
-15 8 -15 10 0 2 7 4 15 4 8 0 15 -4 15 -10z m6635 -10 c0 -22 -29 -18 -33 3
-3 14 1 18 15 15 10 -2 18 -10 18 -18z m-6690 -10 c3 -5 1 -10 -4 -10 -6 0
-11 5 -11 10 0 6 2 10 4 10 3 0 8 -4 11 -10z m1525 -10 c0 -5 -2 -10 -4 -10
-3 0 -8 5 -11 10 -3 6 -1 10 4 10 6 0 11 -4 11 -10z m3460 0 c0 -5 -4 -10 -10
-10 -5 0 -10 5 -10 10 0 6 5 10 10 10 6 0 10 -4 10 -10z m1793 3 c-7 -2 -19
-2 -25 0 -7 3 -2 5 12 5 14 0 19 -2 13 -5z m-259 -34 c-6 -11 -24 -2 -24 11 0
5 7 7 15 4 8 -4 12 -10 9 -15z m100 2 c11 -4 15 -10 9 -14 -5 -3 -19 0 -29 8
-20 15 -11 18 20 6z m216 1 c0 -13 -12 -22 -22 -16 -10 6 -1 24 13 24 5 0 9
-4 9 -8z m-1290 -22 c0 -5 -2 -10 -4 -10 -3 0 -8 5 -11 10 -3 6 -1 10 4 10 6
0 11 -4 11 -10z m-420 -21 c0 -5 -4 -9 -10 -9 -5 0 -10 7 -10 16 0 8 5 12 10
9 6 -3 10 -10 10 -16z m210 11 c0 -5 -4 -10 -10 -10 -5 0 -10 5 -10 10 0 6 5
10 10 10 6 0 10 -4 10 -10z m675 0 c3 -5 -1 -10 -9 -10 -9 0 -16 5 -16 10 0 6
4 10 9 10 6 0 13 -4 16 -10z m723 -2 c-6 -18 -28 -21 -28 -4 0 9 7 16 16 16 9
0 14 -5 12 -12z m57 2 c-3 -5 -11 -10 -16 -10 -6 0 -7 5 -4 10 3 6 11 10 16
10 6 0 7 -4 4 -10z m-466 -14 c8 -9 8 -16 2 -20 -6 -4 -15 3 -21 14 -12 23 2
27 19 6z m-1008 -13 c13 -16 12 -17 -3 -4 -17 13 -22 21 -14 21 2 0 10 -8 17
-17z m538 -9 c16 10 14 -3 -3 -20 -21 -20 -26 -18 -26 14 0 19 3 23 9 13 5 -7
14 -10 20 -7z m631 -4 c0 -5 -2 -10 -4 -10 -3 0 -8 5 -11 10 -3 6 -1 10 4 10
6 0 11 -4 11 -10z m30 6 c0 -3 -4 -8 -10 -11 -5 -3 -10 -1 -10 4 0 6 5 11 10
11 6 0 10 -2 10 -4z m110 -16 c0 -11 -4 -20 -9 -20 -6 0 -9 9 -8 20 1 11 5 20
9 20 4 0 8 -9 8 -20z m267 4 c-3 -3 -12 -4 -19 -1 -8 3 -5 6 6 6 11 1 17 -2
13 -5z m-1287 -34 c0 -16 -4 -30 -10 -30 -5 0 -10 14 -10 30 0 17 5 30 10 30
6 0 10 -13 10 -30z m-5965 10 c3 -5 1 -10 -4 -10 -6 0 -11 5 -11 10 0 6 2 10
4 10 3 0 8 -4 11 -10z m6860 0 c3 -5 1 -10 -4 -10 -6 0 -11 5 -11 10 0 6 2 10
4 10 3 0 8 -4 11 -10z m-574 -11 c-16 -6 -28 -6 -35 1 -7 7 1 10 25 9 32 0 33
-1 10 -10z m948 -30 c-21 -13 -29 -11 -29 10 0 24 22 33 34 13 5 -9 4 -17 -5
-23z m-1633 -24 c-3 -8 -10 -15 -15 -15 -5 0 -4 11 2 25 12 25 23 16 13 -10z
m334 20 c0 -8 -7 -15 -15 -15 -9 0 -12 6 -9 15 4 8 10 15 15 15 5 0 9 -7 9
-15z m-115 -15 c3 -5 -3 -10 -14 -10 -12 0 -21 5 -21 10 0 6 6 10 14 10 8 0
18 -4 21 -10z m805 -20 c0 -5 -7 -10 -15 -10 -8 0 -15 5 -15 10 0 6 7 10 15
10 8 0 15 -4 15 -10z m157 -6 c-3 -3 -12 -4 -19 -1 -8 3 -5 6 6 6 11 1 17 -2
13 -5z m283 -10 c0 -14 -3 -14 -15 -4 -8 7 -15 14 -15 16 0 2 7 4 15 4 8 0 15
-7 15 -16z m110 -5 c0 -18 -2 -19 -15 -9 -8 7 -15 16 -15 21 0 5 7 9 15 9 9 0
15 -9 15 -21z m-3333 5 c-3 -3 -12 -4 -19 -1 -8 3 -5 6 6 6 11 1 17 -2 13 -5z
m573 -4 c0 -5 -4 -10 -10 -10 -5 0 -10 5 -10 10 0 6 5 10 10 10 6 0 10 -4 10
-10z m1380 6 c0 -3 -4 -8 -10 -11 -5 -3 -10 -1 -10 4 0 6 5 11 10 11 6 0 10
-2 10 -4z m1110 -6 c0 -5 -4 -10 -9 -10 -6 0 -13 5 -16 10 -3 6 1 10 9 10 9 0
16 -4 16 -10z m-355 -40 c3 -5 1 -10 -4 -10 -6 0 -11 5 -11 10 0 6 2 10 4 10
3 0 8 -4 11 -10z m408 -10 c-3 -11 -9 -17 -14 -14 -14 8 -10 34 5 34 9 0 12
-7 9 -20z m-5553 0 c0 -5 -4 -10 -10 -10 -5 0 -10 5 -10 10 0 6 5 10 10 10 6
0 10 -4 10 -10z m5660 0 c0 -5 -7 -10 -15 -10 -8 0 -15 5 -15 10 0 6 7 10 15
10 8 0 15 -4 15 -10z m-205 -11 c11 -17 -1 -21 -15 -4 -8 9 -8 15 -2 15 6 0
14 -5 17 -11z m-610 -9 c3 -5 1 -10 -4 -10 -6 0 -11 5 -11 10 0 6 2 10 4 10 3
0 8 -4 11 -10z m650 0 c3 -5 1 -10 -4 -10 -6 0 -11 5 -11 10 0 6 2 10 4 10 3
0 8 -4 11 -10z m235 -5 c0 -8 -4 -15 -10 -15 -5 0 -10 7 -10 15 0 8 5 15 10
15 6 0 10 -7 10 -15z m110 -6 c0 -6 -4 -7 -10 -4 -5 3 -10 11 -10 16 0 6 5 7
10 4 6 -3 10 -11 10 -16z m-3400 -9 c0 -5 -5 -10 -11 -10 -5 0 -7 5 -4 10 3 6
8 10 11 10 2 0 4 -4 4 -10z m3150 0 c0 -5 -4 -10 -9 -10 -6 0 -13 5 -16 10 -3
6 1 10 9 10 9 0 16 -4 16 -10z m-763 -22 c-3 -8 -6 -5 -6 6 -1 11 2 17 5 13 3
-3 4 -12 1 -19z m93 7 c0 -8 -4 -15 -10 -15 -5 0 -10 7 -10 15 0 8 5 15 10 15
6 0 10 -7 10 -15z m-625 -30 c-1 -16 -6 -30 -13 -33 -8 -2 -12 9 -12 33 0 25
4 35 13 32 6 -2 12 -17 12 -32z m282 3 c-3 -8 -6 -5 -6 6 -1 11 2 17 5 13 3
-3 4 -12 1 -19z m398 12 c3 -5 -1 -10 -9 -10 -9 0 -16 5 -16 10 0 6 4 10 9 10
6 0 13 -4 16 -10z m680 -1 c4 -6 5 -12 2 -15 -7 -7 -37 7 -37 17 0 13 27 11
35 -2z m-295 -15 c0 -8 -4 -12 -10 -9 -5 3 -10 10 -10 16 0 5 5 9 10 9 6 0 10
-7 10 -16z m235 -10 c26 -22 27 -24 5 -13 -25 13 -31 15 -50 18 -15 2 -12 21
3 21 6 -1 26 -12 42 -26z m-1765 -20 c0 -8 -6 -11 -15 -8 -8 4 -15 12 -15 20
0 8 6 11 15 8 8 -4 15 -12 15 -20z m150 11 c0 -11 -29 -11 -33 -1 -4 10 1 12
14 9 10 -3 19 -7 19 -8z m992 -17 c-15 -15 -24 -6 -16 16 5 12 10 14 17 7 8
-8 8 -14 -1 -23z m-3532 12 c0 -5 -2 -10 -4 -10 -3 0 -8 5 -11 10 -3 6 -1 10
4 10 6 0 11 -4 11 -10z m1380 0 c0 -5 -4 -10 -10 -10 -5 0 -10 5 -10 10 0 6 5
10 10 10 6 0 10 -4 10 -10z m2888 -15 c-3 -3 -9 2 -12 12 -6 14 -5 15 5 6 7
-7 10 -15 7 -18z m-5348 6 c0 -5 -7 -11 -15 -15 -9 -3 -15 0 -15 9 0 8 7 15
15 15 8 0 15 -4 15 -9z m4500 -1 c8 -5 12 -12 9 -15 -8 -8 -39 5 -39 16 0 11
11 11 30 -1z m216 -4 c21 -16 16 -30 -9 -20 -16 6 -32 34 -19 34 5 0 17 -6 28
-14z m-651 -6 c3 -5 -1 -10 -10 -10 -9 0 -13 5 -10 10 3 6 8 10 10 10 2 0 7
-4 10 -10z m1105 -33 c0 -6 -9 -2 -20 8 -11 10 -20 23 -20 28 0 6 9 2 20 -8
11 -10 20 -23 20 -28z m-5106 17 c3 -8 2 -12 -4 -9 -6 3 -10 10 -10 16 0 14 7
11 14 -7z m5249 9 c-7 -2 -19 -2 -25 0 -7 3 -2 5 12 5 14 0 19 -2 13 -5z
m-5113 -18 c0 -8 -9 -15 -20 -15 -20 0 -26 11 -13 23 12 13 33 7 33 -8z m706
-12 c-7 -7 -26 7 -26 19 0 6 6 6 15 -2 9 -7 13 -15 11 -17z m3074 7 c-9 -17
-40 -29 -40 -16 0 18 15 36 31 36 17 0 18 -3 9 -20z m1260 4 c0 -14 -3 -14
-15 -4 -8 7 -15 14 -15 16 0 2 7 4 15 4 8 0 15 -7 15 -16z m-1370 -8 c0 -2 -7
-6 -15 -10 -8 -3 -15 -1 -15 4 0 6 7 10 15 10 8 0 15 -2 15 -4z m735 -5 c7
-12 -12 -24 -25 -16 -11 7 -4 25 10 25 5 0 11 -4 15 -9z m255 1 c0 -4 -5 -13
-11 -19 -9 -9 -8 -16 5 -28 9 -9 16 -22 16 -28 0 -13 -49 42 -50 56 0 4 7 7
16 7 8 0 12 5 9 10 -3 6 -1 10 4 10 6 0 11 -4 11 -8z m150 -2 c0 -5 -4 -10 -9
-10 -6 0 -13 5 -16 10 -3 6 1 10 9 10 9 0 16 -4 16 -10z m65 0 c3 -5 1 -10 -4
-10 -6 0 -11 5 -11 10 0 6 2 10 4 10 3 0 8 -4 11 -10z m-5445 -16 c0 -2 -9 -4
-21 -4 -11 0 -18 4 -14 10 5 8 35 3 35 -6z m4530 -11 c0 -13 -3 -13 -15 -3 -8
7 -12 16 -9 21 8 13 24 1 24 -18z m650 17 c0 -5 -2 -10 -4 -10 -3 0 -8 5 -11
10 -3 6 -1 10 4 10 6 0 11 -4 11 -10z m377 -12 c-3 -8 -6 -5 -6 6 -1 11 2 17
5 13 3 -3 4 -12 1 -19z m-1697 -3 c0 -8 -4 -15 -9 -15 -13 0 -22 16 -14 24 11
11 23 6 23 -9z m1414 -1 c3 -8 2 -12 -4 -9 -6 3 -10 10 -10 16 0 14 7 11 14
-7z m551 6 c3 -5 1 -10 -4 -10 -6 0 -11 5 -11 10 0 6 2 10 4 10 3 0 8 -4 11
-10z m-907 -19 c3 -8 -1 -12 -9 -9 -7 2 -15 10 -17 17 -3 8 1 12 9 9 7 -2 15
-10 17 -17z m-444 -7 c3 -8 2 -12 -4 -9 -6 3 -10 10 -10 16 0 14 7 11 14 -7z
m240 -5 c-3 -5 -10 -7 -15 -3 -5 3 -7 10 -3 15 3 5 10 7 15 3 5 -3 7 -10 3
-15z m405 12 c7 -5 9 -11 5 -14 -10 -5 -54 9 -54 18 0 8 34 6 49 -4z m200 0
c7 -5 10 -14 6 -20 -5 -9 -10 -9 -21 0 -26 22 -14 38 15 20z m-2769 -11 c0 -5
-4 -10 -10 -10 -5 0 -10 5 -10 10 0 6 5 10 10 10 6 0 10 -4 10 -10z m1220 -11
c0 -5 -4 -9 -10 -9 -5 0 -10 7 -10 16 0 8 5 12 10 9 6 -3 10 -10 10 -16z m630
10 c0 -6 -7 -9 -15 -5 -8 3 -19 -2 -24 -12 -9 -15 -10 -14 -11 6 0 17 6 22 25
22 14 0 25 -5 25 -11z m-1105 -9 c3 -5 1 -10 -4 -10 -6 0 -11 5 -11 10 0 6 2
10 4 10 3 0 8 -4 11 -10z m2135 -11 c0 -6 -4 -7 -10 -4 -5 3 -10 11 -10 16 0
6 5 7 10 4 6 -3 10 -11 10 -16z m-4120 7 c0 -3 -4 -8 -10 -11 -5 -3 -10 -1
-10 4 0 6 5 11 10 11 6 0 10 -2 10 -4z m-720 -10 c0 -3 -4 -8 -10 -11 -5 -3
-10 -1 -10 4 0 6 5 11 10 11 6 0 10 -2 10 -4z m4896 -23 c-7 -7 -26 7 -26 19
0 6 6 6 15 -2 9 -7 13 -15 11 -17z m-1068 -13 c13 -11 21 -24 17 -30 -11 -17
-24 -11 -40 20 -18 34 -10 38 23 10z m-1488 -11 c0 -6 -4 -7 -10 -4 -5 3 -10
11 -10 16 0 6 5 7 10 4 6 -3 10 -11 10 -16z m705 11 c3 -5 1 -10 -4 -10 -6 0
-11 5 -11 10 0 6 2 10 4 10 3 0 8 -4 11 -10z m1905 6 c0 -3 -4 -8 -10 -11 -5
-3 -10 -1 -10 4 0 6 5 11 10 11 6 0 10 -2 10 -4z m-2800 -27 c0 -5 -4 -9 -10
-9 -5 0 -10 7 -10 16 0 8 5 12 10 9 6 -3 10 -10 10 -16z m2124 12 c3 -5 -1
-14 -8 -21 -12 -9 -17 -7 -26 9 -9 18 -8 21 9 21 11 0 22 -4 25 -9z m434 -10
c3 -8 -1 -12 -9 -9 -7 2 -15 10 -17 17 -3 8 1 12 9 9 7 -2 15 -10 17 -17z
m-4813 -1 c-3 -5 -10 -10 -16 -10 -5 0 -9 5 -9 10 0 6 7 10 16 10 8 0 12 -4 9
-10z m4055 -11 c0 -14 -17 -10 -23 5 -4 10 -1 13 9 9 7 -3 14 -9 14 -14z
m-4630 1 c0 -5 -4 -10 -10 -10 -5 0 -10 5 -10 10 0 6 5 10 10 10 6 0 10 -4 10
-10z m2900 -6 c0 -8 -4 -12 -10 -9 -5 3 -10 10 -10 16 0 5 5 9 10 9 6 0 10 -7
10 -16z m952 4 c-9 -9 -15 -9 -24 0 -9 9 -7 12 12 12 19 0 21 -3 12 -12z
m1233 2 c3 -5 2 -10 -4 -10 -5 0 -13 5 -16 10 -3 6 -2 10 4 10 5 0 13 -4 16
-10z m455 -5 c0 -19 -16 -19 -24 0 -3 9 0 15 9 15 8 0 15 -7 15 -15z m230 5
c0 -5 -2 -10 -4 -10 -3 0 -8 5 -11 10 -3 6 -1 10 4 10 6 0 11 -4 11 -10z
m-5320 -10 c0 -5 -5 -10 -11 -10 -5 0 -7 5 -4 10 3 6 8 10 11 10 2 0 4 -4 4
-10z"/>
<path d="M4055 5111 c-3 -11 -24 -44 -46 -73 -21 -29 -39 -56 -39 -61 0 -7
-23 -42 -85 -127 -11 -15 -46 -63 -77 -106 -110 -152 -236 -280 -343 -346 -23
-14 -83 -34 -145 -47 -57 -12 -105 -23 -106 -24 -1 -1 -5 -13 -9 -27 -14 -56
114 -85 185 -42 20 12 50 22 68 24 17 1 32 6 32 11 0 4 6 7 13 5 15 -3 77 22
77 31 0 4 16 14 35 21 23 9 34 19 30 28 -3 8 5 22 17 33 17 13 19 18 8 19 -9
0 -2 9 15 20 17 11 30 23 30 28 0 5 17 25 38 44 20 19 37 41 37 48 0 7 21 31
46 53 30 27 43 45 39 56 -3 8 -3 12 1 9 8 -8 54 57 54 76 0 7 9 21 19 30 11
10 23 37 26 59 4 23 13 53 20 67 42 80 82 196 72 207 -3 2 -8 -5 -12 -16z"/>
<path d="M4105 5721 c-3 -5 -1 -12 5 -16 5 -3 10 1 10 9 0 18 -6 21 -15 7z"/>
<path d="M4013 5679 c-24 -10 -43 -23 -43 -28 0 -6 -12 -14 -27 -17 -56 -14
-148 -95 -159 -139 -7 -29 -7 -30 13 -12 11 9 31 17 44 17 14 0 29 4 35 8 5 5
28 14 52 21 46 13 142 102 142 131 0 33 -14 38 -57 19z"/>
<path d="M3220 5100 c0 -5 5 -10 11 -10 5 0 7 5 4 10 -3 6 -8 10 -11 10 -2 0
-4 -4 -4 -10z"/>
<path d="M2430 5050 c0 -5 5 -10 11 -10 5 0 7 5 4 10 -3 6 -8 10 -11 10 -2 0
-4 -4 -4 -10z"/>
<path d="M6662 3818 c-15 -15 -16 -38 -2 -38 6 0 10 7 10 15 0 8 5 15 10 15 6
0 10 5 10 10 0 14 -13 13 -28 -2z"/>
<path d="M6810 3740 c0 -5 5 -10 10 -10 6 0 10 5 10 10 0 6 -4 10 -10 10 -5 0
-10 -4 -10 -10z"/>
<path d="M6780 3720 c0 -5 7 -10 16 -10 8 0 12 5 9 10 -3 6 -10 10 -16 10 -5
0 -9 -4 -9 -10z"/>
<path d="M7245 3670 c3 -5 8 -10 11 -10 2 0 4 5 4 10 0 6 -5 10 -11 10 -5 0
-7 -4 -4 -10z"/>
<path d="M7113 3643 c-18 -7 -16 -23 2 -23 8 0 15 7 15 15 0 8 -1 15 -2 14 -2
0 -9 -3 -15 -6z"/>
<path d="M7015 3590 c-3 -5 1 -10 9 -10 9 0 16 5 16 10 0 6 -4 10 -9 10 -6 0
-13 -4 -16 -10z"/>
<path d="M7618 3583 c7 -3 16 -2 19 1 4 3 -2 6 -13 5 -11 0 -14 -3 -6 -6z"/>
<path d="M6960 3570 c0 -5 5 -10 10 -10 6 0 10 5 10 10 0 6 -4 10 -10 10 -5 0
-10 -4 -10 -10z"/>
<path d="M7173 3563 c9 -2 25 -2 35 0 9 3 1 5 -18 5 -19 0 -27 -2 -17 -5z"/>
<path d="M6690 3552 c0 -5 3 -12 8 -16 4 -4 8 -12 8 -17 1 -5 2 -12 3 -16 0
-4 7 2 15 12 12 17 12 21 -3 32 -19 15 -31 16 -31 5z"/>
<path d="M6802 3547 c-8 -10 -6 -13 8 -14 10 -1 21 5 24 13 7 18 -18 19 -32 1z"/>
<path d="M6850 3540 c-8 -5 -10 -10 -5 -10 6 0 17 5 25 10 8 5 11 10 5 10 -5
0 -17 -5 -25 -10z"/>
<path d="M7120 3530 c0 -19 3 -21 12 -12 9 9 9 15 0 24 -9 9 -12 7 -12 -12z"/>
<path d="M7190 3530 c0 -6 7 -10 15 -10 8 0 15 2 15 4 0 2 -7 6 -15 10 -8 3
-15 1 -15 -4z"/>
<path d="M7520 3530 c0 -5 5 -10 11 -10 5 0 7 5 4 10 -3 6 -8 10 -11 10 -2 0
-4 -4 -4 -10z"/>
<path d="M6732 3500 c0 -14 2 -19 5 -12 2 6 2 18 0 25 -3 6 -5 1 -5 -13z"/>
<path d="M6915 3500 c-3 -5 -1 -10 4 -10 6 0 11 5 11 10 0 6 -2 10 -4 10 -3 0
-8 -4 -11 -10z"/>
<path d="M7020 3490 c0 -5 5 -10 11 -10 5 0 7 5 4 10 -3 6 -8 10 -11 10 -2 0
-4 -4 -4 -10z"/>
<path d="M7050 3490 c0 -5 5 -10 11 -10 5 0 7 5 4 10 -3 6 -8 10 -11 10 -2 0
-4 -4 -4 -10z"/>
<path d="M6863 3475 c-17 -19 -16 -25 3 -25 9 0 12 -5 8 -11 -4 -7 -2 -10 5
-8 7 3 12 8 12 12 -1 4 -1 16 -1 27 0 23 -10 25 -27 5z"/>
<path d="M7106 3482 c-3 -5 1 -9 9 -9 8 0 15 4 15 9 0 4 -4 8 -9 8 -6 0 -12
-4 -15 -8z"/>
<path d="M6930 3470 c19 -13 30 -13 30 0 0 6 -10 10 -22 10 -19 0 -20 -2 -8
-10z"/>
<path d="M6598 3453 c7 -3 16 -2 19 1 4 3 -2 6 -13 5 -11 0 -14 -3 -6 -6z"/>
<path d="M6700 3445 c0 -10 -10 -15 -30 -15 -19 0 -30 -5 -30 -14 0 -16 27
-12 70 11 30 15 64 17 55 3 -7 -12 2 -12 30 0 19 8 19 9 -2 9 -12 1 -25 6 -28
11 -10 16 -65 12 -65 -5z"/>
<path d="M7035 3450 c-3 -5 -16 -10 -28 -11 -21 0 -21 -1 -2 -9 34 -15 51 -11
51 10 0 21 -11 26 -21 10z"/>
<path d="M6517 3439 c7 -7 15 -10 18 -7 3 3 -2 9 -12 12 -14 6 -15 5 -6 -5z"/>
<path d="M6920 3430 c-8 -5 -11 -12 -7 -17 5 -4 12 -1 18 7 8 13 10 13 20 0 9
-12 10 -12 7 -1 -5 19 -19 23 -38 11z"/>
<path d="M6806 3409 c-12 -11 -15 -19 -7 -19 13 0 41 24 41 34 0 11 -15 5 -34
-15z"/>
<path d="M7428 3403 c7 -3 16 -2 19 1 4 3 -2 6 -13 5 -11 0 -14 -3 -6 -6z"/>
<path d="M6862 3385 c-7 -8 -26 -15 -42 -15 -42 0 -37 -20 5 -21 19 -1 41 -2
48 -3 7 -1 12 11 12 27 1 30 -4 33 -23 12z"/>
<path d="M6740 3380 c0 -5 7 -10 15 -10 8 0 15 5 15 10 0 6 -7 10 -15 10 -8 0
-15 -4 -15 -10z"/>
<path d="M6985 3380 c3 -5 10 -10 16 -10 5 0 9 5 9 10 0 6 -7 10 -16 10 -8 0
-12 -4 -9 -10z"/>
<path d="M7460 3370 c0 -5 5 -10 10 -10 6 0 10 5 10 10 0 6 -4 10 -10 10 -5 0
-10 -4 -10 -10z"/>
<path d="M6680 3360 c0 -6 8 -14 18 -17 9 -4 20 -11 23 -16 4 -5 12 -6 19 -2
8 5 1 13 -19 26 -36 22 -41 23 -41 9z"/>
<path d="M6568 3337 c7 -8 8 -17 4 -22 -4 -4 4 -4 18 0 43 13 42 18 -4 29 -25
6 -28 5 -18 -7z"/>
<path d="M7300 3320 c0 -5 5 -10 10 -10 6 0 10 5 10 10 0 6 -4 10 -10 10 -5 0
-10 -4 -10 -10z"/>
<path d="M7492 3318 c7 -19 38 -22 38 -4 0 10 -9 16 -21 16 -12 0 -19 -5 -17
-12z"/>
<path d="M6520 3300 c0 -5 5 -10 10 -10 6 0 10 5 10 10 0 6 -4 10 -10 10 -5 0
-10 -4 -10 -10z"/>
<path d="M7445 3300 c-9 -15 3 -29 25 -27 11 1 20 8 20 16 0 8 -3 11 -7 8 -3
-4 -12 -2 -19 4 -8 7 -14 7 -19 -1z"/>
<path d="M6570 3281 c-14 -27 -13 -54 3 -48 6 2 12 12 12 23 0 10 4 25 8 32 5
7 4 12 -2 12 -6 0 -15 -9 -21 -19z"/>
<path d="M7585 3290 c-4 -6 -12 -10 -18 -9 -7 1 -21 1 -31 0 -34 -2 -4 -19 39
-23 34 -2 40 0 40 16 0 22 -20 33 -30 16z"/>
<path d="M7063 3274 c-9 -25 10 -36 42 -24 16 6 46 8 66 5 22 -4 40 -2 43 4 5
7 1 8 -9 5 -9 -4 -25 2 -36 12 -16 14 -22 15 -28 5 -7 -10 -13 -10 -29 -2 -28
15 -42 14 -49 -5z"/>
<path d="M7360 3280 c0 -5 5 -10 11 -10 5 0 7 5 4 10 -3 6 -8 10 -11 10 -2 0
-4 -4 -4 -10z"/>
<path d="M7407 3273 c-10 -9 -9 -33 1 -33 4 0 8 9 8 20 0 23 0 22 -9 13z"/>
<path d="M6645 3234 c9 -9 19 -13 23 -10 3 4 0 11 -8 16 -24 15 -33 11 -15 -6z"/>
<path d="M7480 3238 c0 -8 5 -19 12 -26 9 -9 8 -15 -7 -26 -11 -8 -23 -12 -26
-10 -4 2 -9 -3 -13 -11 -7 -18 -4 -18 29 -3 14 6 25 15 25 20 0 5 19 9 43 8
60 -3 67 -1 67 11 0 6 -9 8 -20 4 -12 -4 -20 -2 -20 5 0 8 -9 10 -26 6 -22 -6
-25 -4 -20 9 3 10 2 14 -5 10 -5 -4 -16 -1 -24 5 -12 10 -15 10 -15 -2z"/>
<path d="M7065 3229 c-28 -6 -26 -7 13 -8 42 -1 53 3 30 11 -7 2 -26 1 -43 -3z"/>
<path d="M7365 3230 c3 -5 11 -10 16 -10 6 0 7 5 4 10 -3 6 -11 10 -16 10 -6
0 -7 -4 -4 -10z"/>
<path d="M7650 3230 c-8 -5 -16 -20 -17 -34 -1 -18 4 -25 23 -29 23 -4 24 -2
18 32 -8 44 -6 42 -24 31z"/>
<path d="M7137 3209 c3 -12 14 -19 29 -19 31 0 30 5 -5 23 -26 13 -28 13 -24
-4z"/>
<path d="M7430 3220 c8 -5 22 -10 30 -10 13 0 13 1 0 10 -8 5 -22 10 -30 10
-13 0 -13 -1 0 -10z"/>
<path d="M6550 3215 c0 -8 27 -35 34 -35 14 0 4 20 -14 30 -11 6 -20 8 -20 5z"/>
<path d="M7290 3206 c0 -2 7 -7 16 -10 8 -3 12 -2 9 4 -6 10 -25 14 -25 6z"/>
<path d="M7497 3163 c-12 -11 -8 -23 8 -23 8 0 15 -7 15 -15 0 -8 4 -15 9 -15
14 0 0 -41 -15 -47 -21 -8 -7 -22 16 -16 16 4 21 -1 26 -25 3 -16 20 -44 38
-61 17 -17 43 -44 59 -59 l27 -27 0 32 c0 17 -3 33 -7 35 -12 5 -43 64 -43 82
0 9 7 16 16 16 10 0 13 -6 9 -19 -3 -12 0 -21 10 -25 12 -4 15 2 15 29 0 19
-4 35 -10 35 -5 0 -7 7 -4 15 5 11 -1 15 -19 15 -13 0 -30 -7 -37 -15 -18 -22
-62 -20 -58 3 3 12 13 17 35 16 26 -2 33 3 38 24 3 13 1 30 -4 35 -8 8 -11 4
-12 -13 0 -14 -3 -19 -6 -12 -2 6 -20 12 -38 12 -20 0 -35 6 -39 15 -6 16 -18
19 -29 8z m63 -43 c0 -5 -2 -10 -4 -10 -3 0 -8 5 -11 10 -3 6 -1 10 4 10 6 0
11 -4 11 -10z m90 -60 c0 -5 -4 -10 -10 -10 -5 0 -10 5 -10 10 0 6 5 10 10 10
6 0 10 -4 10 -10z m-40 -20 c0 -5 -4 -10 -10 -10 -5 0 -10 5 -10 10 0 6 5 10
10 10 6 0 10 -4 10 -10z"/>
<path d="M7470 2950 c-10 -6 -11 -10 -2 -10 6 0 12 -7 12 -15 0 -11 12 -15 45
-15 25 0 45 5 45 10 0 6 -11 10 -24 10 -13 0 -26 7 -30 15 -6 17 -24 19 -46 5z"/>
<path d="M7600 2910 c8 -5 20 -10 25 -10 6 0 3 5 -5 10 -8 5 -19 10 -25 10 -5
0 -3 -5 5 -10z"/>
<path d="M6505 2500 c-4 -6 3 -10 14 -10 25 0 27 6 6 13 -8 4 -17 2 -20 -3z"/>
<path d="M6368 2289 c-50 -26 -50 -43 -1 -34 45 8 93 32 93 45 0 17 -53 10
-92 -11z"/>
<path d="M7647 1743 c-12 -11 -8 -21 13 -26 15 -4 20 0 20 14 0 18 -20 26 -33
12z"/>
</g>
</svg>
