<?xml version="1.0" standalone="no"?>
<!DOCTYPE svg PUBLIC "-//W3C//DTD SVG 20010904//EN"
 "http://www.w3.org/TR/2001/REC-SVG-20010904/DTD/svg10.dtd">
<svg version="1.0" xmlns="http://www.w3.org/2000/svg"
 width="2560.000000pt" height="2560.000000pt" viewBox="0 0 2560.000000 2560.000000"
 preserveAspectRatio="xMidYMid meet">

<g transform="translate(0.000000,2560.000000) scale(0.100000,-0.100000)"
fill="#000000" stroke="none">
<path d="M0 12800 l0 -12800 12800 0 12800 0 0 12800 0 12800 -12800 0 -12800
0 0 -12800z m17627 9014 c-3 -3 -12 -4 -19 -1 -8 3 -5 6 6 6 11 1 17 -2 13 -5z
m93 -40 c23 -9 39 -18 37 -20 -2 -3 -24 4 -48 15 -54 24 -45 27 11 5z m85 -44
c7 -12 -2 -12 -30 0 -19 8 -19 9 2 9 12 1 25 -3 28 -9z m198 -99 c95 -49 244
-129 332 -179 88 -49 183 -102 210 -117 83 -47 533 -346 670 -446 167 -122
603 -449 635 -476 14 -11 70 -58 125 -104 80 -67 324 -278 345 -299 3 -3 50
-45 105 -95 199 -178 443 -416 615 -600 288 -306 326 -347 405 -440 33 -38 65
-75 70 -81 6 -6 24 -26 40 -45 90 -100 292 -349 366 -449 179 -243 532 -798
684 -1075 73 -133 240 -450 269 -510 203 -418 317 -690 489 -1170 134 -372
205 -602 328 -1060 59 -220 142 -605 199 -923 85 -479 144 -1032 110 -1032 -5
0 -10 3 -10 8 0 22 -52 404 -64 475 -8 45 -24 134 -35 197 -11 63 -32 185 -46
270 -14 85 -35 198 -46 250 -11 52 -31 149 -44 215 -57 282 -76 364 -149 630
-31 110 -57 201 -63 215 -3 8 -8 29 -10 45 -2 17 -12 55 -23 85 -10 30 -21 72
-25 93 -4 20 -11 40 -16 43 -5 3 -9 16 -9 30 0 13 -5 24 -11 24 -6 0 -8 7 -5
16 3 9 0 28 -8 42 -12 22 -55 145 -70 202 -5 19 -19 53 -42 105 -10 22 -18 42
-19 45 -1 3 -4 12 -7 20 -3 8 -14 38 -23 65 -10 28 -30 77 -45 110 -31 66 -50
112 -70 165 -7 19 -17 40 -20 45 -4 6 -17 43 -30 83 -12 39 -25 72 -29 72 -12
0 -41 68 -41 95 0 14 -16 55 -36 92 -21 38 -44 82 -52 98 -8 17 -24 41 -34 54
-10 13 -18 32 -18 42 0 11 -4 19 -9 19 -5 0 -11 17 -15 39 -3 21 -12 44 -20
50 -8 7 -12 19 -9 28 3 8 2 18 -3 22 -16 11 -44 60 -44 77 0 9 -14 33 -30 53
-44 53 -74 100 -102 164 -7 15 -16 27 -20 27 -4 0 -8 7 -8 15 0 8 -4 15 -9 15
-5 0 -14 14 -21 30 -7 17 -16 30 -21 30 -5 0 -8 6 -7 13 2 6 -2 11 -9 10 -6
-2 -15 6 -18 17 -4 12 -17 28 -31 36 -13 9 -24 22 -24 29 0 7 -7 18 -16 26 -8
7 -24 29 -34 48 -10 20 -27 45 -37 56 -16 18 -61 96 -88 152 -5 13 -13 23 -17
23 -5 0 -8 6 -8 13 -1 17 -47 67 -63 67 -7 0 -18 5 -25 12 -18 18 -15 -4 4
-31 13 -18 18 -20 25 -10 5 9 8 1 8 -21 -1 -66 43 -190 68 -190 7 0 13 -7 13
-15 0 -8 18 -56 39 -107 22 -51 47 -118 56 -148 9 -30 25 -77 36 -105 34 -93
66 -208 113 -410 9 -38 16 -86 15 -105 -1 -34 -1 -34 -16 15 -8 28 -26 88 -40
135 -14 47 -34 114 -45 150 -23 77 -56 168 -69 193 -5 9 -17 39 -25 65 -32 93
-146 332 -182 380 -13 17 -30 32 -37 32 -7 0 -18 14 -24 30 -12 35 -36 42 -26
8 4 -13 19 -48 33 -78 28 -59 36 -140 15 -147 -7 -3 -13 2 -13 11 0 9 -4 16
-10 16 -5 0 -10 -3 -10 -7 1 -24 30 -172 39 -195 5 -14 14 -60 20 -103 6 -42
17 -91 25 -109 7 -17 25 -71 40 -121 15 -49 32 -98 37 -107 11 -22 11 -28 0
-28 -18 0 -89 166 -100 234 -7 38 -36 144 -65 235 -54 168 -73 236 -79 281 -1
14 -8 24 -15 22 -8 -1 -11 2 -7 8 9 14 -4 50 -18 50 -7 0 -23 18 -37 40 -14
22 -30 38 -37 36 -7 -3 -10 1 -7 9 6 15 -22 50 -39 50 -6 0 -12 6 -14 13 -3 6
1 12 7 12 6 0 10 6 8 13 -3 6 -11 12 -19 12 -8 0 -13 8 -11 16 1 9 -5 22 -13
29 -13 10 -15 9 -15 -9 0 -12 -6 -21 -15 -21 -11 0 -13 -7 -9 -29 4 -20 1 -30
-10 -34 -9 -4 -13 -13 -10 -22 4 -10 0 -15 -15 -15 -12 0 -21 -4 -21 -10 0 -5
-25 -10 -55 -10 -44 0 -56 4 -65 20 -20 37 -47 43 -83 18 -17 -12 -35 -26 -38
-31 -4 -5 -12 -7 -18 -3 -12 8 -8 -8 17 -64 13 -30 29 -54 72 -107 6 -7 10
-15 10 -18 0 -8 63 -89 73 -93 4 -2 7 -9 7 -16 0 -7 9 -21 20 -31 21 -19 27
-45 10 -45 -5 0 -14 10 -21 21 -6 12 -27 35 -46 52 -19 17 -55 58 -81 91 -26
34 -51 67 -57 74 -5 8 -31 37 -57 65 -26 29 -48 55 -48 60 0 16 -41 6 -52 -13
-7 -11 -23 -20 -36 -20 -36 0 -74 -45 -74 -88 0 -42 7 -86 17 -101 11 -18 -27
-12 -41 7 -13 16 -13 16 -14 0 0 -10 -4 -18 -8 -18 -18 0 -10 -42 9 -47 10 -3
19 -12 19 -19 0 -8 5 -14 11 -14 5 0 8 -4 5 -9 -8 -13 29 -92 39 -83 4 4 5 -7
2 -25 -5 -25 -2 -35 12 -45 16 -11 52 -69 51 -83 0 -3 0 -9 0 -13 0 -5 15 -25
34 -44 18 -19 37 -45 41 -58 4 -13 20 -37 35 -53 15 -17 34 -48 41 -71 8 -23
24 -51 36 -62 13 -12 23 -25 23 -30 -1 -5 -10 2 -22 16 l-21 25 8 -25 c4 -14
12 -26 16 -28 5 -2 9 -8 9 -14 0 -5 11 -24 25 -42 14 -18 25 -36 25 -39 0 -4
13 -26 29 -49 16 -24 44 -68 62 -98 19 -30 40 -64 47 -75 7 -11 18 -31 25 -45
23 -47 91 -165 97 -170 4 -3 17 -25 28 -50 11 -25 40 -79 63 -120 47 -85 189
-367 226 -450 13 -30 54 -127 90 -215 54 -135 116 -283 154 -370 134 -311 329
-920 428 -1335 66 -277 94 -414 147 -730 7 -47 18 -105 23 -130 5 -25 12 -79
15 -120 7 -95 -4 -63 -40 110 -14 69 -32 148 -40 176 -8 27 -32 126 -53 220
-64 273 -148 562 -172 588 -5 6 -9 19 -9 29 0 12 -5 17 -14 14 -9 -4 -16 3
-20 19 -4 13 -11 24 -16 24 -6 0 -10 11 -10 25 0 14 -4 33 -8 43 -5 9 -15 31
-23 47 -15 31 -49 41 -57 17 -2 -7 2 -10 12 -6 19 7 33 -23 18 -38 -7 -7 -20
-1 -41 21 -30 31 -51 40 -51 21 0 -5 4 -10 9 -10 13 0 40 -98 46 -165 l5 -60
-20 25 c-11 14 -20 29 -20 34 0 5 -23 56 -51 115 -87 182 -106 225 -113 251
-17 66 -30 100 -37 100 -4 0 -10 8 -13 18 -9 26 -66 87 -67 71 -1 -8 -4 -5 -8
6 -34 98 -84 165 -139 186 -17 7 -23 15 -19 29 3 11 -1 21 -9 24 -8 3 -14 15
-14 27 0 22 -1 22 -20 4 -11 -10 -17 -21 -12 -24 4 -3 7 -12 6 -18 -1 -7 -2
-18 -3 -24 -2 -15 -26 -5 -27 12 -3 40 -50 134 -85 166 -16 15 -29 36 -29 45
0 22 -12 29 -30 17 -13 -8 -12 -11 3 -20 18 -11 16 -42 -6 -88 -9 -19 -9 -25
1 -28 6 -3 12 -13 12 -24 0 -25 -30 -25 -37 1 -3 11 -9 20 -13 20 -5 0 -11 18
-15 40 -7 39 -35 59 -35 24 0 -8 -5 -12 -10 -9 -6 4 -8 10 -5 15 3 5 1 11 -5
15 -14 9 -12 -31 3 -47 6 -7 11 -35 11 -63 -1 -27 3 -56 9 -62 5 -7 7 -22 4
-33 -3 -11 -1 -20 4 -20 5 0 9 -4 9 -10 0 -5 -7 -10 -16 -10 -11 0 -15 6 -12
18 3 10 -1 23 -9 30 -7 7 -13 21 -13 32 0 10 -4 22 -10 25 -5 3 -10 17 -10 29
0 13 -7 37 -15 52 -9 18 -15 23 -15 12 0 -9 5 -20 10 -23 6 -3 10 -19 10 -35
0 -16 4 -31 9 -34 5 -3 11 -20 14 -38 3 -18 15 -64 26 -103 211 -738 331
-1423 372 -2125 16 -270 5 -1171 -16 -1375 -79 -759 -281 -1651 -502 -2220
-202 -520 -346 -832 -551 -1193 -23 -41 -42 -75 -42 -77 0 -2 -37 -65 -83
-141 -265 -440 -590 -869 -931 -1224 -161 -169 -237 -241 -441 -421 -694 -610
-1478 -1077 -2316 -1379 -63 -22 -125 -46 -139 -52 -70 -29 -344 -118 -445
-144 -17 -4 -18 -4 -3 6 9 5 72 27 140 49 68 21 175 59 238 84 64 25 128 49
143 52 15 4 27 11 27 16 0 5 8 9 18 9 9 0 50 14 91 30 40 17 79 30 87 30 8 0
14 5 14 10 0 6 7 10 16 10 19 0 94 31 199 81 43 22 84 39 89 39 10 0 86 33
121 53 11 6 61 32 110 58 250 129 291 152 303 167 6 9 12 12 12 8 0 -4 7 0 16
8 8 9 22 16 30 16 8 0 14 4 14 9 0 5 13 13 28 19 16 5 35 16 43 23 8 8 31 23
52 34 20 11 37 23 37 27 0 5 4 8 10 8 5 0 32 16 59 35 26 19 52 35 57 35 7 0
63 40 110 78 5 5 39 30 75 56 35 25 70 51 77 57 41 34 142 108 170 124 17 11
32 23 32 27 0 4 6 8 13 8 6 0 32 19 56 41 24 22 64 56 90 77 25 20 68 58 96
85 27 26 68 60 90 75 22 14 94 79 160 144 131 128 164 158 176 158 10 0 165
155 224 226 28 32 68 77 90 99 56 57 175 202 175 214 0 5 3 11 8 13 4 2 36 37
72 78 36 41 77 85 93 98 15 13 27 28 27 32 0 5 11 21 25 36 14 15 25 33 25 40
0 7 6 17 13 21 7 4 34 40 60 79 26 39 54 77 62 84 8 7 15 18 15 25 0 7 7 15
15 19 8 3 15 11 15 18 0 7 14 28 30 47 17 18 30 38 30 43 0 5 5 6 10 3 6 -3
10 1 10 11 0 9 10 33 23 53 33 53 40 65 66 115 14 25 28 46 33 46 4 0 8 4 8 9
0 14 17 50 45 96 13 22 34 58 46 80 12 22 33 58 48 80 14 22 25 45 26 50 0 6
16 35 36 65 20 30 39 66 43 80 4 14 14 39 21 55 25 54 52 119 68 162 9 23 46
104 82 181 36 77 65 148 65 156 0 9 4 24 9 34 29 54 54 122 63 171 6 31 14 65
19 76 8 20 46 148 75 255 9 30 21 92 29 137 7 44 20 96 29 115 44 93 69 381
61 703 -3 127 -7 361 -9 520 -4 276 -21 515 -36 515 -9 0 -19 44 -32 140 -20
160 -25 186 -41 214 -10 18 -13 41 -10 62 3 20 1 40 -7 49 -9 10 -9 15 -1 15
6 0 11 7 11 15 0 8 -7 15 -15 15 -17 0 -39 36 -30 50 7 12 -16 80 -27 80 -4 0
-8 18 -8 40 0 22 -4 40 -9 40 -4 0 -14 28 -20 63 -28 145 -33 167 -42 172 -5
4 -9 18 -10 33 0 15 -11 50 -24 77 -13 28 -19 52 -14 53 13 5 11 22 -3 20 -6
-2 -16 12 -21 30 -5 17 -14 32 -18 32 -14 0 -39 57 -39 89 0 16 -4 31 -10 33
-5 2 -11 13 -13 26 -2 12 -13 29 -25 38 -12 8 -22 24 -22 35 0 10 -4 19 -8 19
-9 0 -32 52 -41 90 -4 14 -12 25 -19 25 -19 0 -41 33 -35 54 2 9 -3 23 -11 30
-9 8 -16 22 -16 32 0 29 -42 89 -62 89 -13 0 -18 8 -18 30 0 22 -4 28 -15 24
-19 -8 -45 13 -39 31 7 18 -14 57 -27 50 -5 -4 -9 1 -9 9 0 9 -4 16 -10 16 -5
0 -10 -5 -10 -11 0 -5 -4 -7 -10 -4 -5 3 -10 -3 -10 -15 0 -30 -24 -20 -28 11
-13 111 -117 507 -181 689 -167 480 -429 998 -717 1416 -131 190 -341 464
-429 560 -5 6 -32 37 -60 70 -48 56 -222 243 -237 255 -5 3 -79 75 -165 160
-142 139 -374 343 -523 458 -408 315 -670 498 -1100 768 -159 99 -239 146
-415 243 -33 18 -90 50 -127 71 -37 20 -76 40 -87 44 -12 3 -21 10 -21 15 0
11 24 0 229 -103 208 -105 273 -140 323 -173 21 -13 40 -24 42 -24 3 0 17 -5
33 -12 31 -12 38 -14 68 -17 13 -1 16 -4 8 -9 -17 -11 1 -36 22 -29 9 4 13 3
10 -3 -3 -5 9 -7 28 -3 21 3 39 0 48 -8 8 -8 29 -15 47 -16 18 -1 46 -12 63
-24 25 -18 32 -19 46 -7 9 7 18 12 20 10 2 -1 11 2 21 8 13 9 9 10 -23 7 -22
-2 -32 -2 -22 0 11 3 17 14 17 33 0 19 -6 30 -17 33 -10 2 0 3 22 1 22 -2 34
-1 28 2 -15 7 -18 64 -3 64 6 0 10 -10 10 -22 0 -17 3 -19 12 -10 9 9 7 17
-10 35 -15 16 -18 27 -12 37 15 24 12 60 -5 60 -21 0 -19 17 6 48 18 23 19 27
5 30 -19 4 -19 7 -5 33 9 17 5 22 -25 34 -19 8 -37 19 -40 24 -4 5 -21 12 -39
16 -17 4 -79 22 -137 42 -247 81 -532 150 -845 203 -223 37 -541 67 -530 50
11 -18 -28 -16 -126 6 -191 43 -471 67 -949 81 -146 4 -254 9 -240 10 105 13
115 16 95 24 -17 6 -15 8 10 8 65 2 69 32 7 62 -26 13 -53 29 -60 36 -7 7 -22
13 -32 13 -10 0 -22 5 -25 10 -9 15 -124 70 -145 70 -11 0 -21 4 -24 9 -3 4
-27 14 -53 21 -77 20 -113 33 -113 42 0 4 -12 8 -27 8 -16 1 -39 7 -53 15 -14
8 -37 14 -52 15 -14 0 -28 5 -30 11 -4 11 -56 24 -138 36 -27 4 -50 13 -58 25
-7 10 -25 18 -41 18 -38 0 -93 19 -108 37 -6 9 -17 12 -24 7 -7 -4 -10 -3 -5
4 4 7 -5 10 -26 10 -17 -1 -34 4 -36 10 -2 7 -11 12 -20 12 -9 0 -30 8 -47 18
-16 10 -43 19 -60 20 -16 1 -36 10 -43 20 -7 9 -15 16 -17 15 -11 -6 -25 -2
-39 13 -15 14 -17 14 -22 0 -10 -27 -23 -8 -30 44 -4 28 -10 50 -14 50 -10 0
-15 -67 -31 -360 -10 -186 -24 -334 -28 -292 0 7 -5 11 -10 8 -11 -7 -31 47
-31 82 0 16 -4 22 -13 19 -9 -3 -13 5 -14 27 0 68 -24 406 -34 484 -6 45 -15
82 -21 82 -5 0 -19 11 -32 25 -15 16 -34 25 -54 25 -17 0 -33 4 -36 9 -3 5
-22 12 -42 16 -20 3 -43 13 -51 21 -8 8 -32 14 -53 14 -21 0 -42 5 -45 10 -3
6 -16 10 -27 10 -24 0 -188 58 -203 71 -5 5 -19 9 -31 9 -12 0 -46 11 -75 25
-30 13 -81 27 -114 31 -33 3 -85 13 -115 21 -30 8 -66 17 -80 20 -50 9 -276
65 -316 78 -22 8 -76 17 -120 20 -43 4 -99 11 -124 17 -214 47 -797 68 -1135
40 -88 -7 -180 -15 -205 -16 -77 -5 -164 -18 -185 -29 -11 -6 -33 -12 -50 -14
-53 -5 -208 -31 -280 -46 -168 -35 -299 -68 -309 -76 -7 -6 -23 -12 -36 -15
-14 -3 -38 -9 -55 -12 -16 -4 -33 -11 -36 -15 -3 -5 -27 -12 -54 -15 -27 -3
-109 -29 -184 -59 -75 -29 -147 -56 -161 -60 -14 -4 -33 -14 -42 -23 -10 -8
-18 -12 -18 -9 0 8 -106 -32 -167 -62 -23 -12 -49 -21 -57 -21 -8 0 -18 -4
-21 -10 -3 -5 -12 -10 -20 -10 -8 0 -53 -22 -101 -50 -48 -27 -93 -50 -100
-50 -7 0 -16 -5 -19 -10 -6 -10 -43 -33 -169 -105 -115 -66 -300 -187 -309
-202 -4 -7 -14 -13 -22 -13 -7 0 -15 -3 -17 -8 -1 -4 -46 -41 -98 -83 -52 -42
-108 -88 -125 -103 -16 -14 -33 -26 -37 -26 -4 0 -18 -10 -31 -22 -14 -13 -47
-41 -73 -63 -27 -21 -85 -75 -129 -119 -44 -44 -93 -91 -110 -103 -42 -33
-156 -146 -223 -222 -52 -58 -129 -144 -159 -176 -6 -7 -22 -28 -35 -46 -26
-38 -80 -111 -88 -119 -3 -3 -29 -34 -57 -70 -29 -36 -60 -74 -70 -85 -10 -11
-52 -65 -93 -120 -41 -55 -83 -108 -92 -119 -9 -10 -24 -34 -33 -52 -8 -18
-20 -36 -25 -39 -31 -19 -160 -217 -160 -245 0 -9 -6 -18 -52 -72 -10 -12 -18
-25 -18 -29 0 -4 -6 -14 -14 -21 -7 -8 -23 -32 -35 -54 -12 -21 -30 -52 -41
-69 -10 -16 -38 -64 -61 -105 -23 -41 -52 -88 -64 -105 -12 -16 -51 -85 -86
-152 -43 -83 -69 -123 -81 -123 -10 0 -18 -9 -20 -22 -2 -13 -9 -22 -16 -20
-6 1 -12 -4 -12 -10 0 -7 -13 -28 -29 -47 -16 -19 -27 -39 -25 -46 3 -6 -2
-18 -11 -25 -8 -7 -15 -23 -15 -35 0 -13 -6 -25 -14 -28 -7 -3 -16 -18 -20
-32 -9 -37 -51 -97 -61 -87 -4 4 -5 -2 -1 -13 6 -15 4 -17 -5 -8 -12 12 14 96
67 211 13 29 24 55 24 58 0 3 8 24 19 47 10 23 33 76 51 117 72 165 175 380
244 505 353 644 503 878 846 1324 273 354 660 748 1010 1026 514 409 830 618
1429 944 645 351 1347 629 2010 796 696 175 1243 245 2021 259 l75 1 3 98 3
97 27 0 c70 0 395 -32 562 -56 227 -32 344 -64 382 -103 34 -36 40 -66 13 -67
-66 -3 -39 -10 200 -48 265 -42 555 -97 620 -117 17 -5 62 -16 100 -25 152
-34 233 -53 290 -69 137 -37 249 -62 217 -49 -6 3 -10 10 -6 15 3 5 0 9 -5 9
-6 0 -11 5 -11 10 0 17 35 11 47 -8 8 -14 29 -21 78 -25 71 -7 105 3 105 29 0
13 8 15 38 12 20 -3 51 -1 69 4 26 7 42 4 81 -16 27 -14 53 -22 56 -18 4 3 4
-1 0 -11 -7 -20 2 -22 20 -4 9 9 8 15 -4 28 -9 8 -22 13 -28 11 -7 -2 -12 3
-12 11 0 9 -18 19 -45 27 -25 7 -45 19 -45 26 0 18 38 18 72 0 37 -19 70 -26
166 -30 47 -3 82 -1 82 5 0 5 7 9 15 9 10 0 15 9 14 28 -1 26 6 67 17 103 3
13 -4 18 -32 24 -20 3 -44 10 -53 15 -30 16 -106 47 -146 60 -22 7 -49 19 -60
26 -19 13 -18 14 8 14 15 0 27 5 27 11 0 9 4 8 14 0 7 -6 55 -14 107 -17 52
-3 112 -12 134 -19 22 -7 57 -16 78 -20 26 -5 41 -15 50 -34 11 -24 18 -26 75
-28 37 -1 71 -8 84 -17 12 -9 42 -16 65 -16 23 0 67 -9 96 -20 30 -11 67 -20
83 -20 16 0 48 0 72 0 25 1 42 -4 42 -11 0 -6 7 -8 16 -5 10 4 18 -1 21 -13 7
-28 60 -38 77 -15 13 17 15 17 47 -2 24 -14 50 -19 88 -18 30 1 64 -2 75 -6
12 -5 34 -11 49 -15 15 -3 25 -10 22 -15 -9 -14 16 -12 44 4 17 9 34 11 54 5
17 -5 34 -6 38 -3 5 3 9 1 9 -5 0 -20 51 -61 72 -57 34 5 33 23 -2 41 -27 14
-29 17 -15 31 19 20 74 21 86 3 6 -9 12 -10 17 -4 4 6 16 10 27 10 11 0 19 6
18 12 -4 16 40 27 73 19 23 -6 26 -4 21 13 -7 28 55 66 83 51 31 -17 60 -12
60 9 0 11 -4 22 -10 26 -14 9 -1 33 21 40 11 4 30 0 42 -8 34 -21 67 -27 67
-12 0 7 -3 15 -7 18 -5 2 -2 2 6 0 7 -2 19 1 25 6 6 5 22 9 36 10 21 0 64 5
80 10 3 1 -2 6 -10 12 -11 8 -5 9 23 4 25 -4 37 -2 37 6 0 7 10 9 25 7 21 -5
25 -1 25 19 0 18 4 24 15 19 9 -3 19 3 26 16 17 31 48 63 55 55 3 -3 20 3 36
13 17 10 37 16 44 13 20 -8 17 14 -3 27 -15 9 -12 10 13 5 27 -5 35 -2 53 23
24 35 27 52 8 52 -19 0 -50 37 -42 49 3 6 13 11 21 11 8 0 14 8 14 18 0 9 9
23 20 30 12 7 20 8 20 2 0 -11 30 -13 54 -4 9 3 16 13 16 21 0 12 -3 13 -15 3
-8 -6 -22 -10 -32 -7 -14 3 -11 7 15 18 36 15 39 25 16 50 -8 9 -16 27 -17 40
-1 13 -12 32 -24 42 -13 10 -23 25 -23 33 0 8 -6 14 -13 14 -7 0 -23 9 -35 20
-12 11 -26 20 -32 20 -6 0 -6 8 2 21 10 16 10 23 1 26 -6 2 -21 13 -33 23 -12
11 -31 22 -41 25 -11 4 -19 11 -19 16 0 5 -8 12 -17 16 -10 3 -41 24 -70 45
-31 23 -57 37 -64 32 -7 -4 -9 -3 -6 2 5 9 -135 110 -176 126 -10 4 -33 19
-51 33 -18 14 -37 25 -42 25 -13 0 -138 81 -142 92 -2 4 -10 8 -17 8 -22 0
-85 32 -80 41 3 4 -5 9 -18 13 -21 5 -93 43 -199 104 -21 12 -55 31 -75 43
-43 24 -50 29 -39 29 4 0 85 -40 179 -89z m-2478 -627 c24 -24 13 -39 -26 -36
-41 5 -60 18 -52 38 7 19 58 18 78 -2z m4253 -71 c184 -132 303 -221 400 -302
184 -154 206 -171 295 -238 48 -36 87 -66 87 -67 0 -1 -9 -2 -19 -3 -11 -1
-21 6 -24 18 -3 10 -12 19 -21 19 -16 0 -36 14 -167 115 -29 22 -60 45 -70 50
-9 6 -43 33 -74 60 -32 28 -65 54 -74 59 -9 5 -23 16 -32 25 -9 9 -40 34 -69
56 -112 85 -206 160 -222 178 -9 10 -18 17 -20 16 -5 -4 -87 55 -88 64 0 15
20 5 98 -50z m-2550 -81 c2 -7 -2 -10 -12 -6 -9 3 -16 11 -16 16 0 13 23 5 28
-10z m1812 -42 c0 -5 -7 -10 -15 -10 -8 0 -15 5 -15 10 0 6 7 10 15 10 8 0 15
-4 15 -10z m-1570 -100 c0 -5 -4 -10 -10 -10 -5 0 -10 5 -10 10 0 6 5 10 10
10 6 0 10 -4 10 -10z m-362 -79 c3 -8 -1 -12 -9 -9 -7 2 -15 10 -17 17 -3 8 1
12 9 9 7 -2 15 -10 17 -17z m-12241 -48 c4 -10 -2 -23 -17 -35 -28 -23 -34
-18 -25 21 7 33 32 42 42 14z m12201 5 c18 -18 14 -28 -11 -28 -23 0 -47 17
-47 32 0 12 45 9 58 -4z m4436 -34 c19 -7 56 -69 56 -93 0 -10 7 -24 15 -31 9
-7 14 -19 11 -27 -3 -7 -1 -13 4 -13 6 0 10 -21 10 -47 0 -27 7 -57 15 -67 20
-26 20 -129 1 -145 -8 -7 -17 -30 -21 -52 -4 -24 -14 -43 -27 -50 -12 -6 -17
-17 -14 -26 4 -9 -1 -17 -14 -20 -11 -3 -20 -10 -20 -16 0 -6 -3 -8 -6 -4 -3
3 -37 -5 -74 -19 -79 -28 -97 -29 -136 -9 -16 8 -38 15 -49 15 -11 0 -31 7
-43 16 -12 8 -47 22 -79 30 -56 15 -123 64 -123 92 0 6 -4 12 -9 12 -5 0 -12
11 -15 25 -4 14 -11 25 -16 25 -6 0 -10 15 -10 33 0 18 -9 50 -20 72 -11 22
-20 47 -20 56 0 9 -9 28 -20 42 -23 29 -26 47 -7 48 30 2 50 9 65 23 17 14 58
33 76 34 5 0 12 4 15 9 11 16 75 49 121 62 25 7 54 17 65 21 23 9 247 12 269
4z m-4282 -92 c-27 -4 -37 2 -27 17 4 8 13 7 28 -1 l22 -13 -23 -3z m318 -72
c0 -23 -35 -28 -43 -6 -7 18 1 26 25 26 11 0 18 -7 18 -20z m-2065 -45 c0 -22
-31 -33 -47 -17 -17 17 -1 44 24 40 15 -2 23 -10 23 -23z m2195 0 c10 -12 9
-15 -8 -15 -11 0 -22 7 -26 15 -3 9 0 15 8 15 7 0 19 -7 26 -15z m-405 -35 c3
-5 1 -10 -4 -10 -6 0 -11 5 -11 10 0 6 2 10 4 10 3 0 8 -4 11 -10z m3320 -10
c3 -5 -1 -10 -9 -10 -9 0 -16 5 -16 10 0 6 4 10 9 10 6 0 13 -4 16 -10z
m-4585 -206 c0 -2 -7 -4 -15 -4 -8 0 -15 4 -15 10 0 5 7 7 15 4 8 -4 15 -8 15
-10z m-9002 -274 c22 -14 30 -24 25 -34 -21 -36 -62 -72 -93 -84 -45 -17 -119
-22 -117 -8 1 6 -7 10 -19 8 -12 -1 -27 5 -35 14 -12 15 -7 23 44 70 55 51 61
54 110 54 34 0 63 -7 85 -20z m-1631 -905 c11 -8 21 -25 21 -40 0 -30 -10 -25
-37 20 -22 38 -18 44 16 20z m-3437 -662 c54 -37 62 -64 28 -100 -25 -27 -60
-30 -82 -7 -9 8 -16 16 -16 17 0 1 -4 17 -9 35 -8 27 -7 36 10 53 23 23 37 24
69 2z m11610 -473 c0 -5 -5 -10 -11 -10 -5 0 -7 5 -4 10 3 6 8 10 11 10 2 0 4
-4 4 -10z m2640 -126 c0 -2 -9 -4 -21 -4 -11 0 -18 4 -14 10 5 8 35 3 35 -6z
m5660 -246 c0 -5 -9 -3 -20 4 -11 7 -20 16 -20 20 0 5 9 3 20 -4 11 -7 20 -16
20 -20z m-10322 -170 c18 -18 14 -38 -7 -38 -20 0 -35 25 -25 41 7 12 18 11
32 -3z m-5058 -154 c0 -8 -4 -14 -10 -14 -5 0 -10 9 -10 21 0 11 5 17 10 14 6
-3 10 -13 10 -21z m15317 -71 c24 -26 40 -49 37 -52 -5 -6 -93 80 -94 92 0 17
17 4 57 -40z m92 -99 c3 -16 1 -17 -13 -5 -19 16 -21 34 -3 29 6 -3 14 -13 16
-24z m-14668 -361 c-191 -193 -272 -280 -337 -368 -21 -27 -56 -75 -79 -105
-23 -30 -56 -77 -74 -103 -18 -27 -35 -46 -38 -44 -12 12 178 274 303 417 120
138 381 390 405 390 4 0 -77 -84 -180 -187z m8546 31 c-3 -3 -12 -4 -19 -1 -8
3 -5 6 6 6 11 1 17 -2 13 -5z m95 -36 c132 -67 346 -205 418 -268 43 -39 24
-30 -55 25 -111 78 -329 211 -387 235 -32 14 -58 28 -58 33 0 13 18 7 82 -25z
m588 -382 c36 -24 79 -57 96 -73 16 -15 48 -40 70 -55 21 -14 55 -40 74 -58
22 -20 6 -12 -45 23 -125 84 -300 217 -304 230 -2 6 7 4 20 -6 13 -9 53 -37
89 -61z m5775 -476 c7 -23 -2 -43 -16 -35 -12 8 -12 55 0 55 5 0 12 -9 16 -20z
m-4820 -215 c35 -26 79 -107 72 -135 -3 -10 -8 -5 -16 15 -16 38 -43 67 -106
115 -27 21 -66 52 -85 69 l-35 31 68 -34 c38 -19 84 -46 102 -61z m5288 -57
c9 -35 47 -198 57 -243 24 -109 27 -124 20 -120 -8 5 -42 119 -39 132 1 4 -3
20 -9 35 -6 15 -18 62 -26 105 -8 43 -18 86 -21 96 -4 9 -3 17 3 17 5 0 12
-10 15 -22z m-16867 -344 c-3 -8 -11 -14 -18 -14 -9 0 -9 3 0 12 7 7 13 21 13
33 1 17 2 18 6 2 3 -10 2 -25 -1 -33z m-20 -56 c-25 -61 -26 -63 -21 -29 4 29
20 61 31 61 2 0 -3 -15 -10 -32z m16971 0 c-3 -8 -6 -5 -6 6 -1 11 2 17 5 13
3 -3 4 -12 1 -19z m-8643 -8 c20 -8 20 -9 1 -9 -11 0 -47 7 -80 15 l-60 14 59
-6 c33 -3 69 -10 80 -14z m8755 -40 c1 -13 0 -13 -9 0 -5 8 -9 24 -9 35 l0 20
9 -20 c5 -11 9 -27 9 -35z m-8618 6 c24 -8 36 -14 27 -15 -21 -1 -129 26 -137
35 -8 9 54 -3 110 -20z m8657 -156 c-3 -22 -5 -20 -15 15 -7 22 -14 54 -18 70
-4 24 -1 21 15 -15 12 -24 19 -56 18 -70z m-7412 51 c22 -15 63 -57 90 -92 28
-35 104 -116 170 -179 234 -226 281 -276 319 -335 21 -33 46 -69 56 -80 20
-24 151 -263 210 -385 20 -41 20 -44 2 -28 -10 10 -41 60 -68 112 -70 133 -75
143 -120 211 -109 166 -208 279 -375 431 -72 65 -156 152 -187 193 -31 41 -78
96 -104 122 -27 27 -49 51 -49 54 0 11 19 3 56 -24z m-10055 -111 c24 -13 25
-30 2 -30 -26 0 -47 16 -39 29 9 14 12 14 37 1z m17508 -100 c0 -22 -1 -23 -8
-5 -5 11 -11 38 -14 60 l-6 40 14 -35 c7 -19 14 -46 14 -60z m-6874 -139 c-7
-6 -65 50 -65 63 0 5 16 -5 35 -24 19 -18 32 -36 30 -39z m6914 -1 c0 -8 -6 0
-14 19 -8 18 -15 38 -14 45 1 15 28 -46 28 -64z m-7835 49 c-2 -4 11 -12 29
-19 17 -8 44 -26 60 -42 33 -35 36 -49 5 -22 -13 11 -47 35 -75 53 -29 18 -53
34 -53 35 0 1 9 2 19 2 11 0 18 -3 15 -7z m956 -81 c0 -6 -6 -5 -15 2 -8 7
-15 14 -15 16 0 2 7 1 15 -2 8 -4 15 -11 15 -16z m5764 -73 c3 -8 1 -15 -4
-15 -6 0 -10 7 -10 15 0 8 2 15 4 15 2 0 6 -7 10 -15z m1143 -27 c-3 -7 -5 -2
-5 12 0 14 2 19 5 13 2 -7 2 -19 0 -25z m-6712 -128 c3 -5 1 -10 -4 -10 -6 0
-11 5 -11 10 0 6 2 10 4 10 3 0 8 -4 11 -10z m5495 -40 c0 -11 -2 -20 -4 -20
-2 0 -6 9 -9 20 -3 11 -1 20 4 20 5 0 9 -9 9 -20z m-16544 -32 c4 -5 2 -14 -4
-20 -9 -9 -42 15 -42 32 0 11 38 1 46 -12z m16569 -8 c3 -5 1 -10 -4 -10 -6 0
-11 5 -11 10 0 6 2 10 4 10 3 0 8 -4 11 -10z m-4260 -34 c-22 -13 -43 -22 -47
-19 -14 8 2 22 35 32 52 15 54 12 12 -13z m-1052 -196 c3 -11 2 -20 -3 -20 -8
0 -20 24 -20 41 0 17 17 1 23 -21z m24 -92 c-3 -7 -5 -2 -5 12 0 14 2 19 5 13
2 -7 2 -19 0 -25z m1293 -72 c0 -3 -4 -8 -10 -11 -5 -3 -10 -1 -10 4 0 6 5 11
10 11 6 0 10 -2 10 -4z m-39 -40 c-32 -38 -191 -78 -228 -57 -14 8 -6 10 37
11 69 0 118 13 161 44 36 24 49 26 30 2z m4319 -47 c4 -40 0 -45 -15 -19 -8
14 -14 35 -15 48 0 20 2 21 14 9 8 -7 15 -25 16 -38z m20 -82 c0 -18 -2 -19
-10 -7 -13 20 -13 43 0 35 6 -3 10 -16 10 -28z m-20339 -370 c-13 -13 -15 1
-4 30 7 17 8 17 11 -1 2 -10 -1 -23 -7 -29z m15567 -177 c33 -20 43 -50 17
-50 -8 0 -15 4 -15 8 0 5 -6 17 -14 27 -13 18 -15 18 -40 -10 l-26 -28 0 30
c0 49 23 56 78 23z m-16108 -50 c0 -11 -4 -20 -10 -20 -5 0 -10 9 -10 20 0 11
5 20 10 20 6 0 10 -9 10 -20z m16089 -36 c8 -7 -12 -24 -30 -24 -13 0 -19 7
-19 21 0 16 4 19 23 13 12 -3 24 -8 26 -10z m5988 -96 c-3 -8 -6 -5 -6 6 -1
11 2 17 5 13 3 -3 4 -12 1 -19z m10 -80 c-3 -7 -5 -2 -5 12 0 14 2 19 5 13 2
-7 2 -19 0 -25z m-9753 5 c3 -4 14 -8 23 -9 10 -2 26 -7 38 -13 11 -5 36 -14
55 -21 48 -15 132 -67 152 -95 13 -17 -2 -11 -65 26 -45 27 -86 49 -90 49 -5
0 -23 6 -40 14 -18 8 -61 24 -97 35 -64 20 -64 20 -24 20 22 1 44 -2 48 -6z
m9763 -55 c-3 -8 -6 -5 -6 6 -1 11 2 17 5 13 3 -3 4 -12 1 -19z m-20699 -74
c-2 -38 -7 -69 -13 -69 -11 0 -19 119 -10 143 13 34 26 -8 23 -74z m15682 82
c0 -3 -4 -8 -10 -11 -5 -3 -10 -1 -10 4 0 6 5 11 10 11 6 0 10 -2 10 -4z m-44
-21 c-11 -8 -25 -15 -30 -15 -6 0 -2 7 8 15 11 8 25 15 30 15 6 0 2 -7 -8 -15z
m5091 -157 c-3 -7 -5 -2 -5 12 0 14 2 19 5 13 2 -7 2 -19 0 -25z m-9723 -68
c66 -32 100 -57 150 -110 69 -73 121 -152 113 -172 -2 -7 -15 10 -30 37 -58
115 -181 214 -330 267 -77 27 -79 28 -35 25 29 -3 80 -21 132 -47z m7286 -10
c0 -5 -5 -10 -11 -10 -5 0 -7 5 -4 10 3 6 8 10 11 10 2 0 4 -4 4 -10z m1724
-73 c13 -36 0 -46 -26 -20 -13 13 -18 28 -14 38 8 23 29 14 40 -18z m-7694
-17 c0 -5 -2 -10 -4 -10 -3 0 -8 5 -11 10 -3 6 -1 10 4 10 6 0 11 -4 11 -10z
m9057 -52 c0 -51 0 -51 -6 -13 -6 35 -4 65 3 65 2 0 3 -24 3 -52z m-979 -38
l0 -35 -8 30 c-4 17 -8 41 -8 55 -1 23 0 23 8 5 5 -11 8 -36 8 -55z m979 -42
c-3 -8 -6 -5 -6 6 -1 11 2 17 5 13 3 -3 4 -12 1 -19z m-10012 -18 c9 -16 12
-30 7 -30 -8 0 -32 42 -32 55 0 13 11 2 25 -25z m9061 -87 c7 -54 13 -120 13
-148 -1 -50 -9 -3 -34 200 -13 99 6 54 21 -52z m-2241 -281 c0 -185 -3 -404
-7 -487 -12 -267 -19 -388 -28 -475 -22 -223 -41 -380 -50 -435 -5 -33 -15
-100 -20 -150 -6 -49 -13 -97 -16 -107 -3 -9 -13 -65 -24 -125 -11 -59 -29
-148 -40 -198 -12 -49 -27 -119 -35 -155 -8 -36 -26 -110 -40 -165 -14 -55
-30 -118 -36 -140 -5 -22 -18 -65 -28 -95 -11 -30 -32 -95 -46 -145 -30 -100
-87 -266 -115 -335 -10 -25 -30 -79 -45 -120 -96 -269 -386 -890 -523 -1120
-28 -47 -67 -114 -87 -149 -69 -122 -276 -422 -414 -601 -361 -467 -1080
-1122 -1636 -1491 -103 -68 -264 -169 -271 -169 -3 0 -30 -16 -60 -35 -30 -19
-57 -35 -59 -35 -3 0 -22 -11 -43 -24 -81 -53 -559 -297 -722 -370 -473 -210
-1081 -402 -1554 -491 -429 -80 -889 -125 -1278 -125 -86 0 -110 -3 -123 -17
-10 -10 -19 -12 -23 -6 -4 6 -116 13 -285 17 -281 6 -546 24 -744 51 -316 41
-826 138 -1008 190 -146 43 -398 106 -436 111 -24 3 -46 9 -49 13 -10 15 -75
31 -142 33 -38 2 -68 6 -68 9 0 10 -60 1 -75 -11 -24 -20 -18 -36 31 -78 40
-34 46 -44 47 -82 2 -34 6 -44 21 -46 10 -1 22 -6 25 -11 3 -5 31 -24 61 -43
30 -19 64 -43 74 -52 11 -10 23 -18 28 -18 4 0 8 -8 8 -18 0 -10 5 -23 12 -30
9 -9 8 -12 -7 -12 -17 0 -17 -1 0 -20 10 -11 25 -20 34 -20 9 0 27 -9 41 -20
14 -11 28 -20 32 -20 12 0 77 -73 83 -93 8 -21 25 -23 25 -2 0 26 15 17 29
-18 8 -17 14 -36 15 -42 1 -5 12 -10 26 -11 59 -1 99 -31 104 -79 1 -11 78
-52 151 -79 28 -11 52 -22 55 -26 9 -13 67 -39 74 -33 3 4 6 1 6 -5 0 -7 12
-12 28 -13 l27 -1 -25 -7 c-14 -4 -32 -4 -40 0 -8 4 -49 17 -90 30 -41 13 -86
29 -100 36 -14 7 -31 13 -38 13 -8 0 -28 6 -45 14 -18 7 -59 24 -92 36 -33 12
-82 30 -110 40 -27 10 -122 44 -210 75 -401 144 -1022 398 -1235 505 -96 48
-495 260 -560 297 -190 109 -301 179 -616 389 -60 41 -113 74 -117 74 -3 0 -4
-7 -1 -15 4 -9 0 -15 -9 -15 -8 0 -18 7 -21 16 -4 9 -9 14 -13 11 -3 -3 -21 0
-40 8 -47 20 -81 -1 -79 -47 1 -29 8 -35 71 -66 39 -19 72 -38 75 -42 3 -4 19
-15 37 -24 17 -9 38 -24 45 -33 7 -10 27 -25 43 -33 17 -9 31 -25 33 -38 2
-15 10 -22 27 -22 25 0 41 -25 21 -33 -7 -3 -24 -3 -39 0 -27 5 -37 -9 -16
-22 17 -11 28 -49 17 -62 -6 -7 -19 -13 -29 -13 -13 0 -19 -7 -19 -21 0 -12 4
-18 11 -13 17 10 30 -18 16 -35 -9 -11 -9 -15 1 -19 7 -2 19 -10 26 -18 8 -8
19 -14 25 -14 6 0 11 -7 11 -15 0 -16 -35 -21 -45 -5 -11 17 -48 -6 -50 -31
-1 -13 -5 -41 -10 -61 -5 -26 -4 -38 4 -38 6 0 11 -11 11 -25 0 -17 -6 -25
-17 -25 -29 0 51 -67 89 -75 18 -4 45 -16 60 -26 14 -11 31 -19 37 -19 6 0 36
-12 68 -26 105 -47 322 -134 416 -166 130 -44 169 -70 156 -103 -4 -11 -8 -14
-8 -7 -1 7 -5 10 -11 7 -5 -3 -21 2 -35 11 -32 21 -40 13 -27 -24 6 -17 6 -35
1 -44 -6 -11 -4 -21 5 -31 8 -8 12 -17 9 -21 -4 -3 0 -6 9 -6 8 0 23 -9 33
-20 10 -11 27 -20 38 -20 24 0 77 -37 77 -54 0 -6 18 -30 40 -51 42 -41 52
-62 22 -50 -9 4 -24 7 -32 6 -8 -1 -27 -1 -43 -1 -15 0 -27 -5 -27 -11 0 -6
-7 -9 -15 -6 -8 4 -17 2 -20 -3 -4 -6 2 -10 11 -10 14 0 15 -3 6 -12 -9 -9
-15 -9 -24 0 -14 14 -88 16 -88 2 0 -5 -18 -10 -39 -10 -22 0 -52 -5 -66 -10
-22 -9 -25 -13 -15 -25 10 -12 7 -16 -15 -25 -34 -13 -44 -13 -25 1 11 8 9 9
-10 3 -14 -4 -28 -11 -32 -17 -7 -11 -123 -2 -163 13 -28 10 -114 -2 -124 -18
-9 -14 -96 11 -183 52 -40 18 -114 50 -165 70 -50 19 -107 44 -127 55 -20 11
-42 18 -50 15 -16 -6 -61 14 -52 24 7 7 -60 31 -89 33 l-20 0 20 9 c15 7 11 8
-17 7 -21 -1 -38 -5 -38 -8 0 -15 -75 -6 -87 10 -9 12 -12 12 -13 2 0 -7 -6
-11 -15 -7 -12 4 -15 -4 -15 -39 0 -33 -4 -45 -15 -45 -8 0 -15 -9 -15 -20 0
-11 -7 -20 -15 -20 -8 0 -25 -6 -38 -12 -12 -7 -23 -14 -25 -14 -1 -1 -5 -12
-7 -24 -5 -27 -4 -26 -35 -35 -23 -6 -23 -5 5 14 17 12 25 21 18 21 -6 0 -20
3 -30 6 -15 5 -15 4 -3 -5 27 -19 -18 -26 -53 -7 -269 138 -755 451 -1007 646
-157 122 -198 155 -327 259 -70 58 -186 152 -258 209 -162 132 -255 213 -369
322 -49 47 -100 95 -114 108 -13 13 -26 21 -28 19 -9 -8 59 -90 171 -206 63
-66 115 -122 115 -125 0 -21 -36 3 -91 61 -132 137 -279 283 -424 422 -179
170 -385 393 -608 659 -140 167 -426 575 -599 857 -217 352 -399 703 -334 643
7 -7 12 -16 9 -20 -2 -5 0 -8 6 -8 6 0 31 -30 56 -67 41 -62 45 -65 38 -33 -8
42 -40 117 -53 125 -6 3 -10 18 -10 33 0 15 -7 36 -15 46 -8 11 -15 25 -15 30
0 7 3 6 8 -1 4 -6 20 -15 35 -18 l28 -7 -15 38 c-19 48 -42 142 -51 209 -6 40
-9 46 -16 30 -6 -14 -7 -6 -3 22 3 26 -1 60 -12 95 -19 58 -118 305 -141 353
-8 17 -30 71 -49 120 -20 50 -44 112 -55 139 -13 34 -16 53 -9 60 7 7 10 3 10
-12 0 -12 5 -22 10 -22 6 0 10 -8 10 -17 0 -15 35 -91 87 -188 6 -11 22 -45
37 -75 37 -78 84 -162 96 -174 16 -16 12 29 -6 72 -21 51 -84 241 -84 255 0 6
8 0 17 -13 9 -14 20 -27 24 -30 4 -3 26 -43 48 -89 22 -46 42 -86 45 -88 6 -6
-5 88 -14 122 -5 17 -26 82 -48 145 -21 63 -49 149 -62 190 -13 41 -27 84 -31
95 -12 31 -39 144 -39 166 0 31 27 22 33 -11 4 -19 13 -30 23 -30 12 0 15 6
10 26 -11 42 -9 281 2 301 9 16 11 14 17 -12 4 -17 16 -60 26 -96 10 -36 19
-81 19 -100 l0 -33 17 24 c10 13 18 38 18 55 3 75 5 85 20 85 8 0 15 -5 15
-10 0 -6 31 -73 69 -149 38 -76 72 -149 76 -162 5 -13 21 -52 36 -86 16 -33
29 -66 29 -71 0 -5 7 -15 15 -22 18 -15 18 -9 4 45 -25 99 -39 185 -39 250 0
39 -4 86 -9 105 -5 19 -12 71 -15 115 -5 80 -5 80 9 36 7 -24 17 -74 20 -110
13 -136 27 -228 44 -291 21 -73 99 -262 112 -271 5 -3 22 -35 38 -72 15 -37
30 -64 34 -61 3 4 9 -5 13 -20 3 -14 10 -26 15 -26 10 0 13 20 10 66 -1 20 3
33 12 37 11 4 13 17 9 54 -3 26 -8 50 -12 53 -3 3 -14 30 -23 60 -8 30 -33
102 -54 160 -22 58 -45 125 -52 150 -7 25 -18 55 -23 67 -6 11 -8 27 -5 35 3
7 6 3 6 -9 1 -13 6 -23 11 -23 6 0 10 -9 10 -20 0 -11 4 -20 9 -20 5 0 12 -12
16 -27 3 -15 11 -30 16 -34 5 -3 11 -15 14 -27 5 -28 24 -62 25 -44 0 18 20 4
20 -14 0 -8 -4 -13 -8 -10 -4 2 7 -25 25 -61 18 -36 33 -71 33 -78 0 -7 7 -19
17 -26 17 -15 18 -18 -3 67 -6 23 -4 24 20 18 16 -4 26 -2 26 5 0 14 37 15 45
1 9 -15 45 -12 45 4 0 7 -7 19 -15 26 -19 16 -10 30 21 30 21 0 23 3 14 19
-16 30 -12 36 8 13 14 -16 33 -22 71 -24 48 -3 53 -5 58 -30 5 -26 23 -40 23
-18 0 6 6 10 14 10 8 0 18 9 21 20 8 26 32 26 40 0 3 -11 15 -20 25 -20 11 0
24 -9 30 -20 9 -16 8 -20 -5 -20 -9 0 -15 -6 -12 -12 2 -7 14 -12 26 -11 13 2
21 -3 21 -12 0 -8 5 -15 10 -15 6 0 10 -7 10 -15 0 -8 9 -15 20 -15 11 0 20 6
20 14 0 23 29 27 42 6 7 -11 23 -20 35 -20 14 0 23 -6 23 -15 0 -8 7 -15 15
-15 32 0 92 -41 108 -75 9 -19 23 -35 31 -35 8 0 18 -10 22 -23 10 -32 71
-104 94 -110 10 -3 27 1 37 9 26 19 32 17 26 -8 l-5 -23 21 24 21 23 -22 42
c-13 22 -26 43 -30 44 -5 2 -8 17 -8 33 0 19 -5 29 -15 29 -17 0 -37 43 -30
62 3 7 -5 29 -17 48 -22 35 -31 80 -16 80 9 0 78 -141 78 -159 0 -6 5 -11 10
-11 6 0 10 -13 10 -30 0 -16 5 -30 10 -30 6 0 16 -12 23 -27 19 -46 104 -172
110 -166 4 3 11 -15 18 -41 11 -44 29 -63 29 -30 0 8 4 13 9 9 6 -3 7 6 2 22
-4 16 -6 34 -4 41 3 6 0 12 -6 12 -6 0 -11 6 -11 13 0 6 11 12 25 12 14 0 23
-4 21 -10 -1 -5 5 -21 15 -34 11 -13 19 -31 19 -40 0 -19 27 -61 39 -61 11 0
9 50 -2 68 -5 6 -4 12 0 12 5 0 14 -9 21 -20 21 -34 29 -22 22 33 -7 44 -24
96 -59 167 -4 8 -8 35 -8 60 -1 25 1 37 3 28 3 -10 9 -18 14 -18 10 0 51 -69
51 -85 0 -12 39 -28 48 -20 3 3 0 9 -6 13 -16 10 -97 171 -89 179 3 3 11 -8
17 -25 6 -18 14 -32 19 -32 16 0 18 43 3 83 -31 87 -42 141 -30 149 9 6 9 8 0
8 -7 0 -15 24 -19 60 -4 41 -11 60 -20 60 -8 0 -14 7 -14 15 0 8 5 15 10 15 6
0 10 -4 10 -9 0 -5 8 -8 17 -7 11 0 25 -13 35 -34 10 -19 21 -33 25 -30 5 3 9
-7 11 -22 2 -16 10 -29 18 -29 8 -1 19 -2 25 -3 6 0 17 -10 25 -20 8 -11 15
-16 15 -10 1 5 2 14 3 19 1 11 9 15 27 15 6 0 9 -6 6 -14 -4 -9 0 -12 13 -9
17 5 18 34 0 58 -4 6 -11 26 -15 45 -4 19 -13 49 -20 65 -102 242 -280 854
-355 1220 -96 465 -139 749 -125 821 5 31 9 34 19 23 13 -15 37 -87 42 -129 4
-31 29 -140 38 -160 3 -8 19 -78 36 -155 50 -237 69 -316 105 -420 18 -55 43
-136 54 -180 12 -44 41 -136 65 -205 24 -69 68 -195 98 -280 35 -100 94 -235
167 -380 134 -267 161 -317 213 -385 10 -12 22 -33 28 -46 6 -13 18 -36 28
-50 9 -15 31 -48 47 -73 17 -26 52 -79 80 -119 55 -79 131 -209 140 -238 4
-11 10 -19 15 -19 5 0 11 -8 15 -19 3 -10 24 -36 46 -57 22 -22 53 -51 68 -66
16 -16 31 -28 34 -28 13 0 119 -113 163 -172 24 -34 53 -69 63 -77 9 -9 26
-31 37 -50 23 -43 111 -139 133 -146 9 -3 27 -21 41 -40 14 -19 39 -40 55 -46
17 -7 48 -24 70 -39 22 -14 48 -29 57 -33 10 -3 18 -13 18 -20 0 -16 26 -41
44 -43 23 -2 56 -17 56 -24 0 -10 46 -19 57 -11 4 3 15 19 23 35 8 16 20 30
26 33 7 2 -11 48 -47 121 -32 64 -56 118 -53 121 5 6 14 -6 104 -134 38 -56
79 -111 90 -123 11 -11 20 -25 20 -29 0 -4 13 -21 28 -38 15 -16 62 -70 104
-120 131 -154 318 -325 357 -325 5 0 11 -7 15 -15 6 -17 36 -21 36 -4 0 6 -14
24 -30 41 -17 17 -28 33 -25 36 3 4 9 2 13 -3 4 -6 20 -16 35 -23 30 -13 110
-72 115 -84 2 -5 10 -8 17 -8 7 0 15 -3 17 -7 4 -10 137 -117 160 -129 9 -5
35 -27 59 -49 23 -21 85 -68 138 -103 52 -35 100 -71 108 -80 7 -9 13 -14 13
-10 0 5 10 -1 23 -11 12 -10 35 -30 51 -43 44 -37 10 -43 -42 -7 -24 16 -47
29 -52 29 -6 0 -10 4 -10 9 0 5 -21 20 -46 33 -25 12 -57 29 -72 37 -15 7 -37
23 -50 34 -12 11 -22 15 -22 9 0 -7 3 -12 8 -12 4 0 21 -13 38 -28 72 -63 85
-72 93 -72 5 0 11 -4 13 -9 4 -10 226 -161 237 -161 4 0 16 -9 26 -20 10 -11
36 -23 57 -26 21 -4 38 -10 38 -15 0 -5 6 -9 14 -9 8 0 27 -11 43 -23 31 -26
93 -51 93 -38 0 5 -14 19 -30 32 -77 60 -103 89 -86 95 14 6 105 -53 162 -106
12 -11 27 -20 33 -20 6 0 11 -5 11 -11 0 -6 7 -9 15 -5 8 3 15 1 15 -4 0 -6 7
-10 16 -10 8 0 41 -12 72 -26 31 -14 70 -32 87 -39 31 -14 41 -13 31 3 -8 13
-144 82 -161 82 -7 0 -22 11 -33 25 -11 14 -24 25 -28 25 -4 0 -56 29 -114 63
-58 35 -145 88 -195 117 -177 104 -537 349 -575 390 -3 3 -32 27 -65 52 -157
119 -472 428 -525 514 -8 13 -18 24 -22 24 -5 0 -8 7 -8 15 0 8 -3 15 -8 15
-4 0 -18 18 -32 40 -14 22 -28 40 -32 40 -5 0 -8 7 -8 17 0 17 60 -41 108
-107 45 -61 251 -258 407 -391 22 -19 42 -37 45 -40 33 -38 417 -329 434 -329
4 0 34 -18 66 -40 32 -22 62 -40 65 -40 3 0 18 -8 33 -19 142 -97 345 -206
363 -196 4 3 16 -3 26 -15 10 -11 23 -20 30 -20 7 0 13 -4 13 -10 0 -13 33
-13 46 0 17 17 80 -8 120 -49 24 -26 54 -44 83 -52 25 -7 57 -20 71 -29 35
-23 97 -48 153 -61 26 -6 47 -15 47 -19 0 -4 23 -20 52 -35 61 -33 50 -46 -13
-16 -41 20 -129 29 -129 14 0 -5 17 -16 38 -25 48 -23 99 -64 90 -73 -11 -11
-197 44 -255 76 -34 18 -55 24 -59 17 -4 -5 0 -14 7 -19 22 -14 -18 -11 -81 6
-30 8 -59 15 -65 14 -14 0 86 -49 100 -49 21 0 161 -69 176 -86 12 -15 12 -16
-6 -11 -30 9 -258 57 -272 57 -7 0 -13 -9 -13 -20 0 -11 -5 -20 -11 -20 -15 0
65 -87 116 -125 22 -17 67 -48 100 -68 79 -49 75 -47 190 -114 l100 -58 -38
-3 c-20 -2 -37 -7 -37 -11 0 -8 62 -40 120 -61 19 -7 49 -23 65 -35 30 -22
211 -125 219 -125 2 0 28 -16 57 -35 30 -19 69 -40 89 -46 19 -6 46 -18 60
-25 27 -14 173 -75 305 -126 44 -17 98 -38 120 -48 22 -10 126 -45 230 -79
105 -34 210 -68 235 -77 25 -8 72 -22 105 -31 33 -8 64 -19 70 -24 5 -5 17 -9
27 -9 10 0 18 -5 18 -10 0 -6 6 -10 13 -9 26 3 47 -1 47 -11 0 -6 -12 -10 -27
-10 -16 0 -37 0 -48 0 -46 -1 -94 7 -155 26 -65 21 -160 22 -160 3 0 -5 5 -9
11 -9 6 0 18 -8 27 -18 16 -18 121 -55 139 -50 4 1 22 -5 38 -14 49 -25 135
-50 155 -45 11 3 24 -1 31 -9 6 -7 33 -17 60 -20 27 -4 49 -9 49 -13 0 -18
165 -54 410 -89 30 -5 69 -15 86 -24 30 -16 56 -21 174 -34 30 -3 78 -12 105
-19 51 -14 143 -39 205 -55 19 -5 55 -11 80 -14 25 -3 59 -9 75 -15 70 -23
479 -44 532 -27 34 11 39 54 48 384 4 130 8 243 10 249 3 7 5 75 6 151 1 143
6 169 32 159 13 -5 14 -12 4 -42 -18 -59 16 -961 37 -983 2 -2 18 4 35 12 26
14 84 16 428 16 366 -1 571 9 728 35 17 2 70 9 119 15 105 11 209 34 286 61
30 11 73 23 95 26 21 3 57 12 80 20 22 8 63 18 90 23 151 25 336 70 374 91 9
4 59 22 111 39 52 17 104 35 115 40 11 5 48 17 83 27 34 9 62 21 62 25 0 4 5
8 11 8 5 0 34 11 62 24 29 12 93 40 142 61 127 53 178 75 195 85 27 16 118 58
142 65 12 4 25 11 28 14 5 7 34 23 105 57 17 8 37 19 45 24 8 5 40 21 70 35
30 14 62 31 70 36 8 5 66 34 128 65 62 30 134 70 160 87 26 18 72 45 102 60
30 16 73 43 95 61 22 18 65 47 95 65 30 19 57 36 60 40 3 4 18 12 34 19 17 7
46 26 67 43 20 16 42 29 48 29 6 0 11 4 11 10 0 5 26 27 58 48 31 22 69 50 83
63 14 13 54 46 90 73 78 61 246 203 315 268 27 26 77 69 110 94 95 74 401 379
550 549 43 50 94 106 112 125 19 19 55 62 80 95 47 61 153 196 162 205 3 3 10
12 15 22 6 9 32 47 59 84 27 38 65 96 86 129 20 33 71 114 113 181 82 132 111
184 256 469 92 180 156 313 199 415 11 25 28 65 39 90 12 25 24 56 28 70 4 14
20 50 35 80 15 30 33 73 40 95 17 56 48 123 60 130 5 3 10 18 10 32 0 14 20
90 44 167 25 78 58 184 75 237 90 287 206 839 255 1214 78 596 96 854 96 1394
0 269 3 342 12 333 9 -9 12 -100 13 -350z m-6810 298 c3 -5 1 -10 -4 -10 -6 0
-11 5 -11 10 0 6 2 10 4 10 3 0 8 -4 11 -10z m-1108 -92 c-2 -18 -4 -6 -4 27
0 33 2 48 4 33 2 -15 2 -42 0 -60z m-9427 -14 c-11 -4 -14 -16 -12 -54 4 -57
23 -66 46 -22 l15 27 1 -33 c0 -38 -15 -47 -53 -33 -25 10 -27 15 -27 66 0 51
2 55 23 54 12 -1 15 -3 7 -5z m20547 -411 c-1 -71 -3 -13 -3 127 0 140 2 198
3 128 2 -71 2 -185 0 -255z m-1323 161 c4 -11 1 -14 -11 -12 -9 2 -18 9 -21
16 -6 18 25 15 32 -4z m19 -121 c4 -19 2 -33 -3 -33 -6 0 -10 17 -10 37 0 43
5 41 13 -4z m7 -103 c0 -5 -4 -10 -10 -10 -5 0 -10 5 -10 10 0 6 5 10 10 10 6
0 10 -4 10 -10z m-4847 -157 c-7 -2 -19 -2 -25 0 -7 3 -2 5 12 5 14 0 19 -2
13 -5z m4807 -9 c0 -8 -4 -12 -10 -9 -5 3 -10 10 -10 16 0 5 5 9 10 9 6 0 10
-7 10 -16z m-20000 -93 c0 -6 -4 -13 -10 -16 -5 -3 -10 1 -10 9 0 9 5 16 10
16 6 0 10 -4 10 -9z m2640 -177 c0 -21 4 -33 10 -29 6 3 10 -1 10 -10 0 -9 -4
-14 -9 -11 -5 4 -12 0 -14 -6 -3 -7 -6 3 -6 22 -1 19 -4 46 -8 59 -4 17 -3 22
5 17 7 -4 12 -23 12 -42z m9640 -54 c18 -18 23 -19 35 -6 15 14 51 11 61 -5 6
-11 -59 -80 -79 -83 -9 -1 -30 -21 -47 -44 -28 -38 -50 -54 -50 -34 0 4 -9 8
-21 9 -11 1 -27 7 -35 14 -21 17 -43 100 -32 122 10 20 58 23 76 5 9 -9 13 -7
18 5 3 9 12 17 20 17 8 0 14 5 14 10 0 16 19 11 40 -10z m2585 -110 c-28 -12
-95 -12 -95 0 0 6 25 10 58 9 41 0 51 -3 37 -9z m-14129 -122 c10 -13 15 -20
10 -16 -5 4 -17 3 -27 -3 -16 -8 -19 -6 -19 16 0 31 11 32 36 3z m31 -70 c-3
-8 -6 -5 -6 6 -1 11 2 17 5 13 3 -3 4 -12 1 -19z m594 -1 c-1 -4 -1 -14 -1
-23 0 -8 -4 -12 -10 -9 -13 8 -13 48 1 43 6 -2 10 -7 10 -11z m-655 -44 c-4
-4 -11 -1 -16 7 -16 25 -11 35 7 17 9 -9 13 -20 9 -24z m14267 -154 c-15 -15
-323 -26 -323 -11 0 8 44 12 138 15 75 1 150 4 167 5 21 1 26 -1 18 -9z
m-7473 -73 c21 5 23 4 8 -6 -19 -12 -24 -55 -9 -65 5 -3 13 -20 16 -38 4 -17
23 -59 43 -92 64 -108 114 -189 167 -270 29 -44 64 -98 78 -120 42 -65 114
-155 180 -226 34 -36 89 -98 122 -137 33 -39 65 -72 72 -72 7 0 17 -9 23 -20
6 -11 17 -20 25 -20 8 0 15 -4 15 -10 0 -5 7 -10 16 -10 10 0 4 12 -19 38 -20
20 -50 53 -67 72 -37 40 -210 266 -210 275 0 20 43 -18 217 -192 203 -203 253
-258 253 -277 0 -6 -5 -4 -10 4 -9 13 -10 13 -10 0 0 -36 197 -204 331 -282
50 -29 223 -188 214 -196 -3 -3 -13 2 -22 10 -10 9 -50 31 -89 51 -82 41 -113
58 -134 73 -8 7 -32 22 -54 34 -49 27 -120 85 -217 179 -76 73 -109 99 -109
85 0 -4 31 -39 68 -78 38 -39 104 -109 148 -155 67 -71 146 -139 289 -250 l30
-24 -30 7 c-28 6 -29 5 -11 -9 11 -8 27 -13 36 -10 13 4 166 -87 235 -140 11
-9 34 -25 50 -35 17 -11 24 -20 16 -20 -19 0 -255 126 -271 145 -7 8 -18 15
-24 15 -6 0 -29 14 -50 30 -22 17 -45 30 -52 30 -7 0 -39 24 -71 53 -32 29
-74 66 -93 81 -45 37 -304 280 -346 326 -18 19 -49 53 -68 75 -19 22 -38 37
-42 33 -4 -4 -1 -14 6 -23 7 -8 9 -15 5 -15 -12 0 -66 62 -60 69 3 2 12 -4 20
-15 13 -17 14 -17 15 -2 0 9 -8 23 -19 30 -10 7 -35 36 -56 63 -21 28 -41 52
-44 55 -36 30 -136 178 -233 345 -28 50 -66 113 -84 140 -65 104 -208 384
-245 479 l-18 49 22 -21 c15 -15 31 -20 47 -16z m7105 -130 c-4 -20 -12 -36
-17 -36 -6 0 -7 7 -4 16 3 9 9 27 12 40 10 38 16 21 9 -20z m-831 -12 c18 -17
21 -44 6 -44 -5 0 -10 6 -10 14 0 8 -7 16 -15 20 -16 6 -21 26 -6 26 5 0 17
-7 25 -16z m-11926 -57 c4 -29 -12 -37 -22 -11 -10 26 -7 46 7 42 6 -3 13 -17
15 -31z m6542 -22 c0 -27 38 -80 113 -160 31 -33 57 -63 57 -67 0 -13 72 -88
83 -88 6 0 41 -30 77 -68 134 -139 333 -307 434 -367 28 -17 70 -42 95 -57 25
-15 84 -49 131 -75 46 -25 80 -48 73 -50 -6 -2 -33 9 -59 25 -27 15 -82 45
-122 66 -41 20 -92 48 -113 62 -21 13 -64 38 -95 55 -67 36 -124 78 -204 151
-74 67 -101 88 -116 88 -17 0 -146 129 -170 168 -17 30 -43 47 -28 20 3 -7 -5
1 -19 17 -36 42 -73 110 -56 101 10 -6 10 -4 -1 6 -18 16 -32 40 -82 138 -43
85 -47 101 -18 75 11 -10 20 -28 20 -40z m5336 34 c10 -11 26 -18 36 -16 19 5
22 -4 12 -40 -8 -29 -42 -30 -78 -2 -37 29 -34 73 5 78 3 1 14 -8 25 -20z
m-5414 -6 c8 -10 26 -38 40 -63 15 -25 38 -56 52 -69 14 -14 26 -29 26 -35 0
-6 -5 -5 -12 2 -22 22 -29 12 -10 -15 10 -16 29 -46 42 -68 l24 -40 -22 15
c-13 8 -22 18 -20 21 2 3 -9 20 -24 38 -16 18 -28 36 -28 41 0 5 -16 29 -35
54 -62 82 -85 136 -56 136 4 0 15 -8 23 -17z m-1915 -29 c-3 -3 -12 -4 -19 -1
-8 3 -5 6 6 6 11 1 17 -2 13 -5z m8171 -31 c-10 -2 -26 -2 -35 0 -10 3 -2 5
17 5 19 0 27 -2 18 -5z m270 0 c-43 -2 -113 -2 -155 0 -43 1 -8 3 77 3 85 0
120 -2 78 -3z m-8428 -33 c0 -5 -2 -10 -4 -10 -3 0 -8 5 -11 10 -3 6 -1 10 4
10 6 0 11 -4 11 -10z m24 -90 c5 -23 4 -30 -2 -20 -5 8 -12 33 -16 55 -7 48 8
19 18 -35z m8216 -70 c-28 -39 -40 -46 -40 -21 0 16 28 40 58 50 2 1 -6 -12
-18 -29z m-30 -62 c0 -2 -10 -34 -21 -73 l-20 -70 6 63 c5 67 10 82 26 82 5 0
9 -1 9 -2z m-12682 -71 c2 -19 -1 -27 -12 -27 -11 0 -16 10 -16 31 0 38 24 35
28 -4z m6144 -114 c172 -180 288 -295 398 -393 52 -47 97 -87 100 -91 3 -3 39
-32 80 -65 101 -80 125 -102 118 -109 -10 -10 -46 12 -163 102 -265 203 -284
221 -555 537 -70 82 -116 146 -105 146 3 0 60 -57 127 -127z m11888 -113 c0
-5 -2 -10 -4 -10 -3 0 -8 5 -11 10 -3 6 -1 10 4 10 6 0 11 -4 11 -10z m-12265
-417 c55 -57 105 -103 111 -103 10 0 93 -63 232 -176 41 -35 55 -64 29 -64
-21 0 -82 48 -179 140 -49 45 -88 77 -88 71 0 -24 53 -94 123 -162 39 -39 71
-74 70 -79 -3 -10 111 -110 125 -110 6 0 32 -17 59 -38 27 -22 58 -44 71 -51
12 -6 22 -18 22 -26 0 -26 -62 -5 -105 36 -23 22 -45 39 -49 39 -5 0 -43 33
-85 74 -128 124 -204 190 -261 229 -61 40 -124 97 -117 104 8 7 59 -23 94 -55
21 -19 36 -26 45 -21 13 8 -35 63 -156 178 -73 68 -224 271 -225 301 -1 8 41
-31 91 -85 51 -55 138 -146 193 -202z m6265 170 c-15 -27 -70 -88 -70 -80 0 8
71 97 77 97 2 0 -1 -8 -7 -17z m-12623 -95 c-3 -7 -5 -2 -5 12 0 14 2 19 5 13
2 -7 2 -19 0 -25z m10 -50 c-3 -8 -6 -5 -6 6 -1 11 2 17 5 13 3 -3 4 -12 1
-19z m6838 2 c3 -5 1 -10 -4 -10 -6 0 -11 5 -11 10 0 6 2 10 4 10 3 0 8 -4 11
-10z m1485 -40 c0 -5 -2 -10 -4 -10 -3 0 -8 5 -11 10 -3 6 -1 10 4 10 6 0 11
-4 11 -10z m-3470 -109 c21 -18 29 -30 20 -30 -17 0 -35 13 -70 53 -21 24 -21
27 -5 18 11 -7 36 -25 55 -41z m-5247 -56 c4 -39 3 -51 -2 -35 -9 25 -15 107
-7 99 2 -2 6 -31 9 -64z m7925 -82 c26 -14 67 -43 92 -63 48 -39 123 -81 234
-130 38 -17 76 -39 83 -48 8 -9 12 -11 8 -4 -9 17 -2 15 25 -8 32 -27 10 -26
-76 5 -38 14 -78 25 -88 25 -26 0 -135 52 -136 65 -1 13 -63 60 -127 96 -29
16 -53 36 -53 43 0 8 -7 16 -15 20 -17 6 -20 26 -4 26 6 0 31 -12 57 -27z
m-6674 -2 c9 -14 -4 -41 -19 -41 -21 0 -28 19 -15 35 14 17 26 19 34 6z m-80
-44 c19 -14 13 -42 -11 -51 -22 -9 -33 2 -33 35 0 31 15 37 44 16z m6063 -73
c44 -42 54 -67 18 -47 -24 14 -105 94 -105 105 0 15 38 -10 87 -58z m8469 11
c8 -7 27 -16 44 -20 16 -4 32 -11 35 -16 4 -5 16 -9 28 -9 15 0 18 -3 10 -11
-7 -7 -28 -1 -70 20 -33 17 -64 31 -69 31 -5 0 -18 8 -29 17 -19 15 -19 15 9
9 15 -4 35 -13 42 -21z m-4056 -19 c0 -2 -7 -7 -16 -10 -8 -3 -12 -2 -9 4 6
10 25 14 25 6z m-10066 -48 c3 -13 6 -32 6 -42 0 -30 -18 -7 -25 32 -6 36 9
44 19 10z m14324 -18 c18 -7 31 -14 28 -17 -6 -6 -88 18 -101 29 -12 11 26 4
73 -12z m-14064 -16 c3 -8 2 -12 -4 -9 -6 3 -10 10 -10 16 0 14 7 11 14 -7z
m10276 1 c-7 -8 -18 -15 -24 -15 -6 0 -2 7 8 15 25 19 32 19 16 0z m-4784 -63
c-4 -3 -14 2 -24 12 -16 18 -16 18 6 6 13 -6 21 -14 18 -18z m724 8 c0 -5 -4
-10 -9 -10 -6 0 -13 5 -16 10 -3 6 1 10 9 10 9 0 16 -4 16 -10z m-643 -27 c-8
-7 -37 9 -31 19 3 5 12 4 20 -3 8 -6 13 -14 11 -16z m-7500 -35 c-3 -8 -6 -5
-6 6 -1 11 2 17 5 13 3 -3 4 -12 1 -19z m1993 -28 c0 -5 -2 -10 -4 -10 -3 0
-8 5 -11 10 -3 6 -1 10 4 10 6 0 11 -4 11 -10z m5370 -50 c0 -18 -19 -11 -30
11 -11 19 -10 20 9 9 12 -6 21 -15 21 -20z m-5350 0 c0 -5 -4 -10 -10 -10 -5
0 -10 5 -10 10 0 6 5 10 10 10 6 0 10 -4 10 -10z m4930 -15 c14 -8 21 -14 15
-14 -5 0 -21 6 -35 14 -14 8 -20 14 -15 14 6 0 21 -6 35 -14z m-5305 -18 c0
-26 -20 -25 -23 2 -3 16 1 22 10 19 7 -3 13 -12 13 -21z m2502 -58 c1 -12 24
-45 51 -73 53 -54 151 -174 217 -266 55 -76 177 -233 191 -245 7 -5 32 -37 56
-71 24 -33 61 -83 83 -110 93 -117 161 -201 186 -229 15 -16 50 -56 78 -88 28
-31 51 -61 51 -65 0 -28 445 -446 635 -597 28 -21 52 -42 55 -45 3 -3 30 -25
60 -50 30 -25 72 -60 93 -79 20 -19 52 -43 70 -54 17 -10 41 -27 52 -38 20
-19 81 -70 149 -124 21 -16 43 -35 50 -41 22 -20 232 -160 286 -191 95 -53
172 -93 182 -93 14 0 182 -101 186 -111 2 -5 10 -9 18 -9 9 0 13 5 9 13 -4 6
-1 5 7 -3 7 -8 22 -24 33 -34 l20 -20 -20 8 c-11 4 -28 9 -37 11 -9 2 -39 13
-65 25 -26 12 -58 22 -70 22 -13 0 -28 7 -34 14 -6 8 -19 14 -28 14 -10 0 -28
11 -41 24 -17 19 -29 24 -51 19 -22 -4 -29 -2 -29 10 0 8 -21 28 -47 43 -130
75 -578 399 -718 518 -57 49 -250 224 -345 314 -25 24 -97 85 -161 137 -194
158 -233 200 -511 555 -15 19 -49 64 -75 100 -26 36 -49 67 -53 70 -12 11
-240 311 -315 415 -43 61 -111 148 -150 195 -104 124 -119 146 -111 166 6 15
8 15 24 1 10 -9 18 -26 19 -38z m3028 31 c16 -7 13 -9 -15 -9 -19 0 -44 4 -55
9 -16 7 -13 9 15 9 19 0 44 -4 55 -9z m1188 -18 c42 -19 63 -42 37 -42 -5 0
-10 5 -10 10 0 6 -5 10 -11 10 -5 0 -27 12 -47 26 -40 28 -39 28 31 -4z
m-8192 -12 c5 0 9 -15 9 -32 l-1 -33 -14 25 c-8 14 -14 36 -13 50 0 17 2 19 5
8 2 -10 9 -18 14 -18z m7174 -3 c6 -7 3 -8 -8 -3 -11 3 -30 9 -43 12 -13 3
-21 10 -19 15 6 9 52 -8 70 -24z m900 9 c19 -8 35 -19 35 -25 0 -13 -73 12
-78 27 -5 15 1 15 43 -2z m-795 -7 c0 -4 12 -10 28 -12 15 -2 -2 -2 -38 0 -76
6 -102 20 -35 20 25 0 45 -4 45 -8z m1082 -58 c11 -11 7 -12 -22 -6 -19 4 -37
11 -38 16 -2 5 -7 7 -12 4 -4 -3 -13 1 -19 9 -9 11 -3 11 34 1 25 -6 51 -17
57 -24z m-142 -21 c0 -5 -9 -6 -20 -3 -11 3 -20 9 -20 13 0 5 9 6 20 3 11 -3
20 -9 20 -13z m190 -1 c0 -5 -7 -9 -15 -9 -15 0 -20 12 -9 23 8 8 24 -1 24
-14z m-403 5 c-3 -3 -12 -4 -19 -1 -8 3 -5 6 6 6 11 1 17 -2 13 -5z m467 -19
c3 -8 1 -15 -3 -15 -5 0 -11 7 -15 15 -3 8 -1 15 3 15 5 0 11 -7 15 -15z m79
-6 c21 -5 37 -16 37 -24 0 -21 -20 -18 -21 3 0 10 -3 12 -6 5 -7 -19 -26 -16
-46 7 -19 23 -16 24 36 9z m-6735 -19 c14 -23 10 -25 -19 -9 -11 5 -17 14 -14
20 9 14 19 11 33 -11z m11593 -7 c-8 -15 -10 -15 -11 -2 0 17 10 32 18 25 2
-3 -1 -13 -7 -23z m-6106 7 c3 -5 1 -10 -4 -10 -6 0 -11 5 -11 10 0 6 2 10 4
10 3 0 8 -4 11 -10z m1110 -20 c-3 -5 -13 -10 -21 -10 -8 0 -14 5 -14 10 0 6
9 10 21 10 11 0 17 -4 14 -10z m310 0 c3 -5 2 -10 -4 -10 -5 0 -13 5 -16 10
-3 6 -2 10 4 10 5 0 13 -4 16 -10z m-3005 -31 c0 -6 -4 -7 -10 -4 -5 3 -10 11
-10 16 0 6 5 7 10 4 6 -3 10 -11 10 -16z m1233 1 c3 -11 1 -20 -4 -20 -5 0 -9
9 -9 20 0 11 2 20 4 20 2 0 6 -9 9 -20z m2060 -15 c-6 -17 -25 -15 -31 3 -2 7
5 12 17 12 14 0 19 -5 14 -15z m-7093 -5 c0 -5 -2 -10 -4 -10 -3 0 -8 5 -11
10 -3 6 -1 10 4 10 6 0 11 -4 11 -10z m27 -12 c-3 -8 -6 -5 -6 6 -1 11 2 17 5
13 3 -3 4 -12 1 -19z m7146 15 c-7 -2 -13 -12 -13 -21 0 -15 -2 -15 -10 -2
-15 23 -12 30 13 29 12 0 16 -3 10 -6z m5397 -73 c0 -5 -4 -10 -9 -10 -6 0
-13 5 -16 10 -3 6 1 10 9 10 9 0 16 -4 16 -10z m-8715 -18 c-3 -3 -11 0 -18 7
-9 10 -8 11 6 5 10 -3 15 -9 12 -12z m3302 -4 c-3 -8 -6 -5 -6 6 -1 11 2 17 5
13 3 -3 4 -12 1 -19z m5484 11 c45 -14 42 -29 -5 -29 -33 0 -62 20 -49 33 8 9
9 9 54 -4z m-8751 -41 c0 -13 -23 -5 -28 10 -2 7 2 10 12 6 9 -3 16 -11 16
-16z m135 -86 c61 -48 129 -104 152 -125 23 -21 55 -49 73 -62 17 -13 48 -40
69 -62 35 -35 93 -90 276 -264 134 -126 270 -220 467 -322 143 -74 221 -106
298 -122 36 -7 90 -20 120 -29 30 -9 93 -25 140 -36 47 -11 92 -23 100 -27 8
-3 22 -7 31 -9 8 -2 55 -13 105 -24 49 -12 117 -24 152 -27 57 -5 82 -16 69
-30 -17 -16 -308 49 -612 137 -84 25 -102 29 -180 40 -33 4 -89 19 -125 33
-66 25 -251 119 -319 161 -58 36 -61 38 -61 29 0 -9 95 -73 168 -112 24 -14
51 -35 59 -48 27 -40 23 -39 -102 25 -22 11 -56 27 -75 36 -19 8 -48 24 -64
35 -17 11 -33 18 -36 16 -3 -2 -19 8 -36 22 -16 13 -40 31 -54 38 -62 32 -142
93 -220 168 -47 45 -129 119 -182 165 -108 92 -203 192 -247 259 -32 49 -107
133 -118 133 -10 0 -53 51 -53 62 0 5 8 8 18 6 9 -2 16 -10 14 -17 -1 -7 2
-10 7 -7 5 4 29 -9 53 -27 59 -44 99 -69 104 -65 2 2 -24 30 -56 63 -56 54
-71 75 -52 75 4 0 57 -40 117 -88z m-976 -2 c33 -45 59 -70 71 -70 11 0 20 -7
20 -15 0 -8 4 -15 8 -15 5 0 21 -17 36 -37 24 -35 25 -39 9 -50 -9 -7 -13 -16
-9 -20 4 -4 11 -2 15 5 6 10 11 10 21 -3 7 -8 10 -18 6 -22 -3 -3 -6 -1 -6 5
0 7 -4 12 -10 12 -20 0 -10 -28 22 -61 27 -29 30 -31 26 -11 -9 35 7 26 70
-38 32 -33 61 -60 65 -60 11 0 115 -69 122 -81 4 -6 14 -8 22 -5 8 3 12 2 9
-2 -7 -12 29 -31 43 -23 9 6 -8 26 -51 65 -35 31 -57 56 -50 56 6 0 12 -4 12
-10 0 -5 7 -10 15 -10 9 0 18 -6 21 -14 3 -8 11 -13 18 -10 7 3 19 -2 26 -11
7 -8 18 -15 25 -15 8 0 15 -4 17 -8 8 -20 156 -107 183 -108 29 -1 65 -12 75
-23 7 -8 32 -24 118 -72 39 -22 72 -45 72 -50 0 -5 7 -9 15 -9 8 0 15 -5 15
-11 0 -5 5 -7 10 -4 6 3 10 1 10 -5 0 -6 12 -16 28 -22 19 -8 22 -12 11 -15
-8 -2 -55 17 -105 42 -49 24 -93 45 -97 45 -5 0 -28 14 -52 30 -47 33 -81 41
-49 13 92 -83 105 -92 119 -86 18 6 46 -12 135 -87 30 -25 75 -59 100 -76 49
-32 63 -42 87 -63 13 -13 13 -16 1 -20 -10 -4 6 -23 53 -61 37 -30 66 -60 64
-67 -5 -15 27 -43 49 -43 9 0 15 -4 12 -9 -4 -5 2 -7 13 -4 13 3 39 -13 82
-49 67 -57 92 -93 43 -62 -16 10 -31 21 -34 24 -3 3 -23 20 -46 37 -30 24 -44
29 -52 21 -8 -8 -21 -3 -49 17 -21 16 -40 32 -43 35 -7 8 -71 45 -92 53 -34
12 -18 -8 30 -38 69 -43 136 -95 146 -113 5 -9 12 -30 16 -47 4 -23 12 -31 33
-33 15 -2 25 -7 22 -12 -3 -4 6 -15 20 -24 26 -17 34 -9 13 12 -25 25 4 10 67
-35 37 -27 84 -60 106 -74 22 -14 36 -29 32 -33 -4 -4 0 -4 8 -1 10 4 26 -6
45 -27 29 -34 154 -118 174 -118 6 0 26 -11 44 -25 22 -17 40 -23 51 -18 12 4
16 3 11 -5 -6 -10 51 -62 70 -62 12 0 165 -89 181 -106 7 -7 13 -17 13 -23 0
-6 7 -11 15 -11 7 0 18 -6 22 -14 16 -30 147 -112 171 -108 6 2 12 -1 12 -6 0
-4 24 -16 53 -26 28 -10 61 -22 72 -27 40 -17 80 -32 100 -36 11 -2 22 -8 23
-13 2 -6 8 -8 13 -4 5 3 9 1 9 -4 0 -5 20 -13 45 -16 29 -5 45 -12 45 -22 0
-15 -12 -19 -24 -6 -4 4 -11 7 -15 7 -4 0 -25 8 -46 17 -39 16 -176 60 -205
64 -8 2 -23 7 -35 12 -11 6 -38 18 -60 27 -22 10 -44 24 -48 32 -5 7 -12 11
-16 8 -5 -2 -14 2 -21 10 -7 8 -19 15 -27 15 -7 0 -16 7 -19 15 -4 8 -11 15
-17 15 -6 0 -25 15 -43 33 -70 69 -90 81 -79 46 7 -21 7 -21 -34 2 -22 12 -44
19 -48 14 -5 -4 -2 -10 6 -13 7 -2 22 -13 33 -24 11 -11 34 -26 52 -33 17 -7
43 -24 56 -38 14 -13 33 -27 43 -30 10 -4 15 -11 12 -17 -8 -13 -35 -13 -35 0
0 6 -3 9 -7 8 -12 -3 -113 32 -153 53 -44 24 -54 24 -47 -1 5 -21 -7 -28 -18
-10 -4 6 -11 8 -16 4 -5 -3 -17 0 -25 7 -12 9 -17 10 -23 1 -8 -14 -61 11 -75
35 -7 13 -10 13 -17 2 -8 -12 -11 -12 -19 1 -5 8 -10 11 -10 6 0 -4 -16 4 -35
18 -19 15 -35 24 -35 21 0 -4 -17 4 -37 16 -20 13 -33 17 -29 11 11 -17 -4
-15 -26 5 -10 9 -21 13 -24 10 -4 -3 6 -17 22 -30 l28 -24 -27 0 c-16 0 -24 4
-20 10 4 6 1 7 -6 2 -7 -4 -22 1 -34 12 -35 32 -51 39 -44 20 9 -24 -8 -21
-25 5 -11 16 -26 22 -57 24 -24 1 -51 10 -62 20 -10 9 -21 15 -24 12 -3 -3 11
-18 32 -34 21 -15 40 -32 41 -36 2 -4 14 -8 26 -8 12 0 39 -16 59 -35 44 -41
48 -54 10 -27 -16 11 -39 23 -53 27 -25 7 -25 7 4 -24 17 -17 35 -31 42 -31
19 0 26 -17 10 -23 -8 -3 -22 2 -32 11 -11 9 -46 35 -79 56 -33 22 -78 58
-100 80 -51 52 -80 75 -111 86 -21 9 -23 12 -12 30 11 16 9 22 -8 38 -38 36
-57 42 -79 25 -18 -14 -18 -15 -2 -9 23 7 49 -17 41 -38 -3 -9 -10 -16 -14
-16 -4 0 -38 29 -76 65 -38 36 -70 65 -72 65 -2 0 -17 14 -35 31 -18 17 -41
35 -52 40 -41 20 -66 37 -98 65 -67 62 -146 115 -247 167 -164 85 -184 96
-195 111 -6 7 -30 23 -55 36 -25 12 -62 38 -82 58 -21 20 -38 31 -38 25 0 -6
7 -16 15 -23 20 -16 19 -30 -1 -30 -38 0 -127 68 -255 192 -139 137 -219 229
-219 254 0 8 -4 14 -10 14 -5 0 -10 7 -10 16 0 8 -4 12 -10 9 -5 -3 -10 -2
-10 3 0 4 -16 27 -36 50 -20 23 -33 48 -31 55 3 7 6 4 6 -6 1 -10 5 -16 10
-12 5 3 12 1 16 -5 3 -5 15 -10 27 -10 14 0 18 -5 14 -16 -4 -12 -2 -15 9 -10
8 3 15 1 15 -5 0 -6 4 -8 9 -4 6 3 15 -4 21 -15 6 -11 16 -18 22 -14 5 4 14 0
19 -7 7 -11 9 -9 9 6 0 18 3 17 25 -9 29 -34 30 -37 10 -30 -8 4 -15 1 -15 -4
0 -18 20 -25 34 -12 11 8 23 6 50 -10 20 -11 39 -20 42 -20 10 0 -7 74 -21 90
-13 16 -30 60 -22 60 3 0 21 -7 41 -15 25 -11 52 -13 92 -9 54 7 56 8 51 34
-7 31 -131 220 -174 265 -16 17 -62 74 -102 128 -41 53 -77 100 -82 103 -5 3
-9 19 -9 35 0 29 0 29 30 14 40 -20 53 -19 47 5 -10 40 20 19 72 -50z m-204 0
c3 -5 2 -10 -4 -10 -5 0 -13 5 -16 10 -3 6 -2 10 4 10 5 0 13 -4 16 -10z
m-5359 -56 c8 -41 -3 -78 -16 -54 -4 8 -11 34 -15 58 -6 36 -4 41 9 36 8 -3
18 -21 22 -40z m-79 4 c-2 -7 0 -21 5 -30 5 -10 6 -18 4 -18 -10 0 -27 41 -21
50 9 14 17 12 12 -2z m7163 -28 c0 -5 -4 -10 -9 -10 -6 0 -13 5 -16 10 -3 6 1
10 9 10 9 0 16 -4 16 -10z m-850 -84 c69 -75 93 -107 86 -114 -8 -7 -58 47
-112 122 -41 56 -29 52 26 -8z m13156 -63 c-8 -15 -15 -25 -16 -21 0 12 23 58
27 54 3 -2 -2 -17 -11 -33z m-12857 -173 c4 0 26 -17 47 -37 22 -21 49 -43 59
-49 12 -7 16 -15 11 -20 -5 -5 -11 -4 -13 4 -3 6 -9 12 -15 12 -29 0 -185 133
-207 177 -22 43 -10 37 49 -24 33 -35 64 -63 69 -63z m30 86 c9 -7 70 -50 137
-94 66 -44 145 -103 175 -132 139 -132 187 -170 215 -170 10 0 46 -21 79 -46
33 -25 74 -52 92 -60 17 -9 39 -24 49 -35 9 -10 29 -19 43 -19 14 0 39 -11 55
-25 35 -30 260 -143 361 -181 39 -15 102 -42 142 -60 40 -19 79 -34 87 -34 8
0 17 -4 21 -9 3 -5 20 -13 38 -16 54 -12 150 -47 194 -72 24 -13 46 -24 50
-25 5 0 13 -2 18 -3 52 -14 118 -24 125 -20 5 3 11 1 15 -5 3 -5 21 -10 39
-10 19 0 39 -7 46 -15 15 -19 13 -19 -85 0 -97 19 -229 54 -354 95 -148 49
-458 177 -561 232 -52 27 -126 66 -165 86 -38 20 -134 75 -212 124 -78 48
-146 88 -151 88 -6 0 -54 41 -109 91 -54 50 -114 102 -133 115 -19 13 -46 31
-60 41 -59 40 -160 126 -174 148 -18 28 -4 35 23 11z m-5842 -18 c-3 -8 -6 -5
-6 6 -1 11 2 17 5 13 3 -3 4 -12 1 -19z m6518 -78 c3 -5 2 -10 -4 -10 -5 0
-13 5 -16 10 -3 6 -2 10 4 10 5 0 13 -4 16 -10z m35 -25 c11 -13 10 -14 -4 -9
-9 3 -16 10 -16 15 0 13 6 11 20 -6z m-6559 -72 c13 -16 12 -17 -3 -4 -10 7
-18 15 -18 17 0 8 8 3 21 -13z m5719 -23 c0 -5 -2 -10 -4 -10 -3 0 -8 5 -11
10 -3 6 -1 10 4 10 6 0 11 -4 11 -10z m1056 -45 c24 -18 7 -19 -26 0 -16 9
-19 14 -9 15 8 0 24 -7 35 -15z m164 -85 c44 -22 86 -40 94 -40 15 0 31 -18
24 -26 -6 -5 -167 69 -193 90 -34 26 -8 18 75 -24z m3090 -14 c0 -3 -4 -8 -10
-11 -5 -3 -10 -1 -10 4 0 6 5 11 10 11 6 0 10 -2 10 -4z m-4250 -26 c0 -5 -5
-10 -11 -10 -5 0 -7 5 -4 10 3 6 8 10 11 10 2 0 4 -4 4 -10z m6435 -50 c-3 -5
-12 -10 -18 -10 -7 0 -6 4 3 10 19 12 23 12 15 0z m-3898 -112 c-3 -8 -6 -5
-6 6 -1 11 2 17 5 13 3 -3 4 -12 1 -19z m-9417 -18 c0 -5 -2 -10 -4 -10 -3 0
-8 5 -11 10 -3 6 -1 10 4 10 6 0 11 -4 11 -10z m7990 -61 c0 -11 -27 -12 -34
-1 -2 4 4 9 15 9 10 1 19 -2 19 -8z m55 -29 c-6 -10 31 -24 43 -17 4 3 18 0
31 -7 42 -23 -1 -26 -51 -4 -47 20 -75 50 -37 41 10 -3 17 -9 14 -13z m-768
-15 l28 -26 -40 23 c-51 28 -51 28 -32 28 9 0 29 -11 44 -25z m967 -40 c40
-17 50 -41 14 -31 -13 3 -31 6 -41 6 -10 0 -16 4 -12 9 3 6 -3 14 -12 20 -29
17 8 14 51 -4z m-74 -5 c18 -12 2 -12 -25 0 -13 6 -15 9 -5 9 8 0 22 -4 30 -9z
m1358 -47 c-10 -2 -28 -2 -40 0 -13 2 -5 4 17 4 22 1 32 -1 23 -4z m421 -29
c2 -2 -25 -4 -62 -4 -36 0 -69 5 -72 10 -5 7 16 9 62 4 37 -4 70 -8 72 -10z
m179 -11 c-10 -2 -28 -2 -40 0 -13 2 -5 4 17 4 22 1 32 -1 23 -4z m85 0 c-13
-2 -33 -2 -45 0 -13 2 -3 4 22 4 25 0 35 -2 23 -4z m-785 -63 c2 -28 0 -50 -5
-50 -4 0 -10 26 -11 57 -4 70 10 63 16 -7z m2 -80 c0 -5 -2 -10 -4 -10 -3 0
-8 5 -11 10 -3 6 -1 10 4 10 6 0 11 -4 11 -10z m-403 -42 c-3 -7 -5 -2 -5 12
0 14 2 19 5 13 2 -7 2 -19 0 -25z m403 -18 c0 -22 -5 -40 -11 -40 -9 0 -9 13
1 78 0 1 2 2 5 2 3 0 5 -18 5 -40z m-1825 -15 c42 -43 44 -51 8 -29 -16 10
-38 23 -51 31 -12 8 -20 18 -17 23 10 17 23 11 60 -25z m1439 -32 c2 -17 6
-35 10 -41 4 -7 3 -12 -2 -12 -6 0 -8 -10 -5 -22 4 -17 3 -20 -6 -13 -6 6 -14
40 -17 75 -5 52 -4 63 6 53 7 -6 13 -24 14 -40z m773 5 c-3 -7 -5 -2 -5 12 0
14 2 19 5 13 2 -7 2 -19 0 -25z m-574 -8 c-5 -19 -23 -29 -23 -12 0 7 20 32
26 32 1 0 0 -9 -3 -20z m213 -160 c14 -6 45 -10 70 -10 24 0 44 -4 44 -9 0
-15 -18 -23 -25 -11 -9 14 -28 12 -22 -2 2 -7 1 -22 -4 -33 -7 -19 -8 -19 -8
3 -1 25 -28 31 -37 7 -10 -24 -22 -17 -17 9 3 13 0 27 -6 30 -10 7 -14 0 -27
-42 -2 -7 -9 -10 -14 -7 -8 5 -7 11 0 20 7 8 8 20 4 27 -9 14 -7 75 4 133 6
36 7 32 10 -33 3 -67 5 -74 28 -82z m-1782 124 c5 -14 4 -15 -9 -4 -17 14 -19
20 -6 20 5 0 12 -7 15 -16z m1586 -39 c0 -8 -9 -15 -20 -15 -20 0 -26 11 -13
23 12 13 33 7 33 -8z m-211 -62 c0 -25 -1 -26 -9 -8 -12 27 -12 35 0 35 6 0
10 -12 9 -27z m194 10 c-7 -2 -13 -9 -13 -14 0 -6 5 -7 11 -3 12 7 29 -12 29
-33 0 -7 -9 -13 -19 -13 -20 0 -34 14 -38 39 -3 21 6 31 25 30 11 0 12 -3 5
-6z m58 -27 c5 3 9 -2 9 -11 0 -23 -24 -13 -27 11 -2 10 0 13 3 6 3 -6 10 -10
15 -6z m2869 -26 c0 -5 -4 -10 -10 -10 -5 0 -10 5 -10 10 0 6 5 10 10 10 6 0
10 -4 10 -10z m-4300 -10 c8 -5 12 -12 9 -15 -8 -8 -39 5 -39 16 0 11 11 11
30 -1z m1505 0 c3 -5 1 -10 -4 -10 -6 0 -11 5 -11 10 0 6 2 10 4 10 3 0 8 -4
11 -10z m248 -7 c-7 -2 -19 -2 -25 0 -7 3 -2 5 12 5 14 0 19 -2 13 -5z m392
-12 c39 -6 73 -10 78 -11 4 0 7 -7 7 -17 0 -15 1 -15 18 0 12 11 22 13 32 7 8
-5 53 -10 100 -11 l85 -1 -69 -14 c-45 -9 -74 -10 -81 -4 -7 5 -15 6 -19 2 -4
-4 -38 -8 -74 -8 -189 -3 -302 -2 -347 5 l-50 8 59 2 c55 1 70 11 27 18 -36 5
-72 23 -66 33 7 12 198 6 300 -9z m-332 2 c-7 -2 -21 -2 -30 0 -10 3 -4 5 12
5 17 0 24 -2 18 -5z m-118 -23 c-3 -5 -12 -10 -18 -10 -7 0 -6 4 3 10 19 12
23 12 15 0z m825 -14 c0 -3 -4 -8 -10 -11 -5 -3 -10 -1 -10 4 0 6 5 11 10 11
6 0 10 -2 10 -4z m1130 -6 c0 -5 -4 -10 -10 -10 -5 0 -10 5 -10 10 0 6 5 10
10 10 6 0 10 -4 10 -10z m-240 -20 c-25 -3 -54 -3 -64 -1 -37 8 9 17 61 11
l48 -4 -45 -6z m-160 1 c0 -3 -28 -7 -62 -8 -37 -1 -53 1 -39 5 33 9 101 12
101 3z m-1825 -133 c7 -7 -2 -8 -25 -3 -19 4 -39 12 -45 17 -7 7 2 8 25 3 19
-4 40 -12 45 -17z m-3111 -9 c-4 -7 -44 0 -44 7 0 2 11 3 24 2 14 -1 23 -5 20
-9z m3242 -3 c44 -8 97 -17 119 -21 35 -6 37 -8 18 -15 -11 -5 -36 -5 -55 0
-18 5 -66 14 -105 20 -40 7 -75 16 -79 21 -7 12 10 11 102 -5z m-3138 -67 c24
-15 29 -35 10 -41 -13 -5 -78 57 -78 74 0 6 10 4 23 -4 12 -8 32 -21 45 -29z
m3563 31 c5 0 8 -11 7 -25 -1 -14 -8 -25 -15 -25 -7 0 -10 7 -7 15 4 9 0 15
-10 15 -9 0 -16 7 -16 16 0 11 5 14 16 10 9 -3 20 -6 25 -6z m-90 -13 c-1 -4
-3 -7 -6 -7 -40 0 -40 0 -25 10 16 10 32 9 31 -3z m162 -21 c5 -8 9 -8 15 0
10 15 42 13 42 -3 0 -8 -12 -13 -35 -13 -19 0 -35 5 -35 10 0 6 -7 10 -16 8
-10 -2 -19 2 -21 9 -5 14 39 5 50 -11z m105 12 c17 -17 15 -28 -7 -28 -19 0
-35 23 -24 34 9 9 18 7 31 -6z m1486 -19 c-3 -6 -11 -8 -17 -6 -7 2 -20 0 -30
-5 -12 -6 -23 -6 -31 1 -7 6 -16 8 -19 5 -8 -8 -87 -11 -87 -3 0 11 31 15 102
15 38 -1 68 3 68 7 0 5 5 5 10 2 6 -4 8 -11 4 -16z m91 11 c3 -5 1 -10 -4 -10
-6 0 -11 5 -11 10 0 6 2 10 4 10 3 0 8 -4 11 -10z m-1488 -22 c-3 -8 -6 -5 -6
6 -1 11 2 17 5 13 3 -3 4 -12 1 -19z m57 7 c3 -8 1 -15 -4 -15 -6 0 -10 7 -10
15 0 8 2 15 4 15 2 0 6 -7 10 -15z m106 -5 c0 -5 -8 -10 -17 -10 -15 0 -16 2
-3 10 19 12 20 12 20 0z m1036 2 c-3 -5 -85 -9 -183 -11 -123 -1 -173 2 -163
9 18 12 354 14 346 2z m-2018 -132 c12 0 22 -5 22 -11 0 -12 -55 -3 -80 13
-11 7 -8 8 10 4 14 -3 35 -6 48 -6z m-1953 -74 c39 -19 95 -46 126 -60 59 -27
87 -51 75 -63 -4 -4 -73 26 -154 67 -81 41 -150 74 -154 72 -5 -1 -8 3 -8 8 0
20 46 10 115 -24z m1632 -109 c4 -7 -2 -8 -18 -3 -13 4 -29 8 -36 8 -7 1 -10
4 -8 8 6 10 54 0 62 -13z m-8757 -38 c0 -20 -24 -26 -35 -9 -4 6 -4 17 -1 25
7 20 36 7 36 -16z m7411 4 c62 -30 63 -31 50 -51 -6 -11 -14 -8 -36 12 -15 14
-32 23 -37 20 -9 -6 -48 28 -48 41 0 9 12 5 71 -22z m1466 -9 c-3 -3 -12 -4
-19 -1 -8 3 -5 6 6 6 11 1 17 -2 13 -5z m-1201 -19 c10 -8 14 -15 7 -15 -19 0
-43 11 -43 21 0 13 14 11 36 -6z m1410 -16 c6 -11 -7 -11 -58 -3 -21 4 -36 10
-34 13 6 9 85 1 92 -10z m-1557 -43 c-2 -2 -13 8 -23 22 l-19 27 24 -22 c12
-12 21 -24 18 -27z m52 -33 c-12 -20 -14 -14 -5 12 4 9 9 14 11 11 3 -2 0 -13
-6 -23z m-7433 -57 c3 -13 -1 -17 -14 -14 -11 2 -20 11 -22 22 -3 13 1 17 14
14 11 -2 20 -11 22 -22z m9658 -16 c8 0 14 -4 14 -10 0 -16 -36 -11 -51 7 -12
15 -12 16 4 10 10 -4 25 -7 33 -7z m-1536 -200 c13 -9 13 -10 0 -10 -8 0 -22
5 -30 10 -13 9 -13 10 0 10 8 0 22 -5 30 -10z m70 -20 c12 -8 12 -10 -5 -10
-11 0 -27 5 -35 10 -12 8 -12 10 5 10 11 0 27 -5 35 -10z m10590 -19 c15 -28
12 -57 -6 -72 -23 -19 -98 8 -102 38 -6 45 86 74 108 34z m-10455 -11 c43 -11
91 -20 107 -20 15 0 28 -5 28 -11 0 -5 4 -8 9 -4 5 3 20 1 33 -4 88 -35 420
-96 743 -136 72 -9 153 -20 180 -26 28 -5 77 -14 110 -20 59 -9 368 -21 592
-23 61 -1 109 -4 106 -8 -6 -11 -359 -10 -552 2 -259 16 -699 80 -1011 146
-150 32 -431 104 -450 115 -27 15 22 10 105 -11z m3220 -159 c-17 -15 -287
-52 -355 -49 -63 3 -61 3 50 16 111 13 300 38 310 41 2 0 0 -3 -5 -8z m52 3
c-3 -3 -12 -4 -19 -1 -8 3 -5 6 6 6 11 1 17 -2 13 -5z m-10849 -182 c2 -7 -3
-12 -12 -12 -9 0 -16 7 -16 16 0 17 22 14 28 -4z m1215 -223 c24 -11 52 -47
43 -56 -8 -8 -54 24 -66 47 -12 23 -10 24 23 9z m-633 -578 c14 -27 13 -31
-10 -31 -16 0 -40 26 -40 44 0 15 40 4 50 -13z m6870 -110 c30 -14 56 -32 58
-38 6 -20 -52 -16 -79 6 -14 10 -41 26 -62 35 -42 17 -41 40 1 30 15 -4 52
-18 82 -33z m-1825 -31 c4 -6 23 -19 44 -30 42 -21 63 -51 30 -43 -11 3 -22 9
-25 14 -3 5 -14 9 -25 9 -23 0 -62 37 -54 50 8 13 22 13 30 0z m165 -110 c0
-11 -7 -20 -15 -20 -8 0 -15 9 -15 20 0 11 7 20 15 20 8 0 15 -9 15 -20z
m-3966 -111 c5 -5 7 -11 4 -14 -7 -8 -58 16 -58 27 0 10 40 1 54 -13z m4306 1
c0 -5 -2 -10 -4 -10 -3 0 -8 5 -11 10 -3 6 -1 10 4 10 6 0 11 -4 11 -10z
m-690 -10 c0 -5 7 -10 15 -10 8 0 15 -4 15 -10 0 -5 7 -10 15 -10 22 0 18 -14
-8 -26 -21 -9 -26 -7 -40 19 -19 33 -21 47 -7 47 6 0 10 -4 10 -10z m810 -30
c0 -5 -6 -10 -14 -10 -8 0 -18 5 -21 10 -3 6 3 10 14 10 12 0 21 -4 21 -10z
m6487 -56 c-3 -3 -12 -4 -19 -1 -8 3 -5 6 6 6 11 1 17 -2 13 -5z m-3697 -59
c16 -19 5 -35 -24 -35 -27 0 -51 24 -41 40 9 15 51 12 65 -5z m100 -29 c0 -30
-9 -37 -38 -29 -15 3 -22 13 -22 29 0 20 5 24 30 24 25 0 30 -4 30 -24z
m-2100 -166 c0 -11 -7 -20 -15 -20 -18 0 -19 12 -3 28 16 16 18 15 18 -8z
m-3053 -50 c3 -11 14 -20 24 -20 11 0 22 -7 25 -15 3 -8 14 -17 25 -20 10 -4
19 -11 19 -16 0 -5 -10 -4 -22 3 -22 12 -26 13 -45 17 -5 1 -1 6 7 11 11 8 8
9 -11 5 -21 -5 -30 -1 -43 16 -9 13 -16 20 -16 16 0 -5 -5 -5 -12 -1 -8 5 -6
10 8 15 30 12 36 10 41 -11z m3476 -94 c7 -16 -1 -26 -20 -26 -7 0 -13 9 -13
20 0 23 25 27 33 6z m-3279 -263 c8 -19 -33 -17 -56 4 -10 9 -18 22 -18 29 0
11 7 10 35 -3 19 -9 36 -22 39 -30z m-520 -33 c-14 -14 -39 14 -29 31 5 8 12
6 23 -5 11 -11 13 -19 6 -26z m126 -251 c0 -24 -23 -21 -28 4 -2 10 3 17 12
17 10 0 16 -9 16 -21z m-395 -10 c11 -17 0 -20 -21 -4 -17 13 -17 14 -2 15 9
0 20 -5 23 -11z m3455 -484 c13 -16 3 -20 -24 -9 -9 3 -13 10 -10 15 8 13 20
11 34 -6z"/>
<path d="M18960 21000 c8 -5 20 -10 25 -10 6 0 3 5 -5 10 -8 5 -19 10 -25 10
-5 0 -3 -5 5 -10z"/>
<path d="M17730 20156 c0 -2 7 -6 15 -10 8 -3 15 -1 15 4 0 6 -7 10 -15 10 -8
0 -15 -2 -15 -4z"/>
<path d="M17840 20137 c0 -9 -11 -12 -35 -9 -43 5 -46 -11 -5 -28 25 -10 32
-10 45 4 21 21 28 20 44 -5 10 -18 15 -19 21 -8 10 15 -17 52 -31 44 -4 -3
-10 -1 -14 5 -9 14 -25 12 -25 -3z"/>
<path d="M16231 20071 c-7 -5 -9 -11 -5 -14 5 -3 15 1 22 9 14 16 5 18 -17 5z"/>
<path d="M21800 17610 c0 -5 5 -10 10 -10 6 0 10 5 10 10 0 6 -4 10 -10 10 -5
0 -10 -4 -10 -10z"/>
<path d="M22106 17443 c-6 -14 -5 -15 5 -6 7 7 10 15 7 18 -3 3 -9 -2 -12 -12z"/>
<path d="M21248 17433 c6 -2 18 -2 25 0 6 3 1 5 -13 5 -14 0 -19 -2 -12 -5z"/>
<path d="M22226 17427 c3 -10 9 -15 12 -12 3 3 0 11 -7 18 -10 9 -11 8 -5 -6z"/>
<path d="M17578 16953 c7 -3 16 -2 19 1 4 3 -2 6 -13 5 -11 0 -14 -3 -6 -6z"/>
<path d="M5817 8845 c-13 -9 -15 -15 -7 -20 14 -8 34 9 29 23 -3 7 -11 6 -22
-3z"/>
<path d="M4460 8793 c0 -5 4 -14 9 -21 6 -10 10 -9 14 7 3 14 0 21 -9 21 -8 0
-14 -3 -14 -7z"/>
<path d="M4150 8688 c0 -9 5 -20 10 -23 13 -8 13 5 0 25 -8 13 -10 13 -10 -2z"/>
<path d="M4186 8607 c3 -10 9 -15 12 -12 3 3 0 11 -7 18 -10 9 -11 8 -5 -6z"/>
<path d="M5400 8431 c0 -17 27 -37 37 -27 6 6 -20 46 -29 46 -5 0 -8 -9 -8
-19z"/>
<path d="M5760 8430 c0 -5 5 -10 11 -10 5 0 7 5 4 10 -3 6 -8 10 -11 10 -2 0
-4 -4 -4 -10z"/>
<path d="M5446 8353 c-9 -10 -7 -25 3 -19 5 4 12 0 14 -6 4 -8 6 -7 6 4 1 19
-13 31 -23 21z"/>
<path d="M8550 6610 c0 -5 7 -7 15 -4 8 4 15 8 15 10 0 2 -7 4 -15 4 -8 0 -15
-4 -15 -10z"/>
<path d="M9418 6053 c7 -3 16 -2 19 1 4 3 -2 6 -13 5 -11 0 -14 -3 -6 -6z"/>
<path d="M9775 5580 c3 -5 11 -10 16 -10 6 0 7 5 4 10 -3 6 -11 10 -16 10 -6
0 -7 -4 -4 -10z"/>
<path d="M10660 4575 c0 -8 -5 -15 -11 -15 -8 0 -8 -5 1 -15 19 -23 30 -18 30
15 0 17 -4 30 -10 30 -5 0 -10 -7 -10 -15z"/>
<path d="M10740 4420 c0 -11 5 -20 10 -20 6 0 10 9 10 20 0 11 -4 20 -10 20
-5 0 -10 -9 -10 -20z"/>
<path d="M9270 3982 c0 -7 -6 -12 -14 -12 -8 0 -17 -4 -20 -9 -4 -5 3 -7 14
-4 22 6 35 21 26 30 -3 4 -6 1 -6 -5z"/>
<path d="M9260 3931 c0 -6 5 -13 10 -16 6 -3 10 1 10 9 0 9 -4 16 -10 16 -5 0
-10 -4 -10 -9z"/>
<path d="M7710 3710 c8 -5 24 -10 34 -10 26 0 18 6 -19 14 -22 5 -26 4 -15 -4z"/>
<path d="M9238 3683 c7 -3 16 -2 19 1 4 3 -2 6 -13 5 -11 0 -14 -3 -6 -6z"/>
<path d="M14865 11041 c-10 -17 12 -21 25 -6 10 12 10 15 -3 15 -9 0 -18 -4
-22 -9z"/>
<path d="M11187 10130 c21 -34 53 -72 53 -63 0 5 -14 24 -31 43 -17 19 -27 28
-22 20z"/>
<path d="M9770 8021 c0 -6 4 -13 10 -16 6 -3 7 1 4 9 -7 18 -14 21 -14 7z"/>
<path d="M10400 7476 c0 -2 8 -10 18 -17 15 -13 16 -12 3 4 -13 16 -21 21 -21
13z"/>
<path d="M8650 8181 c0 -5 7 -15 17 -22 15 -13 15 -12 4 9 -12 23 -21 28 -21
13z"/>
<path d="M8828 7933 c49 -59 62 -70 62 -51 0 7 -15 27 -33 43 -61 57 -72 60
-29 8z"/>
<path d="M9374 7605 c22 -19 42 -32 45 -29 8 8 -56 64 -72 64 -6 -1 6 -16 27
-35z"/>
<path d="M10105 6920 c3 -5 11 -10 16 -10 6 0 7 5 4 10 -3 6 -11 10 -16 10 -6
0 -7 -4 -4 -10z"/>
<path d="M9690 6790 c0 -5 5 -10 11 -10 5 0 7 5 4 10 -3 6 -8 10 -11 10 -2 0
-4 -4 -4 -10z"/>
<path d="M10290 6762 c0 -5 21 -21 48 -35 26 -15 66 -38 90 -52 23 -15 42 -24
42 -21 0 10 -162 116 -176 116 -2 0 -4 -4 -4 -8z"/>
<path d="M9818 6703 c7 -3 16 -2 19 1 4 3 -2 6 -13 5 -11 0 -14 -3 -6 -6z"/>
<path d="M9911 6598 c11 -21 36 -34 46 -24 9 8 -15 33 -37 39 -17 4 -18 2 -9
-15z"/>
<path d="M10085 6530 c3 -5 11 -10 16 -10 6 0 7 5 4 10 -3 6 -11 10 -16 10 -6
0 -7 -4 -4 -10z"/>
<path d="M10182 6458 c-15 -15 -16 -28 -2 -28 6 0 10 6 10 14 0 8 8 17 18 19
13 4 13 5 2 6 -9 0 -21 -4 -28 -11z"/>
<path d="M10770 6389 c0 -8 9 -20 20 -27 11 -7 20 -11 20 -9 0 2 -9 14 -20 27
-13 15 -20 18 -20 9z"/>
<path d="M10690 6353 c0 -25 69 -70 120 -79 18 -3 14 2 -19 21 -23 14 -46 25
-49 25 -3 0 -16 10 -29 22 -13 12 -23 17 -23 11z"/>
<path d="M11995 6640 c-3 -5 -1 -10 4 -10 6 0 11 5 11 10 0 6 -2 10 -4 10 -3
0 -8 -4 -11 -10z"/>
<path d="M12800 6569 c0 -5 5 -7 10 -4 6 3 10 8 10 11 0 2 -4 4 -10 4 -5 0
-10 -5 -10 -11z"/>
<path d="M12648 6563 c17 -2 47 -2 65 0 17 2 3 4 -33 4 -36 0 -50 -2 -32 -4z"/>
</g>
</svg>
