<?xml version="1.0" standalone="no"?>
<!DOCTYPE svg PUBLIC "-//W3C//DTD SVG 20010904//EN"
 "http://www.w3.org/TR/2001/REC-SVG-20010904/DTD/svg10.dtd">
<svg version="1.0" xmlns="http://www.w3.org/2000/svg"
 width="768.000000pt" height="768.000000pt" viewBox="0 0 768.000000 768.000000"
 preserveAspectRatio="xMidYMid meet">
<metadata>
Created by potrace 1.16, written by Peter Selinger 2001-2019
</metadata>
<g transform="translate(0.000000,768.000000) scale(0.100000,-0.100000)"
fill="#000000" stroke="none">
<path d="M3550 7580 l0 -100 29 0 c24 0 50 19 133 100 l103 100 -132 0 -133 0
0 -100z"/>
<path d="M3935 7660 c12 -12 41 -22 70 -26 63 -8 75 -18 75 -59 0 -33 -28 -77
-65 -105 -25 -19 -176 -99 -275 -146 -201 -96 -317 -162 -341 -197 -3 -5 -8
-8 -10 -6 -2 1 -14 -1 -26 -5 -23 -7 -33 -46 -13 -46 6 0 10 -7 10 -16 0 -14
-25 -27 -185 -99 -16 -7 -73 -33 -125 -58 -184 -86 -399 -165 -521 -193 -94
-21 -117 -35 -121 -76 -2 -26 -7 -33 -23 -31 -32 3 -133 41 -222 83 -105 50
-165 70 -209 70 -45 0 -162 -39 -273 -91 -47 -23 -97 -46 -111 -52 -14 -7 -27
-14 -30 -17 -10 -10 -138 -70 -149 -70 -6 0 -11 -4 -11 -9 0 -5 -9 -12 -19
-16 -18 -5 -67 -40 -119 -84 -30 -27 -37 -70 -14 -97 19 -23 54 -44 72 -44 6
0 46 33 89 73 79 74 107 91 171 101 20 4 68 22 108 41 40 19 94 37 121 41 41
5 55 2 93 -20 25 -14 52 -26 61 -26 9 0 21 -9 26 -19 14 -25 1 -35 -84 -61
-196 -61 -268 -86 -359 -121 -55 -22 -105 -44 -110 -49 -13 -13 2 -28 41 -39
26 -7 46 -2 124 33 204 91 413 149 494 135 50 -9 109 2 205 36 76 27 209 45
211 29 4 -57 43 -164 60 -164 12 0 50 -86 52 -117 2 -21 11 -32 37 -45 37 -19
80 -24 80 -10 0 5 -31 70 -70 145 -38 76 -77 162 -86 192 -16 50 -16 55 0 79
19 30 71 59 136 76 25 6 77 27 117 46 39 18 134 56 210 84 207 76 550 252 662
340 26 20 51 29 92 33 38 4 79 17 124 41 36 19 72 33 80 30 20 -8 62 -73 79
-122 9 -24 24 -55 34 -70 53 -77 145 -260 162 -321 9 -33 15 -41 34 -41 34 0
56 30 56 77 0 22 9 66 21 99 36 104 13 195 -100 402 -84 153 -120 244 -128
327 -5 55 -3 66 22 106 15 24 34 50 43 57 13 10 -13 12 -138 12 -154 0 -154 0
-135 -20z"/>
<path d="M4441 7651 c24 -16 65 -49 92 -73 l47 -43 1 -340 0 -341 -30 -74
c-30 -73 -34 -93 -13 -68 23 29 182 318 182 331 0 6 6 29 14 52 37 110 48 150
72 270 14 72 29 157 34 190 5 33 12 75 15 93 l8 32 -234 0 -233 0 45 -29z"/>
<path d="M5785 7658 c4 -13 11 -27 16 -32 5 -6 9 -19 9 -31 0 -30 19 -45 55
-45 37 0 56 14 84 60 39 65 33 70 -75 70 -94 0 -95 0 -89 -22z"/>
<path d="M6485 7549 c-81 -13 -194 -38 -224 -50 -14 -6 -43 -14 -65 -19 -23
-5 -86 -24 -141 -43 -55 -19 -153 -42 -219 -52 -89 -14 -124 -23 -143 -40 -30
-25 -26 -55 11 -74 25 -14 30 -14 501 -31 315 -11 386 -17 510 -44 39 -8 107
-15 153 -16 46 0 91 -4 100 -9 9 -5 64 -12 121 -16 58 -3 112 -10 120 -15 9
-4 41 -11 71 -15 30 -4 60 -11 65 -15 6 -5 37 -16 70 -25 33 -10 94 -28 135
-42 41 -14 87 -29 103 -33 l27 -9 0 163 0 164 -27 10 c-16 6 -46 13 -68 16
-49 7 -102 19 -180 41 -33 9 -78 21 -100 26 -22 5 -56 16 -75 23 -55 22 -140
46 -162 46 -11 0 -29 5 -40 11 -11 6 -44 15 -72 20 -28 4 -73 13 -101 18 -75
15 -302 21 -370 10z"/>
<path d="M3746 6817 c-16 -13 -38 -22 -50 -20 -37 7 -136 -48 -136 -76 0 -6
-10 -10 -22 -8 -17 1 -24 -4 -26 -20 -3 -23 -26 -31 -37 -13 -12 20 -25 9 -25
-21 0 -26 -3 -30 -19 -26 -11 3 -29 -2 -40 -10 -19 -12 -21 -12 -21 1 0 10 -6
13 -17 10 -10 -3 -7 1 7 10 22 13 23 15 7 21 -21 9 -60 -15 -83 -50 -9 -14
-24 -25 -33 -26 -11 0 -10 -3 5 -9 44 -18 36 -29 -16 -23 -42 5 -50 3 -50 -11
0 -9 7 -16 15 -16 24 0 17 -17 -10 -24 -15 -4 -34 0 -49 9 l-23 16 14 -46 c9
-25 21 -45 28 -45 7 0 26 12 43 28 33 30 129 82 151 82 8 0 11 3 8 7 -8 8 53
54 63 48 5 -3 11 2 14 10 4 13 9 13 24 4 25 -16 50 -5 62 26 5 14 16 25 25 25
8 0 15 7 15 16 0 11 5 14 16 10 9 -4 23 -1 30 5 10 8 18 8 27 1 8 -7 18 -7 27
-2 13 8 13 13 2 30 -13 21 -12 21 13 4 25 -16 29 -16 61 -1 19 10 39 17 45 17
6 0 24 9 40 21 28 19 28 21 13 45 -21 31 -60 31 -98 1z"/>
<path d="M3886 6751 c-27 -16 -53 -35 -58 -44 -5 -9 -15 -14 -22 -11 -8 3 -24
-4 -35 -15 -12 -12 -30 -21 -40 -21 -11 0 -26 -7 -35 -15 -8 -8 -21 -15 -28
-15 -8 0 -19 -5 -26 -12 -9 -9 -6 -18 15 -40 15 -15 32 -28 39 -28 16 0 25 25
17 48 -5 14 -3 15 8 5 18 -17 44 -16 59 2 7 8 23 15 36 15 15 0 24 6 24 15 0
9 10 15 26 15 23 0 25 3 20 26 -7 26 -6 26 25 20 18 -3 38 -1 45 5 19 16 18
65 -2 73 -9 3 -16 6 -17 5 -1 0 -24 -13 -51 -28z"/>
<path d="M4382 6638 c-7 -7 -12 -27 -12 -46 0 -33 0 -33 -42 -30 -37 3 -43 0
-45 -17 -2 -14 10 -29 37 -48 22 -15 45 -38 50 -51 9 -24 42 -42 59 -32 15 10
199 -43 263 -75 33 -17 97 -54 142 -83 142 -93 167 -101 351 -117 61 -5 141
-16 178 -25 93 -22 183 -16 208 15 33 40 25 57 -37 76 -54 17 -214 29 -345 26
-31 -1 -76 5 -100 14 -24 8 -52 15 -62 15 -39 0 -249 121 -310 179 -21 20 -56
64 -78 98 -33 50 -51 67 -94 88 -58 27 -142 34 -163 13z"/>
<path d="M3595 6601 c-3 -6 -16 -11 -29 -11 -12 0 -44 -14 -70 -31 l-48 -30
21 -23 c25 -26 26 -36 6 -36 -9 0 -20 11 -25 25 -5 14 -12 25 -16 25 -6 0
-159 -103 -177 -120 -4 -4 8 -19 28 -34 37 -29 57 -28 93 2 55 46 63 52 72 52
15 0 132 60 153 78 21 19 22 48 2 56 -8 3 -15 1 -15 -4 0 -6 -7 -10 -16 -10
-27 0 -10 24 24 35 18 5 31 14 29 19 -5 15 -24 19 -32 7z"/>
<path d="M4120 6554 c-37 -13 -139 -73 -160 -94 -5 -5 -39 -28 -170 -113 -47
-31 -105 -75 -130 -98 -39 -37 -42 -41 -19 -36 52 13 98 37 104 56 3 12 25 25
58 36 77 25 239 120 260 153 4 6 14 12 22 12 8 0 22 9 32 19 10 10 37 29 60
41 72 37 31 54 -57 24z"/>
<path d="M956 6498 c-25 -50 -44 -135 -72 -328 -21 -142 -24 -194 -19 -276 l7
-102 -53 -39 c-30 -22 -64 -46 -75 -54 -12 -8 -70 -54 -128 -104 -59 -49 -119
-94 -135 -101 -15 -6 -38 -26 -50 -43 -14 -19 -31 -31 -45 -31 -31 0 -96 -27
-96 -40 0 -6 -11 -10 -25 -10 -14 0 -29 -8 -35 -20 -6 -11 -22 -23 -35 -26
-24 -6 -35 -24 -15 -24 6 0 10 -7 10 -15 0 -8 -5 -15 -11 -15 -7 0 -24 -13
-39 -29 -32 -33 -100 -51 -100 -26 0 8 -9 15 -20 15 -11 0 -20 -7 -20 -15 0
-8 9 -15 20 -15 15 0 20 -7 20 -25 0 -18 -5 -25 -20 -25 -19 0 -20 -7 -20
-200 0 -119 4 -200 9 -200 6 0 16 9 24 20 8 11 16 18 19 15 2 -2 15 14 29 37
13 23 54 74 92 113 37 39 67 76 67 81 0 5 21 31 46 58 42 43 99 119 118 157
25 49 86 136 129 182 25 26 32 29 70 23 26 -4 48 -15 59 -29 18 -24 34 -151
23 -186 -11 -35 16 -172 37 -190 26 -21 88 -133 88 -157 0 -11 -5 -25 -12 -32
-10 -10 -8 -20 6 -46 17 -31 17 -35 2 -59 l-17 -25 65 -30 c48 -23 64 -35 60
-46 -7 -18 50 -138 77 -162 10 -9 19 -24 19 -31 0 -8 8 -26 19 -39 10 -13 25
-44 32 -68 8 -27 20 -47 31 -49 12 -3 18 -15 18 -32 0 -14 11 -38 25 -53 14
-15 25 -34 25 -44 0 -9 4 -19 9 -23 5 -3 12 -19 16 -35 4 -17 11 -30 16 -30 5
0 9 -6 9 -14 0 -8 7 -16 15 -19 8 -4 17 -26 21 -56 3 -27 14 -58 23 -68 21
-24 40 -63 44 -91 2 -12 9 -28 15 -34 7 -7 12 -24 12 -38 0 -14 6 -34 13 -45
22 -32 47 -115 47 -157 0 -27 4 -38 15 -38 21 0 19 -20 -2 -20 -16 -1 -16 -2
2 -16 14 -11 16 -18 7 -21 -8 -3 -5 -10 9 -22 20 -16 20 -18 5 -33 -20 -21
-20 -28 -1 -28 8 0 15 -8 15 -19 0 -10 7 -24 15 -31 21 -18 19 -32 -5 -25 -18
6 -19 4 -10 -20 13 -34 13 -95 0 -95 -5 0 -10 -8 -10 -17 1 -17 2 -17 15 1 7
10 18 15 24 11 7 -4 3 -14 -10 -28 l-20 -22 28 -23 c26 -21 27 -23 9 -34 -15
-8 -16 -12 -5 -20 11 -7 11 -11 2 -15 -20 -7 -15 -23 6 -23 11 0 23 -4 26 -10
3 -5 -1 -10 -9 -10 -9 0 -16 -4 -16 -10 0 -5 4 -10 9 -10 5 0 11 -28 14 -62 6
-76 28 -181 40 -189 5 -4 9 -27 9 -52 1 -25 4 -46 7 -45 19 2 20 -5 5 -27 -15
-23 -15 -25 1 -25 11 0 15 -5 11 -15 -3 -8 -1 -15 5 -15 6 0 9 -6 6 -12 -2 -7
2 -17 10 -23 7 -5 14 -29 15 -52 1 -30 6 -43 15 -43 12 0 11 -3 -1 -16 -20
-20 -21 -35 -1 -28 12 5 15 -2 15 -31 0 -28 5 -38 20 -42 22 -6 26 -18 10 -28
-16 -10 -12 -28 5 -21 9 3 15 0 15 -10 0 -8 7 -17 15 -20 9 -4 13 -13 10 -24
-4 -12 1 -19 16 -23 19 -5 20 -8 10 -21 -11 -13 -8 -19 15 -39 19 -16 27 -33
27 -55 0 -22 7 -33 24 -41 13 -6 22 -15 19 -19 -3 -5 3 -24 13 -43 10 -19 16
-40 13 -48 -3 -8 3 -20 13 -27 14 -11 16 -16 6 -28 -9 -11 -9 -15 1 -19 9 -4
7 -6 -4 -6 -26 -1 -32 -21 -12 -36 25 -19 3 -20 -48 -2 -46 16 -58 27 -32 28
10 1 1 5 -21 8 -29 4 -39 10 -37 22 1 10 -10 18 -35 25 -20 5 -39 15 -41 23
-3 8 0 11 7 7 7 -5 9 -1 5 8 -3 9 -10 16 -16 16 -5 0 -6 -4 -3 -10 3 -5 -1
-10 -9 -10 -9 0 -16 4 -16 9 0 5 -9 13 -20 16 -22 7 -27 30 -7 39 6 4 3 5 -9
2 -13 -2 -25 4 -33 15 -6 11 -19 19 -29 19 -15 0 -15 -2 -2 -11 12 -9 12 -10
-3 -5 -10 3 -23 6 -28 6 -5 0 -9 7 -9 15 0 8 -14 17 -35 21 -39 7 -58 -2 -35
-16 11 -7 9 -9 -8 -7 -16 1 -21 6 -16 19 7 22 -2 23 -23 2 -9 -8 -22 -13 -31
-9 -8 3 -34 10 -58 16 -24 6 -44 15 -44 20 0 5 -9 9 -19 9 -11 0 -23 5 -26 10
-3 6 -15 10 -25 10 -11 0 -24 9 -30 20 -6 11 -20 20 -30 20 -11 0 -19 6 -17
13 1 8 -8 11 -25 9 -16 -1 -28 2 -28 8 0 5 -7 10 -15 10 -8 0 -15 7 -15 15 0
8 -4 15 -10 15 -5 0 -24 13 -43 29 -18 16 -46 33 -61 37 -16 4 -31 17 -37 31
-6 16 -15 23 -27 21 -16 -3 -62 40 -62 59 0 5 -14 22 -31 39 -17 16 -38 43
-46 59 -9 17 -19 32 -22 35 -3 3 -14 21 -24 40 -9 19 -32 55 -51 80 -18 25
-31 49 -29 53 3 5 -4 11 -16 14 -12 3 -21 13 -21 24 0 13 -7 19 -21 19 -16 0
-19 4 -14 21 6 18 4 20 -13 15 -11 -4 -23 -2 -27 4 -3 5 1 10 10 10 28 0 11
22 -28 37 -35 14 -38 14 -55 -7 -14 -18 -24 -21 -43 -15 -25 8 -36 6 -32 -7 7
-19 -8 -6 -15 13 -8 19 -10 20 -24 5 -14 -13 -17 -13 -22 -1 -2 7 -23 19 -45
26 -23 7 -41 16 -41 21 0 5 -13 14 -30 19 -28 10 -44 49 -20 49 6 0 10 -7 10
-15 0 -8 5 -15 10 -15 7 0 7 7 0 20 -6 11 -18 19 -27 18 -11 -2 -19 6 -23 22
-5 20 -13 25 -38 27 l-32 1 0 -201 c1 -211 4 -229 45 -235 11 -2 25 -10 31
-18 6 -8 18 -14 26 -14 8 0 40 -25 71 -55 31 -30 64 -55 73 -55 9 0 18 -9 21
-21 4 -13 11 -18 21 -14 15 6 45 -12 38 -24 -2 -3 18 -19 45 -36 27 -16 52
-37 55 -47 3 -10 9 -18 14 -18 4 0 32 -16 61 -35 30 -19 59 -35 66 -35 6 0 15
-9 18 -20 3 -11 10 -20 14 -20 7 0 37 -23 95 -71 17 -14 56 -42 87 -62 31 -20
59 -43 63 -52 3 -8 12 -15 20 -15 8 0 23 -11 34 -25 11 -14 27 -25 36 -25 9 0
16 -4 16 -9 0 -5 10 -11 23 -13 12 -2 22 -7 21 -13 0 -16 104 -95 126 -95 5 0
25 -13 43 -30 19 -16 39 -30 44 -30 5 0 24 -16 43 -35 19 -19 40 -35 47 -35 7
0 13 -4 13 -10 0 -5 37 -34 83 -64 45 -30 91 -64 101 -75 11 -12 25 -21 32
-21 7 0 17 -6 21 -13 4 -7 18 -17 30 -22 23 -11 112 -84 155 -128 14 -15 41
-32 58 -39 23 -7 30 -15 27 -28 -3 -13 0 -16 14 -13 13 4 19 0 19 -11 0 -9 9
-21 20 -28 11 -7 20 -20 20 -29 0 -10 7 -16 17 -15 10 0 18 -4 18 -11 0 -6 12
-20 26 -32 35 -27 129 -167 129 -191 0 -13 9 -22 25 -26 16 -4 25 -13 25 -26
0 -22 30 -78 42 -78 4 0 8 -6 8 -13 0 -26 25 -67 41 -67 24 0 49 -33 49 -63 0
-15 4 -27 9 -27 13 0 75 -88 107 -152 15 -29 29 -55 33 -58 3 -3 14 -21 24
-40 17 -33 69 -113 135 -205 16 -22 39 -61 53 -87 l24 -48 582 0 c512 0 583 2
583 15 0 8 -9 15 -20 15 -13 0 -20 7 -20 20 0 13 -7 20 -20 20 -11 0 -20 4
-20 9 0 5 -14 11 -30 15 -21 4 -36 16 -48 37 -9 18 -25 39 -36 48 -68 58 -136
143 -136 171 0 5 -8 18 -17 28 -39 41 -53 63 -53 82 0 10 -6 23 -13 27 -7 4
-38 57 -67 117 -31 62 -69 122 -87 139 -18 16 -37 45 -43 63 -7 19 -16 34 -21
34 -5 0 -23 28 -40 63 -17 34 -40 74 -50 88 -10 14 -37 63 -61 109 -65 125
-68 130 -81 130 -7 0 -34 46 -62 102 -27 56 -67 127 -87 157 -21 30 -38 60
-38 67 0 6 -7 14 -15 17 -8 4 -26 25 -41 49 -15 24 -30 45 -34 48 -3 3 -14 32
-23 65 -9 33 -22 62 -28 64 -41 13 -139 162 -139 210 0 11 -9 26 -21 34 -20
15 -79 127 -79 152 0 7 -9 15 -20 18 -11 3 -20 14 -20 25 0 10 -9 27 -20 37
-15 14 -19 26 -15 46 4 17 1 32 -10 42 -8 9 -14 20 -13 24 3 13 -46 107 -62
120 -8 6 -16 16 -16 22 -1 6 -2 18 -3 26 0 8 -10 24 -22 36 -15 15 -19 28 -15
47 5 20 4 23 -4 12 -9 -13 -10 -13 -11 0 -1 8 -1 19 0 24 1 4 -3 14 -9 20 -5
7 -7 16 -3 19 3 4 -6 16 -21 28 -16 13 -26 30 -25 43 2 27 -27 94 -53 123 -11
12 -18 29 -15 37 4 9 -2 17 -14 21 -14 5 -19 13 -16 25 3 12 -2 20 -15 24 -17
4 -19 10 -14 39 5 26 3 36 -9 40 -10 5 -13 15 -9 36 5 21 0 40 -15 65 -16 25
-18 35 -9 39 9 4 9 6 -2 6 -22 1 -41 38 -34 66 4 15 2 25 -4 25 -15 0 -35 67
-30 105 2 22 0 31 -8 28 -14 -5 -27 24 -14 32 16 10 11 25 -5 18 -13 -4 -15 1
-9 36 5 28 2 46 -7 58 -11 13 -11 17 -1 20 19 7 14 23 -8 23 -23 0 -27 18 -5
26 21 9 19 21 -6 27 -16 4 -20 11 -16 26 3 12 2 19 -3 16 -4 -3 -10 5 -13 17
-4 12 -2 25 4 29 6 3 4 11 -6 19 -9 7 -14 19 -11 25 2 7 -2 22 -11 34 -8 12
-12 29 -9 37 3 9 -5 24 -21 38 -21 18 -24 26 -15 41 8 15 6 23 -7 35 -10 8
-22 26 -26 40 -7 23 -7 23 9 7 10 -9 23 -17 29 -17 7 0 0 11 -14 23 -14 13
-26 30 -27 38 -7 53 -15 90 -23 95 -5 3 -9 14 -9 25 0 10 -4 19 -10 19 -5 0
-10 -7 -10 -16 0 -8 -5 -12 -10 -9 -7 4 -7 13 0 26 7 13 7 19 0 19 -5 0 -10 8
-10 18 0 10 -5 23 -12 30 -9 9 -7 12 12 12 l25 0 -27 24 c-16 13 -28 28 -28
33 0 6 -7 25 -16 43 -12 23 -13 34 -6 39 8 5 4 13 -9 25 -18 15 -20 25 -15 57
6 39 -1 48 -21 28 -8 -8 -13 -8 -17 0 -4 6 -2 11 3 11 6 0 11 9 11 19 0 11 6
22 13 24 7 3 5 6 -5 6 -11 1 -18 9 -18 20 0 11 -5 23 -11 27 -6 3 -8 17 -4 31
4 19 2 23 -12 21 -13 -2 -17 3 -16 16 1 11 -5 25 -13 33 -8 8 -14 21 -14 29 0
8 -6 23 -12 34 -11 17 -10 22 2 30 13 9 13 11 1 19 -8 5 -11 16 -8 25 5 11 1
16 -14 16 -17 0 -18 3 -9 20 7 13 7 20 1 20 -6 0 -8 6 -5 14 3 9 -3 20 -15 28
-25 15 -29 40 -5 31 11 -4 15 -2 13 6 -3 7 -8 11 -12 9 -11 -5 -39 53 -33 69
3 7 0 12 -7 10 -8 -1 -11 10 -9 33 2 27 -3 43 -21 62 -14 14 -28 43 -31 63 -4
20 -13 38 -20 41 -8 3 -12 13 -9 23 3 13 -3 20 -19 25 -14 5 -18 9 -10 13 18
7 15 41 -7 54 -10 7 -16 20 -14 29 3 11 -3 19 -16 23 -15 3 -21 13 -21 31 0
14 -4 26 -10 26 -5 0 -10 11 -10 25 0 15 -7 39 -15 55 -8 16 -12 36 -9 44 4
11 1 16 -10 16 -9 0 -16 8 -16 20 0 19 -4 29 -32 83 -6 12 -13 47 -15 77 -2
30 -10 70 -19 89 -12 25 -13 35 -4 41 9 6 9 12 -1 27 -9 16 -10 40 -2 104 5
47 6 97 2 113 -5 17 -5 32 0 35 11 8 11 121 0 121 -12 0 -11 77 1 85 14 9 12
25 -3 25 -8 0 -21 -15 -31 -32z"/>
<path d="M3184 6354 c-55 -37 -62 -62 -24 -82 24 -13 23 -13 -16 -8 -55 8 -74
-12 -50 -49 33 -50 138 -27 120 27 -4 12 0 18 11 18 25 0 14 34 -13 38 -26 4
-29 20 -6 29 11 4 23 -2 34 -17 18 -23 18 -24 46 -5 27 17 27 19 9 29 -10 6
-29 20 -41 32 l-21 21 -49 -33z"/>
<path d="M1160 6288 c0 -10 119 -257 142 -295 13 -21 37 -72 52 -113 28 -75
197 -411 274 -545 l40 -70 167 -56 168 -56 -84 -6 c-46 -4 -108 -7 -136 -7
-29 0 -53 -3 -53 -8 0 -4 11 -24 25 -43 33 -50 65 -54 226 -29 74 11 148 22
164 25 17 2 91 0 165 -5 106 -7 155 -15 230 -39 114 -37 129 -37 183 -9 23 13
60 28 81 33 22 6 41 16 43 22 3 7 -4 9 -17 6 -12 -3 -25 -2 -29 3 -6 10 -34
17 -211 55 -165 35 -351 105 -515 192 -96 52 -125 71 -139 92 -9 13 -53 43
-98 67 -123 64 -317 228 -394 333 -16 22 -32 42 -36 45 -8 7 -22 60 -15 60 16
0 94 -40 106 -54 7 -9 17 -16 21 -16 4 0 51 -25 106 -55 54 -30 131 -64 169
-75 39 -12 86 -28 105 -37 88 -39 202 -72 253 -73 15 0 30 -7 33 -15 4 -10 13
-13 24 -10 10 3 29 0 44 -6 22 -10 29 -9 46 6 17 15 30 17 87 11 106 -10 133
-17 133 -32 0 -8 -7 -17 -15 -20 -23 -9 -18 -19 11 -22 36 -3 43 -9 37 -32 -3
-11 0 -20 6 -20 6 0 11 7 11 15 0 20 10 19 26 -2 12 -17 13 -16 14 4 0 15 -7
23 -22 26 -13 2 -2 5 23 6 30 0 49 6 52 15 6 15 64 33 215 67 98 22 104 24
109 51 3 16 11 27 17 25 17 -6 46 12 46 29 0 8 4 13 9 10 4 -3 16 3 25 13 15
16 15 19 -1 34 -11 9 -34 15 -61 14 -42 -2 -57 8 -24 16 15 3 15 5 -3 11 -58
22 -61 25 -27 25 17 1 32 5 32 11 0 5 -17 9 -38 8 -21 0 -49 6 -63 15 -18 12
-46 16 -100 16 -41 -1 -150 2 -244 6 -93 5 -196 7 -229 6 -32 -1 -64 3 -71 9
-7 6 -28 10 -46 9 -65 -1 -144 14 -168 32 -25 20 -51 25 -51 9 0 -5 -21 -2
-47 6 -27 9 -57 16 -68 15 -90 -3 -165 9 -235 37 -14 6 -64 22 -111 36 -47 14
-101 37 -120 50 -19 14 -60 39 -92 57 -31 17 -70 43 -85 57 -15 13 -37 34 -49
45 -13 11 -23 18 -23 15z"/>
<path d="M4858 5936 c-99 -41 -227 -135 -356 -263 -68 -67 -121 -114 -117
-105 4 9 11 32 17 50 21 75 99 210 144 252 25 23 43 45 39 48 -24 24 -242
-168 -424 -373 -35 -38 -58 -61 -53 -50 5 11 12 42 15 68 4 26 20 82 37 123
35 88 34 84 15 84 -40 0 -246 -245 -270 -320 -4 -11 -10 -20 -14 -20 -11 0 5
109 20 137 7 13 10 26 6 29 -13 14 -38 -8 -92 -83 -32 -43 -80 -101 -107 -129
-39 -41 -49 -56 -43 -73 4 -14 2 -21 -7 -21 -8 -1 -5 -6 7 -16 18 -13 20 -13
27 6 4 11 12 20 18 20 14 0 13 -17 -2 -23 -10 -4 -10 -6 0 -6 6 -1 12 -8 12
-16 0 -18 16 -20 26 -4 3 6 1 15 -6 19 -9 6 -9 12 1 28 18 28 48 36 42 11 -8
-28 24 -24 33 4 l8 22 6 -25 c4 -17 14 -26 30 -28 14 -2 35 -8 47 -14 12 -6
29 -8 37 -5 8 3 18 2 21 -3 8 -12 16 -12 34 -1 7 5 10 14 6 20 -5 9 -10 9 -21
0 -21 -17 -17 9 7 46 10 17 22 36 26 44 3 8 15 23 24 32 18 18 19 17 29 -19 5
-20 10 -44 10 -52 0 -8 12 -26 26 -39 23 -22 27 -23 41 -8 21 21 10 55 -12 37
-20 -17 -32 -5 -15 15 7 9 21 13 31 10 15 -5 18 -1 14 24 -4 33 10 43 19 14 3
-10 4 -4 2 13 -2 25 1 31 12 26 12 -4 14 1 8 23 -6 24 -5 27 7 17 11 -10 16
-7 25 13 6 14 20 25 29 25 16 0 16 2 3 11 -11 8 -12 12 -2 16 6 2 12 11 12 19
0 9 5 12 11 8 7 -4 10 -1 7 7 -6 17 22 50 35 42 6 -4 8 1 4 10 -4 11 -1 17 9
17 8 0 12 5 9 10 -3 6 -2 10 4 10 6 0 7 7 4 17 -4 11 -3 14 5 9 7 -4 12 -1 12
8 0 9 5 16 10 16 13 0 13 -17 1 -25 -5 -3 -19 -37 -31 -75 -12 -39 -24 -70
-27 -70 -3 0 -2 11 1 25 4 14 2 25 -4 25 -5 0 -10 -7 -10 -15 0 -9 -9 -35 -20
-57 -23 -48 -23 -48 -10 -48 6 0 10 7 10 15 0 8 5 15 10 15 12 0 13 -5 1 -28
-20 -37 -24 -60 -27 -141 -2 -69 1 -86 16 -101 30 -30 57 -34 70 -10 10 18 8
20 -17 21 -15 1 -31 1 -35 0 -12 -2 -9 9 6 25 19 18 30 18 22 -1 -3 -8 0 -15
5 -15 6 0 9 9 6 20 -3 13 3 26 19 39 13 10 24 23 24 29 0 5 7 12 15 16 8 3 15
1 15 -5 0 -6 5 -7 11 -3 8 5 8 9 -1 14 -7 4 -9 13 -5 20 4 7 2 16 -6 21 -7 4
-10 11 -7 15 4 3 15 -1 24 -10 19 -20 46 -18 51 4 4 13 3 13 -6 0 -8 -12 -13
-12 -30 5 -24 21 -20 35 4 15 13 -11 14 -8 11 19 -2 17 0 28 4 26 4 -2 16 5
26 16 16 17 16 22 4 29 -12 8 -11 10 5 10 14 1 28 18 47 58 31 64 70 115 142
183 28 26 46 51 42 58 -4 6 -2 9 6 6 12 -5 28 8 91 74 10 10 35 24 57 31 41
14 54 30 23 30 -10 0 -44 -11 -75 -24z"/>
<path d="M5142 5870 c-163 -86 -327 -208 -522 -389 -38 -35 -61 -49 -75 -46
-11 3 -14 2 -7 -1 17 -8 15 -17 -13 -50 -34 -40 -31 -56 3 -19 47 50 59 58 65
40 4 -8 3 -14 -1 -14 -19 3 -23 -2 -12 -16 9 -11 6 -21 -15 -52 l-27 -38 31
34 c17 19 34 32 37 28 4 -4 0 -15 -9 -25 -10 -10 -14 -22 -10 -25 3 -4 2 -7
-4 -7 -15 0 -23 -39 -11 -47 7 -4 4 -11 -7 -20 -11 -7 -15 -13 -11 -13 4 0 -5
-11 -20 -25 -19 -17 -31 -22 -39 -15 -15 12 -25 3 -25 -23 0 -15 3 -17 13 -8
8 6 17 8 21 4 3 -4 13 3 21 14 9 13 31 23 60 27 25 4 45 11 45 16 0 5 12 13
26 16 17 4 23 11 19 21 -4 11 -1 13 11 9 8 -3 18 -6 20 -6 3 0 2 -4 -1 -10 -3
-5 -1 -10 5 -10 6 0 8 10 4 26 -6 25 -5 26 25 19 26 -5 31 -4 31 12 0 14 2 15
9 4 7 -11 11 -10 20 5 6 11 11 15 11 11 0 -5 13 1 29 12 16 12 34 21 39 21 5
0 12 7 16 15 3 8 12 12 21 9 9 -4 12 -11 7 -20 -15 -26 -104 -114 -116 -114
-6 0 -5 6 4 13 8 7 24 24 35 37 l20 25 -20 -16 c-61 -49 -64 -53 -54 -65 7 -9
0 -23 -26 -51 -41 -45 -42 -51 -12 -55 14 -2 22 -10 22 -22 0 -22 92 -96 110
-89 7 2 15 -3 19 -12 4 -11 -2 -19 -19 -25 -25 -9 -35 -30 -15 -30 6 0 10 5
10 11 0 5 13 2 30 -8 17 -9 30 -20 30 -23 0 -3 18 -25 40 -50 25 -28 38 -51
34 -62 -3 -12 10 -29 46 -57 29 -23 55 -41 59 -41 4 0 37 -30 74 -67 63 -62
81 -93 55 -93 -6 0 -8 3 -5 6 3 4 -17 25 -45 48 -29 22 -66 53 -82 69 -42 38
-57 36 -36 -4 6 -10 20 -19 30 -19 11 0 20 -7 20 -15 0 -8 7 -15 16 -15 9 0
14 -5 12 -12 -7 -20 23 -46 48 -43 30 3 33 -25 4 -32 -36 -9 -17 -69 31 -97
16 -9 29 -23 29 -30 0 -16 58 -69 93 -84 15 -6 27 -16 27 -22 0 -6 5 -8 10 -5
6 3 10 14 10 23 0 9 16 27 36 40 l36 23 35 -40 c19 -23 41 -41 48 -41 19 0 55
49 48 66 -3 8 1 14 11 14 19 0 21 16 4 24 -9 4 -8 5 2 5 37 -3 49 2 44 15 -3
8 7 34 22 58 15 24 20 37 11 29 -20 -16 -22 -3 -3 21 7 10 16 15 19 11 4 -3 7
-2 7 4 0 17 -29 24 -51 13 -22 -12 -24 -21 -6 -39 10 -11 4 -13 -35 -9 -34 4
-51 1 -63 -11 -12 -12 -18 -13 -23 -4 -9 15 -105 35 -127 27 -8 -4 -15 -1 -15
6 0 6 5 8 10 5 6 -3 10 -2 10 4 0 5 21 24 46 41 33 22 45 26 40 14 -7 -18 19
-54 40 -54 7 0 15 14 19 30 8 36 14 37 50 8 20 -15 30 -18 33 -10 2 7 10 12
18 12 8 0 14 4 14 8 0 17 44 5 50 -13 5 -15 8 -16 15 -5 5 9 4 15 -3 18 -7 2
-12 8 -12 14 0 5 9 6 21 3 21 -7 21 -6 -2 17 -13 14 -27 21 -30 15 -4 -5 -11
-1 -17 9 -9 16 -11 17 -27 1 -9 -9 -21 -17 -27 -17 -6 0 -8 -11 -4 -26 6 -22
4 -25 -9 -20 -9 3 -19 6 -21 6 -2 0 -4 7 -4 16 0 9 -6 14 -13 11 -18 -7 -10
41 9 63 7 9 20 35 28 58 9 24 23 50 32 59 12 12 13 18 5 21 -9 3 -6 11 7 26
24 26 36 84 21 102 -21 26 -47 15 -79 -32 -18 -25 -35 -43 -38 -39 -4 3 0 10
7 14 8 5 9 11 4 14 -6 4 -16 -5 -23 -18 -7 -13 -18 -22 -23 -18 -6 3 -7 1 -3
-6 4 -6 0 -14 -8 -17 -9 -3 -16 -11 -16 -16 0 -6 8 -7 17 -4 14 6 14 4 -2 -16
-11 -13 -21 -25 -23 -28 -2 -3 -2 2 -1 10 4 17 -1 20 -32 20 -14 0 -19 -5 -16
-14 3 -8 -2 -20 -11 -28 -15 -11 -15 -11 -4 3 10 13 9 20 -6 40 -11 13 -22 31
-25 39 -3 9 -6 4 -6 -12 -1 -18 -9 -32 -23 -39 -13 -7 -26 -17 -30 -23 -4 -6
-10 -7 -14 -3 -9 9 25 47 43 47 8 0 11 5 8 10 -4 6 -11 8 -16 5 -5 -4 -9 0 -9
7 -1 9 -5 7 -14 -4 -10 -13 -15 -15 -24 -6 -7 7 -12 18 -12 25 0 14 12 17 24
6 13 -14 46 -9 63 9 9 10 23 18 32 18 12 0 12 3 3 12 -17 17 -15 28 4 28 8 0
12 5 9 11 -4 6 -13 8 -21 5 -8 -3 -14 -1 -14 4 0 5 9 11 19 15 23 7 36 35 17
35 -7 0 -19 7 -26 15 -19 23 25 68 57 60 18 -4 23 -1 23 14 0 11 6 22 13 25 6
3 -1 3 -18 -1 -16 -3 -38 -15 -47 -27 -10 -11 -18 -16 -18 -9 0 6 5 15 11 19
8 5 8 9 -1 14 -7 4 -9 13 -6 19 10 16 29 13 23 -3 -4 -11 4 -9 29 6 38 22 40
37 2 18 l-23 -11 23 20 c12 10 22 22 22 26 0 11 -44 -7 -77 -32 l-31 -24 -16
23 c-13 18 -20 21 -34 12 -9 -6 -18 -21 -20 -33 -2 -12 -10 -25 -18 -28 -8 -3
-14 -13 -14 -23 0 -19 -39 -60 -41 -42 -1 7 -2 18 -3 25 0 6 -11 13 -24 15
-13 2 -21 9 -19 15 2 7 11 11 21 9 9 -2 16 2 16 8 0 5 -5 10 -12 10 -9 0 -9 3
0 12 16 16 15 28 -2 28 -8 0 -18 -9 -21 -20 -3 -11 -13 -20 -21 -20 -8 0 -13
-9 -11 -22 1 -15 -3 -22 -11 -20 -8 1 -11 -2 -7 -8 3 -5 -5 -21 -19 -35 -15
-14 -26 -32 -26 -39 0 -19 -27 -39 -41 -30 -8 5 -7 9 5 16 9 5 16 14 16 20 0
7 -5 7 -14 -1 -11 -10 -14 -5 -13 28 1 24 6 42 15 46 8 3 11 12 7 25 -4 13 -2
20 8 20 7 0 20 11 27 25 7 14 17 25 22 25 4 0 8 7 8 15 0 8 7 15 16 15 12 0
15 7 10 28 -3 15 -3 21 0 15 9 -20 35 -16 27 4 -5 12 -2 15 10 10 12 -5 17 -1
17 13 0 13 5 18 15 14 9 -4 15 0 15 9 0 21 -33 14 -62 -12 -12 -12 -26 -21
-32 -21 -5 0 15 23 44 50 29 28 59 50 67 50 7 0 13 5 13 11 0 6 6 9 14 6 12
-5 32 20 23 29 -10 11 -283 -203 -279 -219 2 -5 -3 -14 -10 -18 -22 -14 -31
-10 -17 8 13 15 12 15 -9 2 -12 -8 -18 -15 -12 -17 18 -6 10 -18 -35 -50 -28
-19 -45 -27 -45 -18 0 7 3 16 7 20 4 3 8 12 9 19 6 35 36 87 46 81 7 -4 8 -3
4 4 -4 7 6 26 23 44 17 18 31 36 31 40 0 8 87 70 126 91 16 9 79 63 139 122
181 175 317 274 373 275 8 0 12 6 9 13 -2 7 -22 12 -49 11 -62 0 -213 -76
-508 -254 -247 -149 -313 -186 -345 -192 -11 -1 -26 -9 -33 -15 -17 -16 -42 5
-34 27 5 12 7 12 10 -2 4 -22 22 -24 22 -3 0 8 5 15 10 15 6 0 10 7 10 16 0
14 -2 15 -17 3 -24 -20 31 65 95 146 72 92 214 230 258 251 20 10 57 37 82 61
26 23 50 43 54 43 5 0 8 5 8 10 0 22 -49 7 -138 -40z m114 -992 c-9 -107 -11
-117 -25 -151 -14 -35 -14 -54 -1 -62 17 -10 11 -25 -10 -25 -11 0 -19 6 -17
13 1 6 -4 11 -10 10 -7 -2 -23 7 -34 18 -20 20 -21 25 -9 76 13 61 33 109 68
166 37 58 46 48 38 -45z"/>
<path d="M3195 5579 c-10 -29 -54 -67 -87 -74 -16 -4 -28 -11 -28 -16 0 -12
-58 -41 -69 -35 -5 3 -14 -1 -21 -9 -7 -8 -16 -13 -20 -10 -4 3 -10 -2 -13 -9
-4 -9 -23 -16 -48 -18 -25 -2 -44 -9 -47 -17 -3 -10 2 -13 22 -9 17 3 29 1 32
-6 5 -14 215 -22 213 -9 -4 22 3 32 21 30 11 -1 20 -3 20 -5 0 -2 -14 -33 -32
-69 -29 -60 -33 -64 -41 -45 -6 12 -15 22 -22 22 -15 0 -46 -33 -49 -52 -1 -7
-12 -28 -24 -45 -12 -17 -22 -37 -22 -44 0 -8 -7 -6 -20 6 -19 17 -21 17 -40
0 -11 -10 -20 -26 -20 -36 0 -10 -4 -21 -10 -24 -5 -3 -10 -15 -10 -26 0 -10
5 -19 10 -19 6 0 10 -5 10 -12 0 -9 -3 -9 -12 0 -19 19 -38 14 -38 -10 l-1
-23 -13 24 -14 24 -6 -21 c-4 -12 -12 -22 -17 -22 -5 0 -9 -7 -9 -16 0 -11 -6
-14 -20 -9 -26 8 -124 -39 -150 -72 -15 -20 -17 -29 -9 -45 13 -25 1 -39 -13
-15 -8 15 -17 17 -50 12 -59 -10 -106 -32 -113 -52 -7 -23 -122 -108 -156
-116 -21 -5 -32 -20 -52 -69 -14 -35 -31 -98 -38 -140 -14 -83 -13 -87 38
-236 32 -91 92 -160 203 -232 83 -53 100 -79 53 -81 -33 -1 -83 -8 -100 -14
-22 -7 -14 -29 22 -68 19 -20 35 -39 35 -42 0 -3 -16 -3 -36 1 -31 6 -36 4
-32 -12 2 -10 24 -34 50 -54 26 -19 47 -39 47 -45 1 -5 -13 -14 -29 -18 -17
-4 -34 -15 -37 -23 -7 -18 36 -65 86 -96 31 -20 33 -22 15 -35 -10 -7 -28 -13
-41 -13 -27 0 -29 -16 -8 -47 14 -20 17 -21 46 -6 23 11 50 14 103 11 77 -5
97 -14 231 -99 151 -97 260 -161 338 -201 44 -22 100 -59 126 -82 38 -36 65
-49 156 -78 187 -60 298 -81 501 -93 91 -6 106 -5 153 15 l51 23 80 -32 c43
-17 84 -31 89 -31 6 0 -3 -23 -20 -51 -45 -71 -49 -124 -14 -179 28 -45 24
-60 -19 -60 -11 0 -28 -7 -37 -16 -27 -24 -8 -51 44 -64 71 -18 69 -17 55 -40
-17 -27 -1 -41 56 -47 32 -4 47 -11 51 -23 14 -46 47 -70 128 -95 81 -26 97
-34 213 -117 80 -57 236 -192 251 -217 11 -17 8 -27 -22 -71 -42 -63 -101
-123 -124 -127 -9 -2 -43 -5 -76 -8 -70 -5 -155 -24 -171 -36 -6 -5 -18 -7
-26 -4 -9 4 -18 -1 -22 -10 -3 -10 -12 -15 -21 -11 -8 3 -15 2 -15 -2 0 -4
-24 -18 -52 -32 -89 -43 -188 -163 -188 -229 0 -34 26 -45 70 -32 43 13 82 59
41 48 -11 -3 -21 -1 -21 4 0 12 36 29 46 21 5 -4 2 1 -5 11 -10 12 -10 17 -2
17 7 0 9 4 6 10 -3 5 8 24 26 41 71 69 256 124 287 86 11 -13 9 -18 -15 -30
-15 -8 -39 -18 -53 -22 -46 -14 -118 -79 -164 -149 -66 -99 -73 -146 -22 -146
37 0 72 19 85 47 14 30 14 36 1 28 -19 -12 -32 7 -13 20 10 7 21 11 25 9 4 -3
34 17 68 44 62 51 127 78 160 67 17 -5 19 -12 13 -43 -13 -72 -9 -129 10 -150
40 -44 95 -75 122 -68 24 6 26 10 19 39 -3 18 -16 51 -27 75 -18 40 -19 48 -6
99 16 70 36 88 121 113 151 46 348 9 443 -82 29 -27 49 -38 70 -38 35 1 65 21
65 44 0 42 -129 146 -231 186 -30 12 -56 23 -58 25 -1 2 7 22 20 44 26 48 32
49 143 21 89 -23 119 -25 147 -10 46 25 -7 104 -78 116 -21 3 -46 12 -56 18
-16 12 -15 16 9 61 22 43 23 50 10 57 -17 10 -22 38 -6 38 5 0 7 -7 3 -16 -4
-12 -2 -15 8 -12 7 2 15 17 16 31 2 27 -5 33 -23 19 -5 -4 -1 0 8 10 20 18 14
48 -8 48 -8 0 -14 5 -14 11 0 5 4 8 9 4 5 -3 12 -1 16 5 3 5 1 10 -4 10 -6 0
-11 7 -11 15 0 9 -10 15 -26 15 -14 0 -23 4 -19 10 3 5 13 6 22 3 11 -4 14 -2
11 8 -6 16 -39 13 -50 -4 -4 -6 -10 -8 -14 -5 -9 10 19 35 34 30 6 -2 12 1 12
7 0 6 -10 11 -22 12 -13 0 -17 3 -10 6 15 6 -23 64 -41 62 -29 -3 -47 2 -47
14 0 16 -41 57 -57 57 -18 0 -36 29 -29 47 6 14 9 15 16 4 4 -8 6 -20 3 -28
-3 -7 -1 -13 4 -13 14 0 13 38 -1 49 -10 8 -21 7 -42 -4 -16 -8 -35 -15 -41
-15 -7 0 -13 -10 -14 -22 l0 -23 -10 23 c-5 13 -7 28 -3 33 3 5 -6 9 -20 9
-14 0 -26 4 -26 9 0 5 -11 8 -25 6 -14 -1 -25 2 -25 7 0 5 10 8 22 6 11 -2 23
3 25 10 3 7 -4 12 -17 12 -12 0 -18 4 -15 10 3 5 -1 22 -9 37 -8 16 -15 24
-16 20 0 -5 4 -16 9 -25 10 -19 -13 -61 -26 -47 -5 4 -2 10 5 12 17 6 15 18
-5 39 -13 13 -14 19 -5 22 6 2 12 9 12 15 0 8 -3 8 -11 0 -6 -6 -19 -8 -30 -6
-14 4 -18 11 -14 27 6 20 5 20 -9 2 -8 -10 -19 -15 -25 -11 -6 3 -11 2 -11 -4
0 -8 32 -24 53 -26 4 0 7 -3 7 -7 0 -5 0 -15 0 -23 0 -8 -4 -15 -10 -15 -5 0
-10 7 -10 15 0 8 -4 15 -10 15 -5 0 -9 -3 -7 -7 1 -5 -2 -8 -8 -8 -5 0 -9 9
-8 20 2 13 -1 10 -8 -7 -6 -16 -15 -28 -20 -28 -6 0 -7 5 -4 10 3 6 2 10 -4
10 -5 0 -11 -6 -14 -12 -8 -24 -19 1 -13 29 4 16 16 33 29 38 12 6 23 19 25
30 3 19 2 19 -11 3 -24 -31 -43 -21 -38 20 1 6 -3 12 -9 12 -5 0 -10 -6 -10
-12 0 -9 -4 -8 -10 2 -8 13 -10 12 -10 -2 0 -10 7 -18 16 -18 10 0 14 -5 10
-16 -4 -9 -2 -13 5 -8 7 4 10 2 8 -5 -3 -7 -8 -12 -12 -12 -4 1 -16 1 -27 1
-11 0 -20 5 -20 11 0 6 7 9 15 5 8 -3 15 -1 15 4 0 12 -36 14 -43 3 -2 -5 -2
-2 0 5 1 8 3 22 3 31 0 12 15 24 45 35 25 10 45 22 45 27 0 13 158 87 215 99
118 26 495 197 495 225 0 13 80 58 151 84 66 25 87 46 125 124 29 60 120 155
193 201 21 13 53 42 71 65 19 22 49 46 67 52 18 6 57 32 86 58 28 26 93 68
142 93 194 97 415 246 612 413 7 5 18 15 25 20 7 6 45 35 83 66 88 71 188 136
285 184 85 42 130 80 130 108 0 19 -1 19 -20 2 -14 -13 -28 -16 -51 -11 -25 5
-30 3 -25 -9 7 -20 -12 -30 -29 -15 -8 6 -19 9 -26 5 -8 -6 -8 -9 1 -15 7 -4
10 -13 6 -18 -9 -15 -36 -4 -30 12 3 7 -2 19 -11 26 -8 7 -15 19 -15 26 0 8
-7 14 -16 14 -11 0 -14 -6 -8 -22 4 -13 12 -26 18 -30 8 -5 7 -11 -1 -19 -10
-10 -15 -6 -22 15 -6 14 -22 31 -36 36 -30 11 -34 34 -5 25 14 -4 20 -2 20 9
0 8 -4 18 -10 21 -13 8 -13 25 0 25 6 0 15 -11 20 -25 8 -20 15 -24 32 -20 17
4 26 0 33 -16 14 -32 39 -39 30 -8 -4 13 -12 27 -17 30 -5 3 1 10 14 14 23 7
23 8 2 12 -12 2 -24 13 -27 24 -3 10 -13 19 -22 19 -9 0 -14 4 -10 9 3 6 -3
14 -12 20 -12 7 -14 10 -4 11 8 0 19 -7 26 -17 7 -9 17 -13 24 -9 9 6 9 11 0
22 -6 8 -9 18 -5 22 4 4 13 -1 20 -11 7 -9 23 -17 34 -17 25 0 52 -35 52 -67
0 -14 6 -23 15 -23 18 0 20 26 3 33 -7 3 2 8 20 12 17 4 32 12 32 17 0 6 -9 8
-21 5 -11 -3 -27 -3 -35 0 -17 6 -19 24 -1 22 34 -4 57 2 57 16 0 12 -4 13
-19 6 -21 -12 -31 -5 -31 19 0 10 -7 23 -15 30 -12 10 -15 9 -16 -6 0 -13 -5
-9 -15 14 -8 17 -19 32 -24 32 -6 0 -10 7 -10 15 0 17 -28 66 -44 77 -6 4 -7
10 -3 14 4 4 2 13 -4 21 -6 7 -8 13 -3 13 5 0 2 4 -6 10 -8 5 -12 12 -8 15 3
4 17 -1 31 -10 15 -9 28 -12 31 -6 3 5 16 7 29 3 21 -5 21 -4 6 14 -8 10 -23
32 -33 48 l-18 29 30 -6 c16 -3 43 -9 58 -13 21 -5 26 -3 19 4 -9 10 -36 18
-67 21 -12 1 -9 51 2 51 6 0 10 9 10 20 0 13 5 18 15 14 10 -4 15 0 15 11 0
32 35 12 38 -23 2 -17 8 -32 14 -32 7 0 7 -4 -1 -13 -11 -14 -6 -27 11 -27 4
0 8 40 8 89 0 84 -1 89 -20 84 -11 -3 -20 -1 -20 4 0 10 -43 33 -61 33 -5 0
-14 -12 -20 -27 -9 -24 -12 -26 -22 -13 -15 19 -67 14 -67 -6 0 -8 -4 -12 -10
-9 -5 3 -10 -3 -10 -14 0 -15 -7 -21 -22 -21 -13 -1 -36 -1 -51 -1 -20 -1 -40
-13 -63 -37 -27 -29 -37 -34 -43 -23 -12 19 -41 6 -41 -18 0 -26 -17 -36 -35
-21 -21 17 -47 4 -74 -37 -22 -34 -24 -35 -37 -18 -12 17 -15 17 -38 2 -14
-10 -33 -14 -43 -10 -17 6 -17 5 0 -14 9 -11 17 -22 17 -26 0 -8 -30 2 -48 16
-10 8 -8 15 12 34 31 28 60 82 75 141 9 32 17 42 32 42 15 0 19 -5 15 -16 -3
-8 -2 -12 4 -9 6 3 10 15 10 26 0 29 -44 24 -75 -8 -60 -64 -140 -220 -130
-253 4 -14 2 -20 -8 -20 -9 0 -17 5 -19 11 -2 7 -13 9 -26 5 -16 -6 -22 -15
-22 -37 0 -29 -2 -30 -32 -24 -18 4 -37 11 -41 15 -14 12 -47 -1 -47 -19 0 -9
-9 -22 -20 -29 -11 -7 -20 -21 -20 -33 0 -19 -1 -19 -22 -5 -12 9 -33 16 -45
16 -22 0 -22 1 11 44 18 24 47 83 64 130 18 47 43 108 57 136 29 58 30 60 11
60 -37 0 -127 -134 -176 -263 -28 -72 -30 -81 -16 -96 9 -10 13 -21 9 -25 -4
-4 -7 -19 -8 -34 0 -30 -17 -32 -69 -6 -16 8 -31 14 -32 14 -11 0 -32 -61 -27
-78 6 -26 4 -27 -33 -7 -35 18 -81 20 -87 3 -2 -7 0 -28 4 -46 8 -35 -9 -57
-18 -23 -4 15 -13 21 -34 21 -16 0 -29 -4 -29 -10 0 -20 -26 -9 -46 21 -13 18
-24 26 -28 20 -4 -6 -2 -11 3 -11 6 0 11 -7 11 -15 0 -9 7 -18 15 -21 17 -7
19 -32 6 -53 -8 -12 -12 -12 -25 -2 -8 7 -27 11 -43 9 -22 -2 -29 -9 -31 -30
-3 -25 -8 -28 -37 -28 -38 0 -58 -21 -71 -75 -4 -16 -14 -46 -22 -65 -9 -19
-14 -45 -13 -57 2 -17 -2 -20 -18 -16 -18 5 -20 11 -16 67 14 178 57 343 140
532 36 81 65 149 65 152 0 2 -13 2 -29 -1 -15 -3 -32 -2 -37 3 -6 6 -24 0 -47
-16 -28 -19 -40 -36 -49 -69 -7 -27 -19 -47 -30 -51 -20 -6 -24 -20 -6 -26 7
-3 9 -14 4 -32 -6 -24 -11 -27 -31 -22 -20 5 -25 3 -25 -14 0 -20 -25 -29 -32
-11 -1 5 -15 7 -30 4 -17 -3 -25 -10 -21 -19 3 -8 0 -14 -6 -14 -6 0 -11 -5
-11 -10 0 -7 7 -7 21 0 11 6 33 9 49 5 16 -3 31 -2 35 4 3 6 10 11 16 11 12 0
-20 -82 -39 -97 -9 -7 -13 -16 -9 -19 4 -4 3 -12 -2 -18 -5 -6 -11 -24 -13
-41 -2 -25 0 -29 16 -27 19 4 16 -8 -11 -40 -13 -14 -12 -20 6 -45 52 -70 34
-144 -46 -184 -65 -33 -103 -58 -103 -70 0 -5 23 -8 53 -5 28 2 52 5 52 6 0 5
100 14 155 13 137 0 190 -15 190 -53 0 -25 -9 -30 -37 -19 -15 5 -30 6 -37 1
-11 -9 -60 -21 -121 -29 -16 -2 -73 -6 -125 -7 -74 -3 -99 0 -112 11 -10 9
-25 13 -34 9 -10 -4 -21 -1 -25 6 -7 11 -12 11 -29 0 -22 -13 -54 -3 -63 20
-2 8 -8 9 -13 4 -5 -5 -4 -11 4 -13 6 -3 12 -11 12 -18 0 -25 38 -37 195 -61
22 -3 45 -9 50 -14 6 -4 20 -11 32 -14 18 -6 22 -4 17 8 -5 13 1 16 26 16 17
0 40 5 50 10 14 8 28 5 54 -11 20 -12 36 -25 36 -31 0 -5 5 -6 10 -3 6 4 7 11
4 17 -4 6 1 8 11 6 23 -4 32 -28 11 -28 -9 0 -16 -4 -16 -8 0 -5 -42 -8 -92
-8 -51 1 -98 -2 -104 -6 -6 -4 -20 -9 -32 -11 -12 -2 -24 -6 -28 -9 -3 -4 -30
-4 -60 -2 -61 6 -219 78 -208 96 4 6 0 14 -7 19 -10 6 -11 9 -1 9 6 0 12 5 12
10 0 6 -7 10 -15 10 -9 0 -15 -9 -15 -21 0 -19 -4 -21 -39 -16 l-39 5 16 -39
c15 -40 32 -52 32 -23 0 8 5 12 10 9 6 -4 8 -10 5 -15 -3 -4 2 -11 11 -14 12
-4 14 -1 9 14 -9 29 11 24 34 -8 11 -16 55 -53 98 -82 43 -29 99 -76 125 -103
31 -33 50 -47 59 -41 8 4 20 9 29 10 8 1 25 6 38 9 14 5 22 3 22 -5 0 -7 -7
-10 -15 -6 -18 7 -20 -15 -3 -32 9 -9 8 -12 -7 -12 -17 0 -17 -1 -2 -18 23
-25 21 -35 -5 -26 -23 7 -23 7 -4 -15 28 -31 8 -49 -28 -26 -14 10 -26 22 -26
28 0 6 -3 7 -6 4 -4 -4 -19 2 -34 13 -16 11 -33 20 -39 20 -6 0 -11 7 -11 16
0 8 -5 12 -11 8 -6 -3 -14 -3 -18 2 -3 5 -32 22 -63 37 -31 16 -59 35 -62 43
-3 8 -10 14 -16 14 -13 0 -6 -61 14 -116 9 -28 11 -46 4 -58 -7 -13 -5 -22 11
-35 12 -10 21 -23 21 -29 0 -6 4 -12 9 -14 4 -1 12 -13 15 -25 6 -17 3 -23 -8
-23 -9 0 -16 8 -16 17 0 15 -2 14 -15 -3 -19 -25 -19 -32 1 -30 9 0 19 -5 21
-11 7 -19 -22 -15 -40 5 -23 25 -21 36 6 56 20 14 21 16 5 26 -10 6 -18 16
-18 23 0 7 -15 37 -32 67 l-32 55 -8 -40 c-5 -22 -9 -47 -9 -56 0 -9 -10 -22
-22 -28 -15 -7 -16 -10 -5 -8 9 1 16 -2 15 -8 -1 -5 -5 -9 -9 -7 -5 1 -8 -2
-8 -6 0 -14 -69 -34 -93 -27 -17 5 -16 2 8 -14 22 -15 25 -21 13 -21 -10 0
-18 -4 -18 -10 0 -13 10 -12 39 4 17 9 20 15 11 21 -9 5 -2 12 20 21 39 17 40
17 40 4 0 -5 -6 -10 -14 -10 -8 0 -18 -5 -22 -12 -5 -8 -2 -9 9 -5 10 3 17 2
17 -3 0 -5 -10 -10 -22 -12 -13 -2 -23 -10 -23 -18 0 -8 -5 -18 -11 -22 -16
-11 -54 2 -54 18 0 17 -17 19 -22 3 -3 -8 -16 -6 -43 5 l-40 16 25 -21 25 -21
-30 6 -30 7 25 -21 c24 -21 24 -21 3 -15 -45 12 -22 -11 27 -29 28 -10 50 -22
50 -26 0 -5 -26 2 -57 14 -40 16 -57 28 -55 38 2 15 -26 34 -36 23 -3 -3 0 -5
6 -5 7 0 12 -5 12 -11 0 -6 -7 -9 -15 -5 -9 3 -15 0 -15 -9 0 -8 3 -14 8 -13
11 2 65 -22 60 -27 -2 -3 -34 6 -71 20 -37 13 -67 22 -67 19 0 -3 13 -10 29
-15 26 -9 29 -15 26 -41 -2 -17 -7 -33 -11 -37 -4 -3 -5 1 -1 11 4 12 -2 18
-21 23 -15 3 -36 9 -47 12 -17 5 -18 4 -6 -10 7 -9 16 -15 20 -13 4 3 13 1 21
-4 11 -7 10 -11 -3 -25 -14 -14 -22 -14 -57 -4 -34 10 -39 16 -34 32 5 17 4
18 -9 6 -14 -13 -13 -17 16 -41 l31 -26 -27 5 c-17 3 -27 1 -27 -7 0 -7 -7
-10 -16 -6 -11 4 -15 2 -11 -7 8 -22 -6 -35 -28 -26 -18 7 -18 8 5 9 14 1 19
4 13 7 -7 2 -13 13 -13 23 0 10 -10 20 -22 23 -29 8 -36 1 -9 -8 25 -8 28 -28
4 -21 -10 2 -28 7 -40 11 -14 4 -23 2 -23 -5 0 -6 4 -8 10 -5 6 3 10 0 10 -7
0 -13 -50 -19 -60 -8 -9 10 -77 40 -92 40 -8 0 -19 5 -26 12 -8 8 -12 8 -12 1
0 -6 26 -21 58 -33 31 -13 64 -32 72 -42 9 -11 23 -20 30 -21 8 -2 21 -6 29
-11 9 -6 12 -5 9 5 -3 8 -14 15 -26 17 -12 2 -22 8 -22 14 0 5 7 7 16 4 9 -3
22 -6 30 -6 8 0 14 -7 14 -15 0 -7 8 -19 18 -25 13 -9 9 -10 -23 -5 -75 10
-80 12 -83 28 -2 9 -13 19 -25 23 -12 4 -25 11 -28 16 -4 7 -9 7 -13 0 -3 -6
8 -15 24 -21 35 -12 41 -35 8 -27 -13 3 -8 -1 10 -9 17 -8 32 -20 32 -25 0
-13 -2 -13 -36 5 -16 8 -36 15 -44 15 -9 0 -20 4 -25 9 -6 6 -22 12 -37 15
-14 2 -35 9 -45 14 -12 7 -25 7 -34 1 -7 -5 -9 -9 -4 -10 13 -2 29 -5 35 -8 3
-2 13 -4 22 -6 61 -12 138 -43 138 -57 0 -5 -9 -4 -21 2 -16 9 -106 39 -116
40 -9 0 -1 -19 10 -23 6 -2 4 -3 -5 -2 -30 5 -20 -14 15 -29 26 -12 28 -15 10
-15 -12 -1 -24 3 -27 7 -2 4 -23 7 -45 5 -22 -1 -43 3 -47 8 -4 6 -14 3 -27
-8 -11 -10 -17 -13 -14 -6 4 7 -1 14 -13 18 -25 8 -15 29 11 22 14 -4 19 0 19
14 0 10 6 19 13 19 8 0 20 11 27 25 8 16 22 25 36 25 15 0 22 5 18 13 -3 9 3
13 18 13 14 -1 23 5 23 14 0 18 18 40 25 31 8 -11 133 -50 142 -45 4 3 8 12 8
20 0 8 5 14 11 14 7 0 9 10 7 25 -3 13 -1 26 5 28 6 2 2 15 -8 30 -10 15 -20
25 -23 22 -3 -3 3 -13 12 -24 10 -10 13 -22 8 -25 -12 -7 -58 32 -49 41 4 3 7
4 7 1 0 -3 19 13 43 34 53 50 83 67 74 44 -4 -11 -3 -15 4 -11 6 4 8 13 6 19
-3 7 8 27 24 44 16 17 29 36 29 42 0 6 8 14 19 18 14 5 17 12 10 30 -5 12 -15
22 -24 22 -20 0 -19 13 4 34 15 14 20 14 29 3 6 -7 9 -24 6 -38 -4 -17 -3 -20
4 -10 6 8 17 11 27 8 9 -4 14 -3 11 2 -7 10 30 24 57 21 9 -1 30 -8 45 -16 45
-23 49 -16 7 13 -51 34 -49 32 -42 40 4 3 18 -4 32 -17 14 -13 27 -21 30 -18
3 3 -13 18 -35 33 -48 33 -41 47 21 46 52 -1 69 -4 87 -15 22 -13 29 4 8 20
-26 18 -6 18 30 -1 20 -10 23 -15 12 -15 -10 0 -18 -4 -18 -10 0 -13 17 -13
26 1 3 6 15 9 25 6 11 -3 17 -1 13 4 -3 5 -12 9 -20 9 -8 0 -14 4 -14 10 0 5
-6 7 -14 4 -7 -3 -16 2 -20 11 -3 9 -2 13 4 10 6 -3 13 1 16 9 3 9 9 14 13 12
4 -3 13 0 21 5 11 8 7 9 -17 7 -18 -3 -30 -1 -27 4 3 4 12 8 20 8 8 0 14 4 14
9 0 13 -28 22 -35 11 -3 -6 -17 -5 -33 1 -18 7 -28 7 -30 0 -2 -6 -14 -8 -28
-5 -17 5 -23 2 -21 -7 2 -8 2 -11 0 -6 -7 11 -31 8 -36 -5 -3 -8 -6 -6 -6 5
-1 9 4 17 11 17 6 0 8 3 4 7 -4 4 -17 -4 -29 -18 -12 -14 -32 -24 -44 -23 -13
1 -23 -3 -23 -8 0 -5 -4 -6 -10 -3 -5 3 -10 1 -10 -4 0 -12 -23 -42 -60 -78
-39 -37 -153 -98 -158 -84 -3 9 -7 8 -16 -3 -6 -8 -29 -17 -51 -20 -22 -2 -40
-5 -40 -6 0 -1 -18 -3 -40 -6 -22 -2 -46 -7 -54 -10 -8 -2 -24 5 -37 17 -13
12 -30 19 -38 16 -10 -4 -16 -1 -16 7 0 8 7 17 16 20 22 8 24 8 24 -8 0 -8 7
-17 15 -20 23 -8 31 22 11 37 -16 12 -15 15 13 45 35 36 37 42 16 42 -8 0 -15
7 -15 15 0 8 7 15 15 15 8 0 15 -4 15 -10 0 -18 22 -10 27 10 4 14 14 20 33
20 15 0 38 8 51 19 13 10 30 16 37 14 6 -3 12 0 12 7 0 6 8 10 18 9 9 -2 27 3
40 9 12 7 26 11 31 8 5 -3 17 4 27 16 17 19 17 21 2 15 -28 -10 -51 2 -37 19
18 22 1 29 -21 9 -38 -35 -31 -7 10 35 22 23 40 45 40 48 0 4 -7 -1 -14 -10
-7 -10 -18 -18 -24 -18 -6 0 -15 -6 -19 -14 -9 -15 -53 -40 -59 -33 -3 2 2 10
11 17 8 7 15 17 15 23 0 6 -10 1 -23 -11 -13 -12 -30 -22 -38 -22 -12 0 -12 2
1 10 8 5 12 12 8 15 -3 3 -16 -7 -28 -22 -15 -19 -24 -24 -27 -15 -4 10 -9 8
-18 -5 -11 -14 -16 -15 -26 -6 -10 10 -15 9 -23 -1 -11 -14 -70 -27 -136 -30
-19 0 -39 -7 -43 -13 -15 -24 -29 -14 -23 15 4 15 28 47 54 71 45 42 46 44 17
37 -16 -4 -31 -12 -33 -17 -5 -14 -29 -11 -35 5 -3 8 -3 24 0 35 3 12 1 21 -5
21 -17 0 -24 -37 -12 -59 10 -19 8 -20 -22 -15 -49 8 -58 12 -58 24 0 6 10 8
25 4 35 -9 31 9 -6 23 -25 10 -31 9 -36 -3 -4 -11 -9 -12 -19 -3 -8 6 -25 8
-39 5 -18 -5 -25 -2 -25 9 0 8 -8 14 -17 13 -35 -3 -54 2 -48 12 3 6 0 10 -7
10 -8 1 -7 4 3 10 12 7 31 5 60 -6 24 -9 74 -16 112 -17 37 -1 63 0 57 1 -16
6 -1 22 21 22 10 0 19 4 19 8 0 5 6 9 13 9 22 0 120 51 153 80 18 16 61 54 97
86 51 45 71 57 87 52 12 -4 20 -2 20 5 0 6 -4 8 -10 5 -5 -3 -10 0 -11 7 0 7
-2 25 -4 41 -2 17 0 25 6 21 6 -3 17 3 25 15 12 17 19 19 35 11 13 -7 19 -7
19 0 0 5 -7 10 -15 10 -8 0 -15 5 -15 10 0 6 5 10 11 10 6 0 8 9 4 20 -5 14
-2 20 9 20 14 0 20 -12 17 -32 -1 -10 48 -22 57 -14 3 4 -4 9 -16 13 -13 3
-21 12 -20 21 2 9 -3 17 -11 17 -8 0 -16 6 -19 13 -2 8 2 10 14 5 12 -4 15 -3
10 5 -4 7 -3 12 1 12 10 0 43 -37 43 -48 0 -19 26 -62 38 -62 6 0 12 -7 12
-15 0 -8 -5 -15 -11 -15 -7 0 -6 -8 3 -22 8 -13 14 -34 13 -48 -1 -14 2 -31 8
-38 5 -7 7 -15 4 -18 -3 -3 -1 -18 4 -33 6 -14 12 -79 14 -144 4 -109 8 -152
22 -200 3 -13 8 -15 17 -8 7 6 17 7 22 3 4 -4 2 1 -6 11 -17 23 -21 59 -6 54
6 -2 10 -12 10 -21 -1 -9 2 -16 7 -16 13 0 10 23 -6 44 -22 29 -18 42 5 21 11
-10 20 -13 20 -8 0 6 -7 16 -15 23 -25 21 -17 32 10 14 14 -9 25 -12 25 -6 0
5 -6 12 -12 15 -7 3 -21 20 -31 38 l-18 34 19 -22 c31 -35 47 -27 18 8 -33 39
-34 63 0 25 14 -15 27 -26 30 -24 2 3 -9 20 -26 38 -30 32 -38 46 -20 35 14
-9 12 5 -5 35 -21 36 -18 46 6 24 16 -14 21 -15 17 -4 -2 8 -14 20 -26 26 -16
8 -19 13 -10 22 8 8 8 12 1 12 -14 0 -24 38 -12 46 15 9 10 24 -6 18 -8 -4
-15 -1 -15 5 0 6 5 11 10 11 6 0 10 4 10 10 0 5 -7 7 -15 4 -18 -7 -18 -4 -5
32 7 18 7 30 0 39 -5 6 -7 15 -3 18 3 4 -4 15 -15 26 -12 10 -22 25 -22 32 0
24 -31 61 -46 55 -20 -8 -53 15 -47 31 4 11 -1 12 -21 7 -16 -4 -26 -2 -26 5
0 6 5 11 10 11 6 0 10 5 10 11 0 14 -42 0 -58 -20 -11 -14 -11 -13 -2 7 6 12
15 22 20 22 6 0 10 4 10 10 0 5 -7 7 -15 4 -11 -5 -13 -2 -9 10 5 12 0 16 -19
16 -14 0 -29 -4 -32 -10 -3 -5 3 -10 14 -10 12 0 21 -6 21 -14 0 -18 -47 -9
-55 11 -3 9 2 21 12 29 10 7 13 14 7 14 -6 0 -14 -3 -18 -7 -14 -14 -58 -15
-54 -1 3 7 15 12 26 12 26 -2 29 11 5 20 -9 4 -20 2 -23 -5 -6 -8 -9 -8 -14 0
-4 6 -4 16 -1 21 3 6 -1 10 -10 10 -10 0 -15 7 -13 18 2 12 -5 18 -24 20 -20
2 -28 -1 -28 -12 0 -9 -7 -16 -15 -16 -8 0 -15 -5 -15 -11 0 -8 -4 -8 -14 0
-10 9 -20 9 -39 0 -18 -8 -30 -8 -46 0 -27 15 -20 27 18 36 16 3 32 13 35 21
6 17 5 17 -28 4 -14 -5 -26 -6 -26 -1 0 5 -14 11 -30 15 -26 5 -30 10 -28 32
2 17 -2 28 -12 31 -13 4 -13 3 0 -6 11 -8 11 -11 2 -11 -7 0 -15 7 -18 15 -4
9 -13 13 -24 10 -11 -3 -20 2 -27 17 l-11 23 1 -22 c1 -13 5 -23 9 -23 4 0 8
-7 8 -15 0 -8 5 -15 11 -15 6 0 17 -7 26 -16 14 -14 14 -16 -3 -30 -18 -13
-17 -13 7 -5 14 5 32 5 39 1 8 -5 18 -6 22 -4 4 3 8 -1 8 -9 0 -17 -28 -43
-36 -34 -3 3 -17 -6 -29 -21 -23 -26 -24 -27 -38 -7 -13 16 -17 17 -31 6 -20
-17 -20 -3 -1 23 20 26 19 36 -2 33 -10 -1 -19 3 -20 8 -2 6 2 10 9 10 6 0 13
6 16 13 2 7 -5 12 -17 12 -25 0 -26 6 -6 26 20 21 19 31 -5 37 -15 4 -18 10
-13 24 6 15 4 16 -8 6 -10 -8 -14 -27 -13 -55 1 -24 3 -43 4 -43 7 0 6 -67 -2
-71 -5 -3 -5 -11 2 -19 6 -7 7 -16 2 -19 -8 -5 11 -106 29 -151 8 -20 8 -20 8
1 1 11 12 31 25 43 l24 22 16 -22 c23 -33 20 -42 -8 -24 -16 11 -26 13 -31 5
-3 -5 1 -13 9 -16 9 -3 16 -11 16 -16 0 -6 -7 -8 -15 -4 -18 6 -18 5 -5 -29 8
-22 13 -24 30 -15 16 9 22 8 26 -5 5 -12 10 -11 25 9 23 30 59 25 59 -8 0 -12
5 -27 12 -34 9 -9 5 -12 -19 -12 -17 0 -33 -6 -36 -12 -3 -10 -9 -10 -23 -2
-15 8 -22 6 -40 -15 -18 -21 -25 -24 -35 -13 -7 6 -19 12 -26 12 -10 0 -10 -6
3 -25 15 -23 15 -25 0 -31 -9 -3 -23 -1 -31 6 -10 9 -15 9 -15 1 0 -6 3 -11 8
-11 15 0 95 -82 86 -88 -18 -13 -10 -47 12 -50 26 -4 104 -69 104 -87 0 -7 -7
-16 -16 -19 -22 -8 -26 -8 -19 3 3 5 1 12 -5 16 -6 3 -10 -3 -10 -16 0 -17 -3
-19 -14 -10 -11 9 -15 9 -18 -1 -4 -10 -11 -11 -36 -1 -18 6 -32 8 -32 3 0 -4
10 -10 22 -14 34 -8 9 -27 -44 -33 -32 -3 -52 1 -76 17 -18 11 -30 24 -27 29
3 5 1 12 -4 16 -5 3 -14 -3 -20 -12 -7 -12 -13 -14 -18 -7 -5 6 -16 13 -25 17
-12 4 -15 2 -11 -9 4 -10 -3 -14 -24 -14 -16 0 -34 5 -41 10 -9 7 -9 7 -2 -2
14 -16 13 -26 -2 -25 -7 1 -29 -7 -50 -17 -49 -25 -69 -16 -66 28 1 20 -1 38
-5 42 -4 4 -7 -7 -7 -24 0 -18 -5 -32 -11 -32 -7 0 -8 -7 -4 -17 12 -32 10
-38 -9 -38 -11 0 -21 -6 -24 -13 -6 -20 43 -14 111 13 76 31 89 32 150 11 27
-10 55 -15 63 -12 8 3 14 2 14 -3 0 -5 -11 -12 -25 -15 -31 -8 -33 -28 -2 -24
18 2 22 -1 19 -22 -1 -14 -7 -26 -12 -28 -20 -7 -9 -22 15 -22 33 0 34 -32 1
-49 -19 -11 -27 -10 -45 0 -11 8 -21 19 -21 26 0 7 -4 13 -10 13 -15 0 -12
-12 11 -36 l21 -22 -30 -16 c-41 -21 -88 -21 -96 1 -4 9 -2 21 4 27 17 17 11
23 -20 18 -29 -4 -30 -5 -14 -23 30 -33 2 -58 -56 -49 -21 3 -31 22 -18 37 8
10 5 13 -11 13 -11 0 -21 3 -21 8 0 12 60 42 85 42 13 0 26 4 29 9 7 11 46 2
46 -10 0 -5 12 -9 26 -9 14 0 23 4 19 10 -3 6 -15 10 -26 10 -10 0 -19 5 -19
10 0 6 11 10 24 10 14 0 28 5 32 11 3 6 20 9 36 7 36 -6 47 8 13 16 -17 4 -25
13 -25 27 0 17 -3 19 -14 10 -9 -7 -17 -8 -20 -2 -7 11 -86 2 -105 -13 -8 -6
-26 -16 -40 -23 l-26 -11 25 -1 c14 -1 32 -5 40 -11 12 -7 11 -10 -5 -16 -12
-5 -32 0 -55 14 -24 13 -41 17 -47 11 -12 -12 -82 16 -89 35 -5 12 -10 12 -32
0 -15 -8 -34 -14 -43 -14 -9 0 -19 -3 -22 -7 -10 -10 -54 -15 -132 -16 -82 0
-125 8 -125 26 0 13 32 49 65 72 19 14 19 14 -6 15 -29 0 -54 23 -44 39 3 6 0
8 -8 5 -14 -5 -44 22 -34 32 3 3 24 8 46 11 l41 6 0 56 c0 69 -17 99 -46 83
-18 -11 -18 -11 4 -12 21 0 22 -4 21 -56 -1 -31 -7 -57 -13 -59 -46 -14 -70
-16 -59 -5 9 9 8 22 -3 53 -11 30 -11 43 -3 53 8 10 8 18 1 27 -17 20 -4 52
29 71 28 16 32 16 54 2 14 -9 25 -21 25 -26 0 -15 34 -12 56 5 10 8 27 15 38
15 10 0 29 11 42 25 15 17 34 25 56 25 29 1 31 2 14 12 -18 10 -18 11 4 23 17
9 30 10 47 2 30 -13 22 -23 -45 -55 -60 -28 -72 -38 -71 -62 0 -9 3 -7 9 5 9
25 79 50 94 35 16 -16 25 -11 19 10 -5 17 0 20 30 20 20 0 39 -4 42 -10 4 -6
13 -5 25 2 25 16 17 27 -16 20 -26 -5 -48 13 -38 30 7 12 84 10 84 -2 0 -5 9
-10 21 -10 11 0 30 -5 41 -11 l21 -11 -24 -20 c-13 -11 -19 -17 -12 -14 17 9
35 -30 28 -57 l-7 -22 23 22 c22 21 22 23 6 36 -19 13 -14 47 7 47 22 0 36
-22 26 -40 -7 -13 -5 -22 5 -30 17 -14 20 -40 5 -40 -5 0 -10 -5 -10 -11 0 -6
8 -8 19 -4 13 4 25 -4 43 -32 14 -21 42 -47 62 -58 20 -11 36 -23 36 -27 0
-11 90 -50 103 -44 7 2 4 5 -6 5 -23 1 -240 218 -234 234 2 7 14 13 26 15 l22
4 -20 17 c-11 10 -17 22 -13 27 4 4 0 3 -10 -4 -20 -16 -36 2 -19 21 6 8 6 18
1 27 -5 8 -6 18 -4 22 3 4 -6 4 -20 -2 -31 -11 -47 7 -23 25 18 13 23 35 9 35
-5 0 -17 -9 -26 -19 -18 -19 -19 -19 -38 -1 -23 21 -19 33 21 53 25 12 30 12
51 -5 12 -10 31 -16 40 -13 13 4 19 -2 23 -23 7 -33 33 -48 53 -31 21 17 17
31 -5 19 -11 -5 -22 -10 -25 -10 -11 0 -6 19 10 34 14 14 18 14 40 -1 14 -9
23 -22 20 -29 -3 -8 -1 -14 3 -14 5 0 7 -9 4 -21 -3 -11 -11 -18 -18 -15 -16
6 -28 -21 -15 -29 6 -4 15 -3 20 0 13 8 42 -14 35 -25 -3 -5 0 -21 6 -36 8
-22 12 -25 19 -14 5 9 5 19 -2 28 -8 9 -8 16 0 24 9 9 17 7 32 -7 11 -10 23
-16 26 -12 3 3 -4 10 -15 17 -12 6 -21 17 -21 25 0 20 -16 19 -24 -2 -6 -15
-8 -15 -22 -1 -13 13 -14 20 -4 38 9 16 15 19 23 11 18 -18 29 -13 17 9 -6 10
-9 25 -8 32 2 7 -3 12 -9 11 -7 -2 -13 4 -13 12 0 8 -3 14 -7 14 -29 -5 -41 3
-36 21 6 23 14 25 31 8 9 -9 15 -9 24 0 9 9 7 12 -10 12 -13 0 -20 5 -16 13 2
7 -4 22 -16 32 -22 20 -40 14 -22 -8 9 -10 8 -18 -2 -32 -10 -14 -15 -15 -21
-5 -4 7 -2 16 6 21 11 6 10 9 -4 15 -9 3 -17 14 -17 24 0 10 -7 21 -16 24 -22
8 -24 8 -19 -6 3 -7 1 -20 -4 -28 -9 -12 -12 -12 -29 3 -30 27 -35 20 -13 -17
32 -50 27 -79 -8 -57 -12 8 -13 12 -1 25 11 14 10 16 -6 10 -10 -4 -24 -11
-31 -16 -7 -6 -18 -1 -32 13 -18 20 -23 21 -66 10 -36 -9 -50 -9 -61 0 -8 7
-17 9 -21 5 -3 -3 -1 -6 5 -6 23 0 12 -15 -20 -28 -18 -7 -41 -18 -50 -23 -10
-5 -23 -9 -30 -9 -7 0 -26 -7 -42 -15 l-28 -15 4 30 c4 25 1 30 -16 31 -15 0
-17 2 -6 6 8 3 18 10 21 15 3 5 18 -1 33 -13 24 -19 29 -20 44 -6 9 9 29 20
45 26 26 10 38 31 17 31 -5 0 -10 3 -10 8 0 10 112 9 128 -2 9 -5 18 -2 25 8
7 9 26 17 43 19 22 1 30 6 26 16 -4 11 3 13 36 9 31 -5 39 -3 36 7 -3 8 -1 22
5 33 8 16 6 21 -16 31 -39 18 -23 22 27 7 44 -13 74 -45 32 -34 -33 9 -47 -16
-18 -32 13 -7 27 -22 30 -34 4 -16 8 -18 17 -9 10 10 9 17 -5 32 -15 17 -15
20 -1 34 8 9 15 20 15 26 0 15 17 14 23 -1 2 -7 8 -10 12 -6 10 10 -49 68 -69
68 -9 0 -16 -7 -16 -16 0 -14 -2 -14 -15 0 -16 16 -20 27 -7 24 4 0 15 2 24 6
11 5 23 2 33 -8 9 -9 22 -16 29 -16 7 0 18 -10 25 -22 14 -27 21 -98 9 -98 -4
0 -5 -7 -2 -15 4 -8 1 -15 -5 -15 -6 0 -11 5 -11 11 0 5 -5 7 -12 3 -8 -5 -6
-11 7 -20 16 -12 21 -11 36 7 11 13 16 31 14 48 -2 14 -7 43 -10 64 -3 20 -10
37 -15 37 -6 0 -10 19 -10 41 0 36 2 40 15 29 12 -10 15 -9 15 8 0 11 6 23 13
26 6 3 3 4 -8 1 -27 -6 -49 9 -42 28 8 21 -21 27 -54 11 -15 -7 -29 -11 -33
-9 -3 3 -2 0 3 -6 5 -7 15 -8 23 -3 7 5 21 10 32 11 14 3 17 -1 13 -17 -3 -11
-2 -35 3 -54 9 -39 2 -41 -50 -10 -19 11 -43 23 -52 27 -11 4 -16 13 -12 24 5
17 5 17 -6 0 -9 -13 -15 -15 -25 -7 -16 13 -45 3 -39 -15 8 -21 -16 -29 -34
-11 -9 9 -12 16 -6 16 6 0 16 10 21 23 10 22 9 23 -18 19 -24 -4 -29 -1 -29
17 0 11 -4 21 -9 21 -12 0 -12 -37 2 -73 13 -35 8 -40 -31 -26 -21 7 -38 23
-48 45 -9 19 -24 34 -33 34 -14 0 -14 -2 -1 -10 8 -5 11 -12 7 -16 -4 -4 -15
0 -25 9 -15 16 -15 19 -2 28 12 9 12 10 -3 5 -10 -3 -24 -6 -30 -6 -8 0 -8 -3
0 -11 6 -6 9 -18 6 -25 -6 -16 -33 -19 -33 -4 0 6 5 10 11 10 8 0 8 4 0 13 -8
10 -7 17 2 26 10 11 7 12 -13 6 -33 -10 -37 -14 -21 -24 7 -5 12 -14 10 -20
-3 -8 -11 -6 -27 5 -17 11 -20 19 -13 28 7 9 7 16 -1 24 -17 17 -33 15 -19 -2
8 -10 9 -16 1 -21 -11 -7 -33 41 -25 55 3 4 -4 6 -15 3 -21 -5 -29 -25 -9 -21
6 2 14 -4 17 -12 4 -12 1 -12 -19 1 -131 86 -171 108 -219 119 -30 7 -63 16
-72 21 -10 5 -20 5 -23 -1 -8 -13 -25 -3 -25 15 0 15 38 17 58 2 8 -7 12 -5
12 7 0 9 5 16 10 16 6 0 10 5 10 11 0 5 -5 7 -10 4 -15 -9 -35 16 -38 48 -1
16 -4 33 -8 38 -16 26 -84 -8 -84 -42 0 -16 5 -19 20 -14 12 4 20 2 20 -5 0
-6 4 -9 9 -6 5 3 20 -3 32 -14 13 -11 19 -19 12 -20 -6 0 -15 5 -18 10 -5 8
-11 8 -20 0 -10 -8 -14 -7 -17 2 -4 11 -8 11 -20 0 -9 -7 -19 -9 -22 -4 -6 10
-36 10 -52 -1 -20 -12 -25 6 -7 25 22 24 4 68 -29 68 -29 0 -13 14 35 30 29 9
37 17 37 35 0 13 5 27 10 30 6 3 10 14 10 25 0 10 7 20 15 24 8 3 15 12 15 20
0 10 -13 13 -55 11 -30 -1 -55 2 -55 6 0 18 -19 8 -25 -12z m1477 -754 c-3
-18 0 -25 11 -25 8 0 18 -6 20 -12 4 -9 6 -8 6 3 1 8 -4 20 -10 26 -6 6 -8 16
-5 22 12 19 43 -22 42 -54 -1 -27 -4 -30 -36 -30 -19 0 -41 -4 -48 -9 -19 -12
-28 2 -15 23 10 16 9 20 -8 24 -10 3 -22 1 -25 -4 -3 -5 0 -9 7 -9 10 0 10 -3
1 -12 -9 -9 -15 -9 -24 0 -17 17 -51 15 -45 -2 4 -10 1 -13 -9 -9 -8 3 -14 -1
-14 -8 -1 -10 -4 -9 -14 3 -15 20 -26 14 -26 -14 0 -16 -3 -17 -20 -8 -26 14
-26 40 1 40 18 0 20 4 14 29 -5 25 -3 29 22 36 21 5 31 2 44 -14 10 -12 25
-21 36 -20 10 0 13 3 6 6 -7 2 -13 8 -13 13 0 12 42 20 59 11 9 -6 20 -4 29 5
18 19 20 18 14 -11z m2656 -12 c-1 -10 8 -38 20 -62 27 -54 27 -63 5 -59 -10
2 -18 12 -18 22 0 11 -6 21 -12 23 -15 5 -17 -23 -3 -32 6 -4 7 -11 4 -17 -4
-6 1 -17 10 -24 20 -14 13 -34 -11 -34 -9 0 -13 6 -9 15 3 9 -3 19 -14 25 -16
8 -20 8 -20 -4 0 -8 5 -18 10 -21 6 -4 8 -11 4 -16 -3 -5 -10 -7 -15 -3 -5 3
-7 10 -4 15 4 5 1 9 -5 9 -6 0 -16 12 -22 26 -12 25 -12 25 -20 5 -8 -22 -27
-29 -29 -11 -1 6 -2 14 -3 19 0 5 -4 12 -8 16 -4 4 -4 13 -2 20 3 7 0 23 -6
35 -9 17 -9 21 0 18 6 -2 12 -8 13 -13 3 -17 30 -44 39 -39 5 3 4 12 -2 19 -8
10 -8 15 0 20 6 4 17 -1 25 -11 7 -11 17 -15 22 -10 4 5 2 11 -4 13 -7 3 -13
11 -13 20 0 10 -6 12 -20 8 -11 -4 -20 -2 -20 4 0 6 9 11 19 11 11 0 22 6 24
13 4 7 8 3 12 -10 4 -13 11 -23 16 -23 5 0 9 -7 9 -15 0 -8 5 -15 10 -15 6 0
4 15 -5 36 -19 45 -19 44 4 44 13 0 19 -6 19 -17z m-340 -205 c8 -23 9 -35 1
-45 -14 -16 11 -19 28 -2 7 7 12 4 16 -10 4 -16 0 -21 -15 -21 -15 0 -18 -5
-13 -20 4 -11 2 -20 -4 -20 -6 0 -11 5 -11 10 0 6 -7 10 -16 10 -11 0 -14 -5
-10 -16 10 -27 -6 -38 -19 -14 l-12 23 -12 -22 c-8 -15 -18 -20 -30 -16 -12 3
-21 0 -25 -10 -9 -24 -29 -18 -23 7 3 12 1 30 -4 40 -7 13 -7 23 1 33 8 10 8
15 -1 21 -7 4 -15 2 -17 -4 -2 -7 -9 -12 -15 -12 -7 1 -1 10 12 21 17 14 27
17 35 9 18 -18 23 -11 20 26 -2 33 -1 34 12 17 12 -16 15 -16 23 -3 9 13 12
13 23 1 10 -11 10 -14 0 -18 -18 -7 -4 -23 19 -23 13 0 18 4 13 12 -4 7 -9 25
-11 40 -4 37 19 28 35 -14z m-3378 -23 c11 -13 9 -19 -10 -35 -22 -19 -24 -19
-42 -4 -17 16 -18 16 -18 -8 0 -17 -8 -28 -25 -36 -32 -15 -30 -15 -50 5 -14
14 -18 14 -26 2 -6 -9 -4 -18 6 -25 18 -14 20 -44 3 -44 -8 -1 -5 -6 5 -15 23
-17 19 -46 -9 -60 -18 -9 -19 -13 -8 -23 8 -7 14 -25 14 -39 0 -16 11 -39 27
-55 15 -15 21 -28 15 -28 -7 0 -12 -4 -12 -10 0 -5 8 -10 18 -10 10 0 28 -7
40 -16 20 -14 21 -17 8 -42 -8 -15 -23 -36 -35 -46 -18 -16 -25 -17 -50 -7
-16 7 -41 26 -57 42 -21 22 -37 29 -66 29 -39 0 -51 16 -22 27 9 3 32 22 52
41 32 33 33 36 17 48 -15 11 -16 18 -8 36 16 35 14 43 -7 40 -32 -5 -24 28 10
39 17 6 30 15 30 21 0 5 -3 7 -7 5 -12 -7 -53 11 -53 22 0 6 17 19 38 30 42
23 41 25 -7 11 -28 -8 -37 -6 -48 8 -16 18 -16 20 2 -65 7 -37 3 -41 -63 -48
-49 -4 -52 -3 -58 20 -8 32 -34 33 -34 1 0 -32 -14 -36 -136 -36 -76 0 -104 3
-105 13 -1 6 -2 21 -3 31 -1 11 -7 21 -13 23 -13 5 -18 -14 -14 -54 2 -22 -2
-23 -73 -23 -68 0 -75 2 -82 22 -4 13 -2 24 5 26 8 3 8 9 1 23 -17 31 -27 22
-34 -29 l-6 -48 -43 2 c-23 2 -73 4 -112 5 -38 1 -62 3 -52 6 9 2 17 11 17 19
0 19 16 18 24 -1 6 -17 36 -21 36 -4 0 5 -4 8 -9 5 -5 -3 -14 1 -21 9 -7 8
-18 15 -25 15 -8 0 -11 12 -9 38 l4 37 -16 -29 c-11 -20 -13 -31 -5 -39 15
-15 14 -27 -4 -27 -10 0 -14 9 -11 30 2 16 -1 31 -7 33 -7 2 -5 11 5 25 8 12
18 19 21 16 12 -13 57 6 56 24 0 10 -3 12 -6 5 -2 -7 -14 -13 -25 -13 -48 0
37 59 89 61 75 4 103 -13 112 -68 7 -45 27 -48 81 -15 l35 22 -45 0 c-45 0
-45 0 -18 14 27 14 68 11 68 -5 0 -5 9 -9 19 -9 12 0 24 -12 32 -30 12 -25 16
-27 29 -16 8 8 31 17 50 21 19 4 40 11 45 15 6 4 29 10 52 14 41 6 73 -9 73
-35 0 -5 5 -9 11 -9 6 0 9 6 6 14 -3 8 0 19 6 24 16 12 108 34 115 28 3 -3 10
-2 16 3 15 11 99 33 117 30 8 -1 21 1 29 4 87 38 132 44 150 22z m3398 -187
c-2 -7 -12 -19 -23 -26 -19 -12 -19 -12 4 -10 13 2 26 -3 28 -9 3 -7 -2 -13
-11 -13 -8 0 -17 -4 -20 -9 -9 -13 52 -7 66 7 9 9 9 12 -4 12 -9 0 -18 11 -20
25 -3 15 -1 25 6 25 18 0 36 -22 36 -42 0 -23 19 -23 35 -1 7 9 17 13 23 9 20
-12 14 -26 -15 -37 -21 -8 -24 -12 -13 -19 9 -5 19 -5 26 1 12 10 44 2 44 -11
0 -5 -16 -14 -36 -20 -34 -12 -38 -11 -55 11 -21 28 -36 20 -18 -10 7 -11 10
-23 7 -27 -13 -12 -38 5 -38 26 0 16 -7 20 -30 20 -23 0 -30 4 -30 20 0 24 -8
25 -34 5 -25 -19 -36 -19 -36 0 0 15 11 19 38 16 8 -1 12 7 10 26 -2 23 1 28
20 29 12 1 25 4 29 8 10 9 13 7 11 -6z m-3780 -78 c-2 -9 10 -45 27 -79 24
-51 27 -64 15 -71 -8 -5 -18 -6 -22 -4 -4 3 -8 1 -8 -5 0 -5 12 -11 28 -13 24
-3 28 -8 33 -46 3 -23 3 -44 1 -47 -3 -3 -29 -5 -57 -5 -53 0 -74 13 -88 53
-9 23 -27 22 -27 -3 0 -11 -6 -20 -12 -20 -7 0 -5 -5 5 -11 9 -5 17 -17 17
-24 0 -20 -29 -19 -36 0 -4 8 -13 15 -22 15 -13 0 -12 -3 4 -15 18 -14 18 -14
-8 -15 -18 0 -40 12 -64 36 -38 36 -57 33 -46 -8 4 -17 1 -19 -15 -14 -11 4
-32 2 -46 -3 -22 -9 -26 -7 -31 14 -4 16 -11 22 -21 19 -8 -4 -15 -1 -15 6 0
6 -6 10 -12 7 -8 -2 -12 -15 -10 -30 4 -31 3 -31 -30 -14 -14 7 -23 18 -20 25
3 11 -23 17 -56 13 -8 -1 -20 3 -28 10 -8 6 -14 8 -14 5 0 -4 -9 -2 -20 4 -45
24 -8 33 114 27 66 -3 130 -1 141 3 l20 9 -20 1 c-11 1 -27 2 -37 1 -9 -1 -19
2 -22 7 -3 5 3 8 12 8 9 -1 17 4 17 9 0 6 -8 9 -18 7 -14 -1 -17 3 -12 17 3
11 1 22 -5 26 -5 3 -10 17 -10 30 0 32 -10 56 -21 49 -5 -3 -9 -39 -9 -80 0
-82 -5 -87 -55 -54 -16 11 -38 20 -47 20 -11 0 -18 8 -18 18 0 10 -6 24 -12
31 -10 10 -10 15 -1 18 8 3 7 10 -5 24 -28 33 -38 23 -35 -38 4 -83 -4 -113
-30 -113 -20 0 -20 0 -1 15 15 12 16 14 3 15 -9 0 -16 6 -17 13 -4 46 -38 107
-60 107 -18 1 -59 27 -51 34 2 2 117 6 254 10 138 3 279 9 315 12 l66 6 -1
-43 c0 -24 3 -65 7 -91 7 -42 5 -48 -10 -49 -13 0 -11 -3 6 -9 15 -6 41 -5 75
3 l52 12 -38 3 c-34 3 -38 6 -33 25 3 13 -2 29 -14 42 -11 12 -20 39 -22 65
l-3 45 40 5 c51 7 67 2 63 -20z m2922 -205 c0 -14 4 -25 9 -25 9 0 24 -38 22
-54 -1 -5 6 -18 16 -29 18 -19 17 -19 -6 -12 l-24 7 22 -31 22 -31 -23 -1
c-16 -1 -18 -3 -6 -6 19 -5 33 -37 23 -53 -4 -6 -2 -17 5 -25 8 -9 8 -15 0
-20 -8 -5 -8 -11 1 -21 9 -11 9 -18 1 -26 -9 -9 -9 -15 0 -25 14 -17 4 -28
-17 -19 -10 4 -14 13 -11 24 4 12 -1 25 -14 37 -15 14 -17 22 -9 38 8 15 8 22
-2 28 -10 6 -7 10 11 18 l25 10 -24 0 c-17 1 -21 5 -17 17 4 9 2 13 -5 8 -7
-4 -9 0 -5 14 4 11 2 23 -4 27 -8 5 -8 11 1 21 7 9 8 14 1 14 -6 0 -13 10 -15
23 l-4 22 -8 -22 c-4 -13 -15 -23 -24 -23 -14 -1 -14 -2 0 -13 24 -19 31 -47
13 -54 -13 -5 -13 -8 2 -24 9 -11 12 -19 6 -19 -14 0 -42 40 -42 58 0 12 3 12
15 2 18 -15 19 -1 1 23 -7 9 -22 17 -32 17 -19 1 -54 22 -54 33 0 4 7 4 15 1
8 -4 15 -1 15 5 0 6 5 11 10 11 6 0 10 -9 10 -20 0 -11 6 -20 14 -20 9 0 12 8
8 25 -4 21 -1 25 21 25 23 0 25 3 23 40 -2 44 0 50 21 50 7 0 13 -11 13 -25z
m-1705 -95 c18 0 28 -32 13 -41 -9 -6 -8 -12 5 -27 9 -10 17 -24 17 -32 0 -9
3 -10 14 -1 7 6 35 13 62 16 45 5 47 4 30 -10 -11 -8 -25 -15 -32 -15 -7 0
-20 -7 -28 -16 -15 -14 -17 -14 -32 0 -8 9 -23 16 -32 16 -15 0 -15 -1 0 -16
15 -15 14 -18 -4 -36 -19 -19 -58 -17 -58 4 0 6 -9 8 -20 5 -26 -7 -26 8 0 26
19 13 18 15 -22 20 -23 3 -48 1 -54 -4 -8 -7 -14 -6 -19 1 -8 13 4 32 16 25 5
-4 9 -1 9 5 0 8 10 10 28 6 18 -4 22 -4 13 3 -18 12 -5 31 21 31 13 0 18 5 15
14 -7 18 13 38 31 31 8 -3 20 -5 27 -5z m-781 -146 c18 -7 22 -34 6 -34 -18 0
24 -49 42 -50 10 0 26 -9 37 -21 17 -19 20 -19 28 -4 7 12 17 14 36 10 15 -4
27 -10 27 -14 0 -4 6 -16 14 -27 14 -18 16 -18 28 -2 20 25 91 33 108 13 12
-15 11 -19 -8 -34 l-23 -17 31 -29 c16 -16 33 -25 37 -21 4 4 0 12 -10 17 -22
13 -22 28 1 45 23 18 48 17 77 -2 13 -9 32 -14 42 -11 15 3 15 5 -6 14 l-23 9
27 18 c18 12 37 16 56 12 16 -3 34 0 41 7 23 22 67 47 82 47 7 0 16 6 19 14 3
7 15 16 27 19 16 4 24 1 27 -14 5 -20 23 -27 23 -9 0 12 10 13 28 1 11 -7 12
-12 1 -29 -10 -16 -20 -19 -47 -15 -31 6 -34 4 -28 -15 6 -16 1 -24 -21 -35
-15 -8 -34 -12 -42 -9 -7 2 -16 -1 -20 -7 -4 -6 -25 -12 -47 -13 -21 0 -50 -7
-64 -14 -22 -11 -85 -27 -116 -29 -6 0 -19 -6 -28 -14 -10 -9 -28 -11 -52 -7
-25 5 -43 3 -60 -9 -14 -9 -29 -13 -34 -10 -5 3 -11 1 -15 -5 -10 -16 -45 -12
-52 6 -3 8 -12 13 -20 10 -17 -7 -67 40 -58 54 3 6 0 10 -7 10 -9 0 -9 3 2 10
12 8 9 10 -12 10 -29 0 -37 14 -15 24 6 4 1 4 -12 2 -19 -4 -22 -1 -19 18 3
16 0 22 -14 22 -10 0 -18 -4 -18 -8 0 -15 -33 -8 -45 9 -10 14 -16 15 -28 5
-19 -16 -97 -5 -104 14 -7 19 21 60 46 67 24 6 71 -27 71 -49 0 -19 6 -18 31
7 15 15 17 24 10 33 -7 9 -7 16 1 24 14 14 20 14 42 6z m1976 -121 c1 -22 34
-63 50 -63 6 0 2 12 -9 27 -12 14 -20 28 -18 29 9 9 57 -23 57 -38 0 -10 5
-18 10 -18 6 0 10 -5 10 -12 0 -6 7 -20 17 -30 9 -10 14 -21 11 -24 -3 -3 -18
7 -32 22 -14 16 -28 25 -32 21 -4 -4 0 -15 9 -25 10 -10 17 -22 17 -25 0 -14
-23 -7 -36 11 -11 14 -13 14 -13 2 0 -17 58 -85 65 -77 3 3 0 14 -7 26 -7 11
-11 22 -9 25 8 7 60 -6 60 -15 0 -5 -6 -8 -12 -6 -9 1 -12 -8 -10 -26 3 -26 1
-28 -20 -21 -31 9 -68 34 -68 45 0 5 -7 9 -15 9 -14 0 -14 -3 0 -24 9 -13 25
-26 36 -29 12 -3 18 -10 14 -16 -4 -8 -16 -6 -36 6 -47 28 -50 36 -30 76 19
37 19 38 0 48 -10 5 -19 14 -19 20 0 6 -7 17 -15 25 -17 17 -20 44 -5 44 6 0
10 -5 10 -12 0 -6 2 -9 5 -6 9 8 -6 38 -16 32 -5 -3 -9 0 -9 5 0 19 40 12 40
-6z m385 -73 c3 -5 1 -10 -4 -10 -19 0 -12 -28 9 -33 11 -3 20 -10 20 -16 0
-17 -15 -13 -35 9 -20 22 -45 27 -45 9 0 -6 9 -13 20 -16 10 -3 22 -14 25 -24
4 -11 10 -17 15 -14 5 3 12 0 16 -6 4 -6 -1 -16 -10 -21 -16 -9 -16 -12 -1
-34 15 -23 15 -25 -10 -34 -14 -5 -25 -14 -25 -20 0 -14 17 -13 23 3 4 9 8 8
16 -3 8 -11 6 -18 -6 -27 -9 -7 -12 -13 -5 -13 7 0 12 -7 12 -15 0 -20 -12
-19 -38 5 -12 12 -23 16 -27 10 -8 -14 3 -30 21 -30 8 0 14 -6 14 -14 0 -16
-70 -30 -84 -16 -7 7 0 10 18 10 18 0 26 4 23 13 -2 6 -13 11 -24 10 -11 -1
-29 7 -38 17 -20 22 -17 24 18 11 34 -13 41 -3 14 19 -27 22 -17 36 13 20 31
-17 37 -4 12 23 -26 28 -28 37 -5 37 15 0 15 1 0 18 -10 11 -13 23 -8 31 7 11
13 10 35 -4 14 -10 26 -13 26 -9 0 5 -13 18 -29 29 -16 10 -28 22 -25 26 2 4
0 10 -6 14 -16 10 -11 25 9 25 10 0 24 7 31 15 14 17 26 19 35 5z m-1509 -125
c8 -20 -13 -45 -37 -45 -21 0 -25 -15 -8 -26 7 -4 19 3 28 15 18 24 51 20 51
-6 0 -8 -4 -11 -10 -8 -6 3 -7 -1 -4 -9 7 -18 -21 -23 -31 -6 -9 15 -25 2 -25
-20 0 -16 -8 -17 -72 -14 -39 2 -76 8 -81 13 -14 14 3 33 24 28 11 -3 17 -1
13 4 -3 5 -2 13 1 19 8 12 45 -10 45 -27 0 -14 12 -17 23 -7 3 4 -4 15 -16 25
-22 18 -22 18 -2 33 11 8 27 13 36 10 11 -3 18 3 22 16 6 23 35 27 43 5z m250
-494 c5 -5 29 -11 54 -14 43 -6 153 -42 201 -67 42 -22 59 -42 58 -69 -1 -18
-3 -20 -6 -8 -3 13 -10 16 -26 11 -19 -6 -20 -5 -8 10 8 9 9 16 3 16 -6 0 -12
-5 -14 -12 -2 -6 -10 -8 -16 -4 -17 10 -15 26 4 26 8 0 12 5 9 10 -5 8 -11 7
-21 -1 -21 -17 -17 -38 10 -50 14 -7 22 -17 19 -25 -3 -8 -9 -11 -14 -8 -5 3
-7 10 -4 15 10 15 -12 10 -25 -6 -7 -9 -15 -13 -18 -10 -3 3 3 12 14 20 16 12
17 14 2 15 -9 0 -18 3 -21 8 -2 4 -3 2 -1 -4 1 -7 -15 -16 -37 -22 -32 -8 -39
-7 -39 5 0 9 6 13 14 10 16 -6 43 20 32 30 -4 4 -11 2 -15 -5 -4 -7 -12 -12
-17 -11 -24 4 -54 -15 -54 -35 0 -17 -2 -18 -10 -6 -9 13 -11 13 -20 0 -8 -12
-10 -11 -10 8 0 12 -5 21 -11 20 -6 -2 -14 3 -16 10 -3 8 1 10 11 6 9 -3 16
-1 16 6 0 6 -4 9 -10 5 -5 -3 -18 3 -29 14 -11 11 -21 15 -23 9 -5 -15 -48 0
-48 18 0 8 -4 14 -8 14 -5 0 -8 -10 -7 -22 1 -15 8 -22 19 -20 9 2 16 -2 16
-8 0 -5 -9 -10 -20 -10 -11 0 -20 -7 -20 -15 0 -8 -4 -15 -9 -15 -5 0 -7 21
-5 48 3 44 0 40 -12 -15 -3 -16 -12 -23 -29 -23 -19 0 -23 4 -18 17 4 11 3 14
-5 9 -22 -13 -12 -35 21 -45 26 -9 28 -10 6 -8 -14 1 -34 -6 -44 -16 -19 -20
-36 -18 -43 4 -4 11 -2 11 9 2 9 -9 16 -10 26 -2 20 17 16 28 -9 22 -21 -4
-22 -3 -5 10 22 18 24 62 1 53 -9 -3 -20 -6 -25 -6 -5 0 -9 -8 -9 -17 0 -11
-3 -14 -8 -7 -11 17 -52 24 -45 8 4 -11 -5 -14 -35 -12 -65 2 -62 26 9 70 24
15 27 15 43 0 17 -16 17 -16 14 8 -4 29 32 50 87 53 19 1 35 5 35 10 0 10 124
9 136 -2z"/>
<path d="M3476 5417 c-44 -41 -58 -67 -36 -67 6 0 10 -5 10 -11 0 -7 8 -17 17
-24 14 -11 19 -10 29 4 7 9 15 13 18 10 3 -3 -3 -15 -14 -27 -11 -12 -20 -23
-20 -25 0 -5 35 -17 69 -24 21 -4 23 -2 11 12 -7 9 -21 13 -31 10 -23 -8 -25
13 -5 40 13 18 14 18 25 -3 12 -23 46 -20 37 3 -5 14 14 25 45 25 21 0 25 21
9 51 -10 18 -40 27 -40 12 -1 -5 -11 -21 -24 -37 -20 -24 -26 -27 -45 -17 -25
14 -26 26 -6 65 32 60 14 61 -49 3z"/>
<path d="M6245 5067 c-39 -61 -125 -293 -125 -341 0 -11 9 -27 20 -34 18 -11
21 -9 30 12 5 14 21 44 35 67 37 57 60 145 78 293 3 29 -20 30 -38 3z"/>
<path d="M6418 4998 c-25 -46 -60 -111 -77 -145 -17 -33 -36 -63 -42 -65 -13
-4 15 -68 30 -68 23 0 112 155 150 265 26 73 27 95 3 95 -13 0 -33 -26 -64
-82z"/>
<path d="M3917 4483 c-4 -6 -28 -16 -53 -22 -38 -10 -49 -10 -55 1 -7 10 -9 8
-9 -5 0 -10 -6 -19 -12 -21 -7 -2 -34 -10 -61 -16 l-47 -13 2 -61 c2 -46 7
-61 18 -62 8 0 30 -7 48 -15 30 -14 31 -16 15 -30 -10 -9 -44 -24 -75 -34 -31
-10 -54 -23 -51 -28 3 -5 10 -4 16 2 6 6 19 11 28 11 9 0 42 11 72 25 l56 24
40 -32 c22 -18 40 -38 40 -44 1 -15 7 -15 36 -3 19 7 19 8 -5 18 -35 15 -82
48 -81 57 0 12 110 45 149 45 17 0 32 5 32 11 0 7 -12 9 -34 5 -20 -4 -37 -2
-41 4 -9 14 -25 12 -25 -3 0 -8 -22 -19 -54 -26 -52 -11 -57 -11 -108 15 -50
25 -52 27 -30 37 13 6 21 16 18 22 -6 16 13 35 34 35 13 -1 12 -3 -2 -14 -29
-21 -22 -26 38 -26 36 0 53 4 49 10 -4 6 -16 10 -27 8 -26 -4 -35 17 -11 25
10 4 26 12 36 19 12 9 22 10 34 2 26 -16 26 -30 1 -42 -23 -11 -23 -11 4 -11
45 -1 58 8 48 35 -7 18 -5 26 6 32 14 8 14 11 2 23 -8 8 -19 22 -25 33 -6 10
-13 14 -16 9z"/>
</g>
</svg>
