<?xml version="1.0" standalone="no"?>
<!DOCTYPE svg PUBLIC "-//W3C//DTD SVG 20010904//EN"
 "http://www.w3.org/TR/2001/REC-SVG-20010904/DTD/svg10.dtd">
<svg version="1.0" xmlns="http://www.w3.org/2000/svg"
 width="2560.000000pt" height="1440.000000pt" viewBox="0 0 2560.000000 1440.000000"
 preserveAspectRatio="xMidYMid meet">
<metadata>
Created by potrace 1.16, written by Peter Selinger 2001-2019
</metadata>
<g transform="translate(0.000000,1440.000000) scale(0.100000,-0.100000)"
fill="#000000" stroke="none">
<path d="M0 7200 l0 -7200 12800 0 12800 0 0 7200 0 7200 -12800 0 -12800 0 0
-7200z m8880 936 c87 -16 166 -53 245 -115 l55 -44 79 2 c97 2 204 -19 279
-56 87 -41 180 -140 230 -243 38 -77 43 -94 48 -185 4 -56 2 -124 -4 -155 -9
-49 -8 -57 9 -76 10 -11 19 -25 19 -31 0 -6 7 -16 15 -23 26 -22 72 -162 79
-240 20 -229 -136 -459 -369 -541 -47 -16 -52 -22 -87 -91 -85 -168 -280 -288
-470 -288 -129 0 -264 50 -350 131 l-40 37 -99 1 c-120 1 -173 13 -260 58
-213 110 -331 350 -275 560 13 49 13 53 -12 95 -14 23 -30 50 -37 58 -30 38
-64 142 -70 216 -15 172 49 335 177 452 44 41 153 101 181 102 35 0 54 19 87
87 44 89 153 200 234 238 74 36 170 63 221 64 22 0 74 -6 115 -13z m8405 -431
c83 -20 126 -42 185 -98 67 -63 93 -123 98 -223 3 -63 0 -93 -14 -131 -10 -26
-20 -50 -24 -53 -3 -3 -12 -18 -20 -35 -17 -34 -293 -310 -388 -388 -34 -28
-61 -58 -60 -65 3 -13 38 -15 223 -13 121 1 234 -2 250 -7 29 -8 30 -10 33
-80 5 -123 44 -113 -421 -110 l-402 3 -3 85 -3 85 178 177 c98 97 220 217 271
267 50 50 92 98 92 106 0 8 4 15 9 15 38 0 57 176 23 215 -103 121 -299 81
-318 -65 -3 -26 -9 -52 -13 -58 -10 -17 -201 -18 -212 -1 -20 32 7 158 48 226
80 130 276 192 468 148z m-6157 -15 c165 -18 294 -91 353 -200 13 -25 27 -47
30 -50 4 -3 14 -35 23 -71 22 -87 23 -445 1 -534 -41 -172 -157 -281 -340
-320 -91 -19 -584 -22 -603 -3 -17 17 -17 1159 0 1176 15 15 399 16 536 2z
m1133 -2 c15 -13 36 -65 138 -353 27 -77 59 -167 71 -200 12 -33 46 -127 75
-210 29 -82 74 -206 99 -274 35 -94 43 -127 35 -138 -14 -16 -180 -19 -208 -3
-11 6 -31 48 -51 112 -18 57 -38 109 -43 116 -7 9 -66 12 -232 12 -256 0 -223
16 -271 -134 -16 -49 -35 -95 -42 -103 -19 -18 -210 -19 -218 0 -2 7 18 78 46
158 28 79 67 189 86 244 19 55 37 107 40 115 8 18 63 171 109 300 78 221 125
343 136 356 15 19 208 20 230 2z m783 6 c14 -5 16 -58 16 -489 0 -390 3 -485
13 -494 9 -7 102 -12 273 -13 l259 -3 3 -89 c2 -65 -1 -92 -10 -98 -7 -4 -180
-8 -385 -8 -358 0 -373 1 -383 19 -13 26 -14 1119 0 1155 9 25 12 26 104 26
52 0 101 -3 110 -6z m958 4 c2 -2 5 -226 8 -498 l5 -495 270 -5 c149 -3 271
-7 273 -8 1 -1 2 -42 2 -91 0 -72 -3 -90 -16 -95 -28 -11 -762 -7 -769 4 -3 6
-6 270 -5 588 0 527 2 578 17 590 14 10 207 19 215 10z m1925 -15 c4 -10 7
-54 8 -98 l0 -80 -284 -3 c-189 -1 -289 -6 -298 -13 -18 -16 -19 -264 0 -276
6 -4 125 -8 264 -8 138 0 254 -3 258 -7 9 -8 7 -179 -1 -188 -3 -3 -119 -5
-257 -5 -139 0 -258 -4 -264 -8 -14 -9 -19 -249 -7 -281 5 -14 40 -16 288 -16
206 0 285 -3 294 -12 17 -17 16 -162 -2 -177 -9 -8 -127 -10 -417 -9 l-404 3
0 590 0 590 55 6 c30 3 214 6 408 7 327 2 353 1 359 -15z m-1095 -583 c114
-32 119 -199 8 -244 -50 -20 -73 -20 -114 -1 -48 23 -80 85 -71 141 12 86 86
129 177 104z"/>
<path d="M8740 8000 c-129 -11 -254 -102 -314 -230 l-31 -65 2 -288 1 -287 24
-20 c13 -11 26 -19 31 -20 4 0 25 -11 47 -25 47 -29 69 -32 71 -7 1 9 5 148 8
307 l6 290 111 67 c62 36 152 87 200 113 94 49 124 71 124 90 0 16 -128 73
-175 77 -22 2 -69 1 -105 -2z"/>
<path d="M9190 7826 c-25 -6 -92 -38 -148 -69 -56 -31 -107 -57 -112 -57 -6 0
-10 -4 -10 -8 0 -4 -19 -18 -42 -30 -24 -12 -70 -37 -103 -57 -33 -20 -67 -38
-77 -41 -21 -7 -28 -34 -28 -111 0 -108 8 -112 105 -53 36 22 68 40 70 40 3 0
42 23 86 50 44 28 82 50 83 50 2 0 42 23 90 50 48 28 98 50 113 50 25 0 105
-38 111 -52 2 -5 8 -8 13 -8 5 0 37 -18 73 -39 35 -22 95 -56 132 -77 38 -20
76 -43 85 -50 22 -19 47 -17 51 4 8 39 -11 142 -35 196 -28 62 -113 153 -168
181 -83 43 -199 56 -289 31z"/>
<path d="M8168 7581 c-62 -45 -131 -142 -154 -217 -51 -169 29 -352 197 -448
35 -20 71 -41 79 -46 8 -5 56 -33 105 -61 50 -28 115 -67 147 -85 31 -19 65
-34 77 -34 32 0 161 72 161 89 0 10 -42 39 -110 76 -61 33 -110 63 -110 67 0
4 -4 8 -10 8 -16 0 -228 122 -263 151 l-32 27 -5 253 c-3 164 -9 254 -16 256
-5 2 -35 -14 -66 -36z"/>
<path d="M9143 7508 c-13 -6 -23 -15 -23 -20 0 -4 -6 -8 -13 -8 -19 0 -87 -49
-87 -64 0 -7 17 -21 38 -33 20 -11 89 -52 154 -91 64 -39 133 -80 155 -92 79
-43 147 -88 160 -105 10 -15 13 -75 13 -267 0 -271 -2 -265 58 -234 43 22 136
126 160 179 51 110 50 220 -4 327 -41 83 -108 149 -204 201 -70 37 -226 127
-260 148 -29 19 -120 71 -122 70 -2 0 -13 -5 -25 -11z"/>
<path d="M8820 7314 c-41 -24 -89 -51 -107 -60 -38 -20 -43 -41 -43 -184 l0
-107 73 -40 c39 -22 90 -51 113 -63 l40 -24 112 64 112 63 0 134 0 133 -61 37
c-34 21 -80 50 -103 65 -22 15 -45 27 -51 27 -5 -1 -44 -21 -85 -45z"/>
<path d="M9220 6862 l0 -298 -27 -26 c-16 -14 -48 -37 -73 -50 -92 -51 -126
-71 -152 -89 -14 -11 -28 -19 -31 -19 -2 0 -39 -21 -81 -46 -53 -32 -76 -51
-74 -63 2 -9 30 -29 63 -45 174 -85 391 -16 499 158 49 79 56 131 56 411 l0
263 -27 22 c-55 42 -118 80 -135 80 -17 0 -18 -21 -18 -298z"/>
<path d="M9065 6824 c-28 -15 -62 -35 -76 -45 -15 -10 -37 -23 -50 -28 -13 -5
-61 -32 -107 -60 -46 -28 -85 -51 -87 -51 -2 0 -33 -18 -67 -40 -74 -46 -115
-51 -170 -17 -20 12 -88 51 -150 86 -62 36 -137 80 -167 98 -29 19 -60 32 -67
29 -18 -7 -18 -84 0 -154 30 -111 95 -187 207 -244 74 -37 86 -40 172 -41 84
-2 98 1 157 29 36 17 101 53 145 81 44 27 87 52 95 56 8 4 60 33 115 65 l100
59 5 84 c8 121 6 125 -55 93z"/>
<path d="M10825 7489 c-3 -8 -4 -187 -3 -399 l3 -385 135 -3 c143 -3 187 4
250 44 92 58 114 137 108 396 -4 151 -6 167 -30 219 -28 59 -65 93 -128 118
-51 20 -328 28 -335 10z"/>
<path d="M12144 7442 c-6 -4 -25 -52 -42 -107 -17 -55 -51 -162 -75 -237 -31
-96 -41 -140 -34 -147 7 -7 69 -11 160 -11 l150 0 -7 45 c-3 25 -17 78 -30
118 -13 40 -38 119 -56 177 -44 147 -54 170 -66 162z"/>
</g>
</svg>
